M48
; DRILL file {KiCad 9.0.9-9.0.9~ubuntu24.04.1} date 2026-09-02T16:55:19+0200
; FORMAT={-:-/ absolute / metric / decimal}
; #@! TF.CreationDate,2026-09-02T16:55:19+02:00
; #@! TF.GenerationSoftware,Kicad,Pcbnew,9.0.9-9.0.9~ubuntu24.04.1
; #@! TF.FileFunction,Plated,1,4,PTH
FMAT,2
METRIC
; #@! TA.AperFunction,Plated,PTH,ViaDrill
T1C0.300
; #@! TA.AperFunction,Plated,PTH,ComponentDrill
T2C0.700
; #@! TA.AperFunction,Plated,PTH,ViaDrill
T3C0.800
; #@! TA.AperFunction,Plated,PTH,ComponentDrill
T4C0.800
; #@! TA.AperFunction,Plated,PTH,ComponentDrill
T5C0.900
; #@! TA.AperFunction,Plated,PTH,ComponentDrill
T6C0.950
; #@! TA.AperFunction,Plated,PTH,ComponentDrill
T7C1.000
%
G90
G05
T1
X71.823Y-93.601
X82.985Y-84.66
X103.692Y-124.21
X109.609Y-124.98
X110.335Y-76.145
X110.398Y-110.58
X118.483Y-76.191
X120.467Y-76.875
X121.072Y-84.66
X139.191Y-84.66
X141.269Y-98.434
X141.325Y-90.42
X148.065Y-99.06
T2
X114.3Y-109.22
X116.84Y-109.22
T3
X53.526Y-87.753
X124.4Y-98.653
T4
X38.1Y-73.66
X43.18Y-73.66
X57.16Y-76.2
X57.16Y-78.74
X57.16Y-81.28
X57.16Y-83.82
X57.16Y-86.36
X57.16Y-88.9
X57.16Y-91.44
X57.16Y-93.98
X57.16Y-102.87
X57.16Y-105.41
X57.16Y-107.95
X57.16Y-110.49
X57.16Y-113.03
X57.16Y-115.57
X57.16Y-118.11
X57.16Y-120.65
X58.42Y-127.0
X60.96Y-99.06
X63.5Y-127.0
X66.04Y-99.06
X69.86Y-76.2
X69.86Y-78.74
X69.86Y-81.28
X69.86Y-83.82
X69.86Y-86.36
X69.86Y-88.9
X69.86Y-91.44
X69.86Y-93.98
X69.86Y-102.87
X69.86Y-105.41
X69.86Y-107.95
X69.86Y-110.49
X69.86Y-113.03
X69.86Y-115.57
X69.86Y-118.11
X69.86Y-120.65
X71.12Y-127.0
X76.2Y-127.0
X76.2Y-78.74
X76.2Y-81.28
X76.2Y-83.82
X76.2Y-86.36
X76.2Y-88.9
X76.2Y-91.44
X76.2Y-93.98
X76.2Y-96.52
X76.2Y-99.06
X76.2Y-101.6
X76.2Y-104.14
X76.2Y-106.68
X76.2Y-109.22
X76.2Y-111.76
X76.2Y-114.3
X83.82Y-127.0
X88.9Y-127.0
X96.52Y-127.0
X101.6Y-127.0
X101.6Y-78.74
X101.6Y-81.28
X101.6Y-83.82
X101.6Y-86.36
X101.6Y-88.9
X101.6Y-91.44
X101.6Y-93.98
X101.6Y-96.52
X101.6Y-99.06
X101.6Y-101.6
X101.6Y-104.14
X101.6Y-106.68
X101.6Y-109.22
X101.6Y-111.76
X101.6Y-114.3
X106.68Y-81.28
X106.68Y-83.82
X106.68Y-86.36
X106.68Y-88.9
X106.68Y-91.44
X106.68Y-93.98
X106.68Y-96.52
X106.68Y-99.06
X114.3Y-81.28
X114.3Y-83.82
X114.3Y-86.36
X114.3Y-88.9
X114.3Y-91.44
X114.3Y-93.98
X114.3Y-96.52
X114.3Y-99.06
X130.82Y-80.01
X130.82Y-82.55
X130.82Y-85.09
X130.82Y-87.63
X130.82Y-90.17
X130.82Y-92.71
X130.82Y-95.25
X130.82Y-97.79
X130.82Y-105.41
X130.82Y-107.95
X130.82Y-110.49
X130.82Y-113.03
X130.82Y-115.57
X130.82Y-118.11
X130.82Y-120.65
X130.82Y-123.19
X143.52Y-80.01
X143.52Y-82.55
X143.52Y-85.09
X143.52Y-87.63
X143.52Y-90.17
X143.52Y-92.71
X143.52Y-95.25
X143.52Y-97.79
X143.52Y-105.41
X143.52Y-107.95
X143.52Y-110.49
X143.52Y-113.03
X143.52Y-115.57
X143.52Y-118.11
X143.52Y-120.65
X143.52Y-123.19
X149.86Y-91.44
X149.86Y-96.52
X149.86Y-114.3
X149.86Y-119.38
T5
X33.02Y-124.46
X33.02Y-127.0
X38.49Y-124.46
X38.49Y-127.0
X43.96Y-124.46
X43.96Y-127.0
X48.26Y-73.66
X48.26Y-99.06
X49.43Y-124.46
X49.43Y-127.0
X50.8Y-73.66
X50.8Y-99.06
X114.3Y-116.84
X116.84Y-116.84
X119.38Y-101.6
X121.92Y-101.6
T6
X50.01Y-81.36
X50.01Y-83.86
X50.01Y-86.36
X50.01Y-88.86
X50.01Y-106.8
X50.01Y-109.3
X50.01Y-111.8
X50.01Y-114.3
X124.46Y-86.44
X124.46Y-88.94
X124.46Y-91.44
X124.46Y-93.94
X124.46Y-111.8
X124.46Y-114.3
X124.46Y-116.8
X124.46Y-119.3
T7
X29.26Y-95.08
X31.76Y-95.08
X34.26Y-95.08
X36.66Y-95.08
X39.16Y-95.08
X41.66Y-95.08
X109.22Y-73.66
X111.76Y-73.66
X114.3Y-73.66
X116.84Y-73.66
X119.38Y-73.66
X121.92Y-73.66
X124.46Y-73.66
X127.0Y-73.66
X129.54Y-73.66
X132.08Y-73.66
X134.62Y-73.66
X137.16Y-73.66
X139.7Y-73.66
X142.24Y-73.66
X144.78Y-73.66
X147.32Y-73.66
T7
X33.07Y-80.18G85X33.07Y-82.38
G05
X37.57Y-86.08G85X35.37Y-86.08
G05
X39.37Y-79.98G85X39.37Y-82.58
G05
M30
