G04 #@! TF.GenerationSoftware,KiCad,Pcbnew,9.0.9-9.0.9~ubuntu24.04.1*
G04 #@! TF.CreationDate,2026-08-19T10:20:23+02:00*
G04 #@! TF.ProjectId,robotArm,726f626f-7441-4726-9d2e-6b696361645f,rev?*
G04 #@! TF.SameCoordinates,Original*
G04 #@! TF.FileFunction,Legend,Top*
G04 #@! TF.FilePolarity,Positive*
%FSLAX46Y46*%
G04 Gerber Fmt 4.6, Leading zero omitted, Abs format (unit mm)*
G04 Created by KiCad (PCBNEW 9.0.9-9.0.9~ubuntu24.04.1) date 2026-08-19 10:20:23*
%MOMM*%
%LPD*%
G01*
G04 APERTURE LIST*
G04 Aperture macros list*
%AMRoundRect*
0 Rectangle with rounded corners*
0 $1 Rounding radius*
0 $2 $3 $4 $5 $6 $7 $8 $9 X,Y pos of 4 corners*
0 Add a 4 corners polygon primitive as box body*
4,1,4,$2,$3,$4,$5,$6,$7,$8,$9,$2,$3,0*
0 Add four circle primitives for the rounded corners*
1,1,$1+$1,$2,$3*
1,1,$1+$1,$4,$5*
1,1,$1+$1,$6,$7*
1,1,$1+$1,$8,$9*
0 Add four rect primitives between the rounded corners*
20,1,$1+$1,$2,$3,$4,$5,0*
20,1,$1+$1,$4,$5,$6,$7,0*
20,1,$1+$1,$6,$7,$8,$9,0*
20,1,$1+$1,$8,$9,$2,$3,0*%
G04 Aperture macros list end*
%ADD10C,0.150000*%
%ADD11C,0.100000*%
%ADD12C,0.120000*%
%ADD13C,0.200000*%
%ADD14C,1.600000*%
%ADD15R,1.600000X1.600000*%
%ADD16O,1.600000X1.600000*%
%ADD17C,1.400000*%
%ADD18R,1.800000X1.800000*%
%ADD19C,1.800000*%
%ADD20RoundRect,0.190500X0.762000X0.444500X-0.762000X0.444500X-0.762000X-0.444500X0.762000X-0.444500X0*%
%ADD21RoundRect,0.250000X-0.725000X0.600000X-0.725000X-0.600000X0.725000X-0.600000X0.725000X0.600000X0*%
%ADD22O,1.950000X1.700000*%
%ADD23O,1.900000X1.524000*%
%ADD24R,1.700000X1.700000*%
%ADD25C,1.700000*%
%ADD26R,2.000000X4.600000*%
%ADD27O,2.000000X4.200000*%
%ADD28O,4.200000X2.000000*%
%ADD29RoundRect,0.250000X-0.550000X-0.550000X0.550000X-0.550000X0.550000X0.550000X-0.550000X0.550000X0*%
G04 APERTURE END LIST*
D10*
X152834819Y-94146666D02*
X152358628Y-94479999D01*
X152834819Y-94718094D02*
X151834819Y-94718094D01*
X151834819Y-94718094D02*
X151834819Y-94337142D01*
X151834819Y-94337142D02*
X151882438Y-94241904D01*
X151882438Y-94241904D02*
X151930057Y-94194285D01*
X151930057Y-94194285D02*
X152025295Y-94146666D01*
X152025295Y-94146666D02*
X152168152Y-94146666D01*
X152168152Y-94146666D02*
X152263390Y-94194285D01*
X152263390Y-94194285D02*
X152311009Y-94241904D01*
X152311009Y-94241904D02*
X152358628Y-94337142D01*
X152358628Y-94337142D02*
X152358628Y-94718094D01*
X151834819Y-93289523D02*
X151834819Y-93479999D01*
X151834819Y-93479999D02*
X151882438Y-93575237D01*
X151882438Y-93575237D02*
X151930057Y-93622856D01*
X151930057Y-93622856D02*
X152072914Y-93718094D01*
X152072914Y-93718094D02*
X152263390Y-93765713D01*
X152263390Y-93765713D02*
X152644342Y-93765713D01*
X152644342Y-93765713D02*
X152739580Y-93718094D01*
X152739580Y-93718094D02*
X152787200Y-93670475D01*
X152787200Y-93670475D02*
X152834819Y-93575237D01*
X152834819Y-93575237D02*
X152834819Y-93384761D01*
X152834819Y-93384761D02*
X152787200Y-93289523D01*
X152787200Y-93289523D02*
X152739580Y-93241904D01*
X152739580Y-93241904D02*
X152644342Y-93194285D01*
X152644342Y-93194285D02*
X152406247Y-93194285D01*
X152406247Y-93194285D02*
X152311009Y-93241904D01*
X152311009Y-93241904D02*
X152263390Y-93289523D01*
X152263390Y-93289523D02*
X152215771Y-93384761D01*
X152215771Y-93384761D02*
X152215771Y-93575237D01*
X152215771Y-93575237D02*
X152263390Y-93670475D01*
X152263390Y-93670475D02*
X152311009Y-93718094D01*
X152311009Y-93718094D02*
X152406247Y-93765713D01*
X86193333Y-124934819D02*
X85860000Y-124458628D01*
X85621905Y-124934819D02*
X85621905Y-123934819D01*
X85621905Y-123934819D02*
X86002857Y-123934819D01*
X86002857Y-123934819D02*
X86098095Y-123982438D01*
X86098095Y-123982438D02*
X86145714Y-124030057D01*
X86145714Y-124030057D02*
X86193333Y-124125295D01*
X86193333Y-124125295D02*
X86193333Y-124268152D01*
X86193333Y-124268152D02*
X86145714Y-124363390D01*
X86145714Y-124363390D02*
X86098095Y-124411009D01*
X86098095Y-124411009D02*
X86002857Y-124458628D01*
X86002857Y-124458628D02*
X85621905Y-124458628D01*
X87050476Y-124268152D02*
X87050476Y-124934819D01*
X86812381Y-123887200D02*
X86574286Y-124601485D01*
X86574286Y-124601485D02*
X87193333Y-124601485D01*
X136408095Y-102324819D02*
X136408095Y-103134342D01*
X136408095Y-103134342D02*
X136455714Y-103229580D01*
X136455714Y-103229580D02*
X136503333Y-103277200D01*
X136503333Y-103277200D02*
X136598571Y-103324819D01*
X136598571Y-103324819D02*
X136789047Y-103324819D01*
X136789047Y-103324819D02*
X136884285Y-103277200D01*
X136884285Y-103277200D02*
X136931904Y-103229580D01*
X136931904Y-103229580D02*
X136979523Y-103134342D01*
X136979523Y-103134342D02*
X136979523Y-102324819D01*
X137931904Y-102324819D02*
X137455714Y-102324819D01*
X137455714Y-102324819D02*
X137408095Y-102801009D01*
X137408095Y-102801009D02*
X137455714Y-102753390D01*
X137455714Y-102753390D02*
X137550952Y-102705771D01*
X137550952Y-102705771D02*
X137789047Y-102705771D01*
X137789047Y-102705771D02*
X137884285Y-102753390D01*
X137884285Y-102753390D02*
X137931904Y-102801009D01*
X137931904Y-102801009D02*
X137979523Y-102896247D01*
X137979523Y-102896247D02*
X137979523Y-103134342D01*
X137979523Y-103134342D02*
X137931904Y-103229580D01*
X137931904Y-103229580D02*
X137884285Y-103277200D01*
X137884285Y-103277200D02*
X137789047Y-103324819D01*
X137789047Y-103324819D02*
X137550952Y-103324819D01*
X137550952Y-103324819D02*
X137455714Y-103277200D01*
X137455714Y-103277200D02*
X137408095Y-103229580D01*
X115403333Y-111594819D02*
X115070000Y-111118628D01*
X114831905Y-111594819D02*
X114831905Y-110594819D01*
X114831905Y-110594819D02*
X115212857Y-110594819D01*
X115212857Y-110594819D02*
X115308095Y-110642438D01*
X115308095Y-110642438D02*
X115355714Y-110690057D01*
X115355714Y-110690057D02*
X115403333Y-110785295D01*
X115403333Y-110785295D02*
X115403333Y-110928152D01*
X115403333Y-110928152D02*
X115355714Y-111023390D01*
X115355714Y-111023390D02*
X115308095Y-111071009D01*
X115308095Y-111071009D02*
X115212857Y-111118628D01*
X115212857Y-111118628D02*
X114831905Y-111118628D01*
X116355714Y-111594819D02*
X115784286Y-111594819D01*
X116070000Y-111594819D02*
X116070000Y-110594819D01*
X116070000Y-110594819D02*
X115974762Y-110737676D01*
X115974762Y-110737676D02*
X115879524Y-110832914D01*
X115879524Y-110832914D02*
X115784286Y-110880533D01*
X41904819Y-126468094D02*
X40904819Y-126468094D01*
X40904819Y-126468094D02*
X40904819Y-126229999D01*
X40904819Y-126229999D02*
X40952438Y-126087142D01*
X40952438Y-126087142D02*
X41047676Y-125991904D01*
X41047676Y-125991904D02*
X41142914Y-125944285D01*
X41142914Y-125944285D02*
X41333390Y-125896666D01*
X41333390Y-125896666D02*
X41476247Y-125896666D01*
X41476247Y-125896666D02*
X41666723Y-125944285D01*
X41666723Y-125944285D02*
X41761961Y-125991904D01*
X41761961Y-125991904D02*
X41857200Y-126087142D01*
X41857200Y-126087142D02*
X41904819Y-126229999D01*
X41904819Y-126229999D02*
X41904819Y-126468094D01*
X40904819Y-125563332D02*
X40904819Y-124944285D01*
X40904819Y-124944285D02*
X41285771Y-125277618D01*
X41285771Y-125277618D02*
X41285771Y-125134761D01*
X41285771Y-125134761D02*
X41333390Y-125039523D01*
X41333390Y-125039523D02*
X41381009Y-124991904D01*
X41381009Y-124991904D02*
X41476247Y-124944285D01*
X41476247Y-124944285D02*
X41714342Y-124944285D01*
X41714342Y-124944285D02*
X41809580Y-124991904D01*
X41809580Y-124991904D02*
X41857200Y-125039523D01*
X41857200Y-125039523D02*
X41904819Y-125134761D01*
X41904819Y-125134761D02*
X41904819Y-125420475D01*
X41904819Y-125420475D02*
X41857200Y-125515713D01*
X41857200Y-125515713D02*
X41809580Y-125563332D01*
X47374819Y-126468094D02*
X46374819Y-126468094D01*
X46374819Y-126468094D02*
X46374819Y-126229999D01*
X46374819Y-126229999D02*
X46422438Y-126087142D01*
X46422438Y-126087142D02*
X46517676Y-125991904D01*
X46517676Y-125991904D02*
X46612914Y-125944285D01*
X46612914Y-125944285D02*
X46803390Y-125896666D01*
X46803390Y-125896666D02*
X46946247Y-125896666D01*
X46946247Y-125896666D02*
X47136723Y-125944285D01*
X47136723Y-125944285D02*
X47231961Y-125991904D01*
X47231961Y-125991904D02*
X47327200Y-126087142D01*
X47327200Y-126087142D02*
X47374819Y-126229999D01*
X47374819Y-126229999D02*
X47374819Y-126468094D01*
X46470057Y-125515713D02*
X46422438Y-125468094D01*
X46422438Y-125468094D02*
X46374819Y-125372856D01*
X46374819Y-125372856D02*
X46374819Y-125134761D01*
X46374819Y-125134761D02*
X46422438Y-125039523D01*
X46422438Y-125039523D02*
X46470057Y-124991904D01*
X46470057Y-124991904D02*
X46565295Y-124944285D01*
X46565295Y-124944285D02*
X46660533Y-124944285D01*
X46660533Y-124944285D02*
X46803390Y-124991904D01*
X46803390Y-124991904D02*
X47374819Y-125563332D01*
X47374819Y-125563332D02*
X47374819Y-124944285D01*
X60793333Y-124934819D02*
X60460000Y-124458628D01*
X60221905Y-124934819D02*
X60221905Y-123934819D01*
X60221905Y-123934819D02*
X60602857Y-123934819D01*
X60602857Y-123934819D02*
X60698095Y-123982438D01*
X60698095Y-123982438D02*
X60745714Y-124030057D01*
X60745714Y-124030057D02*
X60793333Y-124125295D01*
X60793333Y-124125295D02*
X60793333Y-124268152D01*
X60793333Y-124268152D02*
X60745714Y-124363390D01*
X60745714Y-124363390D02*
X60698095Y-124411009D01*
X60698095Y-124411009D02*
X60602857Y-124458628D01*
X60602857Y-124458628D02*
X60221905Y-124458628D01*
X61174286Y-124030057D02*
X61221905Y-123982438D01*
X61221905Y-123982438D02*
X61317143Y-123934819D01*
X61317143Y-123934819D02*
X61555238Y-123934819D01*
X61555238Y-123934819D02*
X61650476Y-123982438D01*
X61650476Y-123982438D02*
X61698095Y-124030057D01*
X61698095Y-124030057D02*
X61745714Y-124125295D01*
X61745714Y-124125295D02*
X61745714Y-124220533D01*
X61745714Y-124220533D02*
X61698095Y-124363390D01*
X61698095Y-124363390D02*
X61126667Y-124934819D01*
X61126667Y-124934819D02*
X61745714Y-124934819D01*
D11*
X43721904Y-120122580D02*
X43721904Y-119313057D01*
X43721904Y-119313057D02*
X43674285Y-119217819D01*
X43674285Y-119217819D02*
X43626666Y-119170200D01*
X43626666Y-119170200D02*
X43531428Y-119122580D01*
X43531428Y-119122580D02*
X43340952Y-119122580D01*
X43340952Y-119122580D02*
X43245714Y-119170200D01*
X43245714Y-119170200D02*
X43198095Y-119217819D01*
X43198095Y-119217819D02*
X43150476Y-119313057D01*
X43150476Y-119313057D02*
X43150476Y-120122580D01*
X42531428Y-119694009D02*
X42626666Y-119741628D01*
X42626666Y-119741628D02*
X42674285Y-119789247D01*
X42674285Y-119789247D02*
X42721904Y-119884485D01*
X42721904Y-119884485D02*
X42721904Y-119932104D01*
X42721904Y-119932104D02*
X42674285Y-120027342D01*
X42674285Y-120027342D02*
X42626666Y-120074961D01*
X42626666Y-120074961D02*
X42531428Y-120122580D01*
X42531428Y-120122580D02*
X42340952Y-120122580D01*
X42340952Y-120122580D02*
X42245714Y-120074961D01*
X42245714Y-120074961D02*
X42198095Y-120027342D01*
X42198095Y-120027342D02*
X42150476Y-119932104D01*
X42150476Y-119932104D02*
X42150476Y-119884485D01*
X42150476Y-119884485D02*
X42198095Y-119789247D01*
X42198095Y-119789247D02*
X42245714Y-119741628D01*
X42245714Y-119741628D02*
X42340952Y-119694009D01*
X42340952Y-119694009D02*
X42531428Y-119694009D01*
X42531428Y-119694009D02*
X42626666Y-119646390D01*
X42626666Y-119646390D02*
X42674285Y-119598771D01*
X42674285Y-119598771D02*
X42721904Y-119503533D01*
X42721904Y-119503533D02*
X42721904Y-119313057D01*
X42721904Y-119313057D02*
X42674285Y-119217819D01*
X42674285Y-119217819D02*
X42626666Y-119170200D01*
X42626666Y-119170200D02*
X42531428Y-119122580D01*
X42531428Y-119122580D02*
X42340952Y-119122580D01*
X42340952Y-119122580D02*
X42245714Y-119170200D01*
X42245714Y-119170200D02*
X42198095Y-119217819D01*
X42198095Y-119217819D02*
X42150476Y-119313057D01*
X42150476Y-119313057D02*
X42150476Y-119503533D01*
X42150476Y-119503533D02*
X42198095Y-119598771D01*
X42198095Y-119598771D02*
X42245714Y-119646390D01*
X42245714Y-119646390D02*
X42340952Y-119694009D01*
D10*
X52264819Y-110883333D02*
X52979104Y-110883333D01*
X52979104Y-110883333D02*
X53121961Y-110930952D01*
X53121961Y-110930952D02*
X53217200Y-111026190D01*
X53217200Y-111026190D02*
X53264819Y-111169047D01*
X53264819Y-111169047D02*
X53264819Y-111264285D01*
X52264819Y-109978571D02*
X52264819Y-110169047D01*
X52264819Y-110169047D02*
X52312438Y-110264285D01*
X52312438Y-110264285D02*
X52360057Y-110311904D01*
X52360057Y-110311904D02*
X52502914Y-110407142D01*
X52502914Y-110407142D02*
X52693390Y-110454761D01*
X52693390Y-110454761D02*
X53074342Y-110454761D01*
X53074342Y-110454761D02*
X53169580Y-110407142D01*
X53169580Y-110407142D02*
X53217200Y-110359523D01*
X53217200Y-110359523D02*
X53264819Y-110264285D01*
X53264819Y-110264285D02*
X53264819Y-110073809D01*
X53264819Y-110073809D02*
X53217200Y-109978571D01*
X53217200Y-109978571D02*
X53169580Y-109930952D01*
X53169580Y-109930952D02*
X53074342Y-109883333D01*
X53074342Y-109883333D02*
X52836247Y-109883333D01*
X52836247Y-109883333D02*
X52741009Y-109930952D01*
X52741009Y-109930952D02*
X52693390Y-109978571D01*
X52693390Y-109978571D02*
X52645771Y-110073809D01*
X52645771Y-110073809D02*
X52645771Y-110264285D01*
X52645771Y-110264285D02*
X52693390Y-110359523D01*
X52693390Y-110359523D02*
X52741009Y-110407142D01*
X52741009Y-110407142D02*
X52836247Y-110454761D01*
X62748095Y-99784819D02*
X62748095Y-100594342D01*
X62748095Y-100594342D02*
X62795714Y-100689580D01*
X62795714Y-100689580D02*
X62843333Y-100737200D01*
X62843333Y-100737200D02*
X62938571Y-100784819D01*
X62938571Y-100784819D02*
X63129047Y-100784819D01*
X63129047Y-100784819D02*
X63224285Y-100737200D01*
X63224285Y-100737200D02*
X63271904Y-100689580D01*
X63271904Y-100689580D02*
X63319523Y-100594342D01*
X63319523Y-100594342D02*
X63319523Y-99784819D01*
X63748095Y-99880057D02*
X63795714Y-99832438D01*
X63795714Y-99832438D02*
X63890952Y-99784819D01*
X63890952Y-99784819D02*
X64129047Y-99784819D01*
X64129047Y-99784819D02*
X64224285Y-99832438D01*
X64224285Y-99832438D02*
X64271904Y-99880057D01*
X64271904Y-99880057D02*
X64319523Y-99975295D01*
X64319523Y-99975295D02*
X64319523Y-100070533D01*
X64319523Y-100070533D02*
X64271904Y-100213390D01*
X64271904Y-100213390D02*
X63700476Y-100784819D01*
X63700476Y-100784819D02*
X64319523Y-100784819D01*
X40473333Y-71594819D02*
X40140000Y-71118628D01*
X39901905Y-71594819D02*
X39901905Y-70594819D01*
X39901905Y-70594819D02*
X40282857Y-70594819D01*
X40282857Y-70594819D02*
X40378095Y-70642438D01*
X40378095Y-70642438D02*
X40425714Y-70690057D01*
X40425714Y-70690057D02*
X40473333Y-70785295D01*
X40473333Y-70785295D02*
X40473333Y-70928152D01*
X40473333Y-70928152D02*
X40425714Y-71023390D01*
X40425714Y-71023390D02*
X40378095Y-71071009D01*
X40378095Y-71071009D02*
X40282857Y-71118628D01*
X40282857Y-71118628D02*
X39901905Y-71118628D01*
X41044762Y-71023390D02*
X40949524Y-70975771D01*
X40949524Y-70975771D02*
X40901905Y-70928152D01*
X40901905Y-70928152D02*
X40854286Y-70832914D01*
X40854286Y-70832914D02*
X40854286Y-70785295D01*
X40854286Y-70785295D02*
X40901905Y-70690057D01*
X40901905Y-70690057D02*
X40949524Y-70642438D01*
X40949524Y-70642438D02*
X41044762Y-70594819D01*
X41044762Y-70594819D02*
X41235238Y-70594819D01*
X41235238Y-70594819D02*
X41330476Y-70642438D01*
X41330476Y-70642438D02*
X41378095Y-70690057D01*
X41378095Y-70690057D02*
X41425714Y-70785295D01*
X41425714Y-70785295D02*
X41425714Y-70832914D01*
X41425714Y-70832914D02*
X41378095Y-70928152D01*
X41378095Y-70928152D02*
X41330476Y-70975771D01*
X41330476Y-70975771D02*
X41235238Y-71023390D01*
X41235238Y-71023390D02*
X41044762Y-71023390D01*
X41044762Y-71023390D02*
X40949524Y-71071009D01*
X40949524Y-71071009D02*
X40901905Y-71118628D01*
X40901905Y-71118628D02*
X40854286Y-71213866D01*
X40854286Y-71213866D02*
X40854286Y-71404342D01*
X40854286Y-71404342D02*
X40901905Y-71499580D01*
X40901905Y-71499580D02*
X40949524Y-71547200D01*
X40949524Y-71547200D02*
X41044762Y-71594819D01*
X41044762Y-71594819D02*
X41235238Y-71594819D01*
X41235238Y-71594819D02*
X41330476Y-71547200D01*
X41330476Y-71547200D02*
X41378095Y-71499580D01*
X41378095Y-71499580D02*
X41425714Y-71404342D01*
X41425714Y-71404342D02*
X41425714Y-71213866D01*
X41425714Y-71213866D02*
X41378095Y-71118628D01*
X41378095Y-71118628D02*
X41330476Y-71071009D01*
X41330476Y-71071009D02*
X41235238Y-71023390D01*
X36434819Y-126468094D02*
X35434819Y-126468094D01*
X35434819Y-126468094D02*
X35434819Y-126229999D01*
X35434819Y-126229999D02*
X35482438Y-126087142D01*
X35482438Y-126087142D02*
X35577676Y-125991904D01*
X35577676Y-125991904D02*
X35672914Y-125944285D01*
X35672914Y-125944285D02*
X35863390Y-125896666D01*
X35863390Y-125896666D02*
X36006247Y-125896666D01*
X36006247Y-125896666D02*
X36196723Y-125944285D01*
X36196723Y-125944285D02*
X36291961Y-125991904D01*
X36291961Y-125991904D02*
X36387200Y-126087142D01*
X36387200Y-126087142D02*
X36434819Y-126229999D01*
X36434819Y-126229999D02*
X36434819Y-126468094D01*
X35768152Y-125039523D02*
X36434819Y-125039523D01*
X35387200Y-125277618D02*
X36101485Y-125515713D01*
X36101485Y-125515713D02*
X36101485Y-124896666D01*
X126714819Y-115883333D02*
X127429104Y-115883333D01*
X127429104Y-115883333D02*
X127571961Y-115930952D01*
X127571961Y-115930952D02*
X127667200Y-116026190D01*
X127667200Y-116026190D02*
X127714819Y-116169047D01*
X127714819Y-116169047D02*
X127714819Y-116264285D01*
X126714819Y-114930952D02*
X126714819Y-115407142D01*
X126714819Y-115407142D02*
X127191009Y-115454761D01*
X127191009Y-115454761D02*
X127143390Y-115407142D01*
X127143390Y-115407142D02*
X127095771Y-115311904D01*
X127095771Y-115311904D02*
X127095771Y-115073809D01*
X127095771Y-115073809D02*
X127143390Y-114978571D01*
X127143390Y-114978571D02*
X127191009Y-114930952D01*
X127191009Y-114930952D02*
X127286247Y-114883333D01*
X127286247Y-114883333D02*
X127524342Y-114883333D01*
X127524342Y-114883333D02*
X127619580Y-114930952D01*
X127619580Y-114930952D02*
X127667200Y-114978571D01*
X127667200Y-114978571D02*
X127714819Y-115073809D01*
X127714819Y-115073809D02*
X127714819Y-115311904D01*
X127714819Y-115311904D02*
X127667200Y-115407142D01*
X127667200Y-115407142D02*
X127619580Y-115454761D01*
X87854859Y-97916891D02*
X88664382Y-97916891D01*
X88664382Y-97916891D02*
X88759620Y-97869272D01*
X88759620Y-97869272D02*
X88807240Y-97821653D01*
X88807240Y-97821653D02*
X88854859Y-97726415D01*
X88854859Y-97726415D02*
X88854859Y-97535939D01*
X88854859Y-97535939D02*
X88807240Y-97440701D01*
X88807240Y-97440701D02*
X88759620Y-97393082D01*
X88759620Y-97393082D02*
X88664382Y-97345463D01*
X88664382Y-97345463D02*
X87854859Y-97345463D01*
X87854859Y-96964510D02*
X87854859Y-96297844D01*
X87854859Y-96297844D02*
X88854859Y-96726415D01*
D11*
X99768615Y-94339761D02*
X99873377Y-94387380D01*
X99873377Y-94387380D02*
X100030520Y-94387380D01*
X100030520Y-94387380D02*
X100187663Y-94339761D01*
X100187663Y-94339761D02*
X100292425Y-94244523D01*
X100292425Y-94244523D02*
X100344806Y-94149285D01*
X100344806Y-94149285D02*
X100397187Y-93958809D01*
X100397187Y-93958809D02*
X100397187Y-93815952D01*
X100397187Y-93815952D02*
X100344806Y-93625476D01*
X100344806Y-93625476D02*
X100292425Y-93530238D01*
X100292425Y-93530238D02*
X100187663Y-93435000D01*
X100187663Y-93435000D02*
X100030520Y-93387380D01*
X100030520Y-93387380D02*
X99925758Y-93387380D01*
X99925758Y-93387380D02*
X99768615Y-93435000D01*
X99768615Y-93435000D02*
X99716234Y-93482619D01*
X99716234Y-93482619D02*
X99716234Y-93815952D01*
X99716234Y-93815952D02*
X99925758Y-93815952D01*
X99244806Y-93387380D02*
X99244806Y-94387380D01*
X99244806Y-94387380D02*
X98825758Y-94387380D01*
X98825758Y-94387380D02*
X98720996Y-94339761D01*
X98720996Y-94339761D02*
X98668615Y-94292142D01*
X98668615Y-94292142D02*
X98616234Y-94196904D01*
X98616234Y-94196904D02*
X98616234Y-94054047D01*
X98616234Y-94054047D02*
X98668615Y-93958809D01*
X98668615Y-93958809D02*
X98720996Y-93911190D01*
X98720996Y-93911190D02*
X98825758Y-93863571D01*
X98825758Y-93863571D02*
X99244806Y-93863571D01*
X98144806Y-93387380D02*
X98144806Y-94387380D01*
X97411472Y-94387380D02*
X97201948Y-94387380D01*
X97201948Y-94387380D02*
X97097186Y-94339761D01*
X97097186Y-94339761D02*
X96992424Y-94244523D01*
X96992424Y-94244523D02*
X96940043Y-94054047D01*
X96940043Y-94054047D02*
X96940043Y-93720714D01*
X96940043Y-93720714D02*
X96992424Y-93530238D01*
X96992424Y-93530238D02*
X97097186Y-93435000D01*
X97097186Y-93435000D02*
X97201948Y-93387380D01*
X97201948Y-93387380D02*
X97411472Y-93387380D01*
X97411472Y-93387380D02*
X97516234Y-93435000D01*
X97516234Y-93435000D02*
X97620996Y-93530238D01*
X97620996Y-93530238D02*
X97673377Y-93720714D01*
X97673377Y-93720714D02*
X97673377Y-94054047D01*
X97673377Y-94054047D02*
X97620996Y-94244523D01*
X97620996Y-94244523D02*
X97516234Y-94339761D01*
X97516234Y-94339761D02*
X97411472Y-94387380D01*
X96520996Y-94292142D02*
X96468615Y-94339761D01*
X96468615Y-94339761D02*
X96363853Y-94387380D01*
X96363853Y-94387380D02*
X96101948Y-94387380D01*
X96101948Y-94387380D02*
X95997186Y-94339761D01*
X95997186Y-94339761D02*
X95944805Y-94292142D01*
X95944805Y-94292142D02*
X95892424Y-94196904D01*
X95892424Y-94196904D02*
X95892424Y-94101666D01*
X95892424Y-94101666D02*
X95944805Y-93958809D01*
X95944805Y-93958809D02*
X96573377Y-93387380D01*
X96573377Y-93387380D02*
X95892424Y-93387380D01*
X94949567Y-94387380D02*
X95159091Y-94387380D01*
X95159091Y-94387380D02*
X95263853Y-94339761D01*
X95263853Y-94339761D02*
X95316234Y-94292142D01*
X95316234Y-94292142D02*
X95420996Y-94149285D01*
X95420996Y-94149285D02*
X95473377Y-93958809D01*
X95473377Y-93958809D02*
X95473377Y-93577857D01*
X95473377Y-93577857D02*
X95420996Y-93482619D01*
X95420996Y-93482619D02*
X95368615Y-93435000D01*
X95368615Y-93435000D02*
X95263853Y-93387380D01*
X95263853Y-93387380D02*
X95054329Y-93387380D01*
X95054329Y-93387380D02*
X94949567Y-93435000D01*
X94949567Y-93435000D02*
X94897186Y-93482619D01*
X94897186Y-93482619D02*
X94844805Y-93577857D01*
X94844805Y-93577857D02*
X94844805Y-93815952D01*
X94844805Y-93815952D02*
X94897186Y-93911190D01*
X94897186Y-93911190D02*
X94949567Y-93958809D01*
X94949567Y-93958809D02*
X95054329Y-94006428D01*
X95054329Y-94006428D02*
X95263853Y-94006428D01*
X95263853Y-94006428D02*
X95368615Y-93958809D01*
X95368615Y-93958809D02*
X95420996Y-93911190D01*
X95420996Y-93911190D02*
X95473377Y-93815952D01*
X99768615Y-109339761D02*
X99873377Y-109387380D01*
X99873377Y-109387380D02*
X100030520Y-109387380D01*
X100030520Y-109387380D02*
X100187663Y-109339761D01*
X100187663Y-109339761D02*
X100292425Y-109244523D01*
X100292425Y-109244523D02*
X100344806Y-109149285D01*
X100344806Y-109149285D02*
X100397187Y-108958809D01*
X100397187Y-108958809D02*
X100397187Y-108815952D01*
X100397187Y-108815952D02*
X100344806Y-108625476D01*
X100344806Y-108625476D02*
X100292425Y-108530238D01*
X100292425Y-108530238D02*
X100187663Y-108435000D01*
X100187663Y-108435000D02*
X100030520Y-108387380D01*
X100030520Y-108387380D02*
X99925758Y-108387380D01*
X99925758Y-108387380D02*
X99768615Y-108435000D01*
X99768615Y-108435000D02*
X99716234Y-108482619D01*
X99716234Y-108482619D02*
X99716234Y-108815952D01*
X99716234Y-108815952D02*
X99925758Y-108815952D01*
X99244806Y-108387380D02*
X99244806Y-109387380D01*
X99244806Y-109387380D02*
X98825758Y-109387380D01*
X98825758Y-109387380D02*
X98720996Y-109339761D01*
X98720996Y-109339761D02*
X98668615Y-109292142D01*
X98668615Y-109292142D02*
X98616234Y-109196904D01*
X98616234Y-109196904D02*
X98616234Y-109054047D01*
X98616234Y-109054047D02*
X98668615Y-108958809D01*
X98668615Y-108958809D02*
X98720996Y-108911190D01*
X98720996Y-108911190D02*
X98825758Y-108863571D01*
X98825758Y-108863571D02*
X99244806Y-108863571D01*
X98144806Y-108387380D02*
X98144806Y-109387380D01*
X97411472Y-109387380D02*
X97201948Y-109387380D01*
X97201948Y-109387380D02*
X97097186Y-109339761D01*
X97097186Y-109339761D02*
X96992424Y-109244523D01*
X96992424Y-109244523D02*
X96940043Y-109054047D01*
X96940043Y-109054047D02*
X96940043Y-108720714D01*
X96940043Y-108720714D02*
X96992424Y-108530238D01*
X96992424Y-108530238D02*
X97097186Y-108435000D01*
X97097186Y-108435000D02*
X97201948Y-108387380D01*
X97201948Y-108387380D02*
X97411472Y-108387380D01*
X97411472Y-108387380D02*
X97516234Y-108435000D01*
X97516234Y-108435000D02*
X97620996Y-108530238D01*
X97620996Y-108530238D02*
X97673377Y-108720714D01*
X97673377Y-108720714D02*
X97673377Y-109054047D01*
X97673377Y-109054047D02*
X97620996Y-109244523D01*
X97620996Y-109244523D02*
X97516234Y-109339761D01*
X97516234Y-109339761D02*
X97411472Y-109387380D01*
X96573377Y-109387380D02*
X95892424Y-109387380D01*
X95892424Y-109387380D02*
X96259091Y-109006428D01*
X96259091Y-109006428D02*
X96101948Y-109006428D01*
X96101948Y-109006428D02*
X95997186Y-108958809D01*
X95997186Y-108958809D02*
X95944805Y-108911190D01*
X95944805Y-108911190D02*
X95892424Y-108815952D01*
X95892424Y-108815952D02*
X95892424Y-108577857D01*
X95892424Y-108577857D02*
X95944805Y-108482619D01*
X95944805Y-108482619D02*
X95997186Y-108435000D01*
X95997186Y-108435000D02*
X96101948Y-108387380D01*
X96101948Y-108387380D02*
X96416234Y-108387380D01*
X96416234Y-108387380D02*
X96520996Y-108435000D01*
X96520996Y-108435000D02*
X96573377Y-108482619D01*
X95368615Y-108387380D02*
X95159091Y-108387380D01*
X95159091Y-108387380D02*
X95054329Y-108435000D01*
X95054329Y-108435000D02*
X95001948Y-108482619D01*
X95001948Y-108482619D02*
X94897186Y-108625476D01*
X94897186Y-108625476D02*
X94844805Y-108815952D01*
X94844805Y-108815952D02*
X94844805Y-109196904D01*
X94844805Y-109196904D02*
X94897186Y-109292142D01*
X94897186Y-109292142D02*
X94949567Y-109339761D01*
X94949567Y-109339761D02*
X95054329Y-109387380D01*
X95054329Y-109387380D02*
X95263853Y-109387380D01*
X95263853Y-109387380D02*
X95368615Y-109339761D01*
X95368615Y-109339761D02*
X95420996Y-109292142D01*
X95420996Y-109292142D02*
X95473377Y-109196904D01*
X95473377Y-109196904D02*
X95473377Y-108958809D01*
X95473377Y-108958809D02*
X95420996Y-108863571D01*
X95420996Y-108863571D02*
X95368615Y-108815952D01*
X95368615Y-108815952D02*
X95263853Y-108768333D01*
X95263853Y-108768333D02*
X95054329Y-108768333D01*
X95054329Y-108768333D02*
X94949567Y-108815952D01*
X94949567Y-108815952D02*
X94897186Y-108863571D01*
X94897186Y-108863571D02*
X94844805Y-108958809D01*
X99768615Y-89339761D02*
X99873377Y-89387380D01*
X99873377Y-89387380D02*
X100030520Y-89387380D01*
X100030520Y-89387380D02*
X100187663Y-89339761D01*
X100187663Y-89339761D02*
X100292425Y-89244523D01*
X100292425Y-89244523D02*
X100344806Y-89149285D01*
X100344806Y-89149285D02*
X100397187Y-88958809D01*
X100397187Y-88958809D02*
X100397187Y-88815952D01*
X100397187Y-88815952D02*
X100344806Y-88625476D01*
X100344806Y-88625476D02*
X100292425Y-88530238D01*
X100292425Y-88530238D02*
X100187663Y-88435000D01*
X100187663Y-88435000D02*
X100030520Y-88387380D01*
X100030520Y-88387380D02*
X99925758Y-88387380D01*
X99925758Y-88387380D02*
X99768615Y-88435000D01*
X99768615Y-88435000D02*
X99716234Y-88482619D01*
X99716234Y-88482619D02*
X99716234Y-88815952D01*
X99716234Y-88815952D02*
X99925758Y-88815952D01*
X99244806Y-88387380D02*
X99244806Y-89387380D01*
X99244806Y-89387380D02*
X98825758Y-89387380D01*
X98825758Y-89387380D02*
X98720996Y-89339761D01*
X98720996Y-89339761D02*
X98668615Y-89292142D01*
X98668615Y-89292142D02*
X98616234Y-89196904D01*
X98616234Y-89196904D02*
X98616234Y-89054047D01*
X98616234Y-89054047D02*
X98668615Y-88958809D01*
X98668615Y-88958809D02*
X98720996Y-88911190D01*
X98720996Y-88911190D02*
X98825758Y-88863571D01*
X98825758Y-88863571D02*
X99244806Y-88863571D01*
X98144806Y-88387380D02*
X98144806Y-89387380D01*
X97411472Y-89387380D02*
X97201948Y-89387380D01*
X97201948Y-89387380D02*
X97097186Y-89339761D01*
X97097186Y-89339761D02*
X96992424Y-89244523D01*
X96992424Y-89244523D02*
X96940043Y-89054047D01*
X96940043Y-89054047D02*
X96940043Y-88720714D01*
X96940043Y-88720714D02*
X96992424Y-88530238D01*
X96992424Y-88530238D02*
X97097186Y-88435000D01*
X97097186Y-88435000D02*
X97201948Y-88387380D01*
X97201948Y-88387380D02*
X97411472Y-88387380D01*
X97411472Y-88387380D02*
X97516234Y-88435000D01*
X97516234Y-88435000D02*
X97620996Y-88530238D01*
X97620996Y-88530238D02*
X97673377Y-88720714D01*
X97673377Y-88720714D02*
X97673377Y-89054047D01*
X97673377Y-89054047D02*
X97620996Y-89244523D01*
X97620996Y-89244523D02*
X97516234Y-89339761D01*
X97516234Y-89339761D02*
X97411472Y-89387380D01*
X95892424Y-88387380D02*
X96520996Y-88387380D01*
X96206710Y-88387380D02*
X96206710Y-89387380D01*
X96206710Y-89387380D02*
X96311472Y-89244523D01*
X96311472Y-89244523D02*
X96416234Y-89149285D01*
X96416234Y-89149285D02*
X96520996Y-89101666D01*
X94949567Y-89054047D02*
X94949567Y-88387380D01*
X95211472Y-89435000D02*
X95473377Y-88720714D01*
X95473377Y-88720714D02*
X94792424Y-88720714D01*
X82268615Y-112339761D02*
X82373377Y-112387380D01*
X82373377Y-112387380D02*
X82530520Y-112387380D01*
X82530520Y-112387380D02*
X82687663Y-112339761D01*
X82687663Y-112339761D02*
X82792425Y-112244523D01*
X82792425Y-112244523D02*
X82844806Y-112149285D01*
X82844806Y-112149285D02*
X82897187Y-111958809D01*
X82897187Y-111958809D02*
X82897187Y-111815952D01*
X82897187Y-111815952D02*
X82844806Y-111625476D01*
X82844806Y-111625476D02*
X82792425Y-111530238D01*
X82792425Y-111530238D02*
X82687663Y-111435000D01*
X82687663Y-111435000D02*
X82530520Y-111387380D01*
X82530520Y-111387380D02*
X82425758Y-111387380D01*
X82425758Y-111387380D02*
X82268615Y-111435000D01*
X82268615Y-111435000D02*
X82216234Y-111482619D01*
X82216234Y-111482619D02*
X82216234Y-111815952D01*
X82216234Y-111815952D02*
X82425758Y-111815952D01*
X81744806Y-111387380D02*
X81744806Y-112387380D01*
X81744806Y-112387380D02*
X81325758Y-112387380D01*
X81325758Y-112387380D02*
X81220996Y-112339761D01*
X81220996Y-112339761D02*
X81168615Y-112292142D01*
X81168615Y-112292142D02*
X81116234Y-112196904D01*
X81116234Y-112196904D02*
X81116234Y-112054047D01*
X81116234Y-112054047D02*
X81168615Y-111958809D01*
X81168615Y-111958809D02*
X81220996Y-111911190D01*
X81220996Y-111911190D02*
X81325758Y-111863571D01*
X81325758Y-111863571D02*
X81744806Y-111863571D01*
X80644806Y-111387380D02*
X80644806Y-112387380D01*
X79911472Y-112387380D02*
X79701948Y-112387380D01*
X79701948Y-112387380D02*
X79597186Y-112339761D01*
X79597186Y-112339761D02*
X79492424Y-112244523D01*
X79492424Y-112244523D02*
X79440043Y-112054047D01*
X79440043Y-112054047D02*
X79440043Y-111720714D01*
X79440043Y-111720714D02*
X79492424Y-111530238D01*
X79492424Y-111530238D02*
X79597186Y-111435000D01*
X79597186Y-111435000D02*
X79701948Y-111387380D01*
X79701948Y-111387380D02*
X79911472Y-111387380D01*
X79911472Y-111387380D02*
X80016234Y-111435000D01*
X80016234Y-111435000D02*
X80120996Y-111530238D01*
X80120996Y-111530238D02*
X80173377Y-111720714D01*
X80173377Y-111720714D02*
X80173377Y-112054047D01*
X80173377Y-112054047D02*
X80120996Y-112244523D01*
X80120996Y-112244523D02*
X80016234Y-112339761D01*
X80016234Y-112339761D02*
X79911472Y-112387380D01*
X79020996Y-112292142D02*
X78968615Y-112339761D01*
X78968615Y-112339761D02*
X78863853Y-112387380D01*
X78863853Y-112387380D02*
X78601948Y-112387380D01*
X78601948Y-112387380D02*
X78497186Y-112339761D01*
X78497186Y-112339761D02*
X78444805Y-112292142D01*
X78444805Y-112292142D02*
X78392424Y-112196904D01*
X78392424Y-112196904D02*
X78392424Y-112101666D01*
X78392424Y-112101666D02*
X78444805Y-111958809D01*
X78444805Y-111958809D02*
X79073377Y-111387380D01*
X79073377Y-111387380D02*
X78392424Y-111387380D01*
X77973377Y-112292142D02*
X77920996Y-112339761D01*
X77920996Y-112339761D02*
X77816234Y-112387380D01*
X77816234Y-112387380D02*
X77554329Y-112387380D01*
X77554329Y-112387380D02*
X77449567Y-112339761D01*
X77449567Y-112339761D02*
X77397186Y-112292142D01*
X77397186Y-112292142D02*
X77344805Y-112196904D01*
X77344805Y-112196904D02*
X77344805Y-112101666D01*
X77344805Y-112101666D02*
X77397186Y-111958809D01*
X77397186Y-111958809D02*
X78025758Y-111387380D01*
X78025758Y-111387380D02*
X77344805Y-111387380D01*
X82268615Y-94339761D02*
X82373377Y-94387380D01*
X82373377Y-94387380D02*
X82530520Y-94387380D01*
X82530520Y-94387380D02*
X82687663Y-94339761D01*
X82687663Y-94339761D02*
X82792425Y-94244523D01*
X82792425Y-94244523D02*
X82844806Y-94149285D01*
X82844806Y-94149285D02*
X82897187Y-93958809D01*
X82897187Y-93958809D02*
X82897187Y-93815952D01*
X82897187Y-93815952D02*
X82844806Y-93625476D01*
X82844806Y-93625476D02*
X82792425Y-93530238D01*
X82792425Y-93530238D02*
X82687663Y-93435000D01*
X82687663Y-93435000D02*
X82530520Y-93387380D01*
X82530520Y-93387380D02*
X82425758Y-93387380D01*
X82425758Y-93387380D02*
X82268615Y-93435000D01*
X82268615Y-93435000D02*
X82216234Y-93482619D01*
X82216234Y-93482619D02*
X82216234Y-93815952D01*
X82216234Y-93815952D02*
X82425758Y-93815952D01*
X81744806Y-93387380D02*
X81744806Y-94387380D01*
X81744806Y-94387380D02*
X81325758Y-94387380D01*
X81325758Y-94387380D02*
X81220996Y-94339761D01*
X81220996Y-94339761D02*
X81168615Y-94292142D01*
X81168615Y-94292142D02*
X81116234Y-94196904D01*
X81116234Y-94196904D02*
X81116234Y-94054047D01*
X81116234Y-94054047D02*
X81168615Y-93958809D01*
X81168615Y-93958809D02*
X81220996Y-93911190D01*
X81220996Y-93911190D02*
X81325758Y-93863571D01*
X81325758Y-93863571D02*
X81744806Y-93863571D01*
X80644806Y-93387380D02*
X80644806Y-94387380D01*
X79911472Y-94387380D02*
X79701948Y-94387380D01*
X79701948Y-94387380D02*
X79597186Y-94339761D01*
X79597186Y-94339761D02*
X79492424Y-94244523D01*
X79492424Y-94244523D02*
X79440043Y-94054047D01*
X79440043Y-94054047D02*
X79440043Y-93720714D01*
X79440043Y-93720714D02*
X79492424Y-93530238D01*
X79492424Y-93530238D02*
X79597186Y-93435000D01*
X79597186Y-93435000D02*
X79701948Y-93387380D01*
X79701948Y-93387380D02*
X79911472Y-93387380D01*
X79911472Y-93387380D02*
X80016234Y-93435000D01*
X80016234Y-93435000D02*
X80120996Y-93530238D01*
X80120996Y-93530238D02*
X80173377Y-93720714D01*
X80173377Y-93720714D02*
X80173377Y-94054047D01*
X80173377Y-94054047D02*
X80120996Y-94244523D01*
X80120996Y-94244523D02*
X80016234Y-94339761D01*
X80016234Y-94339761D02*
X79911472Y-94387380D01*
X78392424Y-93387380D02*
X79020996Y-93387380D01*
X78706710Y-93387380D02*
X78706710Y-94387380D01*
X78706710Y-94387380D02*
X78811472Y-94244523D01*
X78811472Y-94244523D02*
X78916234Y-94149285D01*
X78916234Y-94149285D02*
X79020996Y-94101666D01*
X78025758Y-94387380D02*
X77292424Y-94387380D01*
X77292424Y-94387380D02*
X77763853Y-93387380D01*
X81268615Y-109839761D02*
X81373377Y-109887380D01*
X81373377Y-109887380D02*
X81530520Y-109887380D01*
X81530520Y-109887380D02*
X81687663Y-109839761D01*
X81687663Y-109839761D02*
X81792425Y-109744523D01*
X81792425Y-109744523D02*
X81844806Y-109649285D01*
X81844806Y-109649285D02*
X81897187Y-109458809D01*
X81897187Y-109458809D02*
X81897187Y-109315952D01*
X81897187Y-109315952D02*
X81844806Y-109125476D01*
X81844806Y-109125476D02*
X81792425Y-109030238D01*
X81792425Y-109030238D02*
X81687663Y-108935000D01*
X81687663Y-108935000D02*
X81530520Y-108887380D01*
X81530520Y-108887380D02*
X81425758Y-108887380D01*
X81425758Y-108887380D02*
X81268615Y-108935000D01*
X81268615Y-108935000D02*
X81216234Y-108982619D01*
X81216234Y-108982619D02*
X81216234Y-109315952D01*
X81216234Y-109315952D02*
X81425758Y-109315952D01*
X80744806Y-108887380D02*
X80744806Y-109887380D01*
X80744806Y-109887380D02*
X80325758Y-109887380D01*
X80325758Y-109887380D02*
X80220996Y-109839761D01*
X80220996Y-109839761D02*
X80168615Y-109792142D01*
X80168615Y-109792142D02*
X80116234Y-109696904D01*
X80116234Y-109696904D02*
X80116234Y-109554047D01*
X80116234Y-109554047D02*
X80168615Y-109458809D01*
X80168615Y-109458809D02*
X80220996Y-109411190D01*
X80220996Y-109411190D02*
X80325758Y-109363571D01*
X80325758Y-109363571D02*
X80744806Y-109363571D01*
X79644806Y-108887380D02*
X79644806Y-109887380D01*
X78911472Y-109887380D02*
X78701948Y-109887380D01*
X78701948Y-109887380D02*
X78597186Y-109839761D01*
X78597186Y-109839761D02*
X78492424Y-109744523D01*
X78492424Y-109744523D02*
X78440043Y-109554047D01*
X78440043Y-109554047D02*
X78440043Y-109220714D01*
X78440043Y-109220714D02*
X78492424Y-109030238D01*
X78492424Y-109030238D02*
X78597186Y-108935000D01*
X78597186Y-108935000D02*
X78701948Y-108887380D01*
X78701948Y-108887380D02*
X78911472Y-108887380D01*
X78911472Y-108887380D02*
X79016234Y-108935000D01*
X79016234Y-108935000D02*
X79120996Y-109030238D01*
X79120996Y-109030238D02*
X79173377Y-109220714D01*
X79173377Y-109220714D02*
X79173377Y-109554047D01*
X79173377Y-109554047D02*
X79120996Y-109744523D01*
X79120996Y-109744523D02*
X79016234Y-109839761D01*
X79016234Y-109839761D02*
X78911472Y-109887380D01*
X77392424Y-108887380D02*
X78020996Y-108887380D01*
X77706710Y-108887380D02*
X77706710Y-109887380D01*
X77706710Y-109887380D02*
X77811472Y-109744523D01*
X77811472Y-109744523D02*
X77916234Y-109649285D01*
X77916234Y-109649285D02*
X78020996Y-109601666D01*
X82268615Y-99339761D02*
X82373377Y-99387380D01*
X82373377Y-99387380D02*
X82530520Y-99387380D01*
X82530520Y-99387380D02*
X82687663Y-99339761D01*
X82687663Y-99339761D02*
X82792425Y-99244523D01*
X82792425Y-99244523D02*
X82844806Y-99149285D01*
X82844806Y-99149285D02*
X82897187Y-98958809D01*
X82897187Y-98958809D02*
X82897187Y-98815952D01*
X82897187Y-98815952D02*
X82844806Y-98625476D01*
X82844806Y-98625476D02*
X82792425Y-98530238D01*
X82792425Y-98530238D02*
X82687663Y-98435000D01*
X82687663Y-98435000D02*
X82530520Y-98387380D01*
X82530520Y-98387380D02*
X82425758Y-98387380D01*
X82425758Y-98387380D02*
X82268615Y-98435000D01*
X82268615Y-98435000D02*
X82216234Y-98482619D01*
X82216234Y-98482619D02*
X82216234Y-98815952D01*
X82216234Y-98815952D02*
X82425758Y-98815952D01*
X81744806Y-98387380D02*
X81744806Y-99387380D01*
X81744806Y-99387380D02*
X81325758Y-99387380D01*
X81325758Y-99387380D02*
X81220996Y-99339761D01*
X81220996Y-99339761D02*
X81168615Y-99292142D01*
X81168615Y-99292142D02*
X81116234Y-99196904D01*
X81116234Y-99196904D02*
X81116234Y-99054047D01*
X81116234Y-99054047D02*
X81168615Y-98958809D01*
X81168615Y-98958809D02*
X81220996Y-98911190D01*
X81220996Y-98911190D02*
X81325758Y-98863571D01*
X81325758Y-98863571D02*
X81744806Y-98863571D01*
X80644806Y-98387380D02*
X80644806Y-99387380D01*
X79911472Y-99387380D02*
X79701948Y-99387380D01*
X79701948Y-99387380D02*
X79597186Y-99339761D01*
X79597186Y-99339761D02*
X79492424Y-99244523D01*
X79492424Y-99244523D02*
X79440043Y-99054047D01*
X79440043Y-99054047D02*
X79440043Y-98720714D01*
X79440043Y-98720714D02*
X79492424Y-98530238D01*
X79492424Y-98530238D02*
X79597186Y-98435000D01*
X79597186Y-98435000D02*
X79701948Y-98387380D01*
X79701948Y-98387380D02*
X79911472Y-98387380D01*
X79911472Y-98387380D02*
X80016234Y-98435000D01*
X80016234Y-98435000D02*
X80120996Y-98530238D01*
X80120996Y-98530238D02*
X80173377Y-98720714D01*
X80173377Y-98720714D02*
X80173377Y-99054047D01*
X80173377Y-99054047D02*
X80120996Y-99244523D01*
X80120996Y-99244523D02*
X80016234Y-99339761D01*
X80016234Y-99339761D02*
X79911472Y-99387380D01*
X78392424Y-98387380D02*
X79020996Y-98387380D01*
X78706710Y-98387380D02*
X78706710Y-99387380D01*
X78706710Y-99387380D02*
X78811472Y-99244523D01*
X78811472Y-99244523D02*
X78916234Y-99149285D01*
X78916234Y-99149285D02*
X79020996Y-99101666D01*
X77763853Y-98958809D02*
X77868615Y-99006428D01*
X77868615Y-99006428D02*
X77920996Y-99054047D01*
X77920996Y-99054047D02*
X77973377Y-99149285D01*
X77973377Y-99149285D02*
X77973377Y-99196904D01*
X77973377Y-99196904D02*
X77920996Y-99292142D01*
X77920996Y-99292142D02*
X77868615Y-99339761D01*
X77868615Y-99339761D02*
X77763853Y-99387380D01*
X77763853Y-99387380D02*
X77554329Y-99387380D01*
X77554329Y-99387380D02*
X77449567Y-99339761D01*
X77449567Y-99339761D02*
X77397186Y-99292142D01*
X77397186Y-99292142D02*
X77344805Y-99196904D01*
X77344805Y-99196904D02*
X77344805Y-99149285D01*
X77344805Y-99149285D02*
X77397186Y-99054047D01*
X77397186Y-99054047D02*
X77449567Y-99006428D01*
X77449567Y-99006428D02*
X77554329Y-98958809D01*
X77554329Y-98958809D02*
X77763853Y-98958809D01*
X77763853Y-98958809D02*
X77868615Y-98911190D01*
X77868615Y-98911190D02*
X77920996Y-98863571D01*
X77920996Y-98863571D02*
X77973377Y-98768333D01*
X77973377Y-98768333D02*
X77973377Y-98577857D01*
X77973377Y-98577857D02*
X77920996Y-98482619D01*
X77920996Y-98482619D02*
X77868615Y-98435000D01*
X77868615Y-98435000D02*
X77763853Y-98387380D01*
X77763853Y-98387380D02*
X77554329Y-98387380D01*
X77554329Y-98387380D02*
X77449567Y-98435000D01*
X77449567Y-98435000D02*
X77397186Y-98482619D01*
X77397186Y-98482619D02*
X77344805Y-98577857D01*
X77344805Y-98577857D02*
X77344805Y-98768333D01*
X77344805Y-98768333D02*
X77397186Y-98863571D01*
X77397186Y-98863571D02*
X77449567Y-98911190D01*
X77449567Y-98911190D02*
X77554329Y-98958809D01*
X81268615Y-96839761D02*
X81373377Y-96887380D01*
X81373377Y-96887380D02*
X81530520Y-96887380D01*
X81530520Y-96887380D02*
X81687663Y-96839761D01*
X81687663Y-96839761D02*
X81792425Y-96744523D01*
X81792425Y-96744523D02*
X81844806Y-96649285D01*
X81844806Y-96649285D02*
X81897187Y-96458809D01*
X81897187Y-96458809D02*
X81897187Y-96315952D01*
X81897187Y-96315952D02*
X81844806Y-96125476D01*
X81844806Y-96125476D02*
X81792425Y-96030238D01*
X81792425Y-96030238D02*
X81687663Y-95935000D01*
X81687663Y-95935000D02*
X81530520Y-95887380D01*
X81530520Y-95887380D02*
X81425758Y-95887380D01*
X81425758Y-95887380D02*
X81268615Y-95935000D01*
X81268615Y-95935000D02*
X81216234Y-95982619D01*
X81216234Y-95982619D02*
X81216234Y-96315952D01*
X81216234Y-96315952D02*
X81425758Y-96315952D01*
X80744806Y-95887380D02*
X80744806Y-96887380D01*
X80744806Y-96887380D02*
X80325758Y-96887380D01*
X80325758Y-96887380D02*
X80220996Y-96839761D01*
X80220996Y-96839761D02*
X80168615Y-96792142D01*
X80168615Y-96792142D02*
X80116234Y-96696904D01*
X80116234Y-96696904D02*
X80116234Y-96554047D01*
X80116234Y-96554047D02*
X80168615Y-96458809D01*
X80168615Y-96458809D02*
X80220996Y-96411190D01*
X80220996Y-96411190D02*
X80325758Y-96363571D01*
X80325758Y-96363571D02*
X80744806Y-96363571D01*
X79644806Y-95887380D02*
X79644806Y-96887380D01*
X78911472Y-96887380D02*
X78701948Y-96887380D01*
X78701948Y-96887380D02*
X78597186Y-96839761D01*
X78597186Y-96839761D02*
X78492424Y-96744523D01*
X78492424Y-96744523D02*
X78440043Y-96554047D01*
X78440043Y-96554047D02*
X78440043Y-96220714D01*
X78440043Y-96220714D02*
X78492424Y-96030238D01*
X78492424Y-96030238D02*
X78597186Y-95935000D01*
X78597186Y-95935000D02*
X78701948Y-95887380D01*
X78701948Y-95887380D02*
X78911472Y-95887380D01*
X78911472Y-95887380D02*
X79016234Y-95935000D01*
X79016234Y-95935000D02*
X79120996Y-96030238D01*
X79120996Y-96030238D02*
X79173377Y-96220714D01*
X79173377Y-96220714D02*
X79173377Y-96554047D01*
X79173377Y-96554047D02*
X79120996Y-96744523D01*
X79120996Y-96744523D02*
X79016234Y-96839761D01*
X79016234Y-96839761D02*
X78911472Y-96887380D01*
X77444805Y-96887380D02*
X77968615Y-96887380D01*
X77968615Y-96887380D02*
X78020996Y-96411190D01*
X78020996Y-96411190D02*
X77968615Y-96458809D01*
X77968615Y-96458809D02*
X77863853Y-96506428D01*
X77863853Y-96506428D02*
X77601948Y-96506428D01*
X77601948Y-96506428D02*
X77497186Y-96458809D01*
X77497186Y-96458809D02*
X77444805Y-96411190D01*
X77444805Y-96411190D02*
X77392424Y-96315952D01*
X77392424Y-96315952D02*
X77392424Y-96077857D01*
X77392424Y-96077857D02*
X77444805Y-95982619D01*
X77444805Y-95982619D02*
X77497186Y-95935000D01*
X77497186Y-95935000D02*
X77601948Y-95887380D01*
X77601948Y-95887380D02*
X77863853Y-95887380D01*
X77863853Y-95887380D02*
X77968615Y-95935000D01*
X77968615Y-95935000D02*
X78020996Y-95982619D01*
X99768615Y-99339761D02*
X99873377Y-99387380D01*
X99873377Y-99387380D02*
X100030520Y-99387380D01*
X100030520Y-99387380D02*
X100187663Y-99339761D01*
X100187663Y-99339761D02*
X100292425Y-99244523D01*
X100292425Y-99244523D02*
X100344806Y-99149285D01*
X100344806Y-99149285D02*
X100397187Y-98958809D01*
X100397187Y-98958809D02*
X100397187Y-98815952D01*
X100397187Y-98815952D02*
X100344806Y-98625476D01*
X100344806Y-98625476D02*
X100292425Y-98530238D01*
X100292425Y-98530238D02*
X100187663Y-98435000D01*
X100187663Y-98435000D02*
X100030520Y-98387380D01*
X100030520Y-98387380D02*
X99925758Y-98387380D01*
X99925758Y-98387380D02*
X99768615Y-98435000D01*
X99768615Y-98435000D02*
X99716234Y-98482619D01*
X99716234Y-98482619D02*
X99716234Y-98815952D01*
X99716234Y-98815952D02*
X99925758Y-98815952D01*
X99244806Y-98387380D02*
X99244806Y-99387380D01*
X99244806Y-99387380D02*
X98825758Y-99387380D01*
X98825758Y-99387380D02*
X98720996Y-99339761D01*
X98720996Y-99339761D02*
X98668615Y-99292142D01*
X98668615Y-99292142D02*
X98616234Y-99196904D01*
X98616234Y-99196904D02*
X98616234Y-99054047D01*
X98616234Y-99054047D02*
X98668615Y-98958809D01*
X98668615Y-98958809D02*
X98720996Y-98911190D01*
X98720996Y-98911190D02*
X98825758Y-98863571D01*
X98825758Y-98863571D02*
X99244806Y-98863571D01*
X98144806Y-98387380D02*
X98144806Y-99387380D01*
X97411472Y-99387380D02*
X97201948Y-99387380D01*
X97201948Y-99387380D02*
X97097186Y-99339761D01*
X97097186Y-99339761D02*
X96992424Y-99244523D01*
X96992424Y-99244523D02*
X96940043Y-99054047D01*
X96940043Y-99054047D02*
X96940043Y-98720714D01*
X96940043Y-98720714D02*
X96992424Y-98530238D01*
X96992424Y-98530238D02*
X97097186Y-98435000D01*
X97097186Y-98435000D02*
X97201948Y-98387380D01*
X97201948Y-98387380D02*
X97411472Y-98387380D01*
X97411472Y-98387380D02*
X97516234Y-98435000D01*
X97516234Y-98435000D02*
X97620996Y-98530238D01*
X97620996Y-98530238D02*
X97673377Y-98720714D01*
X97673377Y-98720714D02*
X97673377Y-99054047D01*
X97673377Y-99054047D02*
X97620996Y-99244523D01*
X97620996Y-99244523D02*
X97516234Y-99339761D01*
X97516234Y-99339761D02*
X97411472Y-99387380D01*
X96573377Y-99387380D02*
X95892424Y-99387380D01*
X95892424Y-99387380D02*
X96259091Y-99006428D01*
X96259091Y-99006428D02*
X96101948Y-99006428D01*
X96101948Y-99006428D02*
X95997186Y-98958809D01*
X95997186Y-98958809D02*
X95944805Y-98911190D01*
X95944805Y-98911190D02*
X95892424Y-98815952D01*
X95892424Y-98815952D02*
X95892424Y-98577857D01*
X95892424Y-98577857D02*
X95944805Y-98482619D01*
X95944805Y-98482619D02*
X95997186Y-98435000D01*
X95997186Y-98435000D02*
X96101948Y-98387380D01*
X96101948Y-98387380D02*
X96416234Y-98387380D01*
X96416234Y-98387380D02*
X96520996Y-98435000D01*
X96520996Y-98435000D02*
X96573377Y-98482619D01*
X95525758Y-99387380D02*
X94844805Y-99387380D01*
X94844805Y-99387380D02*
X95211472Y-99006428D01*
X95211472Y-99006428D02*
X95054329Y-99006428D01*
X95054329Y-99006428D02*
X94949567Y-98958809D01*
X94949567Y-98958809D02*
X94897186Y-98911190D01*
X94897186Y-98911190D02*
X94844805Y-98815952D01*
X94844805Y-98815952D02*
X94844805Y-98577857D01*
X94844805Y-98577857D02*
X94897186Y-98482619D01*
X94897186Y-98482619D02*
X94949567Y-98435000D01*
X94949567Y-98435000D02*
X95054329Y-98387380D01*
X95054329Y-98387380D02*
X95368615Y-98387380D01*
X95368615Y-98387380D02*
X95473377Y-98435000D01*
X95473377Y-98435000D02*
X95525758Y-98482619D01*
X82268615Y-84339761D02*
X82373377Y-84387380D01*
X82373377Y-84387380D02*
X82530520Y-84387380D01*
X82530520Y-84387380D02*
X82687663Y-84339761D01*
X82687663Y-84339761D02*
X82792425Y-84244523D01*
X82792425Y-84244523D02*
X82844806Y-84149285D01*
X82844806Y-84149285D02*
X82897187Y-83958809D01*
X82897187Y-83958809D02*
X82897187Y-83815952D01*
X82897187Y-83815952D02*
X82844806Y-83625476D01*
X82844806Y-83625476D02*
X82792425Y-83530238D01*
X82792425Y-83530238D02*
X82687663Y-83435000D01*
X82687663Y-83435000D02*
X82530520Y-83387380D01*
X82530520Y-83387380D02*
X82425758Y-83387380D01*
X82425758Y-83387380D02*
X82268615Y-83435000D01*
X82268615Y-83435000D02*
X82216234Y-83482619D01*
X82216234Y-83482619D02*
X82216234Y-83815952D01*
X82216234Y-83815952D02*
X82425758Y-83815952D01*
X81744806Y-83387380D02*
X81744806Y-84387380D01*
X81744806Y-84387380D02*
X81325758Y-84387380D01*
X81325758Y-84387380D02*
X81220996Y-84339761D01*
X81220996Y-84339761D02*
X81168615Y-84292142D01*
X81168615Y-84292142D02*
X81116234Y-84196904D01*
X81116234Y-84196904D02*
X81116234Y-84054047D01*
X81116234Y-84054047D02*
X81168615Y-83958809D01*
X81168615Y-83958809D02*
X81220996Y-83911190D01*
X81220996Y-83911190D02*
X81325758Y-83863571D01*
X81325758Y-83863571D02*
X81744806Y-83863571D01*
X80644806Y-83387380D02*
X80644806Y-84387380D01*
X79911472Y-84387380D02*
X79701948Y-84387380D01*
X79701948Y-84387380D02*
X79597186Y-84339761D01*
X79597186Y-84339761D02*
X79492424Y-84244523D01*
X79492424Y-84244523D02*
X79440043Y-84054047D01*
X79440043Y-84054047D02*
X79440043Y-83720714D01*
X79440043Y-83720714D02*
X79492424Y-83530238D01*
X79492424Y-83530238D02*
X79597186Y-83435000D01*
X79597186Y-83435000D02*
X79701948Y-83387380D01*
X79701948Y-83387380D02*
X79911472Y-83387380D01*
X79911472Y-83387380D02*
X80016234Y-83435000D01*
X80016234Y-83435000D02*
X80120996Y-83530238D01*
X80120996Y-83530238D02*
X80173377Y-83720714D01*
X80173377Y-83720714D02*
X80173377Y-84054047D01*
X80173377Y-84054047D02*
X80120996Y-84244523D01*
X80120996Y-84244523D02*
X80016234Y-84339761D01*
X80016234Y-84339761D02*
X79911472Y-84387380D01*
X78392424Y-83387380D02*
X79020996Y-83387380D01*
X78706710Y-83387380D02*
X78706710Y-84387380D01*
X78706710Y-84387380D02*
X78811472Y-84244523D01*
X78811472Y-84244523D02*
X78916234Y-84149285D01*
X78916234Y-84149285D02*
X79020996Y-84101666D01*
X77397186Y-84387380D02*
X77920996Y-84387380D01*
X77920996Y-84387380D02*
X77973377Y-83911190D01*
X77973377Y-83911190D02*
X77920996Y-83958809D01*
X77920996Y-83958809D02*
X77816234Y-84006428D01*
X77816234Y-84006428D02*
X77554329Y-84006428D01*
X77554329Y-84006428D02*
X77449567Y-83958809D01*
X77449567Y-83958809D02*
X77397186Y-83911190D01*
X77397186Y-83911190D02*
X77344805Y-83815952D01*
X77344805Y-83815952D02*
X77344805Y-83577857D01*
X77344805Y-83577857D02*
X77397186Y-83482619D01*
X77397186Y-83482619D02*
X77449567Y-83435000D01*
X77449567Y-83435000D02*
X77554329Y-83387380D01*
X77554329Y-83387380D02*
X77816234Y-83387380D01*
X77816234Y-83387380D02*
X77920996Y-83435000D01*
X77920996Y-83435000D02*
X77973377Y-83482619D01*
X100001949Y-79387380D02*
X99635282Y-78387380D01*
X99635282Y-78387380D02*
X99268615Y-79387380D01*
X98901949Y-78387380D02*
X98901949Y-79387380D01*
X98378139Y-78387380D02*
X98378139Y-79387380D01*
X98378139Y-79387380D02*
X97749567Y-78387380D01*
X97749567Y-78387380D02*
X97749567Y-79387380D01*
X81268615Y-89339761D02*
X81373377Y-89387380D01*
X81373377Y-89387380D02*
X81530520Y-89387380D01*
X81530520Y-89387380D02*
X81687663Y-89339761D01*
X81687663Y-89339761D02*
X81792425Y-89244523D01*
X81792425Y-89244523D02*
X81844806Y-89149285D01*
X81844806Y-89149285D02*
X81897187Y-88958809D01*
X81897187Y-88958809D02*
X81897187Y-88815952D01*
X81897187Y-88815952D02*
X81844806Y-88625476D01*
X81844806Y-88625476D02*
X81792425Y-88530238D01*
X81792425Y-88530238D02*
X81687663Y-88435000D01*
X81687663Y-88435000D02*
X81530520Y-88387380D01*
X81530520Y-88387380D02*
X81425758Y-88387380D01*
X81425758Y-88387380D02*
X81268615Y-88435000D01*
X81268615Y-88435000D02*
X81216234Y-88482619D01*
X81216234Y-88482619D02*
X81216234Y-88815952D01*
X81216234Y-88815952D02*
X81425758Y-88815952D01*
X80744806Y-88387380D02*
X80744806Y-89387380D01*
X80744806Y-89387380D02*
X80325758Y-89387380D01*
X80325758Y-89387380D02*
X80220996Y-89339761D01*
X80220996Y-89339761D02*
X80168615Y-89292142D01*
X80168615Y-89292142D02*
X80116234Y-89196904D01*
X80116234Y-89196904D02*
X80116234Y-89054047D01*
X80116234Y-89054047D02*
X80168615Y-88958809D01*
X80168615Y-88958809D02*
X80220996Y-88911190D01*
X80220996Y-88911190D02*
X80325758Y-88863571D01*
X80325758Y-88863571D02*
X80744806Y-88863571D01*
X79644806Y-88387380D02*
X79644806Y-89387380D01*
X78911472Y-89387380D02*
X78701948Y-89387380D01*
X78701948Y-89387380D02*
X78597186Y-89339761D01*
X78597186Y-89339761D02*
X78492424Y-89244523D01*
X78492424Y-89244523D02*
X78440043Y-89054047D01*
X78440043Y-89054047D02*
X78440043Y-88720714D01*
X78440043Y-88720714D02*
X78492424Y-88530238D01*
X78492424Y-88530238D02*
X78597186Y-88435000D01*
X78597186Y-88435000D02*
X78701948Y-88387380D01*
X78701948Y-88387380D02*
X78911472Y-88387380D01*
X78911472Y-88387380D02*
X79016234Y-88435000D01*
X79016234Y-88435000D02*
X79120996Y-88530238D01*
X79120996Y-88530238D02*
X79173377Y-88720714D01*
X79173377Y-88720714D02*
X79173377Y-89054047D01*
X79173377Y-89054047D02*
X79120996Y-89244523D01*
X79120996Y-89244523D02*
X79016234Y-89339761D01*
X79016234Y-89339761D02*
X78911472Y-89387380D01*
X77497186Y-89054047D02*
X77497186Y-88387380D01*
X77759091Y-89435000D02*
X78020996Y-88720714D01*
X78020996Y-88720714D02*
X77340043Y-88720714D01*
X99768615Y-84339761D02*
X99873377Y-84387380D01*
X99873377Y-84387380D02*
X100030520Y-84387380D01*
X100030520Y-84387380D02*
X100187663Y-84339761D01*
X100187663Y-84339761D02*
X100292425Y-84244523D01*
X100292425Y-84244523D02*
X100344806Y-84149285D01*
X100344806Y-84149285D02*
X100397187Y-83958809D01*
X100397187Y-83958809D02*
X100397187Y-83815952D01*
X100397187Y-83815952D02*
X100344806Y-83625476D01*
X100344806Y-83625476D02*
X100292425Y-83530238D01*
X100292425Y-83530238D02*
X100187663Y-83435000D01*
X100187663Y-83435000D02*
X100030520Y-83387380D01*
X100030520Y-83387380D02*
X99925758Y-83387380D01*
X99925758Y-83387380D02*
X99768615Y-83435000D01*
X99768615Y-83435000D02*
X99716234Y-83482619D01*
X99716234Y-83482619D02*
X99716234Y-83815952D01*
X99716234Y-83815952D02*
X99925758Y-83815952D01*
X99244806Y-83387380D02*
X99244806Y-84387380D01*
X99244806Y-84387380D02*
X98825758Y-84387380D01*
X98825758Y-84387380D02*
X98720996Y-84339761D01*
X98720996Y-84339761D02*
X98668615Y-84292142D01*
X98668615Y-84292142D02*
X98616234Y-84196904D01*
X98616234Y-84196904D02*
X98616234Y-84054047D01*
X98616234Y-84054047D02*
X98668615Y-83958809D01*
X98668615Y-83958809D02*
X98720996Y-83911190D01*
X98720996Y-83911190D02*
X98825758Y-83863571D01*
X98825758Y-83863571D02*
X99244806Y-83863571D01*
X98144806Y-83387380D02*
X98144806Y-84387380D01*
X97411472Y-84387380D02*
X97201948Y-84387380D01*
X97201948Y-84387380D02*
X97097186Y-84339761D01*
X97097186Y-84339761D02*
X96992424Y-84244523D01*
X96992424Y-84244523D02*
X96940043Y-84054047D01*
X96940043Y-84054047D02*
X96940043Y-83720714D01*
X96940043Y-83720714D02*
X96992424Y-83530238D01*
X96992424Y-83530238D02*
X97097186Y-83435000D01*
X97097186Y-83435000D02*
X97201948Y-83387380D01*
X97201948Y-83387380D02*
X97411472Y-83387380D01*
X97411472Y-83387380D02*
X97516234Y-83435000D01*
X97516234Y-83435000D02*
X97620996Y-83530238D01*
X97620996Y-83530238D02*
X97673377Y-83720714D01*
X97673377Y-83720714D02*
X97673377Y-84054047D01*
X97673377Y-84054047D02*
X97620996Y-84244523D01*
X97620996Y-84244523D02*
X97516234Y-84339761D01*
X97516234Y-84339761D02*
X97411472Y-84387380D01*
X95892424Y-83387380D02*
X96520996Y-83387380D01*
X96206710Y-83387380D02*
X96206710Y-84387380D01*
X96206710Y-84387380D02*
X96311472Y-84244523D01*
X96311472Y-84244523D02*
X96416234Y-84149285D01*
X96416234Y-84149285D02*
X96520996Y-84101666D01*
X95525758Y-84387380D02*
X94844805Y-84387380D01*
X94844805Y-84387380D02*
X95211472Y-84006428D01*
X95211472Y-84006428D02*
X95054329Y-84006428D01*
X95054329Y-84006428D02*
X94949567Y-83958809D01*
X94949567Y-83958809D02*
X94897186Y-83911190D01*
X94897186Y-83911190D02*
X94844805Y-83815952D01*
X94844805Y-83815952D02*
X94844805Y-83577857D01*
X94844805Y-83577857D02*
X94897186Y-83482619D01*
X94897186Y-83482619D02*
X94949567Y-83435000D01*
X94949567Y-83435000D02*
X95054329Y-83387380D01*
X95054329Y-83387380D02*
X95368615Y-83387380D01*
X95368615Y-83387380D02*
X95473377Y-83435000D01*
X95473377Y-83435000D02*
X95525758Y-83482619D01*
X82268615Y-91839761D02*
X82373377Y-91887380D01*
X82373377Y-91887380D02*
X82530520Y-91887380D01*
X82530520Y-91887380D02*
X82687663Y-91839761D01*
X82687663Y-91839761D02*
X82792425Y-91744523D01*
X82792425Y-91744523D02*
X82844806Y-91649285D01*
X82844806Y-91649285D02*
X82897187Y-91458809D01*
X82897187Y-91458809D02*
X82897187Y-91315952D01*
X82897187Y-91315952D02*
X82844806Y-91125476D01*
X82844806Y-91125476D02*
X82792425Y-91030238D01*
X82792425Y-91030238D02*
X82687663Y-90935000D01*
X82687663Y-90935000D02*
X82530520Y-90887380D01*
X82530520Y-90887380D02*
X82425758Y-90887380D01*
X82425758Y-90887380D02*
X82268615Y-90935000D01*
X82268615Y-90935000D02*
X82216234Y-90982619D01*
X82216234Y-90982619D02*
X82216234Y-91315952D01*
X82216234Y-91315952D02*
X82425758Y-91315952D01*
X81744806Y-90887380D02*
X81744806Y-91887380D01*
X81744806Y-91887380D02*
X81325758Y-91887380D01*
X81325758Y-91887380D02*
X81220996Y-91839761D01*
X81220996Y-91839761D02*
X81168615Y-91792142D01*
X81168615Y-91792142D02*
X81116234Y-91696904D01*
X81116234Y-91696904D02*
X81116234Y-91554047D01*
X81116234Y-91554047D02*
X81168615Y-91458809D01*
X81168615Y-91458809D02*
X81220996Y-91411190D01*
X81220996Y-91411190D02*
X81325758Y-91363571D01*
X81325758Y-91363571D02*
X81744806Y-91363571D01*
X80644806Y-90887380D02*
X80644806Y-91887380D01*
X79911472Y-91887380D02*
X79701948Y-91887380D01*
X79701948Y-91887380D02*
X79597186Y-91839761D01*
X79597186Y-91839761D02*
X79492424Y-91744523D01*
X79492424Y-91744523D02*
X79440043Y-91554047D01*
X79440043Y-91554047D02*
X79440043Y-91220714D01*
X79440043Y-91220714D02*
X79492424Y-91030238D01*
X79492424Y-91030238D02*
X79597186Y-90935000D01*
X79597186Y-90935000D02*
X79701948Y-90887380D01*
X79701948Y-90887380D02*
X79911472Y-90887380D01*
X79911472Y-90887380D02*
X80016234Y-90935000D01*
X80016234Y-90935000D02*
X80120996Y-91030238D01*
X80120996Y-91030238D02*
X80173377Y-91220714D01*
X80173377Y-91220714D02*
X80173377Y-91554047D01*
X80173377Y-91554047D02*
X80120996Y-91744523D01*
X80120996Y-91744523D02*
X80016234Y-91839761D01*
X80016234Y-91839761D02*
X79911472Y-91887380D01*
X78392424Y-90887380D02*
X79020996Y-90887380D01*
X78706710Y-90887380D02*
X78706710Y-91887380D01*
X78706710Y-91887380D02*
X78811472Y-91744523D01*
X78811472Y-91744523D02*
X78916234Y-91649285D01*
X78916234Y-91649285D02*
X79020996Y-91601666D01*
X77449567Y-91887380D02*
X77659091Y-91887380D01*
X77659091Y-91887380D02*
X77763853Y-91839761D01*
X77763853Y-91839761D02*
X77816234Y-91792142D01*
X77816234Y-91792142D02*
X77920996Y-91649285D01*
X77920996Y-91649285D02*
X77973377Y-91458809D01*
X77973377Y-91458809D02*
X77973377Y-91077857D01*
X77973377Y-91077857D02*
X77920996Y-90982619D01*
X77920996Y-90982619D02*
X77868615Y-90935000D01*
X77868615Y-90935000D02*
X77763853Y-90887380D01*
X77763853Y-90887380D02*
X77554329Y-90887380D01*
X77554329Y-90887380D02*
X77449567Y-90935000D01*
X77449567Y-90935000D02*
X77397186Y-90982619D01*
X77397186Y-90982619D02*
X77344805Y-91077857D01*
X77344805Y-91077857D02*
X77344805Y-91315952D01*
X77344805Y-91315952D02*
X77397186Y-91411190D01*
X77397186Y-91411190D02*
X77449567Y-91458809D01*
X77449567Y-91458809D02*
X77554329Y-91506428D01*
X77554329Y-91506428D02*
X77763853Y-91506428D01*
X77763853Y-91506428D02*
X77868615Y-91458809D01*
X77868615Y-91458809D02*
X77920996Y-91411190D01*
X77920996Y-91411190D02*
X77973377Y-91315952D01*
X80449568Y-79387380D02*
X79768615Y-79387380D01*
X79768615Y-79387380D02*
X80135282Y-79006428D01*
X80135282Y-79006428D02*
X79978139Y-79006428D01*
X79978139Y-79006428D02*
X79873377Y-78958809D01*
X79873377Y-78958809D02*
X79820996Y-78911190D01*
X79820996Y-78911190D02*
X79768615Y-78815952D01*
X79768615Y-78815952D02*
X79768615Y-78577857D01*
X79768615Y-78577857D02*
X79820996Y-78482619D01*
X79820996Y-78482619D02*
X79873377Y-78435000D01*
X79873377Y-78435000D02*
X79978139Y-78387380D01*
X79978139Y-78387380D02*
X80292425Y-78387380D01*
X80292425Y-78387380D02*
X80397187Y-78435000D01*
X80397187Y-78435000D02*
X80449568Y-78482619D01*
X79297187Y-78482619D02*
X79244806Y-78435000D01*
X79244806Y-78435000D02*
X79297187Y-78387380D01*
X79297187Y-78387380D02*
X79349568Y-78435000D01*
X79349568Y-78435000D02*
X79297187Y-78482619D01*
X79297187Y-78482619D02*
X79297187Y-78387380D01*
X78878139Y-79387380D02*
X78197186Y-79387380D01*
X78197186Y-79387380D02*
X78563853Y-79006428D01*
X78563853Y-79006428D02*
X78406710Y-79006428D01*
X78406710Y-79006428D02*
X78301948Y-78958809D01*
X78301948Y-78958809D02*
X78249567Y-78911190D01*
X78249567Y-78911190D02*
X78197186Y-78815952D01*
X78197186Y-78815952D02*
X78197186Y-78577857D01*
X78197186Y-78577857D02*
X78249567Y-78482619D01*
X78249567Y-78482619D02*
X78301948Y-78435000D01*
X78301948Y-78435000D02*
X78406710Y-78387380D01*
X78406710Y-78387380D02*
X78720996Y-78387380D01*
X78720996Y-78387380D02*
X78825758Y-78435000D01*
X78825758Y-78435000D02*
X78878139Y-78482619D01*
X77830520Y-79054047D02*
X77568615Y-78387380D01*
X77568615Y-78387380D02*
X77306710Y-79054047D01*
X99768615Y-106839761D02*
X99873377Y-106887380D01*
X99873377Y-106887380D02*
X100030520Y-106887380D01*
X100030520Y-106887380D02*
X100187663Y-106839761D01*
X100187663Y-106839761D02*
X100292425Y-106744523D01*
X100292425Y-106744523D02*
X100344806Y-106649285D01*
X100344806Y-106649285D02*
X100397187Y-106458809D01*
X100397187Y-106458809D02*
X100397187Y-106315952D01*
X100397187Y-106315952D02*
X100344806Y-106125476D01*
X100344806Y-106125476D02*
X100292425Y-106030238D01*
X100292425Y-106030238D02*
X100187663Y-105935000D01*
X100187663Y-105935000D02*
X100030520Y-105887380D01*
X100030520Y-105887380D02*
X99925758Y-105887380D01*
X99925758Y-105887380D02*
X99768615Y-105935000D01*
X99768615Y-105935000D02*
X99716234Y-105982619D01*
X99716234Y-105982619D02*
X99716234Y-106315952D01*
X99716234Y-106315952D02*
X99925758Y-106315952D01*
X99244806Y-105887380D02*
X99244806Y-106887380D01*
X99244806Y-106887380D02*
X98825758Y-106887380D01*
X98825758Y-106887380D02*
X98720996Y-106839761D01*
X98720996Y-106839761D02*
X98668615Y-106792142D01*
X98668615Y-106792142D02*
X98616234Y-106696904D01*
X98616234Y-106696904D02*
X98616234Y-106554047D01*
X98616234Y-106554047D02*
X98668615Y-106458809D01*
X98668615Y-106458809D02*
X98720996Y-106411190D01*
X98720996Y-106411190D02*
X98825758Y-106363571D01*
X98825758Y-106363571D02*
X99244806Y-106363571D01*
X98144806Y-105887380D02*
X98144806Y-106887380D01*
X97411472Y-106887380D02*
X97201948Y-106887380D01*
X97201948Y-106887380D02*
X97097186Y-106839761D01*
X97097186Y-106839761D02*
X96992424Y-106744523D01*
X96992424Y-106744523D02*
X96940043Y-106554047D01*
X96940043Y-106554047D02*
X96940043Y-106220714D01*
X96940043Y-106220714D02*
X96992424Y-106030238D01*
X96992424Y-106030238D02*
X97097186Y-105935000D01*
X97097186Y-105935000D02*
X97201948Y-105887380D01*
X97201948Y-105887380D02*
X97411472Y-105887380D01*
X97411472Y-105887380D02*
X97516234Y-105935000D01*
X97516234Y-105935000D02*
X97620996Y-106030238D01*
X97620996Y-106030238D02*
X97673377Y-106220714D01*
X97673377Y-106220714D02*
X97673377Y-106554047D01*
X97673377Y-106554047D02*
X97620996Y-106744523D01*
X97620996Y-106744523D02*
X97516234Y-106839761D01*
X97516234Y-106839761D02*
X97411472Y-106887380D01*
X96573377Y-106887380D02*
X95892424Y-106887380D01*
X95892424Y-106887380D02*
X96259091Y-106506428D01*
X96259091Y-106506428D02*
X96101948Y-106506428D01*
X96101948Y-106506428D02*
X95997186Y-106458809D01*
X95997186Y-106458809D02*
X95944805Y-106411190D01*
X95944805Y-106411190D02*
X95892424Y-106315952D01*
X95892424Y-106315952D02*
X95892424Y-106077857D01*
X95892424Y-106077857D02*
X95944805Y-105982619D01*
X95944805Y-105982619D02*
X95997186Y-105935000D01*
X95997186Y-105935000D02*
X96101948Y-105887380D01*
X96101948Y-105887380D02*
X96416234Y-105887380D01*
X96416234Y-105887380D02*
X96520996Y-105935000D01*
X96520996Y-105935000D02*
X96573377Y-105982619D01*
X94949567Y-106554047D02*
X94949567Y-105887380D01*
X95211472Y-106935000D02*
X95473377Y-106220714D01*
X95473377Y-106220714D02*
X94792424Y-106220714D01*
X82268615Y-104339761D02*
X82373377Y-104387380D01*
X82373377Y-104387380D02*
X82530520Y-104387380D01*
X82530520Y-104387380D02*
X82687663Y-104339761D01*
X82687663Y-104339761D02*
X82792425Y-104244523D01*
X82792425Y-104244523D02*
X82844806Y-104149285D01*
X82844806Y-104149285D02*
X82897187Y-103958809D01*
X82897187Y-103958809D02*
X82897187Y-103815952D01*
X82897187Y-103815952D02*
X82844806Y-103625476D01*
X82844806Y-103625476D02*
X82792425Y-103530238D01*
X82792425Y-103530238D02*
X82687663Y-103435000D01*
X82687663Y-103435000D02*
X82530520Y-103387380D01*
X82530520Y-103387380D02*
X82425758Y-103387380D01*
X82425758Y-103387380D02*
X82268615Y-103435000D01*
X82268615Y-103435000D02*
X82216234Y-103482619D01*
X82216234Y-103482619D02*
X82216234Y-103815952D01*
X82216234Y-103815952D02*
X82425758Y-103815952D01*
X81744806Y-103387380D02*
X81744806Y-104387380D01*
X81744806Y-104387380D02*
X81325758Y-104387380D01*
X81325758Y-104387380D02*
X81220996Y-104339761D01*
X81220996Y-104339761D02*
X81168615Y-104292142D01*
X81168615Y-104292142D02*
X81116234Y-104196904D01*
X81116234Y-104196904D02*
X81116234Y-104054047D01*
X81116234Y-104054047D02*
X81168615Y-103958809D01*
X81168615Y-103958809D02*
X81220996Y-103911190D01*
X81220996Y-103911190D02*
X81325758Y-103863571D01*
X81325758Y-103863571D02*
X81744806Y-103863571D01*
X80644806Y-103387380D02*
X80644806Y-104387380D01*
X79911472Y-104387380D02*
X79701948Y-104387380D01*
X79701948Y-104387380D02*
X79597186Y-104339761D01*
X79597186Y-104339761D02*
X79492424Y-104244523D01*
X79492424Y-104244523D02*
X79440043Y-104054047D01*
X79440043Y-104054047D02*
X79440043Y-103720714D01*
X79440043Y-103720714D02*
X79492424Y-103530238D01*
X79492424Y-103530238D02*
X79597186Y-103435000D01*
X79597186Y-103435000D02*
X79701948Y-103387380D01*
X79701948Y-103387380D02*
X79911472Y-103387380D01*
X79911472Y-103387380D02*
X80016234Y-103435000D01*
X80016234Y-103435000D02*
X80120996Y-103530238D01*
X80120996Y-103530238D02*
X80173377Y-103720714D01*
X80173377Y-103720714D02*
X80173377Y-104054047D01*
X80173377Y-104054047D02*
X80120996Y-104244523D01*
X80120996Y-104244523D02*
X80016234Y-104339761D01*
X80016234Y-104339761D02*
X79911472Y-104387380D01*
X79020996Y-104292142D02*
X78968615Y-104339761D01*
X78968615Y-104339761D02*
X78863853Y-104387380D01*
X78863853Y-104387380D02*
X78601948Y-104387380D01*
X78601948Y-104387380D02*
X78497186Y-104339761D01*
X78497186Y-104339761D02*
X78444805Y-104292142D01*
X78444805Y-104292142D02*
X78392424Y-104196904D01*
X78392424Y-104196904D02*
X78392424Y-104101666D01*
X78392424Y-104101666D02*
X78444805Y-103958809D01*
X78444805Y-103958809D02*
X79073377Y-103387380D01*
X79073377Y-103387380D02*
X78392424Y-103387380D01*
X77344805Y-103387380D02*
X77973377Y-103387380D01*
X77659091Y-103387380D02*
X77659091Y-104387380D01*
X77659091Y-104387380D02*
X77763853Y-104244523D01*
X77763853Y-104244523D02*
X77868615Y-104149285D01*
X77868615Y-104149285D02*
X77973377Y-104101666D01*
X99768615Y-81839761D02*
X99873377Y-81887380D01*
X99873377Y-81887380D02*
X100030520Y-81887380D01*
X100030520Y-81887380D02*
X100187663Y-81839761D01*
X100187663Y-81839761D02*
X100292425Y-81744523D01*
X100292425Y-81744523D02*
X100344806Y-81649285D01*
X100344806Y-81649285D02*
X100397187Y-81458809D01*
X100397187Y-81458809D02*
X100397187Y-81315952D01*
X100397187Y-81315952D02*
X100344806Y-81125476D01*
X100344806Y-81125476D02*
X100292425Y-81030238D01*
X100292425Y-81030238D02*
X100187663Y-80935000D01*
X100187663Y-80935000D02*
X100030520Y-80887380D01*
X100030520Y-80887380D02*
X99925758Y-80887380D01*
X99925758Y-80887380D02*
X99768615Y-80935000D01*
X99768615Y-80935000D02*
X99716234Y-80982619D01*
X99716234Y-80982619D02*
X99716234Y-81315952D01*
X99716234Y-81315952D02*
X99925758Y-81315952D01*
X99244806Y-80887380D02*
X99244806Y-81887380D01*
X99244806Y-81887380D02*
X98616234Y-80887380D01*
X98616234Y-80887380D02*
X98616234Y-81887380D01*
X98092425Y-80887380D02*
X98092425Y-81887380D01*
X98092425Y-81887380D02*
X97830520Y-81887380D01*
X97830520Y-81887380D02*
X97673377Y-81839761D01*
X97673377Y-81839761D02*
X97568615Y-81744523D01*
X97568615Y-81744523D02*
X97516234Y-81649285D01*
X97516234Y-81649285D02*
X97463853Y-81458809D01*
X97463853Y-81458809D02*
X97463853Y-81315952D01*
X97463853Y-81315952D02*
X97516234Y-81125476D01*
X97516234Y-81125476D02*
X97568615Y-81030238D01*
X97568615Y-81030238D02*
X97673377Y-80935000D01*
X97673377Y-80935000D02*
X97830520Y-80887380D01*
X97830520Y-80887380D02*
X98092425Y-80887380D01*
X79768615Y-81839761D02*
X79873377Y-81887380D01*
X79873377Y-81887380D02*
X80030520Y-81887380D01*
X80030520Y-81887380D02*
X80187663Y-81839761D01*
X80187663Y-81839761D02*
X80292425Y-81744523D01*
X80292425Y-81744523D02*
X80344806Y-81649285D01*
X80344806Y-81649285D02*
X80397187Y-81458809D01*
X80397187Y-81458809D02*
X80397187Y-81315952D01*
X80397187Y-81315952D02*
X80344806Y-81125476D01*
X80344806Y-81125476D02*
X80292425Y-81030238D01*
X80292425Y-81030238D02*
X80187663Y-80935000D01*
X80187663Y-80935000D02*
X80030520Y-80887380D01*
X80030520Y-80887380D02*
X79925758Y-80887380D01*
X79925758Y-80887380D02*
X79768615Y-80935000D01*
X79768615Y-80935000D02*
X79716234Y-80982619D01*
X79716234Y-80982619D02*
X79716234Y-81315952D01*
X79716234Y-81315952D02*
X79925758Y-81315952D01*
X79244806Y-80887380D02*
X79244806Y-81887380D01*
X79244806Y-81887380D02*
X78616234Y-80887380D01*
X78616234Y-80887380D02*
X78616234Y-81887380D01*
X78092425Y-80887380D02*
X78092425Y-81887380D01*
X78092425Y-81887380D02*
X77830520Y-81887380D01*
X77830520Y-81887380D02*
X77673377Y-81839761D01*
X77673377Y-81839761D02*
X77568615Y-81744523D01*
X77568615Y-81744523D02*
X77516234Y-81649285D01*
X77516234Y-81649285D02*
X77463853Y-81458809D01*
X77463853Y-81458809D02*
X77463853Y-81315952D01*
X77463853Y-81315952D02*
X77516234Y-81125476D01*
X77516234Y-81125476D02*
X77568615Y-81030238D01*
X77568615Y-81030238D02*
X77673377Y-80935000D01*
X77673377Y-80935000D02*
X77830520Y-80887380D01*
X77830520Y-80887380D02*
X78092425Y-80887380D01*
X99768615Y-104339761D02*
X99873377Y-104387380D01*
X99873377Y-104387380D02*
X100030520Y-104387380D01*
X100030520Y-104387380D02*
X100187663Y-104339761D01*
X100187663Y-104339761D02*
X100292425Y-104244523D01*
X100292425Y-104244523D02*
X100344806Y-104149285D01*
X100344806Y-104149285D02*
X100397187Y-103958809D01*
X100397187Y-103958809D02*
X100397187Y-103815952D01*
X100397187Y-103815952D02*
X100344806Y-103625476D01*
X100344806Y-103625476D02*
X100292425Y-103530238D01*
X100292425Y-103530238D02*
X100187663Y-103435000D01*
X100187663Y-103435000D02*
X100030520Y-103387380D01*
X100030520Y-103387380D02*
X99925758Y-103387380D01*
X99925758Y-103387380D02*
X99768615Y-103435000D01*
X99768615Y-103435000D02*
X99716234Y-103482619D01*
X99716234Y-103482619D02*
X99716234Y-103815952D01*
X99716234Y-103815952D02*
X99925758Y-103815952D01*
X99244806Y-103387380D02*
X99244806Y-104387380D01*
X99244806Y-104387380D02*
X98825758Y-104387380D01*
X98825758Y-104387380D02*
X98720996Y-104339761D01*
X98720996Y-104339761D02*
X98668615Y-104292142D01*
X98668615Y-104292142D02*
X98616234Y-104196904D01*
X98616234Y-104196904D02*
X98616234Y-104054047D01*
X98616234Y-104054047D02*
X98668615Y-103958809D01*
X98668615Y-103958809D02*
X98720996Y-103911190D01*
X98720996Y-103911190D02*
X98825758Y-103863571D01*
X98825758Y-103863571D02*
X99244806Y-103863571D01*
X98144806Y-103387380D02*
X98144806Y-104387380D01*
X97411472Y-104387380D02*
X97201948Y-104387380D01*
X97201948Y-104387380D02*
X97097186Y-104339761D01*
X97097186Y-104339761D02*
X96992424Y-104244523D01*
X96992424Y-104244523D02*
X96940043Y-104054047D01*
X96940043Y-104054047D02*
X96940043Y-103720714D01*
X96940043Y-103720714D02*
X96992424Y-103530238D01*
X96992424Y-103530238D02*
X97097186Y-103435000D01*
X97097186Y-103435000D02*
X97201948Y-103387380D01*
X97201948Y-103387380D02*
X97411472Y-103387380D01*
X97411472Y-103387380D02*
X97516234Y-103435000D01*
X97516234Y-103435000D02*
X97620996Y-103530238D01*
X97620996Y-103530238D02*
X97673377Y-103720714D01*
X97673377Y-103720714D02*
X97673377Y-104054047D01*
X97673377Y-104054047D02*
X97620996Y-104244523D01*
X97620996Y-104244523D02*
X97516234Y-104339761D01*
X97516234Y-104339761D02*
X97411472Y-104387380D01*
X96573377Y-104387380D02*
X95892424Y-104387380D01*
X95892424Y-104387380D02*
X96259091Y-104006428D01*
X96259091Y-104006428D02*
X96101948Y-104006428D01*
X96101948Y-104006428D02*
X95997186Y-103958809D01*
X95997186Y-103958809D02*
X95944805Y-103911190D01*
X95944805Y-103911190D02*
X95892424Y-103815952D01*
X95892424Y-103815952D02*
X95892424Y-103577857D01*
X95892424Y-103577857D02*
X95944805Y-103482619D01*
X95944805Y-103482619D02*
X95997186Y-103435000D01*
X95997186Y-103435000D02*
X96101948Y-103387380D01*
X96101948Y-103387380D02*
X96416234Y-103387380D01*
X96416234Y-103387380D02*
X96520996Y-103435000D01*
X96520996Y-103435000D02*
X96573377Y-103482619D01*
X94897186Y-104387380D02*
X95420996Y-104387380D01*
X95420996Y-104387380D02*
X95473377Y-103911190D01*
X95473377Y-103911190D02*
X95420996Y-103958809D01*
X95420996Y-103958809D02*
X95316234Y-104006428D01*
X95316234Y-104006428D02*
X95054329Y-104006428D01*
X95054329Y-104006428D02*
X94949567Y-103958809D01*
X94949567Y-103958809D02*
X94897186Y-103911190D01*
X94897186Y-103911190D02*
X94844805Y-103815952D01*
X94844805Y-103815952D02*
X94844805Y-103577857D01*
X94844805Y-103577857D02*
X94897186Y-103482619D01*
X94897186Y-103482619D02*
X94949567Y-103435000D01*
X94949567Y-103435000D02*
X95054329Y-103387380D01*
X95054329Y-103387380D02*
X95316234Y-103387380D01*
X95316234Y-103387380D02*
X95420996Y-103435000D01*
X95420996Y-103435000D02*
X95473377Y-103482619D01*
X81268615Y-86839761D02*
X81373377Y-86887380D01*
X81373377Y-86887380D02*
X81530520Y-86887380D01*
X81530520Y-86887380D02*
X81687663Y-86839761D01*
X81687663Y-86839761D02*
X81792425Y-86744523D01*
X81792425Y-86744523D02*
X81844806Y-86649285D01*
X81844806Y-86649285D02*
X81897187Y-86458809D01*
X81897187Y-86458809D02*
X81897187Y-86315952D01*
X81897187Y-86315952D02*
X81844806Y-86125476D01*
X81844806Y-86125476D02*
X81792425Y-86030238D01*
X81792425Y-86030238D02*
X81687663Y-85935000D01*
X81687663Y-85935000D02*
X81530520Y-85887380D01*
X81530520Y-85887380D02*
X81425758Y-85887380D01*
X81425758Y-85887380D02*
X81268615Y-85935000D01*
X81268615Y-85935000D02*
X81216234Y-85982619D01*
X81216234Y-85982619D02*
X81216234Y-86315952D01*
X81216234Y-86315952D02*
X81425758Y-86315952D01*
X80744806Y-85887380D02*
X80744806Y-86887380D01*
X80744806Y-86887380D02*
X80325758Y-86887380D01*
X80325758Y-86887380D02*
X80220996Y-86839761D01*
X80220996Y-86839761D02*
X80168615Y-86792142D01*
X80168615Y-86792142D02*
X80116234Y-86696904D01*
X80116234Y-86696904D02*
X80116234Y-86554047D01*
X80116234Y-86554047D02*
X80168615Y-86458809D01*
X80168615Y-86458809D02*
X80220996Y-86411190D01*
X80220996Y-86411190D02*
X80325758Y-86363571D01*
X80325758Y-86363571D02*
X80744806Y-86363571D01*
X79644806Y-85887380D02*
X79644806Y-86887380D01*
X78911472Y-86887380D02*
X78701948Y-86887380D01*
X78701948Y-86887380D02*
X78597186Y-86839761D01*
X78597186Y-86839761D02*
X78492424Y-86744523D01*
X78492424Y-86744523D02*
X78440043Y-86554047D01*
X78440043Y-86554047D02*
X78440043Y-86220714D01*
X78440043Y-86220714D02*
X78492424Y-86030238D01*
X78492424Y-86030238D02*
X78597186Y-85935000D01*
X78597186Y-85935000D02*
X78701948Y-85887380D01*
X78701948Y-85887380D02*
X78911472Y-85887380D01*
X78911472Y-85887380D02*
X79016234Y-85935000D01*
X79016234Y-85935000D02*
X79120996Y-86030238D01*
X79120996Y-86030238D02*
X79173377Y-86220714D01*
X79173377Y-86220714D02*
X79173377Y-86554047D01*
X79173377Y-86554047D02*
X79120996Y-86744523D01*
X79120996Y-86744523D02*
X79016234Y-86839761D01*
X79016234Y-86839761D02*
X78911472Y-86887380D01*
X78020996Y-86792142D02*
X77968615Y-86839761D01*
X77968615Y-86839761D02*
X77863853Y-86887380D01*
X77863853Y-86887380D02*
X77601948Y-86887380D01*
X77601948Y-86887380D02*
X77497186Y-86839761D01*
X77497186Y-86839761D02*
X77444805Y-86792142D01*
X77444805Y-86792142D02*
X77392424Y-86696904D01*
X77392424Y-86696904D02*
X77392424Y-86601666D01*
X77392424Y-86601666D02*
X77444805Y-86458809D01*
X77444805Y-86458809D02*
X78073377Y-85887380D01*
X78073377Y-85887380D02*
X77392424Y-85887380D01*
X82268615Y-101839761D02*
X82373377Y-101887380D01*
X82373377Y-101887380D02*
X82530520Y-101887380D01*
X82530520Y-101887380D02*
X82687663Y-101839761D01*
X82687663Y-101839761D02*
X82792425Y-101744523D01*
X82792425Y-101744523D02*
X82844806Y-101649285D01*
X82844806Y-101649285D02*
X82897187Y-101458809D01*
X82897187Y-101458809D02*
X82897187Y-101315952D01*
X82897187Y-101315952D02*
X82844806Y-101125476D01*
X82844806Y-101125476D02*
X82792425Y-101030238D01*
X82792425Y-101030238D02*
X82687663Y-100935000D01*
X82687663Y-100935000D02*
X82530520Y-100887380D01*
X82530520Y-100887380D02*
X82425758Y-100887380D01*
X82425758Y-100887380D02*
X82268615Y-100935000D01*
X82268615Y-100935000D02*
X82216234Y-100982619D01*
X82216234Y-100982619D02*
X82216234Y-101315952D01*
X82216234Y-101315952D02*
X82425758Y-101315952D01*
X81744806Y-100887380D02*
X81744806Y-101887380D01*
X81744806Y-101887380D02*
X81325758Y-101887380D01*
X81325758Y-101887380D02*
X81220996Y-101839761D01*
X81220996Y-101839761D02*
X81168615Y-101792142D01*
X81168615Y-101792142D02*
X81116234Y-101696904D01*
X81116234Y-101696904D02*
X81116234Y-101554047D01*
X81116234Y-101554047D02*
X81168615Y-101458809D01*
X81168615Y-101458809D02*
X81220996Y-101411190D01*
X81220996Y-101411190D02*
X81325758Y-101363571D01*
X81325758Y-101363571D02*
X81744806Y-101363571D01*
X80644806Y-100887380D02*
X80644806Y-101887380D01*
X79911472Y-101887380D02*
X79701948Y-101887380D01*
X79701948Y-101887380D02*
X79597186Y-101839761D01*
X79597186Y-101839761D02*
X79492424Y-101744523D01*
X79492424Y-101744523D02*
X79440043Y-101554047D01*
X79440043Y-101554047D02*
X79440043Y-101220714D01*
X79440043Y-101220714D02*
X79492424Y-101030238D01*
X79492424Y-101030238D02*
X79597186Y-100935000D01*
X79597186Y-100935000D02*
X79701948Y-100887380D01*
X79701948Y-100887380D02*
X79911472Y-100887380D01*
X79911472Y-100887380D02*
X80016234Y-100935000D01*
X80016234Y-100935000D02*
X80120996Y-101030238D01*
X80120996Y-101030238D02*
X80173377Y-101220714D01*
X80173377Y-101220714D02*
X80173377Y-101554047D01*
X80173377Y-101554047D02*
X80120996Y-101744523D01*
X80120996Y-101744523D02*
X80016234Y-101839761D01*
X80016234Y-101839761D02*
X79911472Y-101887380D01*
X78392424Y-100887380D02*
X79020996Y-100887380D01*
X78706710Y-100887380D02*
X78706710Y-101887380D01*
X78706710Y-101887380D02*
X78811472Y-101744523D01*
X78811472Y-101744523D02*
X78916234Y-101649285D01*
X78916234Y-101649285D02*
X79020996Y-101601666D01*
X77868615Y-100887380D02*
X77659091Y-100887380D01*
X77659091Y-100887380D02*
X77554329Y-100935000D01*
X77554329Y-100935000D02*
X77501948Y-100982619D01*
X77501948Y-100982619D02*
X77397186Y-101125476D01*
X77397186Y-101125476D02*
X77344805Y-101315952D01*
X77344805Y-101315952D02*
X77344805Y-101696904D01*
X77344805Y-101696904D02*
X77397186Y-101792142D01*
X77397186Y-101792142D02*
X77449567Y-101839761D01*
X77449567Y-101839761D02*
X77554329Y-101887380D01*
X77554329Y-101887380D02*
X77763853Y-101887380D01*
X77763853Y-101887380D02*
X77868615Y-101839761D01*
X77868615Y-101839761D02*
X77920996Y-101792142D01*
X77920996Y-101792142D02*
X77973377Y-101696904D01*
X77973377Y-101696904D02*
X77973377Y-101458809D01*
X77973377Y-101458809D02*
X77920996Y-101363571D01*
X77920996Y-101363571D02*
X77868615Y-101315952D01*
X77868615Y-101315952D02*
X77763853Y-101268333D01*
X77763853Y-101268333D02*
X77554329Y-101268333D01*
X77554329Y-101268333D02*
X77449567Y-101315952D01*
X77449567Y-101315952D02*
X77397186Y-101363571D01*
X77397186Y-101363571D02*
X77344805Y-101458809D01*
X82268615Y-114839761D02*
X82373377Y-114887380D01*
X82373377Y-114887380D02*
X82530520Y-114887380D01*
X82530520Y-114887380D02*
X82687663Y-114839761D01*
X82687663Y-114839761D02*
X82792425Y-114744523D01*
X82792425Y-114744523D02*
X82844806Y-114649285D01*
X82844806Y-114649285D02*
X82897187Y-114458809D01*
X82897187Y-114458809D02*
X82897187Y-114315952D01*
X82897187Y-114315952D02*
X82844806Y-114125476D01*
X82844806Y-114125476D02*
X82792425Y-114030238D01*
X82792425Y-114030238D02*
X82687663Y-113935000D01*
X82687663Y-113935000D02*
X82530520Y-113887380D01*
X82530520Y-113887380D02*
X82425758Y-113887380D01*
X82425758Y-113887380D02*
X82268615Y-113935000D01*
X82268615Y-113935000D02*
X82216234Y-113982619D01*
X82216234Y-113982619D02*
X82216234Y-114315952D01*
X82216234Y-114315952D02*
X82425758Y-114315952D01*
X81744806Y-113887380D02*
X81744806Y-114887380D01*
X81744806Y-114887380D02*
X81325758Y-114887380D01*
X81325758Y-114887380D02*
X81220996Y-114839761D01*
X81220996Y-114839761D02*
X81168615Y-114792142D01*
X81168615Y-114792142D02*
X81116234Y-114696904D01*
X81116234Y-114696904D02*
X81116234Y-114554047D01*
X81116234Y-114554047D02*
X81168615Y-114458809D01*
X81168615Y-114458809D02*
X81220996Y-114411190D01*
X81220996Y-114411190D02*
X81325758Y-114363571D01*
X81325758Y-114363571D02*
X81744806Y-114363571D01*
X80644806Y-113887380D02*
X80644806Y-114887380D01*
X79911472Y-114887380D02*
X79701948Y-114887380D01*
X79701948Y-114887380D02*
X79597186Y-114839761D01*
X79597186Y-114839761D02*
X79492424Y-114744523D01*
X79492424Y-114744523D02*
X79440043Y-114554047D01*
X79440043Y-114554047D02*
X79440043Y-114220714D01*
X79440043Y-114220714D02*
X79492424Y-114030238D01*
X79492424Y-114030238D02*
X79597186Y-113935000D01*
X79597186Y-113935000D02*
X79701948Y-113887380D01*
X79701948Y-113887380D02*
X79911472Y-113887380D01*
X79911472Y-113887380D02*
X80016234Y-113935000D01*
X80016234Y-113935000D02*
X80120996Y-114030238D01*
X80120996Y-114030238D02*
X80173377Y-114220714D01*
X80173377Y-114220714D02*
X80173377Y-114554047D01*
X80173377Y-114554047D02*
X80120996Y-114744523D01*
X80120996Y-114744523D02*
X80016234Y-114839761D01*
X80016234Y-114839761D02*
X79911472Y-114887380D01*
X79020996Y-114792142D02*
X78968615Y-114839761D01*
X78968615Y-114839761D02*
X78863853Y-114887380D01*
X78863853Y-114887380D02*
X78601948Y-114887380D01*
X78601948Y-114887380D02*
X78497186Y-114839761D01*
X78497186Y-114839761D02*
X78444805Y-114792142D01*
X78444805Y-114792142D02*
X78392424Y-114696904D01*
X78392424Y-114696904D02*
X78392424Y-114601666D01*
X78392424Y-114601666D02*
X78444805Y-114458809D01*
X78444805Y-114458809D02*
X79073377Y-113887380D01*
X79073377Y-113887380D02*
X78392424Y-113887380D01*
X78025758Y-114887380D02*
X77344805Y-114887380D01*
X77344805Y-114887380D02*
X77711472Y-114506428D01*
X77711472Y-114506428D02*
X77554329Y-114506428D01*
X77554329Y-114506428D02*
X77449567Y-114458809D01*
X77449567Y-114458809D02*
X77397186Y-114411190D01*
X77397186Y-114411190D02*
X77344805Y-114315952D01*
X77344805Y-114315952D02*
X77344805Y-114077857D01*
X77344805Y-114077857D02*
X77397186Y-113982619D01*
X77397186Y-113982619D02*
X77449567Y-113935000D01*
X77449567Y-113935000D02*
X77554329Y-113887380D01*
X77554329Y-113887380D02*
X77868615Y-113887380D01*
X77868615Y-113887380D02*
X77973377Y-113935000D01*
X77973377Y-113935000D02*
X78025758Y-113982619D01*
X99768615Y-101839761D02*
X99873377Y-101887380D01*
X99873377Y-101887380D02*
X100030520Y-101887380D01*
X100030520Y-101887380D02*
X100187663Y-101839761D01*
X100187663Y-101839761D02*
X100292425Y-101744523D01*
X100292425Y-101744523D02*
X100344806Y-101649285D01*
X100344806Y-101649285D02*
X100397187Y-101458809D01*
X100397187Y-101458809D02*
X100397187Y-101315952D01*
X100397187Y-101315952D02*
X100344806Y-101125476D01*
X100344806Y-101125476D02*
X100292425Y-101030238D01*
X100292425Y-101030238D02*
X100187663Y-100935000D01*
X100187663Y-100935000D02*
X100030520Y-100887380D01*
X100030520Y-100887380D02*
X99925758Y-100887380D01*
X99925758Y-100887380D02*
X99768615Y-100935000D01*
X99768615Y-100935000D02*
X99716234Y-100982619D01*
X99716234Y-100982619D02*
X99716234Y-101315952D01*
X99716234Y-101315952D02*
X99925758Y-101315952D01*
X99244806Y-100887380D02*
X99244806Y-101887380D01*
X99244806Y-101887380D02*
X98825758Y-101887380D01*
X98825758Y-101887380D02*
X98720996Y-101839761D01*
X98720996Y-101839761D02*
X98668615Y-101792142D01*
X98668615Y-101792142D02*
X98616234Y-101696904D01*
X98616234Y-101696904D02*
X98616234Y-101554047D01*
X98616234Y-101554047D02*
X98668615Y-101458809D01*
X98668615Y-101458809D02*
X98720996Y-101411190D01*
X98720996Y-101411190D02*
X98825758Y-101363571D01*
X98825758Y-101363571D02*
X99244806Y-101363571D01*
X98144806Y-100887380D02*
X98144806Y-101887380D01*
X97411472Y-101887380D02*
X97201948Y-101887380D01*
X97201948Y-101887380D02*
X97097186Y-101839761D01*
X97097186Y-101839761D02*
X96992424Y-101744523D01*
X96992424Y-101744523D02*
X96940043Y-101554047D01*
X96940043Y-101554047D02*
X96940043Y-101220714D01*
X96940043Y-101220714D02*
X96992424Y-101030238D01*
X96992424Y-101030238D02*
X97097186Y-100935000D01*
X97097186Y-100935000D02*
X97201948Y-100887380D01*
X97201948Y-100887380D02*
X97411472Y-100887380D01*
X97411472Y-100887380D02*
X97516234Y-100935000D01*
X97516234Y-100935000D02*
X97620996Y-101030238D01*
X97620996Y-101030238D02*
X97673377Y-101220714D01*
X97673377Y-101220714D02*
X97673377Y-101554047D01*
X97673377Y-101554047D02*
X97620996Y-101744523D01*
X97620996Y-101744523D02*
X97516234Y-101839761D01*
X97516234Y-101839761D02*
X97411472Y-101887380D01*
X96573377Y-101887380D02*
X95892424Y-101887380D01*
X95892424Y-101887380D02*
X96259091Y-101506428D01*
X96259091Y-101506428D02*
X96101948Y-101506428D01*
X96101948Y-101506428D02*
X95997186Y-101458809D01*
X95997186Y-101458809D02*
X95944805Y-101411190D01*
X95944805Y-101411190D02*
X95892424Y-101315952D01*
X95892424Y-101315952D02*
X95892424Y-101077857D01*
X95892424Y-101077857D02*
X95944805Y-100982619D01*
X95944805Y-100982619D02*
X95997186Y-100935000D01*
X95997186Y-100935000D02*
X96101948Y-100887380D01*
X96101948Y-100887380D02*
X96416234Y-100887380D01*
X96416234Y-100887380D02*
X96520996Y-100935000D01*
X96520996Y-100935000D02*
X96573377Y-100982619D01*
X95473377Y-101792142D02*
X95420996Y-101839761D01*
X95420996Y-101839761D02*
X95316234Y-101887380D01*
X95316234Y-101887380D02*
X95054329Y-101887380D01*
X95054329Y-101887380D02*
X94949567Y-101839761D01*
X94949567Y-101839761D02*
X94897186Y-101792142D01*
X94897186Y-101792142D02*
X94844805Y-101696904D01*
X94844805Y-101696904D02*
X94844805Y-101601666D01*
X94844805Y-101601666D02*
X94897186Y-101458809D01*
X94897186Y-101458809D02*
X95525758Y-100887380D01*
X95525758Y-100887380D02*
X94844805Y-100887380D01*
X100344806Y-113911190D02*
X99978139Y-113911190D01*
X99820996Y-113387380D02*
X100344806Y-113387380D01*
X100344806Y-113387380D02*
X100344806Y-114387380D01*
X100344806Y-114387380D02*
X99820996Y-114387380D01*
X99349568Y-113387380D02*
X99349568Y-114387380D01*
X99349568Y-114387380D02*
X98720996Y-113387380D01*
X98720996Y-113387380D02*
X98720996Y-114387380D01*
X99768615Y-111839761D02*
X99873377Y-111887380D01*
X99873377Y-111887380D02*
X100030520Y-111887380D01*
X100030520Y-111887380D02*
X100187663Y-111839761D01*
X100187663Y-111839761D02*
X100292425Y-111744523D01*
X100292425Y-111744523D02*
X100344806Y-111649285D01*
X100344806Y-111649285D02*
X100397187Y-111458809D01*
X100397187Y-111458809D02*
X100397187Y-111315952D01*
X100397187Y-111315952D02*
X100344806Y-111125476D01*
X100344806Y-111125476D02*
X100292425Y-111030238D01*
X100292425Y-111030238D02*
X100187663Y-110935000D01*
X100187663Y-110935000D02*
X100030520Y-110887380D01*
X100030520Y-110887380D02*
X99925758Y-110887380D01*
X99925758Y-110887380D02*
X99768615Y-110935000D01*
X99768615Y-110935000D02*
X99716234Y-110982619D01*
X99716234Y-110982619D02*
X99716234Y-111315952D01*
X99716234Y-111315952D02*
X99925758Y-111315952D01*
X99244806Y-110887380D02*
X99244806Y-111887380D01*
X99244806Y-111887380D02*
X98825758Y-111887380D01*
X98825758Y-111887380D02*
X98720996Y-111839761D01*
X98720996Y-111839761D02*
X98668615Y-111792142D01*
X98668615Y-111792142D02*
X98616234Y-111696904D01*
X98616234Y-111696904D02*
X98616234Y-111554047D01*
X98616234Y-111554047D02*
X98668615Y-111458809D01*
X98668615Y-111458809D02*
X98720996Y-111411190D01*
X98720996Y-111411190D02*
X98825758Y-111363571D01*
X98825758Y-111363571D02*
X99244806Y-111363571D01*
X98144806Y-110887380D02*
X98144806Y-111887380D01*
X97411472Y-111887380D02*
X97201948Y-111887380D01*
X97201948Y-111887380D02*
X97097186Y-111839761D01*
X97097186Y-111839761D02*
X96992424Y-111744523D01*
X96992424Y-111744523D02*
X96940043Y-111554047D01*
X96940043Y-111554047D02*
X96940043Y-111220714D01*
X96940043Y-111220714D02*
X96992424Y-111030238D01*
X96992424Y-111030238D02*
X97097186Y-110935000D01*
X97097186Y-110935000D02*
X97201948Y-110887380D01*
X97201948Y-110887380D02*
X97411472Y-110887380D01*
X97411472Y-110887380D02*
X97516234Y-110935000D01*
X97516234Y-110935000D02*
X97620996Y-111030238D01*
X97620996Y-111030238D02*
X97673377Y-111220714D01*
X97673377Y-111220714D02*
X97673377Y-111554047D01*
X97673377Y-111554047D02*
X97620996Y-111744523D01*
X97620996Y-111744523D02*
X97516234Y-111839761D01*
X97516234Y-111839761D02*
X97411472Y-111887380D01*
X96573377Y-111887380D02*
X95892424Y-111887380D01*
X95892424Y-111887380D02*
X96259091Y-111506428D01*
X96259091Y-111506428D02*
X96101948Y-111506428D01*
X96101948Y-111506428D02*
X95997186Y-111458809D01*
X95997186Y-111458809D02*
X95944805Y-111411190D01*
X95944805Y-111411190D02*
X95892424Y-111315952D01*
X95892424Y-111315952D02*
X95892424Y-111077857D01*
X95892424Y-111077857D02*
X95944805Y-110982619D01*
X95944805Y-110982619D02*
X95997186Y-110935000D01*
X95997186Y-110935000D02*
X96101948Y-110887380D01*
X96101948Y-110887380D02*
X96416234Y-110887380D01*
X96416234Y-110887380D02*
X96520996Y-110935000D01*
X96520996Y-110935000D02*
X96573377Y-110982619D01*
X94949567Y-111887380D02*
X95159091Y-111887380D01*
X95159091Y-111887380D02*
X95263853Y-111839761D01*
X95263853Y-111839761D02*
X95316234Y-111792142D01*
X95316234Y-111792142D02*
X95420996Y-111649285D01*
X95420996Y-111649285D02*
X95473377Y-111458809D01*
X95473377Y-111458809D02*
X95473377Y-111077857D01*
X95473377Y-111077857D02*
X95420996Y-110982619D01*
X95420996Y-110982619D02*
X95368615Y-110935000D01*
X95368615Y-110935000D02*
X95263853Y-110887380D01*
X95263853Y-110887380D02*
X95054329Y-110887380D01*
X95054329Y-110887380D02*
X94949567Y-110935000D01*
X94949567Y-110935000D02*
X94897186Y-110982619D01*
X94897186Y-110982619D02*
X94844805Y-111077857D01*
X94844805Y-111077857D02*
X94844805Y-111315952D01*
X94844805Y-111315952D02*
X94897186Y-111411190D01*
X94897186Y-111411190D02*
X94949567Y-111458809D01*
X94949567Y-111458809D02*
X95054329Y-111506428D01*
X95054329Y-111506428D02*
X95263853Y-111506428D01*
X95263853Y-111506428D02*
X95368615Y-111458809D01*
X95368615Y-111458809D02*
X95420996Y-111411190D01*
X95420996Y-111411190D02*
X95473377Y-111315952D01*
X99768615Y-86839761D02*
X99873377Y-86887380D01*
X99873377Y-86887380D02*
X100030520Y-86887380D01*
X100030520Y-86887380D02*
X100187663Y-86839761D01*
X100187663Y-86839761D02*
X100292425Y-86744523D01*
X100292425Y-86744523D02*
X100344806Y-86649285D01*
X100344806Y-86649285D02*
X100397187Y-86458809D01*
X100397187Y-86458809D02*
X100397187Y-86315952D01*
X100397187Y-86315952D02*
X100344806Y-86125476D01*
X100344806Y-86125476D02*
X100292425Y-86030238D01*
X100292425Y-86030238D02*
X100187663Y-85935000D01*
X100187663Y-85935000D02*
X100030520Y-85887380D01*
X100030520Y-85887380D02*
X99925758Y-85887380D01*
X99925758Y-85887380D02*
X99768615Y-85935000D01*
X99768615Y-85935000D02*
X99716234Y-85982619D01*
X99716234Y-85982619D02*
X99716234Y-86315952D01*
X99716234Y-86315952D02*
X99925758Y-86315952D01*
X99244806Y-85887380D02*
X99244806Y-86887380D01*
X99244806Y-86887380D02*
X98825758Y-86887380D01*
X98825758Y-86887380D02*
X98720996Y-86839761D01*
X98720996Y-86839761D02*
X98668615Y-86792142D01*
X98668615Y-86792142D02*
X98616234Y-86696904D01*
X98616234Y-86696904D02*
X98616234Y-86554047D01*
X98616234Y-86554047D02*
X98668615Y-86458809D01*
X98668615Y-86458809D02*
X98720996Y-86411190D01*
X98720996Y-86411190D02*
X98825758Y-86363571D01*
X98825758Y-86363571D02*
X99244806Y-86363571D01*
X98144806Y-85887380D02*
X98144806Y-86887380D01*
X97411472Y-86887380D02*
X97201948Y-86887380D01*
X97201948Y-86887380D02*
X97097186Y-86839761D01*
X97097186Y-86839761D02*
X96992424Y-86744523D01*
X96992424Y-86744523D02*
X96940043Y-86554047D01*
X96940043Y-86554047D02*
X96940043Y-86220714D01*
X96940043Y-86220714D02*
X96992424Y-86030238D01*
X96992424Y-86030238D02*
X97097186Y-85935000D01*
X97097186Y-85935000D02*
X97201948Y-85887380D01*
X97201948Y-85887380D02*
X97411472Y-85887380D01*
X97411472Y-85887380D02*
X97516234Y-85935000D01*
X97516234Y-85935000D02*
X97620996Y-86030238D01*
X97620996Y-86030238D02*
X97673377Y-86220714D01*
X97673377Y-86220714D02*
X97673377Y-86554047D01*
X97673377Y-86554047D02*
X97620996Y-86744523D01*
X97620996Y-86744523D02*
X97516234Y-86839761D01*
X97516234Y-86839761D02*
X97411472Y-86887380D01*
X95892424Y-85887380D02*
X96520996Y-85887380D01*
X96206710Y-85887380D02*
X96206710Y-86887380D01*
X96206710Y-86887380D02*
X96311472Y-86744523D01*
X96311472Y-86744523D02*
X96416234Y-86649285D01*
X96416234Y-86649285D02*
X96520996Y-86601666D01*
X95473377Y-86792142D02*
X95420996Y-86839761D01*
X95420996Y-86839761D02*
X95316234Y-86887380D01*
X95316234Y-86887380D02*
X95054329Y-86887380D01*
X95054329Y-86887380D02*
X94949567Y-86839761D01*
X94949567Y-86839761D02*
X94897186Y-86792142D01*
X94897186Y-86792142D02*
X94844805Y-86696904D01*
X94844805Y-86696904D02*
X94844805Y-86601666D01*
X94844805Y-86601666D02*
X94897186Y-86458809D01*
X94897186Y-86458809D02*
X95525758Y-85887380D01*
X95525758Y-85887380D02*
X94844805Y-85887380D01*
X81268615Y-106839761D02*
X81373377Y-106887380D01*
X81373377Y-106887380D02*
X81530520Y-106887380D01*
X81530520Y-106887380D02*
X81687663Y-106839761D01*
X81687663Y-106839761D02*
X81792425Y-106744523D01*
X81792425Y-106744523D02*
X81844806Y-106649285D01*
X81844806Y-106649285D02*
X81897187Y-106458809D01*
X81897187Y-106458809D02*
X81897187Y-106315952D01*
X81897187Y-106315952D02*
X81844806Y-106125476D01*
X81844806Y-106125476D02*
X81792425Y-106030238D01*
X81792425Y-106030238D02*
X81687663Y-105935000D01*
X81687663Y-105935000D02*
X81530520Y-105887380D01*
X81530520Y-105887380D02*
X81425758Y-105887380D01*
X81425758Y-105887380D02*
X81268615Y-105935000D01*
X81268615Y-105935000D02*
X81216234Y-105982619D01*
X81216234Y-105982619D02*
X81216234Y-106315952D01*
X81216234Y-106315952D02*
X81425758Y-106315952D01*
X80744806Y-105887380D02*
X80744806Y-106887380D01*
X80744806Y-106887380D02*
X80325758Y-106887380D01*
X80325758Y-106887380D02*
X80220996Y-106839761D01*
X80220996Y-106839761D02*
X80168615Y-106792142D01*
X80168615Y-106792142D02*
X80116234Y-106696904D01*
X80116234Y-106696904D02*
X80116234Y-106554047D01*
X80116234Y-106554047D02*
X80168615Y-106458809D01*
X80168615Y-106458809D02*
X80220996Y-106411190D01*
X80220996Y-106411190D02*
X80325758Y-106363571D01*
X80325758Y-106363571D02*
X80744806Y-106363571D01*
X79644806Y-105887380D02*
X79644806Y-106887380D01*
X78911472Y-106887380D02*
X78701948Y-106887380D01*
X78701948Y-106887380D02*
X78597186Y-106839761D01*
X78597186Y-106839761D02*
X78492424Y-106744523D01*
X78492424Y-106744523D02*
X78440043Y-106554047D01*
X78440043Y-106554047D02*
X78440043Y-106220714D01*
X78440043Y-106220714D02*
X78492424Y-106030238D01*
X78492424Y-106030238D02*
X78597186Y-105935000D01*
X78597186Y-105935000D02*
X78701948Y-105887380D01*
X78701948Y-105887380D02*
X78911472Y-105887380D01*
X78911472Y-105887380D02*
X79016234Y-105935000D01*
X79016234Y-105935000D02*
X79120996Y-106030238D01*
X79120996Y-106030238D02*
X79173377Y-106220714D01*
X79173377Y-106220714D02*
X79173377Y-106554047D01*
X79173377Y-106554047D02*
X79120996Y-106744523D01*
X79120996Y-106744523D02*
X79016234Y-106839761D01*
X79016234Y-106839761D02*
X78911472Y-106887380D01*
X78073377Y-106887380D02*
X77392424Y-106887380D01*
X77392424Y-106887380D02*
X77759091Y-106506428D01*
X77759091Y-106506428D02*
X77601948Y-106506428D01*
X77601948Y-106506428D02*
X77497186Y-106458809D01*
X77497186Y-106458809D02*
X77444805Y-106411190D01*
X77444805Y-106411190D02*
X77392424Y-106315952D01*
X77392424Y-106315952D02*
X77392424Y-106077857D01*
X77392424Y-106077857D02*
X77444805Y-105982619D01*
X77444805Y-105982619D02*
X77497186Y-105935000D01*
X77497186Y-105935000D02*
X77601948Y-105887380D01*
X77601948Y-105887380D02*
X77916234Y-105887380D01*
X77916234Y-105887380D02*
X78020996Y-105935000D01*
X78020996Y-105935000D02*
X78073377Y-105982619D01*
X89868615Y-72387380D02*
X89868615Y-71577857D01*
X89868615Y-71577857D02*
X89820996Y-71482619D01*
X89820996Y-71482619D02*
X89773377Y-71435000D01*
X89773377Y-71435000D02*
X89678139Y-71387380D01*
X89678139Y-71387380D02*
X89487663Y-71387380D01*
X89487663Y-71387380D02*
X89392425Y-71435000D01*
X89392425Y-71435000D02*
X89344806Y-71482619D01*
X89344806Y-71482619D02*
X89297187Y-71577857D01*
X89297187Y-71577857D02*
X89297187Y-72387380D01*
X88868615Y-71435000D02*
X88725758Y-71387380D01*
X88725758Y-71387380D02*
X88487663Y-71387380D01*
X88487663Y-71387380D02*
X88392425Y-71435000D01*
X88392425Y-71435000D02*
X88344806Y-71482619D01*
X88344806Y-71482619D02*
X88297187Y-71577857D01*
X88297187Y-71577857D02*
X88297187Y-71673095D01*
X88297187Y-71673095D02*
X88344806Y-71768333D01*
X88344806Y-71768333D02*
X88392425Y-71815952D01*
X88392425Y-71815952D02*
X88487663Y-71863571D01*
X88487663Y-71863571D02*
X88678139Y-71911190D01*
X88678139Y-71911190D02*
X88773377Y-71958809D01*
X88773377Y-71958809D02*
X88820996Y-72006428D01*
X88820996Y-72006428D02*
X88868615Y-72101666D01*
X88868615Y-72101666D02*
X88868615Y-72196904D01*
X88868615Y-72196904D02*
X88820996Y-72292142D01*
X88820996Y-72292142D02*
X88773377Y-72339761D01*
X88773377Y-72339761D02*
X88678139Y-72387380D01*
X88678139Y-72387380D02*
X88440044Y-72387380D01*
X88440044Y-72387380D02*
X88297187Y-72339761D01*
X87535282Y-71911190D02*
X87392425Y-71863571D01*
X87392425Y-71863571D02*
X87344806Y-71815952D01*
X87344806Y-71815952D02*
X87297187Y-71720714D01*
X87297187Y-71720714D02*
X87297187Y-71577857D01*
X87297187Y-71577857D02*
X87344806Y-71482619D01*
X87344806Y-71482619D02*
X87392425Y-71435000D01*
X87392425Y-71435000D02*
X87487663Y-71387380D01*
X87487663Y-71387380D02*
X87868615Y-71387380D01*
X87868615Y-71387380D02*
X87868615Y-72387380D01*
X87868615Y-72387380D02*
X87535282Y-72387380D01*
X87535282Y-72387380D02*
X87440044Y-72339761D01*
X87440044Y-72339761D02*
X87392425Y-72292142D01*
X87392425Y-72292142D02*
X87344806Y-72196904D01*
X87344806Y-72196904D02*
X87344806Y-72101666D01*
X87344806Y-72101666D02*
X87392425Y-72006428D01*
X87392425Y-72006428D02*
X87440044Y-71958809D01*
X87440044Y-71958809D02*
X87535282Y-71911190D01*
X87535282Y-71911190D02*
X87868615Y-71911190D01*
X99768615Y-96839761D02*
X99873377Y-96887380D01*
X99873377Y-96887380D02*
X100030520Y-96887380D01*
X100030520Y-96887380D02*
X100187663Y-96839761D01*
X100187663Y-96839761D02*
X100292425Y-96744523D01*
X100292425Y-96744523D02*
X100344806Y-96649285D01*
X100344806Y-96649285D02*
X100397187Y-96458809D01*
X100397187Y-96458809D02*
X100397187Y-96315952D01*
X100397187Y-96315952D02*
X100344806Y-96125476D01*
X100344806Y-96125476D02*
X100292425Y-96030238D01*
X100292425Y-96030238D02*
X100187663Y-95935000D01*
X100187663Y-95935000D02*
X100030520Y-95887380D01*
X100030520Y-95887380D02*
X99925758Y-95887380D01*
X99925758Y-95887380D02*
X99768615Y-95935000D01*
X99768615Y-95935000D02*
X99716234Y-95982619D01*
X99716234Y-95982619D02*
X99716234Y-96315952D01*
X99716234Y-96315952D02*
X99925758Y-96315952D01*
X99244806Y-95887380D02*
X99244806Y-96887380D01*
X99244806Y-96887380D02*
X98825758Y-96887380D01*
X98825758Y-96887380D02*
X98720996Y-96839761D01*
X98720996Y-96839761D02*
X98668615Y-96792142D01*
X98668615Y-96792142D02*
X98616234Y-96696904D01*
X98616234Y-96696904D02*
X98616234Y-96554047D01*
X98616234Y-96554047D02*
X98668615Y-96458809D01*
X98668615Y-96458809D02*
X98720996Y-96411190D01*
X98720996Y-96411190D02*
X98825758Y-96363571D01*
X98825758Y-96363571D02*
X99244806Y-96363571D01*
X98144806Y-95887380D02*
X98144806Y-96887380D01*
X97411472Y-96887380D02*
X97201948Y-96887380D01*
X97201948Y-96887380D02*
X97097186Y-96839761D01*
X97097186Y-96839761D02*
X96992424Y-96744523D01*
X96992424Y-96744523D02*
X96940043Y-96554047D01*
X96940043Y-96554047D02*
X96940043Y-96220714D01*
X96940043Y-96220714D02*
X96992424Y-96030238D01*
X96992424Y-96030238D02*
X97097186Y-95935000D01*
X97097186Y-95935000D02*
X97201948Y-95887380D01*
X97201948Y-95887380D02*
X97411472Y-95887380D01*
X97411472Y-95887380D02*
X97516234Y-95935000D01*
X97516234Y-95935000D02*
X97620996Y-96030238D01*
X97620996Y-96030238D02*
X97673377Y-96220714D01*
X97673377Y-96220714D02*
X97673377Y-96554047D01*
X97673377Y-96554047D02*
X97620996Y-96744523D01*
X97620996Y-96744523D02*
X97516234Y-96839761D01*
X97516234Y-96839761D02*
X97411472Y-96887380D01*
X96520996Y-96792142D02*
X96468615Y-96839761D01*
X96468615Y-96839761D02*
X96363853Y-96887380D01*
X96363853Y-96887380D02*
X96101948Y-96887380D01*
X96101948Y-96887380D02*
X95997186Y-96839761D01*
X95997186Y-96839761D02*
X95944805Y-96792142D01*
X95944805Y-96792142D02*
X95892424Y-96696904D01*
X95892424Y-96696904D02*
X95892424Y-96601666D01*
X95892424Y-96601666D02*
X95944805Y-96458809D01*
X95944805Y-96458809D02*
X96573377Y-95887380D01*
X96573377Y-95887380D02*
X95892424Y-95887380D01*
X94897186Y-96887380D02*
X95420996Y-96887380D01*
X95420996Y-96887380D02*
X95473377Y-96411190D01*
X95473377Y-96411190D02*
X95420996Y-96458809D01*
X95420996Y-96458809D02*
X95316234Y-96506428D01*
X95316234Y-96506428D02*
X95054329Y-96506428D01*
X95054329Y-96506428D02*
X94949567Y-96458809D01*
X94949567Y-96458809D02*
X94897186Y-96411190D01*
X94897186Y-96411190D02*
X94844805Y-96315952D01*
X94844805Y-96315952D02*
X94844805Y-96077857D01*
X94844805Y-96077857D02*
X94897186Y-95982619D01*
X94897186Y-95982619D02*
X94949567Y-95935000D01*
X94949567Y-95935000D02*
X95054329Y-95887380D01*
X95054329Y-95887380D02*
X95316234Y-95887380D01*
X95316234Y-95887380D02*
X95420996Y-95935000D01*
X95420996Y-95935000D02*
X95473377Y-95982619D01*
X99768615Y-91839761D02*
X99873377Y-91887380D01*
X99873377Y-91887380D02*
X100030520Y-91887380D01*
X100030520Y-91887380D02*
X100187663Y-91839761D01*
X100187663Y-91839761D02*
X100292425Y-91744523D01*
X100292425Y-91744523D02*
X100344806Y-91649285D01*
X100344806Y-91649285D02*
X100397187Y-91458809D01*
X100397187Y-91458809D02*
X100397187Y-91315952D01*
X100397187Y-91315952D02*
X100344806Y-91125476D01*
X100344806Y-91125476D02*
X100292425Y-91030238D01*
X100292425Y-91030238D02*
X100187663Y-90935000D01*
X100187663Y-90935000D02*
X100030520Y-90887380D01*
X100030520Y-90887380D02*
X99925758Y-90887380D01*
X99925758Y-90887380D02*
X99768615Y-90935000D01*
X99768615Y-90935000D02*
X99716234Y-90982619D01*
X99716234Y-90982619D02*
X99716234Y-91315952D01*
X99716234Y-91315952D02*
X99925758Y-91315952D01*
X99244806Y-90887380D02*
X99244806Y-91887380D01*
X99244806Y-91887380D02*
X98825758Y-91887380D01*
X98825758Y-91887380D02*
X98720996Y-91839761D01*
X98720996Y-91839761D02*
X98668615Y-91792142D01*
X98668615Y-91792142D02*
X98616234Y-91696904D01*
X98616234Y-91696904D02*
X98616234Y-91554047D01*
X98616234Y-91554047D02*
X98668615Y-91458809D01*
X98668615Y-91458809D02*
X98720996Y-91411190D01*
X98720996Y-91411190D02*
X98825758Y-91363571D01*
X98825758Y-91363571D02*
X99244806Y-91363571D01*
X98144806Y-90887380D02*
X98144806Y-91887380D01*
X97411472Y-91887380D02*
X97201948Y-91887380D01*
X97201948Y-91887380D02*
X97097186Y-91839761D01*
X97097186Y-91839761D02*
X96992424Y-91744523D01*
X96992424Y-91744523D02*
X96940043Y-91554047D01*
X96940043Y-91554047D02*
X96940043Y-91220714D01*
X96940043Y-91220714D02*
X96992424Y-91030238D01*
X96992424Y-91030238D02*
X97097186Y-90935000D01*
X97097186Y-90935000D02*
X97201948Y-90887380D01*
X97201948Y-90887380D02*
X97411472Y-90887380D01*
X97411472Y-90887380D02*
X97516234Y-90935000D01*
X97516234Y-90935000D02*
X97620996Y-91030238D01*
X97620996Y-91030238D02*
X97673377Y-91220714D01*
X97673377Y-91220714D02*
X97673377Y-91554047D01*
X97673377Y-91554047D02*
X97620996Y-91744523D01*
X97620996Y-91744523D02*
X97516234Y-91839761D01*
X97516234Y-91839761D02*
X97411472Y-91887380D01*
X96520996Y-91792142D02*
X96468615Y-91839761D01*
X96468615Y-91839761D02*
X96363853Y-91887380D01*
X96363853Y-91887380D02*
X96101948Y-91887380D01*
X96101948Y-91887380D02*
X95997186Y-91839761D01*
X95997186Y-91839761D02*
X95944805Y-91792142D01*
X95944805Y-91792142D02*
X95892424Y-91696904D01*
X95892424Y-91696904D02*
X95892424Y-91601666D01*
X95892424Y-91601666D02*
X95944805Y-91458809D01*
X95944805Y-91458809D02*
X96573377Y-90887380D01*
X96573377Y-90887380D02*
X95892424Y-90887380D01*
X95525758Y-91887380D02*
X94792424Y-91887380D01*
X94792424Y-91887380D02*
X95263853Y-90887380D01*
D10*
X149154819Y-73993333D02*
X149869104Y-73993333D01*
X149869104Y-73993333D02*
X150011961Y-74040952D01*
X150011961Y-74040952D02*
X150107200Y-74136190D01*
X150107200Y-74136190D02*
X150154819Y-74279047D01*
X150154819Y-74279047D02*
X150154819Y-74374285D01*
X149250057Y-73564761D02*
X149202438Y-73517142D01*
X149202438Y-73517142D02*
X149154819Y-73421904D01*
X149154819Y-73421904D02*
X149154819Y-73183809D01*
X149154819Y-73183809D02*
X149202438Y-73088571D01*
X149202438Y-73088571D02*
X149250057Y-73040952D01*
X149250057Y-73040952D02*
X149345295Y-72993333D01*
X149345295Y-72993333D02*
X149440533Y-72993333D01*
X149440533Y-72993333D02*
X149583390Y-73040952D01*
X149583390Y-73040952D02*
X150154819Y-73612380D01*
X150154819Y-73612380D02*
X150154819Y-72993333D01*
X48791905Y-96554819D02*
X48791905Y-95554819D01*
X48791905Y-95554819D02*
X49030000Y-95554819D01*
X49030000Y-95554819D02*
X49172857Y-95602438D01*
X49172857Y-95602438D02*
X49268095Y-95697676D01*
X49268095Y-95697676D02*
X49315714Y-95792914D01*
X49315714Y-95792914D02*
X49363333Y-95983390D01*
X49363333Y-95983390D02*
X49363333Y-96126247D01*
X49363333Y-96126247D02*
X49315714Y-96316723D01*
X49315714Y-96316723D02*
X49268095Y-96411961D01*
X49268095Y-96411961D02*
X49172857Y-96507200D01*
X49172857Y-96507200D02*
X49030000Y-96554819D01*
X49030000Y-96554819D02*
X48791905Y-96554819D01*
X49934762Y-95983390D02*
X49839524Y-95935771D01*
X49839524Y-95935771D02*
X49791905Y-95888152D01*
X49791905Y-95888152D02*
X49744286Y-95792914D01*
X49744286Y-95792914D02*
X49744286Y-95745295D01*
X49744286Y-95745295D02*
X49791905Y-95650057D01*
X49791905Y-95650057D02*
X49839524Y-95602438D01*
X49839524Y-95602438D02*
X49934762Y-95554819D01*
X49934762Y-95554819D02*
X50125238Y-95554819D01*
X50125238Y-95554819D02*
X50220476Y-95602438D01*
X50220476Y-95602438D02*
X50268095Y-95650057D01*
X50268095Y-95650057D02*
X50315714Y-95745295D01*
X50315714Y-95745295D02*
X50315714Y-95792914D01*
X50315714Y-95792914D02*
X50268095Y-95888152D01*
X50268095Y-95888152D02*
X50220476Y-95935771D01*
X50220476Y-95935771D02*
X50125238Y-95983390D01*
X50125238Y-95983390D02*
X49934762Y-95983390D01*
X49934762Y-95983390D02*
X49839524Y-96031009D01*
X49839524Y-96031009D02*
X49791905Y-96078628D01*
X49791905Y-96078628D02*
X49744286Y-96173866D01*
X49744286Y-96173866D02*
X49744286Y-96364342D01*
X49744286Y-96364342D02*
X49791905Y-96459580D01*
X49791905Y-96459580D02*
X49839524Y-96507200D01*
X49839524Y-96507200D02*
X49934762Y-96554819D01*
X49934762Y-96554819D02*
X50125238Y-96554819D01*
X50125238Y-96554819D02*
X50220476Y-96507200D01*
X50220476Y-96507200D02*
X50268095Y-96459580D01*
X50268095Y-96459580D02*
X50315714Y-96364342D01*
X50315714Y-96364342D02*
X50315714Y-96173866D01*
X50315714Y-96173866D02*
X50268095Y-96078628D01*
X50268095Y-96078628D02*
X50220476Y-96031009D01*
X50220476Y-96031009D02*
X50125238Y-95983390D01*
X114831905Y-114334819D02*
X114831905Y-113334819D01*
X114831905Y-113334819D02*
X115070000Y-113334819D01*
X115070000Y-113334819D02*
X115212857Y-113382438D01*
X115212857Y-113382438D02*
X115308095Y-113477676D01*
X115308095Y-113477676D02*
X115355714Y-113572914D01*
X115355714Y-113572914D02*
X115403333Y-113763390D01*
X115403333Y-113763390D02*
X115403333Y-113906247D01*
X115403333Y-113906247D02*
X115355714Y-114096723D01*
X115355714Y-114096723D02*
X115308095Y-114191961D01*
X115308095Y-114191961D02*
X115212857Y-114287200D01*
X115212857Y-114287200D02*
X115070000Y-114334819D01*
X115070000Y-114334819D02*
X114831905Y-114334819D01*
X116260476Y-113334819D02*
X116070000Y-113334819D01*
X116070000Y-113334819D02*
X115974762Y-113382438D01*
X115974762Y-113382438D02*
X115927143Y-113430057D01*
X115927143Y-113430057D02*
X115831905Y-113572914D01*
X115831905Y-113572914D02*
X115784286Y-113763390D01*
X115784286Y-113763390D02*
X115784286Y-114144342D01*
X115784286Y-114144342D02*
X115831905Y-114239580D01*
X115831905Y-114239580D02*
X115879524Y-114287200D01*
X115879524Y-114287200D02*
X115974762Y-114334819D01*
X115974762Y-114334819D02*
X116165238Y-114334819D01*
X116165238Y-114334819D02*
X116260476Y-114287200D01*
X116260476Y-114287200D02*
X116308095Y-114239580D01*
X116308095Y-114239580D02*
X116355714Y-114144342D01*
X116355714Y-114144342D02*
X116355714Y-113906247D01*
X116355714Y-113906247D02*
X116308095Y-113811009D01*
X116308095Y-113811009D02*
X116260476Y-113763390D01*
X116260476Y-113763390D02*
X116165238Y-113715771D01*
X116165238Y-113715771D02*
X115974762Y-113715771D01*
X115974762Y-113715771D02*
X115879524Y-113763390D01*
X115879524Y-113763390D02*
X115831905Y-113811009D01*
X115831905Y-113811009D02*
X115784286Y-113906247D01*
X48791905Y-71154819D02*
X48791905Y-70154819D01*
X48791905Y-70154819D02*
X49030000Y-70154819D01*
X49030000Y-70154819D02*
X49172857Y-70202438D01*
X49172857Y-70202438D02*
X49268095Y-70297676D01*
X49268095Y-70297676D02*
X49315714Y-70392914D01*
X49315714Y-70392914D02*
X49363333Y-70583390D01*
X49363333Y-70583390D02*
X49363333Y-70726247D01*
X49363333Y-70726247D02*
X49315714Y-70916723D01*
X49315714Y-70916723D02*
X49268095Y-71011961D01*
X49268095Y-71011961D02*
X49172857Y-71107200D01*
X49172857Y-71107200D02*
X49030000Y-71154819D01*
X49030000Y-71154819D02*
X48791905Y-71154819D01*
X49696667Y-70154819D02*
X50363333Y-70154819D01*
X50363333Y-70154819D02*
X49934762Y-71154819D01*
X52264819Y-85443333D02*
X52979104Y-85443333D01*
X52979104Y-85443333D02*
X53121961Y-85490952D01*
X53121961Y-85490952D02*
X53217200Y-85586190D01*
X53217200Y-85586190D02*
X53264819Y-85729047D01*
X53264819Y-85729047D02*
X53264819Y-85824285D01*
X52264819Y-85062380D02*
X52264819Y-84443333D01*
X52264819Y-84443333D02*
X52645771Y-84776666D01*
X52645771Y-84776666D02*
X52645771Y-84633809D01*
X52645771Y-84633809D02*
X52693390Y-84538571D01*
X52693390Y-84538571D02*
X52741009Y-84490952D01*
X52741009Y-84490952D02*
X52836247Y-84443333D01*
X52836247Y-84443333D02*
X53074342Y-84443333D01*
X53074342Y-84443333D02*
X53169580Y-84490952D01*
X53169580Y-84490952D02*
X53217200Y-84538571D01*
X53217200Y-84538571D02*
X53264819Y-84633809D01*
X53264819Y-84633809D02*
X53264819Y-84919523D01*
X53264819Y-84919523D02*
X53217200Y-85014761D01*
X53217200Y-85014761D02*
X53169580Y-85062380D01*
X41324819Y-81613333D02*
X42039104Y-81613333D01*
X42039104Y-81613333D02*
X42181961Y-81660952D01*
X42181961Y-81660952D02*
X42277200Y-81756190D01*
X42277200Y-81756190D02*
X42324819Y-81899047D01*
X42324819Y-81899047D02*
X42324819Y-81994285D01*
X42324819Y-80613333D02*
X42324819Y-81184761D01*
X42324819Y-80899047D02*
X41324819Y-80899047D01*
X41324819Y-80899047D02*
X41467676Y-80994285D01*
X41467676Y-80994285D02*
X41562914Y-81089523D01*
X41562914Y-81089523D02*
X41610533Y-81184761D01*
X119911905Y-99094819D02*
X119911905Y-98094819D01*
X119911905Y-98094819D02*
X120150000Y-98094819D01*
X120150000Y-98094819D02*
X120292857Y-98142438D01*
X120292857Y-98142438D02*
X120388095Y-98237676D01*
X120388095Y-98237676D02*
X120435714Y-98332914D01*
X120435714Y-98332914D02*
X120483333Y-98523390D01*
X120483333Y-98523390D02*
X120483333Y-98666247D01*
X120483333Y-98666247D02*
X120435714Y-98856723D01*
X120435714Y-98856723D02*
X120388095Y-98951961D01*
X120388095Y-98951961D02*
X120292857Y-99047200D01*
X120292857Y-99047200D02*
X120150000Y-99094819D01*
X120150000Y-99094819D02*
X119911905Y-99094819D01*
X121388095Y-98094819D02*
X120911905Y-98094819D01*
X120911905Y-98094819D02*
X120864286Y-98571009D01*
X120864286Y-98571009D02*
X120911905Y-98523390D01*
X120911905Y-98523390D02*
X121007143Y-98475771D01*
X121007143Y-98475771D02*
X121245238Y-98475771D01*
X121245238Y-98475771D02*
X121340476Y-98523390D01*
X121340476Y-98523390D02*
X121388095Y-98571009D01*
X121388095Y-98571009D02*
X121435714Y-98666247D01*
X121435714Y-98666247D02*
X121435714Y-98904342D01*
X121435714Y-98904342D02*
X121388095Y-98999580D01*
X121388095Y-98999580D02*
X121340476Y-99047200D01*
X121340476Y-99047200D02*
X121245238Y-99094819D01*
X121245238Y-99094819D02*
X121007143Y-99094819D01*
X121007143Y-99094819D02*
X120911905Y-99047200D01*
X120911905Y-99047200D02*
X120864286Y-98999580D01*
X98893333Y-124934819D02*
X98560000Y-124458628D01*
X98321905Y-124934819D02*
X98321905Y-123934819D01*
X98321905Y-123934819D02*
X98702857Y-123934819D01*
X98702857Y-123934819D02*
X98798095Y-123982438D01*
X98798095Y-123982438D02*
X98845714Y-124030057D01*
X98845714Y-124030057D02*
X98893333Y-124125295D01*
X98893333Y-124125295D02*
X98893333Y-124268152D01*
X98893333Y-124268152D02*
X98845714Y-124363390D01*
X98845714Y-124363390D02*
X98798095Y-124411009D01*
X98798095Y-124411009D02*
X98702857Y-124458628D01*
X98702857Y-124458628D02*
X98321905Y-124458628D01*
X99798095Y-123934819D02*
X99321905Y-123934819D01*
X99321905Y-123934819D02*
X99274286Y-124411009D01*
X99274286Y-124411009D02*
X99321905Y-124363390D01*
X99321905Y-124363390D02*
X99417143Y-124315771D01*
X99417143Y-124315771D02*
X99655238Y-124315771D01*
X99655238Y-124315771D02*
X99750476Y-124363390D01*
X99750476Y-124363390D02*
X99798095Y-124411009D01*
X99798095Y-124411009D02*
X99845714Y-124506247D01*
X99845714Y-124506247D02*
X99845714Y-124744342D01*
X99845714Y-124744342D02*
X99798095Y-124839580D01*
X99798095Y-124839580D02*
X99750476Y-124887200D01*
X99750476Y-124887200D02*
X99655238Y-124934819D01*
X99655238Y-124934819D02*
X99417143Y-124934819D01*
X99417143Y-124934819D02*
X99321905Y-124887200D01*
X99321905Y-124887200D02*
X99274286Y-124839580D01*
X73493333Y-124934819D02*
X73160000Y-124458628D01*
X72921905Y-124934819D02*
X72921905Y-123934819D01*
X72921905Y-123934819D02*
X73302857Y-123934819D01*
X73302857Y-123934819D02*
X73398095Y-123982438D01*
X73398095Y-123982438D02*
X73445714Y-124030057D01*
X73445714Y-124030057D02*
X73493333Y-124125295D01*
X73493333Y-124125295D02*
X73493333Y-124268152D01*
X73493333Y-124268152D02*
X73445714Y-124363390D01*
X73445714Y-124363390D02*
X73398095Y-124411009D01*
X73398095Y-124411009D02*
X73302857Y-124458628D01*
X73302857Y-124458628D02*
X72921905Y-124458628D01*
X73826667Y-123934819D02*
X74445714Y-123934819D01*
X74445714Y-123934819D02*
X74112381Y-124315771D01*
X74112381Y-124315771D02*
X74255238Y-124315771D01*
X74255238Y-124315771D02*
X74350476Y-124363390D01*
X74350476Y-124363390D02*
X74398095Y-124411009D01*
X74398095Y-124411009D02*
X74445714Y-124506247D01*
X74445714Y-124506247D02*
X74445714Y-124744342D01*
X74445714Y-124744342D02*
X74398095Y-124839580D01*
X74398095Y-124839580D02*
X74350476Y-124887200D01*
X74350476Y-124887200D02*
X74255238Y-124934819D01*
X74255238Y-124934819D02*
X73969524Y-124934819D01*
X73969524Y-124934819D02*
X73874286Y-124887200D01*
X73874286Y-124887200D02*
X73826667Y-124839580D01*
X152834819Y-117006666D02*
X152358628Y-117339999D01*
X152834819Y-117578094D02*
X151834819Y-117578094D01*
X151834819Y-117578094D02*
X151834819Y-117197142D01*
X151834819Y-117197142D02*
X151882438Y-117101904D01*
X151882438Y-117101904D02*
X151930057Y-117054285D01*
X151930057Y-117054285D02*
X152025295Y-117006666D01*
X152025295Y-117006666D02*
X152168152Y-117006666D01*
X152168152Y-117006666D02*
X152263390Y-117054285D01*
X152263390Y-117054285D02*
X152311009Y-117101904D01*
X152311009Y-117101904D02*
X152358628Y-117197142D01*
X152358628Y-117197142D02*
X152358628Y-117578094D01*
X151834819Y-116673332D02*
X151834819Y-116006666D01*
X151834819Y-116006666D02*
X152834819Y-116435237D01*
X136408095Y-76924819D02*
X136408095Y-77734342D01*
X136408095Y-77734342D02*
X136455714Y-77829580D01*
X136455714Y-77829580D02*
X136503333Y-77877200D01*
X136503333Y-77877200D02*
X136598571Y-77924819D01*
X136598571Y-77924819D02*
X136789047Y-77924819D01*
X136789047Y-77924819D02*
X136884285Y-77877200D01*
X136884285Y-77877200D02*
X136931904Y-77829580D01*
X136931904Y-77829580D02*
X136979523Y-77734342D01*
X136979523Y-77734342D02*
X136979523Y-76924819D01*
X137884285Y-77258152D02*
X137884285Y-77924819D01*
X137646190Y-76877200D02*
X137408095Y-77591485D01*
X137408095Y-77591485D02*
X138027142Y-77591485D01*
X126714819Y-90523333D02*
X127429104Y-90523333D01*
X127429104Y-90523333D02*
X127571961Y-90570952D01*
X127571961Y-90570952D02*
X127667200Y-90666190D01*
X127667200Y-90666190D02*
X127714819Y-90809047D01*
X127714819Y-90809047D02*
X127714819Y-90904285D01*
X127048152Y-89618571D02*
X127714819Y-89618571D01*
X126667200Y-89856666D02*
X127381485Y-90094761D01*
X127381485Y-90094761D02*
X127381485Y-89475714D01*
X52844819Y-126468094D02*
X51844819Y-126468094D01*
X51844819Y-126468094D02*
X51844819Y-126229999D01*
X51844819Y-126229999D02*
X51892438Y-126087142D01*
X51892438Y-126087142D02*
X51987676Y-125991904D01*
X51987676Y-125991904D02*
X52082914Y-125944285D01*
X52082914Y-125944285D02*
X52273390Y-125896666D01*
X52273390Y-125896666D02*
X52416247Y-125896666D01*
X52416247Y-125896666D02*
X52606723Y-125944285D01*
X52606723Y-125944285D02*
X52701961Y-125991904D01*
X52701961Y-125991904D02*
X52797200Y-126087142D01*
X52797200Y-126087142D02*
X52844819Y-126229999D01*
X52844819Y-126229999D02*
X52844819Y-126468094D01*
X52844819Y-124944285D02*
X52844819Y-125515713D01*
X52844819Y-125229999D02*
X51844819Y-125229999D01*
X51844819Y-125229999D02*
X51987676Y-125325237D01*
X51987676Y-125325237D02*
X52082914Y-125420475D01*
X52082914Y-125420475D02*
X52130533Y-125515713D01*
X62748095Y-73114819D02*
X62748095Y-73924342D01*
X62748095Y-73924342D02*
X62795714Y-74019580D01*
X62795714Y-74019580D02*
X62843333Y-74067200D01*
X62843333Y-74067200D02*
X62938571Y-74114819D01*
X62938571Y-74114819D02*
X63129047Y-74114819D01*
X63129047Y-74114819D02*
X63224285Y-74067200D01*
X63224285Y-74067200D02*
X63271904Y-74019580D01*
X63271904Y-74019580D02*
X63319523Y-73924342D01*
X63319523Y-73924342D02*
X63319523Y-73114819D01*
X64319523Y-74114819D02*
X63748095Y-74114819D01*
X64033809Y-74114819D02*
X64033809Y-73114819D01*
X64033809Y-73114819D02*
X63938571Y-73257676D01*
X63938571Y-73257676D02*
X63843333Y-73352914D01*
X63843333Y-73352914D02*
X63748095Y-73400533D01*
X109728095Y-78404819D02*
X109728095Y-79214342D01*
X109728095Y-79214342D02*
X109775714Y-79309580D01*
X109775714Y-79309580D02*
X109823333Y-79357200D01*
X109823333Y-79357200D02*
X109918571Y-79404819D01*
X109918571Y-79404819D02*
X110109047Y-79404819D01*
X110109047Y-79404819D02*
X110204285Y-79357200D01*
X110204285Y-79357200D02*
X110251904Y-79309580D01*
X110251904Y-79309580D02*
X110299523Y-79214342D01*
X110299523Y-79214342D02*
X110299523Y-78404819D01*
X111204285Y-78404819D02*
X111013809Y-78404819D01*
X111013809Y-78404819D02*
X110918571Y-78452438D01*
X110918571Y-78452438D02*
X110870952Y-78500057D01*
X110870952Y-78500057D02*
X110775714Y-78642914D01*
X110775714Y-78642914D02*
X110728095Y-78833390D01*
X110728095Y-78833390D02*
X110728095Y-79214342D01*
X110728095Y-79214342D02*
X110775714Y-79309580D01*
X110775714Y-79309580D02*
X110823333Y-79357200D01*
X110823333Y-79357200D02*
X110918571Y-79404819D01*
X110918571Y-79404819D02*
X111109047Y-79404819D01*
X111109047Y-79404819D02*
X111204285Y-79357200D01*
X111204285Y-79357200D02*
X111251904Y-79309580D01*
X111251904Y-79309580D02*
X111299523Y-79214342D01*
X111299523Y-79214342D02*
X111299523Y-78976247D01*
X111299523Y-78976247D02*
X111251904Y-78881009D01*
X111251904Y-78881009D02*
X111204285Y-78833390D01*
X111204285Y-78833390D02*
X111109047Y-78785771D01*
X111109047Y-78785771D02*
X110918571Y-78785771D01*
X110918571Y-78785771D02*
X110823333Y-78833390D01*
X110823333Y-78833390D02*
X110775714Y-78881009D01*
X110775714Y-78881009D02*
X110728095Y-78976247D01*
X63333333Y-96994819D02*
X63000000Y-96518628D01*
X62761905Y-96994819D02*
X62761905Y-95994819D01*
X62761905Y-95994819D02*
X63142857Y-95994819D01*
X63142857Y-95994819D02*
X63238095Y-96042438D01*
X63238095Y-96042438D02*
X63285714Y-96090057D01*
X63285714Y-96090057D02*
X63333333Y-96185295D01*
X63333333Y-96185295D02*
X63333333Y-96328152D01*
X63333333Y-96328152D02*
X63285714Y-96423390D01*
X63285714Y-96423390D02*
X63238095Y-96471009D01*
X63238095Y-96471009D02*
X63142857Y-96518628D01*
X63142857Y-96518628D02*
X62761905Y-96518628D01*
X63809524Y-96994819D02*
X64000000Y-96994819D01*
X64000000Y-96994819D02*
X64095238Y-96947200D01*
X64095238Y-96947200D02*
X64142857Y-96899580D01*
X64142857Y-96899580D02*
X64238095Y-96756723D01*
X64238095Y-96756723D02*
X64285714Y-96566247D01*
X64285714Y-96566247D02*
X64285714Y-96185295D01*
X64285714Y-96185295D02*
X64238095Y-96090057D01*
X64238095Y-96090057D02*
X64190476Y-96042438D01*
X64190476Y-96042438D02*
X64095238Y-95994819D01*
X64095238Y-95994819D02*
X63904762Y-95994819D01*
X63904762Y-95994819D02*
X63809524Y-96042438D01*
X63809524Y-96042438D02*
X63761905Y-96090057D01*
X63761905Y-96090057D02*
X63714286Y-96185295D01*
X63714286Y-96185295D02*
X63714286Y-96423390D01*
X63714286Y-96423390D02*
X63761905Y-96518628D01*
X63761905Y-96518628D02*
X63809524Y-96566247D01*
X63809524Y-96566247D02*
X63904762Y-96613866D01*
X63904762Y-96613866D02*
X64095238Y-96613866D01*
X64095238Y-96613866D02*
X64190476Y-96566247D01*
X64190476Y-96566247D02*
X64238095Y-96518628D01*
X64238095Y-96518628D02*
X64285714Y-96423390D01*
D12*
X148470000Y-89670000D02*
X151250000Y-89670000D01*
X148470000Y-98290000D02*
X148470000Y-89670000D01*
X151250000Y-89670000D02*
X151250000Y-98290000D01*
X151250000Y-98290000D02*
X148470000Y-98290000D01*
X82050000Y-125610000D02*
X90670000Y-125610000D01*
X82050000Y-128390000D02*
X82050000Y-125610000D01*
X90670000Y-125610000D02*
X90670000Y-128390000D01*
X90670000Y-128390000D02*
X82050000Y-128390000D01*
X129420000Y-104010000D02*
X129420000Y-105410000D01*
X129420000Y-106680000D02*
X129420000Y-124590000D01*
X129420000Y-124590000D02*
X144920000Y-124590000D01*
X130820000Y-104010000D02*
X129420000Y-104010000D01*
X132090000Y-104010000D02*
X132090000Y-106680000D01*
X132090000Y-106680000D02*
X129420000Y-106680000D01*
X132090000Y-106680000D02*
X132090000Y-124590000D01*
X142250000Y-104010000D02*
X142250000Y-124590000D01*
X144920000Y-104010000D02*
X132090000Y-104010000D01*
X144920000Y-124590000D02*
X144920000Y-104010000D01*
X115920000Y-109220000D02*
X115300000Y-109220000D01*
X117760000Y-109220000D02*
G75*
G02*
X115920000Y-109220000I-920000J0D01*
G01*
X115920000Y-109220000D02*
G75*
G02*
X117760000Y-109220000I920000J0D01*
G01*
X37410000Y-124170000D02*
X37254000Y-124170000D01*
X39726000Y-124170000D02*
X39570000Y-124170000D01*
X37410000Y-126770961D02*
G75*
G02*
X37410000Y-124689039I1080000J1040961D01*
G01*
X37410000Y-127401437D02*
G75*
G02*
X37254484Y-124170000I1080000J1671437D01*
G01*
X39570000Y-124689039D02*
G75*
G02*
X39570000Y-126770961I-1080000J-1040961D01*
G01*
X39725516Y-124170000D02*
G75*
G02*
X39570000Y-127401437I-1235516J-1560000D01*
G01*
X42880000Y-124170000D02*
X42724000Y-124170000D01*
X45196000Y-124170000D02*
X45040000Y-124170000D01*
X42880000Y-126770961D02*
G75*
G02*
X42880000Y-124689039I1080000J1040961D01*
G01*
X42880000Y-127401437D02*
G75*
G02*
X42724484Y-124170000I1080000J1671437D01*
G01*
X45040000Y-124689039D02*
G75*
G02*
X45040000Y-126770961I-1080000J-1040961D01*
G01*
X45195516Y-124170000D02*
G75*
G02*
X45040000Y-127401437I-1235516J-1560000D01*
G01*
X56650000Y-125610000D02*
X65270000Y-125610000D01*
X56650000Y-128390000D02*
X56650000Y-125610000D01*
X65270000Y-125610000D02*
X65270000Y-128390000D01*
X65270000Y-128390000D02*
X56650000Y-128390000D01*
D11*
X42960000Y-119080000D02*
X27960000Y-119080000D01*
X27960000Y-94080000D01*
X42960000Y-94080000D01*
X42960000Y-119080000D01*
D12*
X47400000Y-103890000D02*
X47400000Y-106390000D01*
X49200000Y-104190000D02*
X49200000Y-105190000D01*
X49200000Y-105190000D02*
X47700000Y-105190000D01*
X49200000Y-115910000D02*
X47700000Y-115910000D01*
X49200000Y-116910000D02*
X49200000Y-115910000D01*
X49900000Y-103890000D02*
X47400000Y-103890000D01*
X50010000Y-104190000D02*
X50010000Y-104690000D01*
X50010000Y-104690000D02*
X51220000Y-104690000D01*
X50010000Y-116410000D02*
X50010000Y-116910000D01*
X51220000Y-104690000D02*
X51220000Y-116410000D01*
X51220000Y-116410000D02*
X50010000Y-116410000D01*
X51720000Y-104190000D02*
X47700000Y-104190000D01*
X47700000Y-116910000D01*
X51720000Y-116910000D01*
X51720000Y-104190000D01*
X55760000Y-101470000D02*
X55760000Y-102870000D01*
X55760000Y-104140000D02*
X55760000Y-122050000D01*
X55760000Y-122050000D02*
X71260000Y-122050000D01*
X57160000Y-101470000D02*
X55760000Y-101470000D01*
X58430000Y-101470000D02*
X58430000Y-104140000D01*
X58430000Y-104140000D02*
X55760000Y-104140000D01*
X58430000Y-104140000D02*
X58430000Y-122050000D01*
X68590000Y-101470000D02*
X68590000Y-122050000D01*
X71260000Y-101470000D02*
X58430000Y-101470000D01*
X71260000Y-122050000D02*
X71260000Y-101470000D01*
X36330000Y-72270000D02*
X44950000Y-72270000D01*
X36330000Y-75050000D02*
X36330000Y-72270000D01*
X44950000Y-72270000D02*
X44950000Y-75050000D01*
X44950000Y-75050000D02*
X36330000Y-75050000D01*
X31940000Y-124170000D02*
X31784000Y-124170000D01*
X34256000Y-124170000D02*
X34100000Y-124170000D01*
X31940000Y-126770961D02*
G75*
G02*
X31940000Y-124689039I1080000J1040961D01*
G01*
X31940000Y-127401437D02*
G75*
G02*
X31784484Y-124170000I1080000J1671437D01*
G01*
X34100000Y-124689039D02*
G75*
G02*
X34100000Y-126770961I-1080000J-1040961D01*
G01*
X34255516Y-124170000D02*
G75*
G02*
X34100000Y-127401437I-1235516J-1560000D01*
G01*
X121850000Y-108890000D02*
X121850000Y-111390000D01*
X123650000Y-109190000D02*
X123650000Y-110190000D01*
X123650000Y-110190000D02*
X122150000Y-110190000D01*
X123650000Y-120910000D02*
X122150000Y-120910000D01*
X123650000Y-121910000D02*
X123650000Y-120910000D01*
X124350000Y-108890000D02*
X121850000Y-108890000D01*
X124460000Y-109190000D02*
X124460000Y-109690000D01*
X124460000Y-109690000D02*
X125670000Y-109690000D01*
X124460000Y-121410000D02*
X124460000Y-121910000D01*
X125670000Y-109690000D02*
X125670000Y-121410000D01*
X125670000Y-121410000D02*
X124460000Y-121410000D01*
X126170000Y-109190000D02*
X122150000Y-109190000D01*
X122150000Y-121910000D01*
X126170000Y-121910000D01*
X126170000Y-109190000D01*
D11*
X92482500Y-73899800D02*
X84862500Y-73899800D01*
X84862500Y-69645621D01*
X92482500Y-69645621D01*
X92482500Y-73899800D01*
D13*
X103002500Y-122159800D02*
X74702500Y-122159800D01*
X74702500Y-70659800D01*
X103002500Y-70659800D01*
X103002500Y-122159800D01*
D12*
X107840000Y-72280000D02*
X107840000Y-75040000D01*
X146050000Y-72280000D02*
X107840000Y-72280000D01*
X146050000Y-72280000D02*
X146050000Y-75040000D01*
X146050000Y-75040000D02*
X107840000Y-75040000D01*
X147320000Y-72280000D02*
X148700000Y-72280000D01*
X148700000Y-72280000D02*
X148700000Y-73660000D01*
X47970000Y-97824000D02*
X47970000Y-97980000D01*
X47970000Y-100140000D02*
X47970000Y-100296000D01*
X47970000Y-97824484D02*
G75*
G02*
X51201437Y-97980000I1560000J-1235516D01*
G01*
X48489039Y-97980000D02*
G75*
G02*
X50570961Y-97980000I1040961J-1080000D01*
G01*
X50570961Y-100140000D02*
G75*
G02*
X48489039Y-100140000I-1040961J1080000D01*
G01*
X51201437Y-100140000D02*
G75*
G02*
X47970000Y-100295516I-1671437J1080000D01*
G01*
X114010000Y-115604000D02*
X114010000Y-115760000D01*
X114010000Y-117920000D02*
X114010000Y-118076000D01*
X114010000Y-115604484D02*
G75*
G02*
X117241437Y-115760000I1560000J-1235516D01*
G01*
X114529039Y-115760000D02*
G75*
G02*
X116610961Y-115760000I1040961J-1080000D01*
G01*
X116610961Y-117920000D02*
G75*
G02*
X114529039Y-117920000I-1040961J1080000D01*
G01*
X117241437Y-117920000D02*
G75*
G02*
X114010000Y-118075516I-1671437J1080000D01*
G01*
X47970000Y-72424000D02*
X47970000Y-72580000D01*
X47970000Y-74740000D02*
X47970000Y-74896000D01*
X47970000Y-72424484D02*
G75*
G02*
X51201437Y-72580000I1560000J-1235516D01*
G01*
X48489039Y-72580000D02*
G75*
G02*
X50570961Y-72580000I1040961J-1080000D01*
G01*
X50570961Y-74740000D02*
G75*
G02*
X48489039Y-74740000I-1040961J1080000D01*
G01*
X51201437Y-74740000D02*
G75*
G02*
X47970000Y-74895516I-1671437J1080000D01*
G01*
X47400000Y-78450000D02*
X47400000Y-80950000D01*
X49200000Y-78750000D02*
X49200000Y-79750000D01*
X49200000Y-79750000D02*
X47700000Y-79750000D01*
X49200000Y-90470000D02*
X47700000Y-90470000D01*
X49200000Y-91470000D02*
X49200000Y-90470000D01*
X49900000Y-78450000D02*
X47400000Y-78450000D01*
X50010000Y-78750000D02*
X50010000Y-79250000D01*
X50010000Y-79250000D02*
X51220000Y-79250000D01*
X50010000Y-90970000D02*
X50010000Y-91470000D01*
X51220000Y-79250000D02*
X51220000Y-90970000D01*
X51220000Y-90970000D02*
X50010000Y-90970000D01*
X51720000Y-78750000D02*
X47700000Y-78750000D01*
X47700000Y-91470000D01*
X51720000Y-91470000D01*
X51720000Y-78750000D01*
X25570000Y-76680000D02*
X40070000Y-76680000D01*
X25570000Y-85880000D02*
X25570000Y-76680000D01*
X34170000Y-85880000D02*
X25570000Y-85880000D01*
X40070000Y-76680000D02*
X40070000Y-78680000D01*
X40070000Y-83880000D02*
X40070000Y-85880000D01*
X40070000Y-85880000D02*
X38770000Y-85880000D01*
X40370000Y-76380000D02*
X39070000Y-76380000D01*
X40370000Y-78080000D02*
X40370000Y-76380000D01*
X119090000Y-100364000D02*
X119090000Y-100520000D01*
X119090000Y-102680000D02*
X119090000Y-102836000D01*
X119090000Y-100364484D02*
G75*
G02*
X122321437Y-100520000I1560000J-1235516D01*
G01*
X119609039Y-100520000D02*
G75*
G02*
X121690961Y-100520000I1040961J-1080000D01*
G01*
X121690961Y-102680000D02*
G75*
G02*
X119609039Y-102680000I-1040961J1080000D01*
G01*
X122321437Y-102680000D02*
G75*
G02*
X119090000Y-102835516I-1671437J1080000D01*
G01*
X94750000Y-125610000D02*
X103370000Y-125610000D01*
X94750000Y-128390000D02*
X94750000Y-125610000D01*
X103370000Y-125610000D02*
X103370000Y-128390000D01*
X103370000Y-128390000D02*
X94750000Y-128390000D01*
X69350000Y-125610000D02*
X77970000Y-125610000D01*
X69350000Y-128390000D02*
X69350000Y-125610000D01*
X77970000Y-125610000D02*
X77970000Y-128390000D01*
X77970000Y-128390000D02*
X69350000Y-128390000D01*
X148470000Y-112530000D02*
X151250000Y-112530000D01*
X148470000Y-121150000D02*
X148470000Y-112530000D01*
X151250000Y-112530000D02*
X151250000Y-121150000D01*
X151250000Y-121150000D02*
X148470000Y-121150000D01*
X129420000Y-78610000D02*
X129420000Y-80010000D01*
X129420000Y-81280000D02*
X129420000Y-99190000D01*
X129420000Y-99190000D02*
X144920000Y-99190000D01*
X130820000Y-78610000D02*
X129420000Y-78610000D01*
X132090000Y-78610000D02*
X132090000Y-81280000D01*
X132090000Y-81280000D02*
X129420000Y-81280000D01*
X132090000Y-81280000D02*
X132090000Y-99190000D01*
X142250000Y-78610000D02*
X142250000Y-99190000D01*
X144920000Y-78610000D02*
X132090000Y-78610000D01*
X144920000Y-99190000D02*
X144920000Y-78610000D01*
X121850000Y-83530000D02*
X121850000Y-86030000D01*
X123650000Y-83830000D02*
X123650000Y-84830000D01*
X123650000Y-84830000D02*
X122150000Y-84830000D01*
X123650000Y-95550000D02*
X122150000Y-95550000D01*
X123650000Y-96550000D02*
X123650000Y-95550000D01*
X124350000Y-83530000D02*
X121850000Y-83530000D01*
X124460000Y-83830000D02*
X124460000Y-84330000D01*
X124460000Y-84330000D02*
X125670000Y-84330000D01*
X124460000Y-96050000D02*
X124460000Y-96550000D01*
X125670000Y-84330000D02*
X125670000Y-96050000D01*
X125670000Y-96050000D02*
X124460000Y-96050000D01*
X126170000Y-83830000D02*
X122150000Y-83830000D01*
X122150000Y-96550000D01*
X126170000Y-96550000D01*
X126170000Y-83830000D01*
X48350000Y-124170000D02*
X48194000Y-124170000D01*
X50666000Y-124170000D02*
X50510000Y-124170000D01*
X48350000Y-126770961D02*
G75*
G02*
X48350000Y-124689039I1080000J1040961D01*
G01*
X48350000Y-127401437D02*
G75*
G02*
X48194484Y-124170000I1080000J1671437D01*
G01*
X50510000Y-124689039D02*
G75*
G02*
X50510000Y-126770961I-1080000J-1040961D01*
G01*
X50665516Y-124170000D02*
G75*
G02*
X50510000Y-127401437I-1235516J-1560000D01*
G01*
X55760000Y-74800000D02*
X55760000Y-76200000D01*
X55760000Y-77470000D02*
X55760000Y-95380000D01*
X55760000Y-95380000D02*
X71260000Y-95380000D01*
X57160000Y-74800000D02*
X55760000Y-74800000D01*
X58430000Y-74800000D02*
X58430000Y-77470000D01*
X58430000Y-77470000D02*
X55760000Y-77470000D01*
X58430000Y-77470000D02*
X58430000Y-95380000D01*
X68590000Y-74800000D02*
X68590000Y-95380000D01*
X71260000Y-74800000D02*
X58430000Y-74800000D01*
X71260000Y-95380000D02*
X71260000Y-74800000D01*
X107840000Y-79950000D02*
X107840000Y-100390000D01*
X107840000Y-100390000D02*
X113140000Y-100390000D01*
X109490000Y-79950000D02*
X107840000Y-79950000D01*
X113140000Y-79950000D02*
X111490000Y-79950000D01*
X113140000Y-100390000D02*
X113140000Y-79950000D01*
X111490000Y-79950000D02*
G75*
G02*
X109490000Y-79950000I-1000000J0D01*
G01*
X59190000Y-97670000D02*
X67810000Y-97670000D01*
X59190000Y-100450000D02*
X59190000Y-97670000D01*
X67810000Y-97670000D02*
X67810000Y-100450000D01*
X67810000Y-100450000D02*
X59190000Y-100450000D01*
%LPC*%
D14*
X149860000Y-91440000D03*
X149860000Y-96520000D03*
X83820000Y-127000000D03*
X88900000Y-127000000D03*
D15*
X130820000Y-105410000D03*
D16*
X130820000Y-107950000D03*
X130820000Y-110490000D03*
X130820000Y-113030000D03*
X130820000Y-115570000D03*
X130820000Y-118110000D03*
X130820000Y-120650000D03*
X130820000Y-123190000D03*
X143520000Y-123190000D03*
X143520000Y-120650000D03*
X143520000Y-118110000D03*
X143520000Y-115570000D03*
X143520000Y-113030000D03*
X143520000Y-110490000D03*
X143520000Y-107950000D03*
X143520000Y-105410000D03*
D17*
X116840000Y-109220000D03*
X114300000Y-109220000D03*
D18*
X38490000Y-124460000D03*
D19*
X38490000Y-127000000D03*
D18*
X43960000Y-124460000D03*
D19*
X43960000Y-127000000D03*
D14*
X58420000Y-127000000D03*
X63500000Y-127000000D03*
D20*
X41660000Y-95080000D03*
X39160000Y-95080000D03*
X36660000Y-95080000D03*
X34260000Y-95080000D03*
X31760000Y-95080000D03*
X29260000Y-95080000D03*
D21*
X50010000Y-106800000D03*
D22*
X50010000Y-109300000D03*
X50010000Y-111800000D03*
X50010000Y-114300000D03*
D15*
X57160000Y-102870000D03*
D16*
X57160000Y-105410000D03*
X57160000Y-107950000D03*
X57160000Y-110490000D03*
X57160000Y-113030000D03*
X57160000Y-115570000D03*
X57160000Y-118110000D03*
X57160000Y-120650000D03*
X69860000Y-120650000D03*
X69860000Y-118110000D03*
X69860000Y-115570000D03*
X69860000Y-113030000D03*
X69860000Y-110490000D03*
X69860000Y-107950000D03*
X69860000Y-105410000D03*
X69860000Y-102870000D03*
D14*
X38100000Y-73660000D03*
X43180000Y-73660000D03*
D18*
X33020000Y-124460000D03*
D19*
X33020000Y-127000000D03*
D21*
X124460000Y-111800000D03*
D22*
X124460000Y-114300000D03*
X124460000Y-116800000D03*
X124460000Y-119300000D03*
D23*
X101600040Y-78739987D03*
X101600040Y-81279987D03*
X101600040Y-83819987D03*
X101600040Y-86359987D03*
X101600040Y-88899987D03*
X101600040Y-91439987D03*
X101600040Y-93979987D03*
X101600040Y-96519987D03*
X101600040Y-99059987D03*
X101600040Y-101599987D03*
X101600040Y-104139987D03*
X101600040Y-106679987D03*
X101600040Y-109219987D03*
X101600040Y-111759987D03*
X101600040Y-114299987D03*
X76200040Y-78739987D03*
X76200040Y-81279987D03*
X76200040Y-83819987D03*
X76200040Y-86359987D03*
X76200040Y-88899987D03*
X76200040Y-91439987D03*
X76200040Y-93979987D03*
X76200040Y-96519987D03*
X76200040Y-99059987D03*
X76200040Y-101599987D03*
X76200040Y-104139987D03*
X76200040Y-106679987D03*
X76200040Y-109219987D03*
X76200040Y-111759987D03*
X76200040Y-114299987D03*
D24*
X147320000Y-73660000D03*
D25*
X144780000Y-73660000D03*
X142240000Y-73660000D03*
X139700000Y-73660000D03*
X137160000Y-73660000D03*
X134620000Y-73660000D03*
X132080000Y-73660000D03*
X129540000Y-73660000D03*
X127000000Y-73660000D03*
X124460000Y-73660000D03*
X121920000Y-73660000D03*
X119380000Y-73660000D03*
X116840000Y-73660000D03*
X114300000Y-73660000D03*
X111760000Y-73660000D03*
X109220000Y-73660000D03*
D18*
X48260000Y-99060000D03*
D19*
X50800000Y-99060000D03*
D18*
X114300000Y-116840000D03*
D19*
X116840000Y-116840000D03*
D18*
X48260000Y-73660000D03*
D19*
X50800000Y-73660000D03*
D21*
X50010000Y-81360000D03*
D22*
X50010000Y-83860000D03*
X50010000Y-86360000D03*
X50010000Y-88860000D03*
D26*
X39370000Y-81280000D03*
D27*
X33070000Y-81280000D03*
D28*
X36470000Y-86080000D03*
D18*
X119380000Y-101600000D03*
D19*
X121920000Y-101600000D03*
D14*
X96520000Y-127000000D03*
X101600000Y-127000000D03*
X71120000Y-127000000D03*
X76200000Y-127000000D03*
X149860000Y-114300000D03*
X149860000Y-119380000D03*
D15*
X130820000Y-80010000D03*
D16*
X130820000Y-82550000D03*
X130820000Y-85090000D03*
X130820000Y-87630000D03*
X130820000Y-90170000D03*
X130820000Y-92710000D03*
X130820000Y-95250000D03*
X130820000Y-97790000D03*
X143520000Y-97790000D03*
X143520000Y-95250000D03*
X143520000Y-92710000D03*
X143520000Y-90170000D03*
X143520000Y-87630000D03*
X143520000Y-85090000D03*
X143520000Y-82550000D03*
X143520000Y-80010000D03*
D21*
X124460000Y-86440000D03*
D22*
X124460000Y-88940000D03*
X124460000Y-91440000D03*
X124460000Y-93940000D03*
D18*
X49430000Y-124460000D03*
D19*
X49430000Y-127000000D03*
D15*
X57160000Y-76200000D03*
D16*
X57160000Y-78740000D03*
X57160000Y-81280000D03*
X57160000Y-83820000D03*
X57160000Y-86360000D03*
X57160000Y-88900000D03*
X57160000Y-91440000D03*
X57160000Y-93980000D03*
X69860000Y-93980000D03*
X69860000Y-91440000D03*
X69860000Y-88900000D03*
X69860000Y-86360000D03*
X69860000Y-83820000D03*
X69860000Y-81280000D03*
X69860000Y-78740000D03*
X69860000Y-76200000D03*
D29*
X106680000Y-81280000D03*
D14*
X106680000Y-83820000D03*
X106680000Y-86360000D03*
X106680000Y-88900000D03*
X106680000Y-91440000D03*
X106680000Y-93980000D03*
X106680000Y-96520000D03*
X106680000Y-99060000D03*
X114300000Y-99060000D03*
X114300000Y-96520000D03*
X114300000Y-93980000D03*
X114300000Y-91440000D03*
X114300000Y-88900000D03*
X114300000Y-86360000D03*
X114300000Y-83820000D03*
X114300000Y-81280000D03*
X60960000Y-99060000D03*
X66040000Y-99060000D03*
%LPD*%
M02*
