%TF.GenerationSoftware,KiCad,Pcbnew,9.0.9-9.0.9~ubuntu24.04.1*%
%TF.CreationDate,2026-09-02T16:54:12+02:00*%
%TF.ProjectId,robotArm,726f626f-7441-4726-9d2e-6b696361645f,rev?*%
%TF.SameCoordinates,Original*%
%TF.FileFunction,Copper,L1,Top*%
%TF.FilePolarity,Positive*%
%FSLAX46Y46*%
G04 Gerber Fmt 4.6, Leading zero omitted, Abs format (unit mm)*
G04 Created by KiCad (PCBNEW 9.0.9-9.0.9~ubuntu24.04.1) date 2026-09-02 16:54:12*
%MOMM*%
%LPD*%
G01*
G04 APERTURE LIST*
G04 Aperture macros list*
%AMRoundRect*
0 Rectangle with rounded corners*
0 $1 Rounding radius*
0 $2 $3 $4 $5 $6 $7 $8 $9 X,Y pos of 4 corners*
0 Add a 4 corners polygon primitive as box body*
4,1,4,$2,$3,$4,$5,$6,$7,$8,$9,$2,$3,0*
0 Add four circle primitives for the rounded corners*
1,1,$1+$1,$2,$3*
1,1,$1+$1,$4,$5*
1,1,$1+$1,$6,$7*
1,1,$1+$1,$8,$9*
0 Add four rect primitives between the rounded corners*
20,1,$1+$1,$2,$3,$4,$5,0*
20,1,$1+$1,$4,$5,$6,$7,0*
20,1,$1+$1,$6,$7,$8,$9,0*
20,1,$1+$1,$8,$9,$2,$3,0*%
G04 Aperture macros list end*
%TA.AperFunction,ComponentPad*%
%ADD10O,1.900000X1.524000*%
%TD*%
%TA.AperFunction,ComponentPad*%
%ADD11C,1.600000*%
%TD*%
%TA.AperFunction,ComponentPad*%
%ADD12R,1.600000X1.600000*%
%TD*%
%TA.AperFunction,ComponentPad*%
%ADD13O,1.600000X1.600000*%
%TD*%
%TA.AperFunction,ComponentPad*%
%ADD14C,1.400000*%
%TD*%
%TA.AperFunction,ComponentPad*%
%ADD15R,1.800000X1.800000*%
%TD*%
%TA.AperFunction,ComponentPad*%
%ADD16C,1.800000*%
%TD*%
%TA.AperFunction,ComponentPad*%
%ADD17RoundRect,0.190500X0.762000X0.444500X-0.762000X0.444500X-0.762000X-0.444500X0.762000X-0.444500X0*%
%TD*%
%TA.AperFunction,ComponentPad*%
%ADD18RoundRect,0.250000X-0.725000X0.600000X-0.725000X-0.600000X0.725000X-0.600000X0.725000X0.600000X0*%
%TD*%
%TA.AperFunction,ComponentPad*%
%ADD19O,1.950000X1.700000*%
%TD*%
%TA.AperFunction,ComponentPad*%
%ADD20R,1.700000X1.700000*%
%TD*%
%TA.AperFunction,ComponentPad*%
%ADD21C,1.700000*%
%TD*%
%TA.AperFunction,ComponentPad*%
%ADD22R,2.000000X4.600000*%
%TD*%
%TA.AperFunction,ComponentPad*%
%ADD23O,2.000000X4.200000*%
%TD*%
%TA.AperFunction,ComponentPad*%
%ADD24O,4.200000X2.000000*%
%TD*%
%TA.AperFunction,ComponentPad*%
%ADD25RoundRect,0.250000X-0.550000X-0.550000X0.550000X-0.550000X0.550000X0.550000X-0.550000X0.550000X0*%
%TD*%
%TA.AperFunction,ViaPad*%
%ADD26C,0.600000*%
%TD*%
%TA.AperFunction,ViaPad*%
%ADD27C,1.000000*%
%TD*%
%TA.AperFunction,Conductor*%
%ADD28C,0.200000*%
%TD*%
%TA.AperFunction,Conductor*%
%ADD29C,0.800000*%
%TD*%
G04 APERTURE END LIST*
D10*
%TO.P,U7,30,GPIO23*%
%TO.N,DIR_4*%
X76200040Y-114299987D03*
%TO.P,U7,29,GPIO22*%
%TO.N,STEP_4*%
X76200040Y-111759987D03*
%TO.P,U7,28,GPIO1*%
%TO.N,unconnected-(U7-GPIO1-Pad28)*%
X76200040Y-109219987D03*
%TO.P,U7,27,GPIO3*%
%TO.N,CLK*%
X76200040Y-106679987D03*
%TO.P,U7,26,GPIO21*%
%TO.N,unconnected-(U7-GPIO21-Pad26)*%
X76200040Y-104139987D03*
%TO.P,U7,25,GPIO19*%
%TO.N,DIR_3*%
X76200040Y-101599987D03*
%TO.P,U7,24,GPIO18*%
%TO.N,STEP_3*%
X76200040Y-99059987D03*
%TO.P,U7,23,GPIO5*%
%TO.N,unconnected-(U7-GPIO5-Pad23)*%
X76200040Y-96519987D03*
%TO.P,U7,22,GPIO17*%
%TO.N,UART2_TX*%
X76200040Y-93979987D03*
%TO.P,U7,21,GPIO16*%
%TO.N,unconnected-(U7-GPIO16-Pad21)*%
X76200040Y-91439987D03*
%TO.P,U7,20,GPIO4*%
%TO.N,EN_DRV*%
X76200040Y-88899987D03*
%TO.P,U7,19,GPIO2*%
%TO.N,unconnected-(U7-GPIO2-Pad19)*%
X76200040Y-86359987D03*
%TO.P,U7,18,GPIO15*%
%TO.N,LOAD*%
X76200040Y-83819987D03*
%TO.P,U7,17,GND*%
%TO.N,GND*%
X76200040Y-81279987D03*
%TO.P,U7,16,3.3v*%
%TO.N,+3.3V*%
X76200040Y-78739987D03*
%TO.P,U7,15,EN*%
%TO.N,unconnected-(U7-EN-Pad15)*%
X101600040Y-114299987D03*
%TO.P,U7,14,GPIO36*%
%TO.N,DATA*%
X101600040Y-111759987D03*
%TO.P,U7,13,GPIO39*%
%TO.N,unconnected-(U7-GPIO39-Pad13)*%
X101600040Y-109219987D03*
%TO.P,U7,12,GPIO34*%
%TO.N,unconnected-(U7-GPIO34-Pad12)*%
X101600040Y-106679987D03*
%TO.P,U7,11,GPIO35*%
%TO.N,unconnected-(U7-GPIO35-Pad11)*%
X101600040Y-104139987D03*
%TO.P,U7,10,GPIO32*%
%TO.N,DIR_2*%
X101600040Y-101599987D03*
%TO.P,U7,9,GPIO33*%
%TO.N,unconnected-(U7-GPIO33-Pad9)*%
X101600040Y-99059987D03*
%TO.P,U7,8,GPIO25*%
%TO.N,unconnected-(U7-GPIO25-Pad8)*%
X101600040Y-96519987D03*
%TO.P,U7,7,GPIO26*%
%TO.N,STEP_2*%
X101600040Y-93979987D03*
%TO.P,U7,6,GPIO27*%
%TO.N,unconnected-(U7-GPIO27-Pad6)*%
X101600040Y-91439987D03*
%TO.P,U7,5,GPIO14*%
%TO.N,DIR_1*%
X101600040Y-88899987D03*
%TO.P,U7,4,GPIO12*%
%TO.N,unconnected-(U7-GPIO12-Pad4)*%
X101600040Y-86359987D03*
%TO.P,U7,3,GPIO13*%
%TO.N,STEP_1*%
X101600040Y-83819987D03*
%TO.P,U7,2,GND*%
%TO.N,GND*%
X101600040Y-81279987D03*
%TO.P,U7,1,VIN*%
%TO.N,unconnected-(U7-VIN-Pad1)*%
X101600040Y-78739987D03*
%TD*%
D11*
%TO.P,R6,1*%
%TO.N,Net-(D5-K)*%
X149860000Y-91440000D03*
%TO.P,R6,2*%
%TO.N,IX1*%
X149860000Y-96520000D03*
%TD*%
%TO.P,R4,1*%
%TO.N,Net-(D3-K)*%
X83820000Y-127000000D03*
%TO.P,R4,2*%
%TO.N,DIAG3*%
X88900000Y-127000000D03*
%TD*%
D12*
%TO.P,U5,1,GND*%
%TO.N,GND*%
X130820000Y-105410000D03*
D13*
%TO.P,U5,2,VIO*%
%TO.N,+3.3V*%
X130820000Y-107950000D03*
%TO.P,U5,3,M1B*%
%TO.N,/M2-1B*%
X130820000Y-110490000D03*
%TO.P,U5,4,M1A*%
%TO.N,/M2-1A*%
X130820000Y-113030000D03*
%TO.P,U5,5,M2A*%
%TO.N,/M2-2A*%
X130820000Y-115570000D03*
%TO.P,U5,6,M2B*%
%TO.N,/M2-2B*%
X130820000Y-118110000D03*
%TO.P,U5,7,GND*%
%TO.N,GND*%
X130820000Y-120650000D03*
%TO.P,U5,8,VM*%
%TO.N,+12V*%
X130820000Y-123190000D03*
%TO.P,U5,9,DIR*%
%TO.N,DIR_2*%
X143520000Y-123190000D03*
%TO.P,U5,10,STEP*%
%TO.N,STEP_2*%
X143520000Y-120650000D03*
%TO.P,U5,11,PDN*%
%TO.N,unconnected-(U5-PDN-Pad11)*%
X143520000Y-118110000D03*
%TO.P,U5,12,UART*%
%TO.N,UART2_TX*%
X143520000Y-115570000D03*
%TO.P,U5,13,SPRD*%
%TO.N,unconnected-(U5-SPRD-Pad13)*%
X143520000Y-113030000D03*
%TO.P,U5,14,MS2*%
%TO.N,+3.3V*%
X143520000Y-110490000D03*
%TO.P,U5,15,MS1*%
%TO.N,unconnected-(U5-MS1-Pad15)*%
X143520000Y-107950000D03*
%TO.P,U5,16,~{EN}*%
%TO.N,EN_DRV*%
X143520000Y-105410000D03*
%TD*%
D14*
%TO.P,R1,1*%
%TO.N,+3.3V*%
X116840000Y-109220000D03*
%TO.P,R1,2*%
%TO.N,Net-(U6-DS)*%
X114300000Y-109220000D03*
%TD*%
D15*
%TO.P,D3,1,K*%
%TO.N,Net-(D3-K)*%
X38490000Y-124460000D03*
D16*
%TO.P,D3,2,A*%
%TO.N,+3.3V*%
X38490000Y-127000000D03*
%TD*%
D15*
%TO.P,D2,1,K*%
%TO.N,Net-(D2-K)*%
X43960000Y-124460000D03*
D16*
%TO.P,D2,2,A*%
%TO.N,+3.3V*%
X43960000Y-127000000D03*
%TD*%
D11*
%TO.P,R2,1*%
%TO.N,Net-(D1-K)*%
X58420000Y-127000000D03*
%TO.P,R2,2*%
%TO.N,DIAG1*%
X63500000Y-127000000D03*
%TD*%
D17*
%TO.P,U8,1,Vin*%
%TO.N,+12V*%
X41660000Y-95080000D03*
%TO.P,U8,2,Vin*%
X39160000Y-95080000D03*
%TO.P,U8,3,GND*%
%TO.N,GND*%
X36660000Y-95080000D03*
%TO.P,U8,4,GND*%
X34260000Y-95080000D03*
%TO.P,U8,5,Vout*%
%TO.N,+3.3V*%
X31760000Y-95080000D03*
%TO.P,U8,6,Vout*%
X29260000Y-95080000D03*
%TD*%
D18*
%TO.P,J6,1,1B*%
%TO.N,/M3-2B*%
X50010000Y-106800000D03*
D19*
%TO.P,J6,2,1A*%
%TO.N,/M3-2A*%
X50010000Y-109300000D03*
%TO.P,J6,3,2A*%
%TO.N,/M3-1A*%
X50010000Y-111800000D03*
%TO.P,J6,4,2B*%
%TO.N,/M3-1B*%
X50010000Y-114300000D03*
%TD*%
D12*
%TO.P,U2,1,GND*%
%TO.N,GND*%
X57160000Y-102870000D03*
D13*
%TO.P,U2,2,VIO*%
%TO.N,+3.3V*%
X57160000Y-105410000D03*
%TO.P,U2,3,M1B*%
%TO.N,/M3-1B*%
X57160000Y-107950000D03*
%TO.P,U2,4,M1A*%
%TO.N,/M3-1A*%
X57160000Y-110490000D03*
%TO.P,U2,5,M2A*%
%TO.N,/M3-2A*%
X57160000Y-113030000D03*
%TO.P,U2,6,M2B*%
%TO.N,/M3-2B*%
X57160000Y-115570000D03*
%TO.P,U2,7,GND*%
%TO.N,GND*%
X57160000Y-118110000D03*
%TO.P,U2,8,VM*%
%TO.N,+12V*%
X57160000Y-120650000D03*
%TO.P,U2,9,DIR*%
%TO.N,DIR_3*%
X69860000Y-120650000D03*
%TO.P,U2,10,STEP*%
%TO.N,STEP_3*%
X69860000Y-118110000D03*
%TO.P,U2,11,PDN*%
%TO.N,unconnected-(U2-PDN-Pad11)*%
X69860000Y-115570000D03*
%TO.P,U2,12,UART*%
%TO.N,UART2_TX*%
X69860000Y-113030000D03*
%TO.P,U2,13,SPRD*%
%TO.N,unconnected-(U2-SPRD-Pad13)*%
X69860000Y-110490000D03*
%TO.P,U2,14,MS2*%
%TO.N,unconnected-(U2-MS2-Pad14)*%
X69860000Y-107950000D03*
%TO.P,U2,15,MS1*%
%TO.N,+3.3V*%
X69860000Y-105410000D03*
%TO.P,U2,16,~{EN}*%
%TO.N,EN_DRV*%
X69860000Y-102870000D03*
%TD*%
D11*
%TO.P,R8,1*%
%TO.N,Net-(D7-K)*%
X38100000Y-73660000D03*
%TO.P,R8,2*%
%TO.N,IX3*%
X43180000Y-73660000D03*
%TD*%
D15*
%TO.P,D4,1,K*%
%TO.N,Net-(D4-K)*%
X33020000Y-124460000D03*
D16*
%TO.P,D4,2,A*%
%TO.N,+3.3V*%
X33020000Y-127000000D03*
%TD*%
D18*
%TO.P,J5,1,1B*%
%TO.N,/M2-2B*%
X124460000Y-111800000D03*
D19*
%TO.P,J5,2,1A*%
%TO.N,/M2-2A*%
X124460000Y-114300000D03*
%TO.P,J5,3,2A*%
%TO.N,/M2-1A*%
X124460000Y-116800000D03*
%TO.P,J5,4,2B*%
%TO.N,/M2-1B*%
X124460000Y-119300000D03*
%TD*%
D20*
%TO.P,J2,1,Pin_1*%
%TO.N,D0*%
X147320000Y-73660000D03*
D21*
%TO.P,J2,2,Pin_2*%
%TO.N,Net-(J2-Pin_10)*%
X144780000Y-73660000D03*
%TO.P,J2,3,Pin_3*%
%TO.N,D1*%
X142240000Y-73660000D03*
%TO.P,J2,4,Pin_4*%
%TO.N,Net-(J2-Pin_10)*%
X139700000Y-73660000D03*
%TO.P,J2,5,Pin_5*%
%TO.N,D2*%
X137160000Y-73660000D03*
%TO.P,J2,6,Pin_6*%
%TO.N,Net-(J2-Pin_10)*%
X134620000Y-73660000D03*
%TO.P,J2,7,Pin_7*%
%TO.N,D3*%
X132080000Y-73660000D03*
%TO.P,J2,8,Pin_8*%
%TO.N,Net-(J2-Pin_10)*%
X129540000Y-73660000D03*
%TO.P,J2,9,Pin_9*%
%TO.N,D4*%
X127000000Y-73660000D03*
%TO.P,J2,10,Pin_10*%
%TO.N,Net-(J2-Pin_10)*%
X124460000Y-73660000D03*
%TO.P,J2,11,Pin_11*%
%TO.N,D5*%
X121920000Y-73660000D03*
%TO.P,J2,12,Pin_12*%
%TO.N,Net-(J2-Pin_10)*%
X119380000Y-73660000D03*
%TO.P,J2,13,Pin_13*%
%TO.N,D6*%
X116840000Y-73660000D03*
%TO.P,J2,14,Pin_14*%
%TO.N,Net-(J2-Pin_10)*%
X114300000Y-73660000D03*
%TO.P,J2,15,Pin_15*%
%TO.N,D7*%
X111760000Y-73660000D03*
%TO.P,J2,16,Pin_16*%
%TO.N,Net-(J2-Pin_10)*%
X109220000Y-73660000D03*
%TD*%
D15*
%TO.P,D8,1,K*%
%TO.N,Net-(D8-K)*%
X48260000Y-99060000D03*
D16*
%TO.P,D8,2,A*%
%TO.N,+3.3V*%
X50800000Y-99060000D03*
%TD*%
D15*
%TO.P,D6,1,K*%
%TO.N,Net-(D6-K)*%
X114300000Y-116840000D03*
D16*
%TO.P,D6,2,A*%
%TO.N,+3.3V*%
X116840000Y-116840000D03*
%TD*%
D15*
%TO.P,D7,1,K*%
%TO.N,Net-(D7-K)*%
X48260000Y-73660000D03*
D16*
%TO.P,D7,2,A*%
%TO.N,+3.3V*%
X50800000Y-73660000D03*
%TD*%
D18*
%TO.P,J3,1,1B*%
%TO.N,/M1-2B*%
X50010000Y-81360000D03*
D19*
%TO.P,J3,2,1A*%
%TO.N,/M1-2A*%
X50010000Y-83860000D03*
%TO.P,J3,3,2A*%
%TO.N,/M1-1A*%
X50010000Y-86360000D03*
%TO.P,J3,4,2B*%
%TO.N,/M1-1B*%
X50010000Y-88860000D03*
%TD*%
D22*
%TO.P,J1,1*%
%TO.N,+12V*%
X39370000Y-81280000D03*
D23*
%TO.P,J1,2*%
%TO.N,GND*%
X33070000Y-81280000D03*
D24*
%TO.P,J1,3*%
%TO.N,N/C*%
X36470000Y-86080000D03*
%TD*%
D15*
%TO.P,D5,1,K*%
%TO.N,Net-(D5-K)*%
X119380000Y-101600000D03*
D16*
%TO.P,D5,2,A*%
%TO.N,+3.3V*%
X121920000Y-101600000D03*
%TD*%
D11*
%TO.P,R5,1*%
%TO.N,Net-(D4-K)*%
X96520000Y-127000000D03*
%TO.P,R5,2*%
%TO.N,DIAG4*%
X101600000Y-127000000D03*
%TD*%
%TO.P,R3,1*%
%TO.N,Net-(D2-K)*%
X71120000Y-127000000D03*
%TO.P,R3,2*%
%TO.N,DIAG2*%
X76200000Y-127000000D03*
%TD*%
%TO.P,R7,1*%
%TO.N,Net-(D6-K)*%
X149860000Y-114300000D03*
%TO.P,R7,2*%
%TO.N,IX2*%
X149860000Y-119380000D03*
%TD*%
D12*
%TO.P,U4,1,GND*%
%TO.N,GND*%
X130820000Y-80010000D03*
D13*
%TO.P,U4,2,VIO*%
%TO.N,+3.3V*%
X130820000Y-82550000D03*
%TO.P,U4,3,M1B*%
%TO.N,Net-(J4-2B)*%
X130820000Y-85090000D03*
%TO.P,U4,4,M1A*%
%TO.N,/M4-1A*%
X130820000Y-87630000D03*
%TO.P,U4,5,M2A*%
%TO.N,/M4-2A*%
X130820000Y-90170000D03*
%TO.P,U4,6,M2B*%
%TO.N,/M4-1B*%
X130820000Y-92710000D03*
%TO.P,U4,7,GND*%
%TO.N,GND*%
X130820000Y-95250000D03*
%TO.P,U4,8,VM*%
%TO.N,+12V*%
X130820000Y-97790000D03*
%TO.P,U4,9,DIR*%
%TO.N,DIR_4*%
X143520000Y-97790000D03*
%TO.P,U4,10,STEP*%
%TO.N,STEP_4*%
X143520000Y-95250000D03*
%TO.P,U4,11,PDN*%
%TO.N,unconnected-(U4-PDN-Pad11)*%
X143520000Y-92710000D03*
%TO.P,U4,12,UART*%
%TO.N,UART2_TX*%
X143520000Y-90170000D03*
%TO.P,U4,13,SPRD*%
%TO.N,unconnected-(U4-SPRD-Pad13)*%
X143520000Y-87630000D03*
%TO.P,U4,14,MS2*%
%TO.N,+3.3V*%
X143520000Y-85090000D03*
%TO.P,U4,15,MS1*%
X143520000Y-82550000D03*
%TO.P,U4,16,~{EN}*%
%TO.N,EN_DRV*%
X143520000Y-80010000D03*
%TD*%
D18*
%TO.P,J4,1,1B*%
%TO.N,/M4-1B*%
X124460000Y-86440000D03*
D19*
%TO.P,J4,2,1A*%
%TO.N,/M4-2A*%
X124460000Y-88940000D03*
%TO.P,J4,3,2A*%
%TO.N,/M4-1A*%
X124460000Y-91440000D03*
%TO.P,J4,4,2B*%
%TO.N,Net-(J4-2B)*%
X124460000Y-93940000D03*
%TD*%
D15*
%TO.P,D1,1,K*%
%TO.N,Net-(D1-K)*%
X49430000Y-124460000D03*
D16*
%TO.P,D1,2,A*%
%TO.N,+3.3V*%
X49430000Y-127000000D03*
%TD*%
D12*
%TO.P,U1,1,GND*%
%TO.N,GND*%
X57160000Y-76200000D03*
D13*
%TO.P,U1,2,VIO*%
%TO.N,+3.3V*%
X57160000Y-78740000D03*
%TO.P,U1,3,M1B*%
%TO.N,/M1-1B*%
X57160000Y-81280000D03*
%TO.P,U1,4,M1A*%
%TO.N,/M1-1A*%
X57160000Y-83820000D03*
%TO.P,U1,5,M2A*%
%TO.N,/M1-2A*%
X57160000Y-86360000D03*
%TO.P,U1,6,M2B*%
%TO.N,/M1-2B*%
X57160000Y-88900000D03*
%TO.P,U1,7,GND*%
%TO.N,GND*%
X57160000Y-91440000D03*
%TO.P,U1,8,VM*%
%TO.N,+12V*%
X57160000Y-93980000D03*
%TO.P,U1,9,DIR*%
%TO.N,DIR_1*%
X69860000Y-93980000D03*
%TO.P,U1,10,STEP*%
%TO.N,STEP_1*%
X69860000Y-91440000D03*
%TO.P,U1,11,PDN*%
%TO.N,unconnected-(U1-PDN-Pad11)*%
X69860000Y-88900000D03*
%TO.P,U1,12,UART*%
%TO.N,UART2_TX*%
X69860000Y-86360000D03*
%TO.P,U1,13,SPRD*%
%TO.N,unconnected-(U1-SPRD-Pad13)*%
X69860000Y-83820000D03*
%TO.P,U1,14,MS2*%
%TO.N,unconnected-(U1-MS2-Pad14)*%
X69860000Y-81280000D03*
%TO.P,U1,15,MS1*%
%TO.N,unconnected-(U1-MS1-Pad15)*%
X69860000Y-78740000D03*
%TO.P,U1,16,~{EN}*%
%TO.N,EN_DRV*%
X69860000Y-76200000D03*
%TD*%
D25*
%TO.P,U6,1,~{PL}*%
%TO.N,LOAD*%
X106680000Y-81280000D03*
D11*
%TO.P,U6,2,CP*%
%TO.N,CLK*%
X106680000Y-83820000D03*
%TO.P,U6,3,D4*%
%TO.N,D4*%
X106680000Y-86360000D03*
%TO.P,U6,4,D5*%
%TO.N,D5*%
X106680000Y-88900000D03*
%TO.P,U6,5,D6*%
%TO.N,D6*%
X106680000Y-91440000D03*
%TO.P,U6,6,D7*%
%TO.N,D7*%
X106680000Y-93980000D03*
%TO.P,U6,7,~{Q7}*%
%TO.N,unconnected-(U6-~{Q7}-Pad7)*%
X106680000Y-96520000D03*
%TO.P,U6,8,GND*%
%TO.N,GND*%
X106680000Y-99060000D03*
%TO.P,U6,9,Q7*%
%TO.N,DATA*%
X114300000Y-99060000D03*
%TO.P,U6,10,DS*%
%TO.N,Net-(U6-DS)*%
X114300000Y-96520000D03*
%TO.P,U6,11,D0*%
%TO.N,D0*%
X114300000Y-93980000D03*
%TO.P,U6,12,D1*%
%TO.N,D1*%
X114300000Y-91440000D03*
%TO.P,U6,13,D2*%
%TO.N,D2*%
X114300000Y-88900000D03*
%TO.P,U6,14,D3*%
%TO.N,D3*%
X114300000Y-86360000D03*
%TO.P,U6,15,~{CE}*%
%TO.N,GND*%
X114300000Y-83820000D03*
%TO.P,U6,16,VCC*%
%TO.N,+3.3V*%
X114300000Y-81280000D03*
%TD*%
%TO.P,R9,1*%
%TO.N,Net-(D8-K)*%
X60960000Y-99060000D03*
%TO.P,R9,2*%
%TO.N,IX4*%
X66040000Y-99060000D03*
%TD*%
D26*
%TO.N,Net-(D5-K)*%
X148065300Y-99060000D03*
%TO.N,DATA*%
X110398300Y-110580000D03*
%TO.N,CLK*%
X82984900Y-84660000D03*
%TO.N,D1*%
X139190700Y-84660000D03*
%TO.N,D2*%
X118483300Y-76190500D03*
%TO.N,D4*%
X110335200Y-76144700D03*
%TO.N,D5*%
X121072400Y-84660000D03*
D27*
%TO.N,+12V*%
X124399700Y-98652800D03*
D26*
%TO.N,D0*%
X120467400Y-76875200D03*
%TO.N,DIR_2*%
X103692300Y-124210000D03*
%TO.N,STEP_2*%
X109608700Y-124980000D03*
D27*
%TO.N,/M1-1A*%
X53525800Y-87753300D03*
D26*
%TO.N,UART2_TX*%
X141269400Y-98434500D03*
X71822600Y-93601400D03*
X141325000Y-90420000D03*
%TD*%
D28*
%TO.N,Net-(D5-K)*%
X147031500Y-100093800D02*
X148065300Y-99060000D01*
X133427200Y-100093800D02*
X147031500Y-100093800D01*
X133364800Y-100156200D02*
X133427200Y-100093800D01*
X123777100Y-100156200D02*
X133364800Y-100156200D01*
X123714700Y-100093800D02*
X123777100Y-100156200D01*
X120886200Y-100093800D02*
X123714700Y-100093800D01*
X119380000Y-101600000D02*
X120886200Y-100093800D01*
%TO.N,CLK*%
X83253600Y-84928700D02*
X82984900Y-84660000D01*
X105571300Y-84928700D02*
X83253600Y-84928700D01*
X106680000Y-83820000D02*
X105571300Y-84928700D01*
%TO.N,Net-(J2-Pin_10)*%
X123274100Y-74845900D02*
X119380000Y-74845900D01*
X124460000Y-73660000D02*
X123274100Y-74845900D01*
X119380000Y-74845900D02*
X119380000Y-73660000D01*
X115485900Y-74845900D02*
X114300000Y-73660000D01*
X119380000Y-74845900D02*
X115485900Y-74845900D01*
%TO.N,D1*%
X138500700Y-83970000D02*
X139190700Y-84660000D01*
X123442300Y-83970000D02*
X138500700Y-83970000D01*
X115972300Y-91440000D02*
X123442300Y-83970000D01*
X114300000Y-91440000D02*
X115972300Y-91440000D01*
%TO.N,D4*%
X125310800Y-75349200D02*
X127000000Y-73660000D01*
X111130700Y-75349200D02*
X125310800Y-75349200D01*
X110335200Y-76144700D02*
X111130700Y-75349200D01*
%TO.N,Net-(D4-K)*%
X35423400Y-123258300D02*
X34221700Y-124460000D01*
X56792400Y-123258300D02*
X35423400Y-123258300D01*
X59359700Y-125825600D02*
X56792400Y-123258300D01*
X95345600Y-125825600D02*
X59359700Y-125825600D01*
X96520000Y-127000000D02*
X95345600Y-125825600D01*
X33020000Y-124460000D02*
X34221700Y-124460000D01*
%TO.N,Net-(D1-K)*%
X53171700Y-127000000D02*
X50631700Y-124460000D01*
X58420000Y-127000000D02*
X53171700Y-127000000D01*
X49430000Y-124460000D02*
X50631700Y-124460000D01*
D29*
%TO.N,+12V*%
X39160000Y-95080000D02*
X41660000Y-95080000D01*
X128413300Y-122485000D02*
X129118300Y-123190000D01*
X60696700Y-122485000D02*
X128413300Y-122485000D01*
X58861700Y-120650000D02*
X60696700Y-122485000D01*
X57160000Y-120650000D02*
X58861700Y-120650000D01*
X130820000Y-123190000D02*
X129118300Y-123190000D01*
%TO.N,/M3-1A*%
X54148300Y-111800000D02*
X55458300Y-110490000D01*
X50010000Y-111800000D02*
X54148300Y-111800000D01*
X57160000Y-110490000D02*
X55458300Y-110490000D01*
D28*
%TO.N,DIR_2*%
X114137500Y-124210000D02*
X103692300Y-124210000D01*
X114570400Y-124642900D02*
X114137500Y-124210000D01*
X140965400Y-124642900D02*
X114570400Y-124642900D01*
X142418300Y-123190000D02*
X140965400Y-124642900D01*
X143520000Y-123190000D02*
X142418300Y-123190000D01*
%TO.N,DIR_4*%
X76200000Y-114300000D02*
X76200000Y-113236300D01*
X143520000Y-97790000D02*
X142418300Y-97790000D01*
X142418300Y-98136500D02*
X142418300Y-97790000D01*
X140870900Y-99683900D02*
X142418300Y-98136500D01*
X124926700Y-99683900D02*
X140870900Y-99683900D01*
X124856100Y-99754500D02*
X124926700Y-99683900D01*
X123943400Y-99754500D02*
X124856100Y-99754500D01*
X123872800Y-99683900D02*
X123943400Y-99754500D01*
X118878600Y-99683900D02*
X123872800Y-99683900D01*
X105326200Y-113236300D02*
X118878600Y-99683900D01*
X76200000Y-113236300D02*
X105326200Y-113236300D01*
D29*
%TO.N,/M2-2A*%
X127848300Y-114300000D02*
X129118300Y-115570000D01*
X124460000Y-114300000D02*
X127848300Y-114300000D01*
X130820000Y-115570000D02*
X129118300Y-115570000D01*
%TO.N,/M1-1A*%
X52132500Y-86360000D02*
X50010000Y-86360000D01*
X53525800Y-87753300D02*
X52132500Y-86360000D01*
%TO.N,/M1-2A*%
X52958300Y-83860000D02*
X50010000Y-83860000D01*
X55458300Y-86360000D02*
X52958300Y-83860000D01*
X57160000Y-86360000D02*
X55458300Y-86360000D01*
D28*
%TO.N,UART2_TX*%
X76200000Y-93980000D02*
X76200000Y-95043700D01*
X72201200Y-93980000D02*
X71822600Y-93601400D01*
X76200000Y-93980000D02*
X72201200Y-93980000D01*
X142168300Y-90420000D02*
X142418300Y-90170000D01*
X141325000Y-90420000D02*
X142168300Y-90420000D01*
X143520000Y-90170000D02*
X142418300Y-90170000D01*
X77263700Y-95043700D02*
X76200000Y-95043700D01*
X79841800Y-97621800D02*
X77263700Y-95043700D01*
X123872700Y-97621800D02*
X79841800Y-97621800D01*
X123943400Y-97551100D02*
X123872700Y-97621800D01*
X124856100Y-97551100D02*
X123943400Y-97551100D01*
X126538200Y-99233200D02*
X124856100Y-97551100D01*
X140470700Y-99233200D02*
X126538200Y-99233200D01*
X141269400Y-98434500D02*
X140470700Y-99233200D01*
D29*
%TO.N,GND*%
X36660000Y-95080000D02*
X34260000Y-95080000D01*
%TO.N,+3.3V*%
X143520000Y-82550000D02*
X130820000Y-82550000D01*
X38490000Y-127000000D02*
X33020000Y-127000000D01*
X135061700Y-110490000D02*
X132521700Y-107950000D01*
X143520000Y-110490000D02*
X135061700Y-110490000D01*
X130820000Y-107950000D02*
X132521700Y-107950000D01*
X69860000Y-105410000D02*
X57160000Y-105410000D01*
X49430000Y-127000000D02*
X43960000Y-127000000D01*
X118110000Y-107950000D02*
X130820000Y-107950000D01*
X116840000Y-109220000D02*
X118110000Y-107950000D01*
X62802100Y-78740000D02*
X57160000Y-78740000D01*
X67080100Y-74462000D02*
X62802100Y-78740000D01*
X73585700Y-74462000D02*
X67080100Y-74462000D01*
X76200000Y-77076300D02*
X73585700Y-74462000D01*
X76200000Y-78740000D02*
X76200000Y-77076300D01*
X107468300Y-77076300D02*
X76200000Y-77076300D01*
X111672000Y-81280000D02*
X107468300Y-77076300D01*
X114300000Y-81280000D02*
X111672000Y-81280000D01*
D28*
%TO.N,Net-(J4-2B)*%
X130202100Y-86191700D02*
X130820000Y-86191700D01*
X128760500Y-87633300D02*
X130202100Y-86191700D01*
X128760500Y-89639500D02*
X128760500Y-87633300D01*
X124460000Y-93940000D02*
X128760500Y-89639500D01*
X130820000Y-85090000D02*
X130820000Y-86191700D01*
%TD*%
M02*
