%TF.GenerationSoftware,KiCad,Pcbnew,9.0.9-9.0.9~ubuntu24.04.1*%
%TF.CreationDate,2026-09-02T16:55:19+02:00*%
%TF.ProjectId,robotArm,726f626f-7441-4726-9d2e-6b696361645f,rev?*%
%TF.SameCoordinates,Original*%
%TF.FileFunction,Drillmap*%
%TF.FilePolarity,Positive*%
%FSLAX45Y45*%
G04 Gerber Fmt 4.5, Leading zero omitted, Abs format (unit mm)*
G04 Created by KiCad (PCBNEW 9.0.9-9.0.9~ubuntu24.04.1) date 2026-09-02 16:55:19*
%MOMM*%
%LPD*%
G01*
G04 APERTURE LIST*
%ADD10C,0.050000*%
%ADD11C,0.100000*%
%ADD12C,0.200000*%
G04 APERTURE END LIST*
D10*
X2540000Y-6604000D02*
X15240000Y-6604000D01*
X15240000Y-13208000D01*
X2540000Y-13208000D01*
X2540000Y-6604000D01*
D11*
X10174250Y-11961980D02*
G75*
G02*
X9874250Y-11961980I-150000J0D01*
G01*
X9874250Y-11961980D02*
G75*
G02*
X10174250Y-11961980I150000J0D01*
G01*
X10174250Y-7361980D02*
G75*
G02*
X9874250Y-7361980I-150000J0D01*
G01*
X9874250Y-7361980D02*
G75*
G02*
X10174250Y-7361980I150000J0D01*
G01*
X7874250Y-11961980D02*
G75*
G02*
X7574250Y-11961980I-150000J0D01*
G01*
X7574250Y-11961980D02*
G75*
G02*
X7874250Y-11961980I150000J0D01*
G01*
X7874250Y-7361980D02*
G75*
G02*
X7574250Y-7361980I-150000J0D01*
G01*
X7574250Y-7361980D02*
G75*
G02*
X7874250Y-7361980I150000J0D01*
G01*
D12*
D11*
X7167260Y-9345140D02*
X7197260Y-9375140D01*
X7197260Y-9345140D02*
X7167260Y-9375140D01*
X8283490Y-8451000D02*
X8313490Y-8481000D01*
X8313490Y-8451000D02*
X8283490Y-8481000D01*
X10354230Y-12406000D02*
X10384230Y-12436000D01*
X10384230Y-12406000D02*
X10354230Y-12436000D01*
X10945870Y-12483000D02*
X10975870Y-12513000D01*
X10975870Y-12483000D02*
X10945870Y-12513000D01*
X11018520Y-7599470D02*
X11048520Y-7629470D01*
X11048520Y-7599470D02*
X11018520Y-7629470D01*
X11024830Y-11043000D02*
X11054830Y-11073000D01*
X11054830Y-11043000D02*
X11024830Y-11073000D01*
X11833330Y-7604050D02*
X11863330Y-7634050D01*
X11863330Y-7604050D02*
X11833330Y-7634050D01*
X12031740Y-7672520D02*
X12061740Y-7702520D01*
X12061740Y-7672520D02*
X12031740Y-7702520D01*
X12092240Y-8451000D02*
X12122240Y-8481000D01*
X12122240Y-8451000D02*
X12092240Y-8481000D01*
X13904070Y-8451000D02*
X13934070Y-8481000D01*
X13934070Y-8451000D02*
X13904070Y-8481000D01*
X14111940Y-9828450D02*
X14141940Y-9858450D01*
X14141940Y-9828450D02*
X14111940Y-9858450D01*
X14117500Y-9027000D02*
X14147500Y-9057000D01*
X14147500Y-9027000D02*
X14117500Y-9057000D01*
X14791530Y-9891000D02*
X14821530Y-9921000D01*
X14821530Y-9891000D02*
X14791530Y-9921000D01*
X11465000Y-10922000D02*
G75*
G02*
X11395000Y-10922000I-35000J0D01*
G01*
X11395000Y-10922000D02*
G75*
G02*
X11465000Y-10922000I35000J0D01*
G01*
X11719000Y-10922000D02*
G75*
G02*
X11649000Y-10922000I-35000J0D01*
G01*
X11649000Y-10922000D02*
G75*
G02*
X11719000Y-10922000I35000J0D01*
G01*
X5352580Y-8735330D02*
X5352580Y-8815330D01*
X5312580Y-8775330D02*
X5392580Y-8775330D01*
X12439970Y-9825280D02*
X12439970Y-9905280D01*
X12399970Y-9865280D02*
X12479970Y-9865280D01*
X3838284Y-7394284D02*
X3838284Y-7337715D01*
X3781715Y-7337715D01*
X3781715Y-7394284D01*
X3838284Y-7394284D01*
X4346285Y-7394284D02*
X4346285Y-7337715D01*
X4289716Y-7337715D01*
X4289716Y-7394284D01*
X4346285Y-7394284D01*
X5744284Y-7648284D02*
X5744284Y-7591715D01*
X5687715Y-7591715D01*
X5687715Y-7648284D01*
X5744284Y-7648284D01*
X5744284Y-7902284D02*
X5744284Y-7845715D01*
X5687715Y-7845715D01*
X5687715Y-7902284D01*
X5744284Y-7902284D01*
X5744284Y-8156284D02*
X5744284Y-8099715D01*
X5687715Y-8099715D01*
X5687715Y-8156284D01*
X5744284Y-8156284D01*
X5744284Y-8410285D02*
X5744284Y-8353715D01*
X5687715Y-8353715D01*
X5687715Y-8410285D01*
X5744284Y-8410285D01*
X5744284Y-8664285D02*
X5744284Y-8607716D01*
X5687715Y-8607716D01*
X5687715Y-8664285D01*
X5744284Y-8664285D01*
X5744284Y-8918285D02*
X5744284Y-8861716D01*
X5687715Y-8861716D01*
X5687715Y-8918285D01*
X5744284Y-8918285D01*
X5744284Y-9172285D02*
X5744284Y-9115716D01*
X5687715Y-9115716D01*
X5687715Y-9172285D01*
X5744284Y-9172285D01*
X5744284Y-9426285D02*
X5744284Y-9369716D01*
X5687715Y-9369716D01*
X5687715Y-9426285D01*
X5744284Y-9426285D01*
X5744284Y-10315285D02*
X5744284Y-10258716D01*
X5687715Y-10258716D01*
X5687715Y-10315285D01*
X5744284Y-10315285D01*
X5744284Y-10569285D02*
X5744284Y-10512716D01*
X5687715Y-10512716D01*
X5687715Y-10569285D01*
X5744284Y-10569285D01*
X5744284Y-10823285D02*
X5744284Y-10766716D01*
X5687715Y-10766716D01*
X5687715Y-10823285D01*
X5744284Y-10823285D01*
X5744284Y-11077285D02*
X5744284Y-11020716D01*
X5687715Y-11020716D01*
X5687715Y-11077285D01*
X5744284Y-11077285D01*
X5744284Y-11331284D02*
X5744284Y-11274715D01*
X5687715Y-11274715D01*
X5687715Y-11331284D01*
X5744284Y-11331284D01*
X5744284Y-11585284D02*
X5744284Y-11528715D01*
X5687715Y-11528715D01*
X5687715Y-11585284D01*
X5744284Y-11585284D01*
X5744284Y-11839284D02*
X5744284Y-11782715D01*
X5687715Y-11782715D01*
X5687715Y-11839284D01*
X5744284Y-11839284D01*
X5744284Y-12093284D02*
X5744284Y-12036715D01*
X5687715Y-12036715D01*
X5687715Y-12093284D01*
X5744284Y-12093284D01*
X5870284Y-12728284D02*
X5870284Y-12671715D01*
X5813715Y-12671715D01*
X5813715Y-12728284D01*
X5870284Y-12728284D01*
X6124284Y-9934285D02*
X6124284Y-9877716D01*
X6067715Y-9877716D01*
X6067715Y-9934285D01*
X6124284Y-9934285D01*
X6378284Y-12728284D02*
X6378284Y-12671715D01*
X6321715Y-12671715D01*
X6321715Y-12728284D01*
X6378284Y-12728284D01*
X6632284Y-9934285D02*
X6632284Y-9877716D01*
X6575715Y-9877716D01*
X6575715Y-9934285D01*
X6632284Y-9934285D01*
X7014284Y-7648284D02*
X7014284Y-7591715D01*
X6957715Y-7591715D01*
X6957715Y-7648284D01*
X7014284Y-7648284D01*
X7014284Y-7902284D02*
X7014284Y-7845715D01*
X6957715Y-7845715D01*
X6957715Y-7902284D01*
X7014284Y-7902284D01*
X7014284Y-8156284D02*
X7014284Y-8099715D01*
X6957715Y-8099715D01*
X6957715Y-8156284D01*
X7014284Y-8156284D01*
X7014284Y-8410285D02*
X7014284Y-8353715D01*
X6957715Y-8353715D01*
X6957715Y-8410285D01*
X7014284Y-8410285D01*
X7014284Y-8664285D02*
X7014284Y-8607716D01*
X6957715Y-8607716D01*
X6957715Y-8664285D01*
X7014284Y-8664285D01*
X7014284Y-8918285D02*
X7014284Y-8861716D01*
X6957715Y-8861716D01*
X6957715Y-8918285D01*
X7014284Y-8918285D01*
X7014284Y-9172285D02*
X7014284Y-9115716D01*
X6957715Y-9115716D01*
X6957715Y-9172285D01*
X7014284Y-9172285D01*
X7014284Y-9426285D02*
X7014284Y-9369716D01*
X6957715Y-9369716D01*
X6957715Y-9426285D01*
X7014284Y-9426285D01*
X7014284Y-10315285D02*
X7014284Y-10258716D01*
X6957715Y-10258716D01*
X6957715Y-10315285D01*
X7014284Y-10315285D01*
X7014284Y-10569285D02*
X7014284Y-10512716D01*
X6957715Y-10512716D01*
X6957715Y-10569285D01*
X7014284Y-10569285D01*
X7014284Y-10823285D02*
X7014284Y-10766716D01*
X6957715Y-10766716D01*
X6957715Y-10823285D01*
X7014284Y-10823285D01*
X7014284Y-11077285D02*
X7014284Y-11020716D01*
X6957715Y-11020716D01*
X6957715Y-11077285D01*
X7014284Y-11077285D01*
X7014284Y-11331284D02*
X7014284Y-11274715D01*
X6957715Y-11274715D01*
X6957715Y-11331284D01*
X7014284Y-11331284D01*
X7014284Y-11585284D02*
X7014284Y-11528715D01*
X6957715Y-11528715D01*
X6957715Y-11585284D01*
X7014284Y-11585284D01*
X7014284Y-11839284D02*
X7014284Y-11782715D01*
X6957715Y-11782715D01*
X6957715Y-11839284D01*
X7014284Y-11839284D01*
X7014284Y-12093284D02*
X7014284Y-12036715D01*
X6957715Y-12036715D01*
X6957715Y-12093284D01*
X7014284Y-12093284D01*
X7140284Y-12728284D02*
X7140284Y-12671715D01*
X7083715Y-12671715D01*
X7083715Y-12728284D01*
X7140284Y-12728284D01*
X7648284Y-12728284D02*
X7648284Y-12671715D01*
X7591715Y-12671715D01*
X7591715Y-12728284D01*
X7648284Y-12728284D01*
X7648288Y-7902283D02*
X7648288Y-7845714D01*
X7591719Y-7845714D01*
X7591719Y-7902283D01*
X7648288Y-7902283D01*
X7648288Y-8156283D02*
X7648288Y-8099714D01*
X7591719Y-8099714D01*
X7591719Y-8156283D01*
X7648288Y-8156283D01*
X7648288Y-8410283D02*
X7648288Y-8353714D01*
X7591719Y-8353714D01*
X7591719Y-8410283D01*
X7648288Y-8410283D01*
X7648288Y-8664283D02*
X7648288Y-8607714D01*
X7591719Y-8607714D01*
X7591719Y-8664283D01*
X7648288Y-8664283D01*
X7648288Y-8918283D02*
X7648288Y-8861714D01*
X7591719Y-8861714D01*
X7591719Y-8918283D01*
X7648288Y-8918283D01*
X7648288Y-9172283D02*
X7648288Y-9115714D01*
X7591719Y-9115714D01*
X7591719Y-9172283D01*
X7648288Y-9172283D01*
X7648288Y-9426283D02*
X7648288Y-9369714D01*
X7591719Y-9369714D01*
X7591719Y-9426283D01*
X7648288Y-9426283D01*
X7648288Y-9680283D02*
X7648288Y-9623714D01*
X7591719Y-9623714D01*
X7591719Y-9680283D01*
X7648288Y-9680283D01*
X7648288Y-9934283D02*
X7648288Y-9877714D01*
X7591719Y-9877714D01*
X7591719Y-9934283D01*
X7648288Y-9934283D01*
X7648288Y-10188283D02*
X7648288Y-10131714D01*
X7591719Y-10131714D01*
X7591719Y-10188283D01*
X7648288Y-10188283D01*
X7648288Y-10442283D02*
X7648288Y-10385714D01*
X7591719Y-10385714D01*
X7591719Y-10442283D01*
X7648288Y-10442283D01*
X7648288Y-10696283D02*
X7648288Y-10639714D01*
X7591719Y-10639714D01*
X7591719Y-10696283D01*
X7648288Y-10696283D01*
X7648288Y-10950283D02*
X7648288Y-10893714D01*
X7591719Y-10893714D01*
X7591719Y-10950283D01*
X7648288Y-10950283D01*
X7648288Y-11204283D02*
X7648288Y-11147714D01*
X7591719Y-11147714D01*
X7591719Y-11204283D01*
X7648288Y-11204283D01*
X7648288Y-11458283D02*
X7648288Y-11401714D01*
X7591719Y-11401714D01*
X7591719Y-11458283D01*
X7648288Y-11458283D01*
X8410285Y-12728284D02*
X8410285Y-12671715D01*
X8353715Y-12671715D01*
X8353715Y-12728284D01*
X8410285Y-12728284D01*
X8918285Y-12728284D02*
X8918285Y-12671715D01*
X8861716Y-12671715D01*
X8861716Y-12728284D01*
X8918285Y-12728284D01*
X9680285Y-12728284D02*
X9680285Y-12671715D01*
X9623716Y-12671715D01*
X9623716Y-12728284D01*
X9680285Y-12728284D01*
X10188285Y-12728284D02*
X10188285Y-12671715D01*
X10131716Y-12671715D01*
X10131716Y-12728284D01*
X10188285Y-12728284D01*
X10188289Y-7902283D02*
X10188289Y-7845714D01*
X10131720Y-7845714D01*
X10131720Y-7902283D01*
X10188289Y-7902283D01*
X10188289Y-8156283D02*
X10188289Y-8099714D01*
X10131720Y-8099714D01*
X10131720Y-8156283D01*
X10188289Y-8156283D01*
X10188289Y-8410283D02*
X10188289Y-8353714D01*
X10131720Y-8353714D01*
X10131720Y-8410283D01*
X10188289Y-8410283D01*
X10188289Y-8664283D02*
X10188289Y-8607714D01*
X10131720Y-8607714D01*
X10131720Y-8664283D01*
X10188289Y-8664283D01*
X10188289Y-8918283D02*
X10188289Y-8861714D01*
X10131720Y-8861714D01*
X10131720Y-8918283D01*
X10188289Y-8918283D01*
X10188289Y-9172283D02*
X10188289Y-9115714D01*
X10131720Y-9115714D01*
X10131720Y-9172283D01*
X10188289Y-9172283D01*
X10188289Y-9426283D02*
X10188289Y-9369714D01*
X10131720Y-9369714D01*
X10131720Y-9426283D01*
X10188289Y-9426283D01*
X10188289Y-9680283D02*
X10188289Y-9623714D01*
X10131720Y-9623714D01*
X10131720Y-9680283D01*
X10188289Y-9680283D01*
X10188289Y-9934283D02*
X10188289Y-9877714D01*
X10131720Y-9877714D01*
X10131720Y-9934283D01*
X10188289Y-9934283D01*
X10188289Y-10188283D02*
X10188289Y-10131714D01*
X10131720Y-10131714D01*
X10131720Y-10188283D01*
X10188289Y-10188283D01*
X10188289Y-10442283D02*
X10188289Y-10385714D01*
X10131720Y-10385714D01*
X10131720Y-10442283D01*
X10188289Y-10442283D01*
X10188289Y-10696283D02*
X10188289Y-10639714D01*
X10131720Y-10639714D01*
X10131720Y-10696283D01*
X10188289Y-10696283D01*
X10188289Y-10950283D02*
X10188289Y-10893714D01*
X10131720Y-10893714D01*
X10131720Y-10950283D01*
X10188289Y-10950283D01*
X10188289Y-11204283D02*
X10188289Y-11147714D01*
X10131720Y-11147714D01*
X10131720Y-11204283D01*
X10188289Y-11204283D01*
X10188289Y-11458283D02*
X10188289Y-11401714D01*
X10131720Y-11401714D01*
X10131720Y-11458283D01*
X10188289Y-11458283D01*
X10696285Y-8156284D02*
X10696285Y-8099715D01*
X10639716Y-8099715D01*
X10639716Y-8156284D01*
X10696285Y-8156284D01*
X10696285Y-8410285D02*
X10696285Y-8353715D01*
X10639716Y-8353715D01*
X10639716Y-8410285D01*
X10696285Y-8410285D01*
X10696285Y-8664285D02*
X10696285Y-8607716D01*
X10639716Y-8607716D01*
X10639716Y-8664285D01*
X10696285Y-8664285D01*
X10696285Y-8918285D02*
X10696285Y-8861716D01*
X10639716Y-8861716D01*
X10639716Y-8918285D01*
X10696285Y-8918285D01*
X10696285Y-9172285D02*
X10696285Y-9115716D01*
X10639716Y-9115716D01*
X10639716Y-9172285D01*
X10696285Y-9172285D01*
X10696285Y-9426285D02*
X10696285Y-9369716D01*
X10639716Y-9369716D01*
X10639716Y-9426285D01*
X10696285Y-9426285D01*
X10696285Y-9680285D02*
X10696285Y-9623716D01*
X10639716Y-9623716D01*
X10639716Y-9680285D01*
X10696285Y-9680285D01*
X10696285Y-9934285D02*
X10696285Y-9877716D01*
X10639716Y-9877716D01*
X10639716Y-9934285D01*
X10696285Y-9934285D01*
X11458284Y-8156284D02*
X11458284Y-8099715D01*
X11401715Y-8099715D01*
X11401715Y-8156284D01*
X11458284Y-8156284D01*
X11458284Y-8410285D02*
X11458284Y-8353715D01*
X11401715Y-8353715D01*
X11401715Y-8410285D01*
X11458284Y-8410285D01*
X11458284Y-8664285D02*
X11458284Y-8607716D01*
X11401715Y-8607716D01*
X11401715Y-8664285D01*
X11458284Y-8664285D01*
X11458284Y-8918285D02*
X11458284Y-8861716D01*
X11401715Y-8861716D01*
X11401715Y-8918285D01*
X11458284Y-8918285D01*
X11458284Y-9172285D02*
X11458284Y-9115716D01*
X11401715Y-9115716D01*
X11401715Y-9172285D01*
X11458284Y-9172285D01*
X11458284Y-9426285D02*
X11458284Y-9369716D01*
X11401715Y-9369716D01*
X11401715Y-9426285D01*
X11458284Y-9426285D01*
X11458284Y-9680285D02*
X11458284Y-9623716D01*
X11401715Y-9623716D01*
X11401715Y-9680285D01*
X11458284Y-9680285D01*
X11458284Y-9934285D02*
X11458284Y-9877716D01*
X11401715Y-9877716D01*
X11401715Y-9934285D01*
X11458284Y-9934285D01*
X13110284Y-8029284D02*
X13110284Y-7972715D01*
X13053715Y-7972715D01*
X13053715Y-8029284D01*
X13110284Y-8029284D01*
X13110284Y-8283284D02*
X13110284Y-8226715D01*
X13053715Y-8226715D01*
X13053715Y-8283284D01*
X13110284Y-8283284D01*
X13110284Y-8537285D02*
X13110284Y-8480716D01*
X13053715Y-8480716D01*
X13053715Y-8537285D01*
X13110284Y-8537285D01*
X13110284Y-8791285D02*
X13110284Y-8734716D01*
X13053715Y-8734716D01*
X13053715Y-8791285D01*
X13110284Y-8791285D01*
X13110284Y-9045285D02*
X13110284Y-8988716D01*
X13053715Y-8988716D01*
X13053715Y-9045285D01*
X13110284Y-9045285D01*
X13110284Y-9299285D02*
X13110284Y-9242716D01*
X13053715Y-9242716D01*
X13053715Y-9299285D01*
X13110284Y-9299285D01*
X13110284Y-9553285D02*
X13110284Y-9496716D01*
X13053715Y-9496716D01*
X13053715Y-9553285D01*
X13110284Y-9553285D01*
X13110284Y-9807285D02*
X13110284Y-9750716D01*
X13053715Y-9750716D01*
X13053715Y-9807285D01*
X13110284Y-9807285D01*
X13110284Y-10569285D02*
X13110284Y-10512716D01*
X13053715Y-10512716D01*
X13053715Y-10569285D01*
X13110284Y-10569285D01*
X13110284Y-10823285D02*
X13110284Y-10766716D01*
X13053715Y-10766716D01*
X13053715Y-10823285D01*
X13110284Y-10823285D01*
X13110284Y-11077285D02*
X13110284Y-11020716D01*
X13053715Y-11020716D01*
X13053715Y-11077285D01*
X13110284Y-11077285D01*
X13110284Y-11331284D02*
X13110284Y-11274715D01*
X13053715Y-11274715D01*
X13053715Y-11331284D01*
X13110284Y-11331284D01*
X13110284Y-11585284D02*
X13110284Y-11528715D01*
X13053715Y-11528715D01*
X13053715Y-11585284D01*
X13110284Y-11585284D01*
X13110284Y-11839284D02*
X13110284Y-11782715D01*
X13053715Y-11782715D01*
X13053715Y-11839284D01*
X13110284Y-11839284D01*
X13110284Y-12093284D02*
X13110284Y-12036715D01*
X13053715Y-12036715D01*
X13053715Y-12093284D01*
X13110284Y-12093284D01*
X13110284Y-12347284D02*
X13110284Y-12290715D01*
X13053715Y-12290715D01*
X13053715Y-12347284D01*
X13110284Y-12347284D01*
X14380284Y-8029284D02*
X14380284Y-7972715D01*
X14323715Y-7972715D01*
X14323715Y-8029284D01*
X14380284Y-8029284D01*
X14380284Y-8283284D02*
X14380284Y-8226715D01*
X14323715Y-8226715D01*
X14323715Y-8283284D01*
X14380284Y-8283284D01*
X14380284Y-8537285D02*
X14380284Y-8480716D01*
X14323715Y-8480716D01*
X14323715Y-8537285D01*
X14380284Y-8537285D01*
X14380284Y-8791285D02*
X14380284Y-8734716D01*
X14323715Y-8734716D01*
X14323715Y-8791285D01*
X14380284Y-8791285D01*
X14380284Y-9045285D02*
X14380284Y-8988716D01*
X14323715Y-8988716D01*
X14323715Y-9045285D01*
X14380284Y-9045285D01*
X14380284Y-9299285D02*
X14380284Y-9242716D01*
X14323715Y-9242716D01*
X14323715Y-9299285D01*
X14380284Y-9299285D01*
X14380284Y-9553285D02*
X14380284Y-9496716D01*
X14323715Y-9496716D01*
X14323715Y-9553285D01*
X14380284Y-9553285D01*
X14380284Y-9807285D02*
X14380284Y-9750716D01*
X14323715Y-9750716D01*
X14323715Y-9807285D01*
X14380284Y-9807285D01*
X14380284Y-10569285D02*
X14380284Y-10512716D01*
X14323715Y-10512716D01*
X14323715Y-10569285D01*
X14380284Y-10569285D01*
X14380284Y-10823285D02*
X14380284Y-10766716D01*
X14323715Y-10766716D01*
X14323715Y-10823285D01*
X14380284Y-10823285D01*
X14380284Y-11077285D02*
X14380284Y-11020716D01*
X14323715Y-11020716D01*
X14323715Y-11077285D01*
X14380284Y-11077285D01*
X14380284Y-11331284D02*
X14380284Y-11274715D01*
X14323715Y-11274715D01*
X14323715Y-11331284D01*
X14380284Y-11331284D01*
X14380284Y-11585284D02*
X14380284Y-11528715D01*
X14323715Y-11528715D01*
X14323715Y-11585284D01*
X14380284Y-11585284D01*
X14380284Y-11839284D02*
X14380284Y-11782715D01*
X14323715Y-11782715D01*
X14323715Y-11839284D01*
X14380284Y-11839284D01*
X14380284Y-12093284D02*
X14380284Y-12036715D01*
X14323715Y-12036715D01*
X14323715Y-12093284D01*
X14380284Y-12093284D01*
X14380284Y-12347284D02*
X14380284Y-12290715D01*
X14323715Y-12290715D01*
X14323715Y-12347284D01*
X14380284Y-12347284D01*
X15014284Y-9172285D02*
X15014284Y-9115716D01*
X14957715Y-9115716D01*
X14957715Y-9172285D01*
X15014284Y-9172285D01*
X15014284Y-9680285D02*
X15014284Y-9623716D01*
X14957715Y-9623716D01*
X14957715Y-9680285D01*
X15014284Y-9680285D01*
X15014284Y-11458284D02*
X15014284Y-11401715D01*
X14957715Y-11401715D01*
X14957715Y-11458284D01*
X15014284Y-11458284D01*
X15014284Y-11966284D02*
X15014284Y-11909715D01*
X14957715Y-11909715D01*
X14957715Y-11966284D01*
X15014284Y-11966284D01*
X3302000Y-12491000D02*
X3347000Y-12446000D01*
X3302000Y-12401000D01*
X3257000Y-12446000D01*
X3302000Y-12491000D01*
X3302000Y-12745000D02*
X3347000Y-12700000D01*
X3302000Y-12655000D01*
X3257000Y-12700000D01*
X3302000Y-12745000D01*
X3849000Y-12491000D02*
X3894000Y-12446000D01*
X3849000Y-12401000D01*
X3804000Y-12446000D01*
X3849000Y-12491000D01*
X3849000Y-12745000D02*
X3894000Y-12700000D01*
X3849000Y-12655000D01*
X3804000Y-12700000D01*
X3849000Y-12745000D01*
X4396000Y-12491000D02*
X4441000Y-12446000D01*
X4396000Y-12401000D01*
X4351000Y-12446000D01*
X4396000Y-12491000D01*
X4396000Y-12745000D02*
X4441000Y-12700000D01*
X4396000Y-12655000D01*
X4351000Y-12700000D01*
X4396000Y-12745000D01*
X4826000Y-7411000D02*
X4871000Y-7366000D01*
X4826000Y-7321000D01*
X4781000Y-7366000D01*
X4826000Y-7411000D01*
X4826000Y-9951000D02*
X4871000Y-9906000D01*
X4826000Y-9861000D01*
X4781000Y-9906000D01*
X4826000Y-9951000D01*
X4943000Y-12491000D02*
X4988000Y-12446000D01*
X4943000Y-12401000D01*
X4898000Y-12446000D01*
X4943000Y-12491000D01*
X4943000Y-12745000D02*
X4988000Y-12700000D01*
X4943000Y-12655000D01*
X4898000Y-12700000D01*
X4943000Y-12745000D01*
X5080000Y-7411000D02*
X5125000Y-7366000D01*
X5080000Y-7321000D01*
X5035000Y-7366000D01*
X5080000Y-7411000D01*
X5080000Y-9951000D02*
X5125000Y-9906000D01*
X5080000Y-9861000D01*
X5035000Y-9906000D01*
X5080000Y-9951000D01*
X11430000Y-11729000D02*
X11475000Y-11684000D01*
X11430000Y-11639000D01*
X11385000Y-11684000D01*
X11430000Y-11729000D01*
X11684000Y-11729000D02*
X11729000Y-11684000D01*
X11684000Y-11639000D01*
X11639000Y-11684000D01*
X11684000Y-11729000D01*
X11938000Y-10205000D02*
X11983000Y-10160000D01*
X11938000Y-10115000D01*
X11893000Y-10160000D01*
X11938000Y-10205000D01*
X12192000Y-10205000D02*
X12237000Y-10160000D01*
X12192000Y-10115000D01*
X12147000Y-10160000D01*
X12192000Y-10205000D01*
X4953500Y-8088500D02*
X5048500Y-8183500D01*
X5048500Y-8088500D02*
X4953500Y-8183500D01*
X5048500Y-8136000D02*
G75*
G02*
X4953500Y-8136000I-47500J0D01*
G01*
X4953500Y-8136000D02*
G75*
G02*
X5048500Y-8136000I47500J0D01*
G01*
X4953500Y-8338500D02*
X5048500Y-8433500D01*
X5048500Y-8338500D02*
X4953500Y-8433500D01*
X5048500Y-8386000D02*
G75*
G02*
X4953500Y-8386000I-47500J0D01*
G01*
X4953500Y-8386000D02*
G75*
G02*
X5048500Y-8386000I47500J0D01*
G01*
X4953500Y-8588500D02*
X5048500Y-8683500D01*
X5048500Y-8588500D02*
X4953500Y-8683500D01*
X5048500Y-8636000D02*
G75*
G02*
X4953500Y-8636000I-47500J0D01*
G01*
X4953500Y-8636000D02*
G75*
G02*
X5048500Y-8636000I47500J0D01*
G01*
X4953500Y-8838500D02*
X5048500Y-8933500D01*
X5048500Y-8838500D02*
X4953500Y-8933500D01*
X5048500Y-8886000D02*
G75*
G02*
X4953500Y-8886000I-47500J0D01*
G01*
X4953500Y-8886000D02*
G75*
G02*
X5048500Y-8886000I47500J0D01*
G01*
X4953500Y-10632500D02*
X5048500Y-10727500D01*
X5048500Y-10632500D02*
X4953500Y-10727500D01*
X5048500Y-10680000D02*
G75*
G02*
X4953500Y-10680000I-47500J0D01*
G01*
X4953500Y-10680000D02*
G75*
G02*
X5048500Y-10680000I47500J0D01*
G01*
X4953500Y-10882500D02*
X5048500Y-10977500D01*
X5048500Y-10882500D02*
X4953500Y-10977500D01*
X5048500Y-10930000D02*
G75*
G02*
X4953500Y-10930000I-47500J0D01*
G01*
X4953500Y-10930000D02*
G75*
G02*
X5048500Y-10930000I47500J0D01*
G01*
X4953500Y-11132500D02*
X5048500Y-11227500D01*
X5048500Y-11132500D02*
X4953500Y-11227500D01*
X5048500Y-11180000D02*
G75*
G02*
X4953500Y-11180000I-47500J0D01*
G01*
X4953500Y-11180000D02*
G75*
G02*
X5048500Y-11180000I47500J0D01*
G01*
X4953500Y-11382500D02*
X5048500Y-11477500D01*
X5048500Y-11382500D02*
X4953500Y-11477500D01*
X5048500Y-11430000D02*
G75*
G02*
X4953500Y-11430000I-47500J0D01*
G01*
X4953500Y-11430000D02*
G75*
G02*
X5048500Y-11430000I47500J0D01*
G01*
X12398500Y-8596500D02*
X12493500Y-8691500D01*
X12493500Y-8596500D02*
X12398500Y-8691500D01*
X12493500Y-8644000D02*
G75*
G02*
X12398500Y-8644000I-47500J0D01*
G01*
X12398500Y-8644000D02*
G75*
G02*
X12493500Y-8644000I47500J0D01*
G01*
X12398500Y-8846500D02*
X12493500Y-8941500D01*
X12493500Y-8846500D02*
X12398500Y-8941500D01*
X12493500Y-8894000D02*
G75*
G02*
X12398500Y-8894000I-47500J0D01*
G01*
X12398500Y-8894000D02*
G75*
G02*
X12493500Y-8894000I47500J0D01*
G01*
X12398500Y-9096500D02*
X12493500Y-9191500D01*
X12493500Y-9096500D02*
X12398500Y-9191500D01*
X12493500Y-9144000D02*
G75*
G02*
X12398500Y-9144000I-47500J0D01*
G01*
X12398500Y-9144000D02*
G75*
G02*
X12493500Y-9144000I47500J0D01*
G01*
X12398500Y-9346500D02*
X12493500Y-9441500D01*
X12493500Y-9346500D02*
X12398500Y-9441500D01*
X12493500Y-9394000D02*
G75*
G02*
X12398500Y-9394000I-47500J0D01*
G01*
X12398500Y-9394000D02*
G75*
G02*
X12493500Y-9394000I47500J0D01*
G01*
X12398500Y-11132500D02*
X12493500Y-11227500D01*
X12493500Y-11132500D02*
X12398500Y-11227500D01*
X12493500Y-11180000D02*
G75*
G02*
X12398500Y-11180000I-47500J0D01*
G01*
X12398500Y-11180000D02*
G75*
G02*
X12493500Y-11180000I47500J0D01*
G01*
X12398500Y-11382500D02*
X12493500Y-11477500D01*
X12493500Y-11382500D02*
X12398500Y-11477500D01*
X12493500Y-11430000D02*
G75*
G02*
X12398500Y-11430000I-47500J0D01*
G01*
X12398500Y-11430000D02*
G75*
G02*
X12493500Y-11430000I47500J0D01*
G01*
X12398500Y-11632500D02*
X12493500Y-11727500D01*
X12493500Y-11632500D02*
X12398500Y-11727500D01*
X12493500Y-11680000D02*
G75*
G02*
X12398500Y-11680000I-47500J0D01*
G01*
X12398500Y-11680000D02*
G75*
G02*
X12493500Y-11680000I47500J0D01*
G01*
X12398500Y-11882500D02*
X12493500Y-11977500D01*
X12493500Y-11882500D02*
X12398500Y-11977500D01*
X12493500Y-11930000D02*
G75*
G02*
X12398500Y-11930000I-47500J0D01*
G01*
X12398500Y-11930000D02*
G75*
G02*
X12493500Y-11930000I47500J0D01*
G01*
X2876000Y-9458000D02*
X2976000Y-9558000D01*
X2976000Y-9458000D02*
X2876000Y-9558000D01*
X2926000Y-9458000D02*
X2926000Y-9558000D01*
X2876000Y-9508000D02*
X2976000Y-9508000D01*
X3126000Y-9458000D02*
X3226000Y-9558000D01*
X3226000Y-9458000D02*
X3126000Y-9558000D01*
X3176000Y-9458000D02*
X3176000Y-9558000D01*
X3126000Y-9508000D02*
X3226000Y-9508000D01*
X3257000Y-8078000D02*
X3357000Y-8178000D01*
X3357000Y-8078000D02*
X3257000Y-8178000D01*
X3307000Y-8078000D02*
X3307000Y-8178000D01*
X3257000Y-8128000D02*
X3357000Y-8128000D01*
X3257000Y-8018000D02*
X3257000Y-8238000D01*
X3357000Y-8238000D02*
G75*
G02*
X3257000Y-8238000I-50000J0D01*
G01*
X3357000Y-8238000D02*
X3357000Y-8018000D01*
X3357000Y-8018000D02*
G75*
G03*
X3257000Y-8018000I-50000J0D01*
G01*
X3376000Y-9458000D02*
X3476000Y-9558000D01*
X3476000Y-9458000D02*
X3376000Y-9558000D01*
X3426000Y-9458000D02*
X3426000Y-9558000D01*
X3376000Y-9508000D02*
X3476000Y-9508000D01*
X3597000Y-8558000D02*
X3697000Y-8658000D01*
X3697000Y-8558000D02*
X3597000Y-8658000D01*
X3647000Y-8558000D02*
X3647000Y-8658000D01*
X3597000Y-8608000D02*
X3697000Y-8608000D01*
X3757000Y-8558000D02*
X3537000Y-8558000D01*
X3537000Y-8658000D02*
G75*
G02*
X3537000Y-8558000I0J50000D01*
G01*
X3537000Y-8658000D02*
X3757000Y-8658000D01*
X3757000Y-8658000D02*
G75*
G03*
X3757000Y-8558000I0J50000D01*
G01*
X3616000Y-9458000D02*
X3716000Y-9558000D01*
X3716000Y-9458000D02*
X3616000Y-9558000D01*
X3666000Y-9458000D02*
X3666000Y-9558000D01*
X3616000Y-9508000D02*
X3716000Y-9508000D01*
X3866000Y-9458000D02*
X3966000Y-9558000D01*
X3966000Y-9458000D02*
X3866000Y-9558000D01*
X3916000Y-9458000D02*
X3916000Y-9558000D01*
X3866000Y-9508000D02*
X3966000Y-9508000D01*
X3887000Y-8078000D02*
X3987000Y-8178000D01*
X3987000Y-8078000D02*
X3887000Y-8178000D01*
X3937000Y-8078000D02*
X3937000Y-8178000D01*
X3887000Y-8128000D02*
X3987000Y-8128000D01*
X3887000Y-7998000D02*
X3887000Y-8258000D01*
X3987000Y-8258000D02*
G75*
G02*
X3887000Y-8258000I-50000J0D01*
G01*
X3987000Y-8258000D02*
X3987000Y-7998000D01*
X3987000Y-7998000D02*
G75*
G03*
X3887000Y-7998000I-50000J0D01*
G01*
X4116000Y-9458000D02*
X4216000Y-9558000D01*
X4216000Y-9458000D02*
X4116000Y-9558000D01*
X4166000Y-9458000D02*
X4166000Y-9558000D01*
X4116000Y-9508000D02*
X4216000Y-9508000D01*
X10872000Y-7316000D02*
X10972000Y-7416000D01*
X10972000Y-7316000D02*
X10872000Y-7416000D01*
X10922000Y-7316000D02*
X10922000Y-7416000D01*
X10872000Y-7366000D02*
X10972000Y-7366000D01*
X11126000Y-7316000D02*
X11226000Y-7416000D01*
X11226000Y-7316000D02*
X11126000Y-7416000D01*
X11176000Y-7316000D02*
X11176000Y-7416000D01*
X11126000Y-7366000D02*
X11226000Y-7366000D01*
X11380000Y-7316000D02*
X11480000Y-7416000D01*
X11480000Y-7316000D02*
X11380000Y-7416000D01*
X11430000Y-7316000D02*
X11430000Y-7416000D01*
X11380000Y-7366000D02*
X11480000Y-7366000D01*
X11634000Y-7316000D02*
X11734000Y-7416000D01*
X11734000Y-7316000D02*
X11634000Y-7416000D01*
X11684000Y-7316000D02*
X11684000Y-7416000D01*
X11634000Y-7366000D02*
X11734000Y-7366000D01*
X11888000Y-7316000D02*
X11988000Y-7416000D01*
X11988000Y-7316000D02*
X11888000Y-7416000D01*
X11938000Y-7316000D02*
X11938000Y-7416000D01*
X11888000Y-7366000D02*
X11988000Y-7366000D01*
X12142000Y-7316000D02*
X12242000Y-7416000D01*
X12242000Y-7316000D02*
X12142000Y-7416000D01*
X12192000Y-7316000D02*
X12192000Y-7416000D01*
X12142000Y-7366000D02*
X12242000Y-7366000D01*
X12396000Y-7316000D02*
X12496000Y-7416000D01*
X12496000Y-7316000D02*
X12396000Y-7416000D01*
X12446000Y-7316000D02*
X12446000Y-7416000D01*
X12396000Y-7366000D02*
X12496000Y-7366000D01*
X12650000Y-7316000D02*
X12750000Y-7416000D01*
X12750000Y-7316000D02*
X12650000Y-7416000D01*
X12700000Y-7316000D02*
X12700000Y-7416000D01*
X12650000Y-7366000D02*
X12750000Y-7366000D01*
X12904000Y-7316000D02*
X13004000Y-7416000D01*
X13004000Y-7316000D02*
X12904000Y-7416000D01*
X12954000Y-7316000D02*
X12954000Y-7416000D01*
X12904000Y-7366000D02*
X13004000Y-7366000D01*
X13158000Y-7316000D02*
X13258000Y-7416000D01*
X13258000Y-7316000D02*
X13158000Y-7416000D01*
X13208000Y-7316000D02*
X13208000Y-7416000D01*
X13158000Y-7366000D02*
X13258000Y-7366000D01*
X13412000Y-7316000D02*
X13512000Y-7416000D01*
X13512000Y-7316000D02*
X13412000Y-7416000D01*
X13462000Y-7316000D02*
X13462000Y-7416000D01*
X13412000Y-7366000D02*
X13512000Y-7366000D01*
X13666000Y-7316000D02*
X13766000Y-7416000D01*
X13766000Y-7316000D02*
X13666000Y-7416000D01*
X13716000Y-7316000D02*
X13716000Y-7416000D01*
X13666000Y-7366000D02*
X13766000Y-7366000D01*
X13920000Y-7316000D02*
X14020000Y-7416000D01*
X14020000Y-7316000D02*
X13920000Y-7416000D01*
X13970000Y-7316000D02*
X13970000Y-7416000D01*
X13920000Y-7366000D02*
X14020000Y-7366000D01*
X14174000Y-7316000D02*
X14274000Y-7416000D01*
X14274000Y-7316000D02*
X14174000Y-7416000D01*
X14224000Y-7316000D02*
X14224000Y-7416000D01*
X14174000Y-7366000D02*
X14274000Y-7366000D01*
X14428000Y-7316000D02*
X14528000Y-7416000D01*
X14528000Y-7316000D02*
X14428000Y-7416000D01*
X14478000Y-7316000D02*
X14478000Y-7416000D01*
X14428000Y-7366000D02*
X14528000Y-7366000D01*
X14682000Y-7316000D02*
X14782000Y-7416000D01*
X14782000Y-7316000D02*
X14682000Y-7416000D01*
X14732000Y-7316000D02*
X14732000Y-7416000D01*
X14682000Y-7366000D02*
X14782000Y-7366000D01*
D12*
X2798277Y-13521984D02*
X2798277Y-13321984D01*
X2798277Y-13321984D02*
X2845896Y-13321984D01*
X2845896Y-13321984D02*
X2874467Y-13331508D01*
X2874467Y-13331508D02*
X2893515Y-13350555D01*
X2893515Y-13350555D02*
X2903039Y-13369603D01*
X2903039Y-13369603D02*
X2912562Y-13407698D01*
X2912562Y-13407698D02*
X2912562Y-13436269D01*
X2912562Y-13436269D02*
X2903039Y-13474365D01*
X2903039Y-13474365D02*
X2893515Y-13493412D01*
X2893515Y-13493412D02*
X2874467Y-13512460D01*
X2874467Y-13512460D02*
X2845896Y-13521984D01*
X2845896Y-13521984D02*
X2798277Y-13521984D01*
X2998277Y-13521984D02*
X2998277Y-13388650D01*
X2998277Y-13426746D02*
X3007801Y-13407698D01*
X3007801Y-13407698D02*
X3017324Y-13398174D01*
X3017324Y-13398174D02*
X3036372Y-13388650D01*
X3036372Y-13388650D02*
X3055420Y-13388650D01*
X3122086Y-13521984D02*
X3122086Y-13388650D01*
X3122086Y-13321984D02*
X3112562Y-13331508D01*
X3112562Y-13331508D02*
X3122086Y-13341031D01*
X3122086Y-13341031D02*
X3131610Y-13331508D01*
X3131610Y-13331508D02*
X3122086Y-13321984D01*
X3122086Y-13321984D02*
X3122086Y-13341031D01*
X3245896Y-13521984D02*
X3226848Y-13512460D01*
X3226848Y-13512460D02*
X3217324Y-13493412D01*
X3217324Y-13493412D02*
X3217324Y-13321984D01*
X3350658Y-13521984D02*
X3331610Y-13512460D01*
X3331610Y-13512460D02*
X3322086Y-13493412D01*
X3322086Y-13493412D02*
X3322086Y-13321984D01*
X3579229Y-13521984D02*
X3579229Y-13321984D01*
X3579229Y-13321984D02*
X3645896Y-13464841D01*
X3645896Y-13464841D02*
X3712562Y-13321984D01*
X3712562Y-13321984D02*
X3712562Y-13521984D01*
X3893515Y-13521984D02*
X3893515Y-13417222D01*
X3893515Y-13417222D02*
X3883991Y-13398174D01*
X3883991Y-13398174D02*
X3864943Y-13388650D01*
X3864943Y-13388650D02*
X3826848Y-13388650D01*
X3826848Y-13388650D02*
X3807801Y-13398174D01*
X3893515Y-13512460D02*
X3874467Y-13521984D01*
X3874467Y-13521984D02*
X3826848Y-13521984D01*
X3826848Y-13521984D02*
X3807801Y-13512460D01*
X3807801Y-13512460D02*
X3798277Y-13493412D01*
X3798277Y-13493412D02*
X3798277Y-13474365D01*
X3798277Y-13474365D02*
X3807801Y-13455317D01*
X3807801Y-13455317D02*
X3826848Y-13445793D01*
X3826848Y-13445793D02*
X3874467Y-13445793D01*
X3874467Y-13445793D02*
X3893515Y-13436269D01*
X3988753Y-13388650D02*
X3988753Y-13588650D01*
X3988753Y-13398174D02*
X4007801Y-13388650D01*
X4007801Y-13388650D02*
X4045896Y-13388650D01*
X4045896Y-13388650D02*
X4064943Y-13398174D01*
X4064943Y-13398174D02*
X4074467Y-13407698D01*
X4074467Y-13407698D02*
X4083991Y-13426746D01*
X4083991Y-13426746D02*
X4083991Y-13483888D01*
X4083991Y-13483888D02*
X4074467Y-13502936D01*
X4074467Y-13502936D02*
X4064943Y-13512460D01*
X4064943Y-13512460D02*
X4045896Y-13521984D01*
X4045896Y-13521984D02*
X4007801Y-13521984D01*
X4007801Y-13521984D02*
X3988753Y-13512460D01*
X4169705Y-13502936D02*
X4179229Y-13512460D01*
X4179229Y-13512460D02*
X4169705Y-13521984D01*
X4169705Y-13521984D02*
X4160182Y-13512460D01*
X4160182Y-13512460D02*
X4169705Y-13502936D01*
X4169705Y-13502936D02*
X4169705Y-13521984D01*
X4169705Y-13398174D02*
X4179229Y-13407698D01*
X4179229Y-13407698D02*
X4169705Y-13417222D01*
X4169705Y-13417222D02*
X4160182Y-13407698D01*
X4160182Y-13407698D02*
X4169705Y-13398174D01*
X4169705Y-13398174D02*
X4169705Y-13417222D01*
D11*
X2507500Y-13835500D02*
X2537500Y-13865500D01*
X2537500Y-13835500D02*
X2507500Y-13865500D01*
D12*
X2836372Y-13741984D02*
X2855420Y-13741984D01*
X2855420Y-13741984D02*
X2874467Y-13751508D01*
X2874467Y-13751508D02*
X2883991Y-13761031D01*
X2883991Y-13761031D02*
X2893515Y-13780079D01*
X2893515Y-13780079D02*
X2903039Y-13818174D01*
X2903039Y-13818174D02*
X2903039Y-13865793D01*
X2903039Y-13865793D02*
X2893515Y-13903888D01*
X2893515Y-13903888D02*
X2883991Y-13922936D01*
X2883991Y-13922936D02*
X2874467Y-13932460D01*
X2874467Y-13932460D02*
X2855420Y-13941984D01*
X2855420Y-13941984D02*
X2836372Y-13941984D01*
X2836372Y-13941984D02*
X2817324Y-13932460D01*
X2817324Y-13932460D02*
X2807801Y-13922936D01*
X2807801Y-13922936D02*
X2798277Y-13903888D01*
X2798277Y-13903888D02*
X2788753Y-13865793D01*
X2788753Y-13865793D02*
X2788753Y-13818174D01*
X2788753Y-13818174D02*
X2798277Y-13780079D01*
X2798277Y-13780079D02*
X2807801Y-13761031D01*
X2807801Y-13761031D02*
X2817324Y-13751508D01*
X2817324Y-13751508D02*
X2836372Y-13741984D01*
X2988753Y-13922936D02*
X2998277Y-13932460D01*
X2998277Y-13932460D02*
X2988753Y-13941984D01*
X2988753Y-13941984D02*
X2979229Y-13932460D01*
X2979229Y-13932460D02*
X2988753Y-13922936D01*
X2988753Y-13922936D02*
X2988753Y-13941984D01*
X3064943Y-13741984D02*
X3188753Y-13741984D01*
X3188753Y-13741984D02*
X3122086Y-13818174D01*
X3122086Y-13818174D02*
X3150658Y-13818174D01*
X3150658Y-13818174D02*
X3169705Y-13827698D01*
X3169705Y-13827698D02*
X3179229Y-13837222D01*
X3179229Y-13837222D02*
X3188753Y-13856269D01*
X3188753Y-13856269D02*
X3188753Y-13903888D01*
X3188753Y-13903888D02*
X3179229Y-13922936D01*
X3179229Y-13922936D02*
X3169705Y-13932460D01*
X3169705Y-13932460D02*
X3150658Y-13941984D01*
X3150658Y-13941984D02*
X3093515Y-13941984D01*
X3093515Y-13941984D02*
X3074467Y-13932460D01*
X3074467Y-13932460D02*
X3064943Y-13922936D01*
X3312562Y-13741984D02*
X3331610Y-13741984D01*
X3331610Y-13741984D02*
X3350658Y-13751508D01*
X3350658Y-13751508D02*
X3360182Y-13761031D01*
X3360182Y-13761031D02*
X3369705Y-13780079D01*
X3369705Y-13780079D02*
X3379229Y-13818174D01*
X3379229Y-13818174D02*
X3379229Y-13865793D01*
X3379229Y-13865793D02*
X3369705Y-13903888D01*
X3369705Y-13903888D02*
X3360182Y-13922936D01*
X3360182Y-13922936D02*
X3350658Y-13932460D01*
X3350658Y-13932460D02*
X3331610Y-13941984D01*
X3331610Y-13941984D02*
X3312562Y-13941984D01*
X3312562Y-13941984D02*
X3293515Y-13932460D01*
X3293515Y-13932460D02*
X3283991Y-13922936D01*
X3283991Y-13922936D02*
X3274467Y-13903888D01*
X3274467Y-13903888D02*
X3264943Y-13865793D01*
X3264943Y-13865793D02*
X3264943Y-13818174D01*
X3264943Y-13818174D02*
X3274467Y-13780079D01*
X3274467Y-13780079D02*
X3283991Y-13761031D01*
X3283991Y-13761031D02*
X3293515Y-13751508D01*
X3293515Y-13751508D02*
X3312562Y-13741984D01*
X3503039Y-13741984D02*
X3522086Y-13741984D01*
X3522086Y-13741984D02*
X3541134Y-13751508D01*
X3541134Y-13751508D02*
X3550658Y-13761031D01*
X3550658Y-13761031D02*
X3560182Y-13780079D01*
X3560182Y-13780079D02*
X3569705Y-13818174D01*
X3569705Y-13818174D02*
X3569705Y-13865793D01*
X3569705Y-13865793D02*
X3560182Y-13903888D01*
X3560182Y-13903888D02*
X3550658Y-13922936D01*
X3550658Y-13922936D02*
X3541134Y-13932460D01*
X3541134Y-13932460D02*
X3522086Y-13941984D01*
X3522086Y-13941984D02*
X3503039Y-13941984D01*
X3503039Y-13941984D02*
X3483991Y-13932460D01*
X3483991Y-13932460D02*
X3474467Y-13922936D01*
X3474467Y-13922936D02*
X3464943Y-13903888D01*
X3464943Y-13903888D02*
X3455420Y-13865793D01*
X3455420Y-13865793D02*
X3455420Y-13818174D01*
X3455420Y-13818174D02*
X3464943Y-13780079D01*
X3464943Y-13780079D02*
X3474467Y-13761031D01*
X3474467Y-13761031D02*
X3483991Y-13751508D01*
X3483991Y-13751508D02*
X3503039Y-13741984D01*
X3655420Y-13941984D02*
X3655420Y-13808650D01*
X3655420Y-13827698D02*
X3664943Y-13818174D01*
X3664943Y-13818174D02*
X3683991Y-13808650D01*
X3683991Y-13808650D02*
X3712563Y-13808650D01*
X3712563Y-13808650D02*
X3731610Y-13818174D01*
X3731610Y-13818174D02*
X3741134Y-13837222D01*
X3741134Y-13837222D02*
X3741134Y-13941984D01*
X3741134Y-13837222D02*
X3750658Y-13818174D01*
X3750658Y-13818174D02*
X3769705Y-13808650D01*
X3769705Y-13808650D02*
X3798277Y-13808650D01*
X3798277Y-13808650D02*
X3817324Y-13818174D01*
X3817324Y-13818174D02*
X3826848Y-13837222D01*
X3826848Y-13837222D02*
X3826848Y-13941984D01*
X3922086Y-13941984D02*
X3922086Y-13808650D01*
X3922086Y-13827698D02*
X3931610Y-13818174D01*
X3931610Y-13818174D02*
X3950658Y-13808650D01*
X3950658Y-13808650D02*
X3979229Y-13808650D01*
X3979229Y-13808650D02*
X3998277Y-13818174D01*
X3998277Y-13818174D02*
X4007801Y-13837222D01*
X4007801Y-13837222D02*
X4007801Y-13941984D01*
X4007801Y-13837222D02*
X4017324Y-13818174D01*
X4017324Y-13818174D02*
X4036372Y-13808650D01*
X4036372Y-13808650D02*
X4064943Y-13808650D01*
X4064943Y-13808650D02*
X4083991Y-13818174D01*
X4083991Y-13818174D02*
X4093515Y-13837222D01*
X4093515Y-13837222D02*
X4093515Y-13941984D01*
X4483991Y-13732460D02*
X4312563Y-13989603D01*
X4741134Y-13741984D02*
X4760182Y-13741984D01*
X4760182Y-13741984D02*
X4779229Y-13751508D01*
X4779229Y-13751508D02*
X4788753Y-13761031D01*
X4788753Y-13761031D02*
X4798277Y-13780079D01*
X4798277Y-13780079D02*
X4807801Y-13818174D01*
X4807801Y-13818174D02*
X4807801Y-13865793D01*
X4807801Y-13865793D02*
X4798277Y-13903888D01*
X4798277Y-13903888D02*
X4788753Y-13922936D01*
X4788753Y-13922936D02*
X4779229Y-13932460D01*
X4779229Y-13932460D02*
X4760182Y-13941984D01*
X4760182Y-13941984D02*
X4741134Y-13941984D01*
X4741134Y-13941984D02*
X4722087Y-13932460D01*
X4722087Y-13932460D02*
X4712563Y-13922936D01*
X4712563Y-13922936D02*
X4703039Y-13903888D01*
X4703039Y-13903888D02*
X4693515Y-13865793D01*
X4693515Y-13865793D02*
X4693515Y-13818174D01*
X4693515Y-13818174D02*
X4703039Y-13780079D01*
X4703039Y-13780079D02*
X4712563Y-13761031D01*
X4712563Y-13761031D02*
X4722087Y-13751508D01*
X4722087Y-13751508D02*
X4741134Y-13741984D01*
X4893515Y-13922936D02*
X4903039Y-13932460D01*
X4903039Y-13932460D02*
X4893515Y-13941984D01*
X4893515Y-13941984D02*
X4883991Y-13932460D01*
X4883991Y-13932460D02*
X4893515Y-13922936D01*
X4893515Y-13922936D02*
X4893515Y-13941984D01*
X5026848Y-13741984D02*
X5045896Y-13741984D01*
X5045896Y-13741984D02*
X5064944Y-13751508D01*
X5064944Y-13751508D02*
X5074468Y-13761031D01*
X5074468Y-13761031D02*
X5083991Y-13780079D01*
X5083991Y-13780079D02*
X5093515Y-13818174D01*
X5093515Y-13818174D02*
X5093515Y-13865793D01*
X5093515Y-13865793D02*
X5083991Y-13903888D01*
X5083991Y-13903888D02*
X5074468Y-13922936D01*
X5074468Y-13922936D02*
X5064944Y-13932460D01*
X5064944Y-13932460D02*
X5045896Y-13941984D01*
X5045896Y-13941984D02*
X5026848Y-13941984D01*
X5026848Y-13941984D02*
X5007801Y-13932460D01*
X5007801Y-13932460D02*
X4998277Y-13922936D01*
X4998277Y-13922936D02*
X4988753Y-13903888D01*
X4988753Y-13903888D02*
X4979229Y-13865793D01*
X4979229Y-13865793D02*
X4979229Y-13818174D01*
X4979229Y-13818174D02*
X4988753Y-13780079D01*
X4988753Y-13780079D02*
X4998277Y-13761031D01*
X4998277Y-13761031D02*
X5007801Y-13751508D01*
X5007801Y-13751508D02*
X5026848Y-13741984D01*
X5283991Y-13941984D02*
X5169706Y-13941984D01*
X5226848Y-13941984D02*
X5226848Y-13741984D01*
X5226848Y-13741984D02*
X5207801Y-13770555D01*
X5207801Y-13770555D02*
X5188753Y-13789603D01*
X5188753Y-13789603D02*
X5169706Y-13799127D01*
X5474468Y-13941984D02*
X5360182Y-13941984D01*
X5417325Y-13941984D02*
X5417325Y-13741984D01*
X5417325Y-13741984D02*
X5398277Y-13770555D01*
X5398277Y-13770555D02*
X5379229Y-13789603D01*
X5379229Y-13789603D02*
X5360182Y-13799127D01*
X5588753Y-13827698D02*
X5569706Y-13818174D01*
X5569706Y-13818174D02*
X5560182Y-13808650D01*
X5560182Y-13808650D02*
X5550658Y-13789603D01*
X5550658Y-13789603D02*
X5550658Y-13780079D01*
X5550658Y-13780079D02*
X5560182Y-13761031D01*
X5560182Y-13761031D02*
X5569706Y-13751508D01*
X5569706Y-13751508D02*
X5588753Y-13741984D01*
X5588753Y-13741984D02*
X5626848Y-13741984D01*
X5626848Y-13741984D02*
X5645896Y-13751508D01*
X5645896Y-13751508D02*
X5655420Y-13761031D01*
X5655420Y-13761031D02*
X5664944Y-13780079D01*
X5664944Y-13780079D02*
X5664944Y-13789603D01*
X5664944Y-13789603D02*
X5655420Y-13808650D01*
X5655420Y-13808650D02*
X5645896Y-13818174D01*
X5645896Y-13818174D02*
X5626848Y-13827698D01*
X5626848Y-13827698D02*
X5588753Y-13827698D01*
X5588753Y-13827698D02*
X5569706Y-13837222D01*
X5569706Y-13837222D02*
X5560182Y-13846746D01*
X5560182Y-13846746D02*
X5550658Y-13865793D01*
X5550658Y-13865793D02*
X5550658Y-13903888D01*
X5550658Y-13903888D02*
X5560182Y-13922936D01*
X5560182Y-13922936D02*
X5569706Y-13932460D01*
X5569706Y-13932460D02*
X5588753Y-13941984D01*
X5588753Y-13941984D02*
X5626848Y-13941984D01*
X5626848Y-13941984D02*
X5645896Y-13932460D01*
X5645896Y-13932460D02*
X5655420Y-13922936D01*
X5655420Y-13922936D02*
X5664944Y-13903888D01*
X5664944Y-13903888D02*
X5664944Y-13865793D01*
X5664944Y-13865793D02*
X5655420Y-13846746D01*
X5655420Y-13846746D02*
X5645896Y-13837222D01*
X5645896Y-13837222D02*
X5626848Y-13827698D01*
X5741134Y-13741984D02*
X5741134Y-13780079D01*
X5817325Y-13741984D02*
X5817325Y-13780079D01*
X6112563Y-14018174D02*
X6103039Y-14008650D01*
X6103039Y-14008650D02*
X6083991Y-13980079D01*
X6083991Y-13980079D02*
X6074468Y-13961031D01*
X6074468Y-13961031D02*
X6064944Y-13932460D01*
X6064944Y-13932460D02*
X6055420Y-13884841D01*
X6055420Y-13884841D02*
X6055420Y-13846746D01*
X6055420Y-13846746D02*
X6064944Y-13799127D01*
X6064944Y-13799127D02*
X6074468Y-13770555D01*
X6074468Y-13770555D02*
X6083991Y-13751508D01*
X6083991Y-13751508D02*
X6103039Y-13722936D01*
X6103039Y-13722936D02*
X6112563Y-13713412D01*
X6293515Y-13941984D02*
X6179229Y-13941984D01*
X6236372Y-13941984D02*
X6236372Y-13741984D01*
X6236372Y-13741984D02*
X6217325Y-13770555D01*
X6217325Y-13770555D02*
X6198277Y-13789603D01*
X6198277Y-13789603D02*
X6179229Y-13799127D01*
X6360182Y-13741984D02*
X6483991Y-13741984D01*
X6483991Y-13741984D02*
X6417325Y-13818174D01*
X6417325Y-13818174D02*
X6445896Y-13818174D01*
X6445896Y-13818174D02*
X6464944Y-13827698D01*
X6464944Y-13827698D02*
X6474468Y-13837222D01*
X6474468Y-13837222D02*
X6483991Y-13856269D01*
X6483991Y-13856269D02*
X6483991Y-13903888D01*
X6483991Y-13903888D02*
X6474468Y-13922936D01*
X6474468Y-13922936D02*
X6464944Y-13932460D01*
X6464944Y-13932460D02*
X6445896Y-13941984D01*
X6445896Y-13941984D02*
X6388753Y-13941984D01*
X6388753Y-13941984D02*
X6369706Y-13932460D01*
X6369706Y-13932460D02*
X6360182Y-13922936D01*
X6722087Y-13941984D02*
X6722087Y-13741984D01*
X6807801Y-13941984D02*
X6807801Y-13837222D01*
X6807801Y-13837222D02*
X6798277Y-13818174D01*
X6798277Y-13818174D02*
X6779230Y-13808650D01*
X6779230Y-13808650D02*
X6750658Y-13808650D01*
X6750658Y-13808650D02*
X6731610Y-13818174D01*
X6731610Y-13818174D02*
X6722087Y-13827698D01*
X6931610Y-13941984D02*
X6912563Y-13932460D01*
X6912563Y-13932460D02*
X6903039Y-13922936D01*
X6903039Y-13922936D02*
X6893515Y-13903888D01*
X6893515Y-13903888D02*
X6893515Y-13846746D01*
X6893515Y-13846746D02*
X6903039Y-13827698D01*
X6903039Y-13827698D02*
X6912563Y-13818174D01*
X6912563Y-13818174D02*
X6931610Y-13808650D01*
X6931610Y-13808650D02*
X6960182Y-13808650D01*
X6960182Y-13808650D02*
X6979230Y-13818174D01*
X6979230Y-13818174D02*
X6988753Y-13827698D01*
X6988753Y-13827698D02*
X6998277Y-13846746D01*
X6998277Y-13846746D02*
X6998277Y-13903888D01*
X6998277Y-13903888D02*
X6988753Y-13922936D01*
X6988753Y-13922936D02*
X6979230Y-13932460D01*
X6979230Y-13932460D02*
X6960182Y-13941984D01*
X6960182Y-13941984D02*
X6931610Y-13941984D01*
X7112563Y-13941984D02*
X7093515Y-13932460D01*
X7093515Y-13932460D02*
X7083991Y-13913412D01*
X7083991Y-13913412D02*
X7083991Y-13741984D01*
X7264944Y-13932460D02*
X7245896Y-13941984D01*
X7245896Y-13941984D02*
X7207801Y-13941984D01*
X7207801Y-13941984D02*
X7188753Y-13932460D01*
X7188753Y-13932460D02*
X7179230Y-13913412D01*
X7179230Y-13913412D02*
X7179230Y-13837222D01*
X7179230Y-13837222D02*
X7188753Y-13818174D01*
X7188753Y-13818174D02*
X7207801Y-13808650D01*
X7207801Y-13808650D02*
X7245896Y-13808650D01*
X7245896Y-13808650D02*
X7264944Y-13818174D01*
X7264944Y-13818174D02*
X7274468Y-13837222D01*
X7274468Y-13837222D02*
X7274468Y-13856269D01*
X7274468Y-13856269D02*
X7179230Y-13875317D01*
X7350658Y-13932460D02*
X7369706Y-13941984D01*
X7369706Y-13941984D02*
X7407801Y-13941984D01*
X7407801Y-13941984D02*
X7426849Y-13932460D01*
X7426849Y-13932460D02*
X7436372Y-13913412D01*
X7436372Y-13913412D02*
X7436372Y-13903888D01*
X7436372Y-13903888D02*
X7426849Y-13884841D01*
X7426849Y-13884841D02*
X7407801Y-13875317D01*
X7407801Y-13875317D02*
X7379230Y-13875317D01*
X7379230Y-13875317D02*
X7360182Y-13865793D01*
X7360182Y-13865793D02*
X7350658Y-13846746D01*
X7350658Y-13846746D02*
X7350658Y-13837222D01*
X7350658Y-13837222D02*
X7360182Y-13818174D01*
X7360182Y-13818174D02*
X7379230Y-13808650D01*
X7379230Y-13808650D02*
X7407801Y-13808650D01*
X7407801Y-13808650D02*
X7426849Y-13818174D01*
X7503039Y-14018174D02*
X7512563Y-14008650D01*
X7512563Y-14008650D02*
X7531611Y-13980079D01*
X7531611Y-13980079D02*
X7541134Y-13961031D01*
X7541134Y-13961031D02*
X7550658Y-13932460D01*
X7550658Y-13932460D02*
X7560182Y-13884841D01*
X7560182Y-13884841D02*
X7560182Y-13846746D01*
X7560182Y-13846746D02*
X7550658Y-13799127D01*
X7550658Y-13799127D02*
X7541134Y-13770555D01*
X7541134Y-13770555D02*
X7531611Y-13751508D01*
X7531611Y-13751508D02*
X7512563Y-13722936D01*
X7512563Y-13722936D02*
X7503039Y-13713412D01*
D11*
X2537500Y-14114500D02*
G75*
G02*
X2467500Y-14114500I-35000J0D01*
G01*
X2467500Y-14114500D02*
G75*
G02*
X2537500Y-14114500I35000J0D01*
G01*
D12*
X2836372Y-14005984D02*
X2855420Y-14005984D01*
X2855420Y-14005984D02*
X2874467Y-14015508D01*
X2874467Y-14015508D02*
X2883991Y-14025031D01*
X2883991Y-14025031D02*
X2893515Y-14044079D01*
X2893515Y-14044079D02*
X2903039Y-14082174D01*
X2903039Y-14082174D02*
X2903039Y-14129793D01*
X2903039Y-14129793D02*
X2893515Y-14167888D01*
X2893515Y-14167888D02*
X2883991Y-14186936D01*
X2883991Y-14186936D02*
X2874467Y-14196460D01*
X2874467Y-14196460D02*
X2855420Y-14205984D01*
X2855420Y-14205984D02*
X2836372Y-14205984D01*
X2836372Y-14205984D02*
X2817324Y-14196460D01*
X2817324Y-14196460D02*
X2807801Y-14186936D01*
X2807801Y-14186936D02*
X2798277Y-14167888D01*
X2798277Y-14167888D02*
X2788753Y-14129793D01*
X2788753Y-14129793D02*
X2788753Y-14082174D01*
X2788753Y-14082174D02*
X2798277Y-14044079D01*
X2798277Y-14044079D02*
X2807801Y-14025031D01*
X2807801Y-14025031D02*
X2817324Y-14015508D01*
X2817324Y-14015508D02*
X2836372Y-14005984D01*
X2988753Y-14186936D02*
X2998277Y-14196460D01*
X2998277Y-14196460D02*
X2988753Y-14205984D01*
X2988753Y-14205984D02*
X2979229Y-14196460D01*
X2979229Y-14196460D02*
X2988753Y-14186936D01*
X2988753Y-14186936D02*
X2988753Y-14205984D01*
X3064943Y-14005984D02*
X3198277Y-14005984D01*
X3198277Y-14005984D02*
X3112562Y-14205984D01*
X3312562Y-14005984D02*
X3331610Y-14005984D01*
X3331610Y-14005984D02*
X3350658Y-14015508D01*
X3350658Y-14015508D02*
X3360182Y-14025031D01*
X3360182Y-14025031D02*
X3369705Y-14044079D01*
X3369705Y-14044079D02*
X3379229Y-14082174D01*
X3379229Y-14082174D02*
X3379229Y-14129793D01*
X3379229Y-14129793D02*
X3369705Y-14167888D01*
X3369705Y-14167888D02*
X3360182Y-14186936D01*
X3360182Y-14186936D02*
X3350658Y-14196460D01*
X3350658Y-14196460D02*
X3331610Y-14205984D01*
X3331610Y-14205984D02*
X3312562Y-14205984D01*
X3312562Y-14205984D02*
X3293515Y-14196460D01*
X3293515Y-14196460D02*
X3283991Y-14186936D01*
X3283991Y-14186936D02*
X3274467Y-14167888D01*
X3274467Y-14167888D02*
X3264943Y-14129793D01*
X3264943Y-14129793D02*
X3264943Y-14082174D01*
X3264943Y-14082174D02*
X3274467Y-14044079D01*
X3274467Y-14044079D02*
X3283991Y-14025031D01*
X3283991Y-14025031D02*
X3293515Y-14015508D01*
X3293515Y-14015508D02*
X3312562Y-14005984D01*
X3503039Y-14005984D02*
X3522086Y-14005984D01*
X3522086Y-14005984D02*
X3541134Y-14015508D01*
X3541134Y-14015508D02*
X3550658Y-14025031D01*
X3550658Y-14025031D02*
X3560182Y-14044079D01*
X3560182Y-14044079D02*
X3569705Y-14082174D01*
X3569705Y-14082174D02*
X3569705Y-14129793D01*
X3569705Y-14129793D02*
X3560182Y-14167888D01*
X3560182Y-14167888D02*
X3550658Y-14186936D01*
X3550658Y-14186936D02*
X3541134Y-14196460D01*
X3541134Y-14196460D02*
X3522086Y-14205984D01*
X3522086Y-14205984D02*
X3503039Y-14205984D01*
X3503039Y-14205984D02*
X3483991Y-14196460D01*
X3483991Y-14196460D02*
X3474467Y-14186936D01*
X3474467Y-14186936D02*
X3464943Y-14167888D01*
X3464943Y-14167888D02*
X3455420Y-14129793D01*
X3455420Y-14129793D02*
X3455420Y-14082174D01*
X3455420Y-14082174D02*
X3464943Y-14044079D01*
X3464943Y-14044079D02*
X3474467Y-14025031D01*
X3474467Y-14025031D02*
X3483991Y-14015508D01*
X3483991Y-14015508D02*
X3503039Y-14005984D01*
X3655420Y-14205984D02*
X3655420Y-14072650D01*
X3655420Y-14091698D02*
X3664943Y-14082174D01*
X3664943Y-14082174D02*
X3683991Y-14072650D01*
X3683991Y-14072650D02*
X3712563Y-14072650D01*
X3712563Y-14072650D02*
X3731610Y-14082174D01*
X3731610Y-14082174D02*
X3741134Y-14101222D01*
X3741134Y-14101222D02*
X3741134Y-14205984D01*
X3741134Y-14101222D02*
X3750658Y-14082174D01*
X3750658Y-14082174D02*
X3769705Y-14072650D01*
X3769705Y-14072650D02*
X3798277Y-14072650D01*
X3798277Y-14072650D02*
X3817324Y-14082174D01*
X3817324Y-14082174D02*
X3826848Y-14101222D01*
X3826848Y-14101222D02*
X3826848Y-14205984D01*
X3922086Y-14205984D02*
X3922086Y-14072650D01*
X3922086Y-14091698D02*
X3931610Y-14082174D01*
X3931610Y-14082174D02*
X3950658Y-14072650D01*
X3950658Y-14072650D02*
X3979229Y-14072650D01*
X3979229Y-14072650D02*
X3998277Y-14082174D01*
X3998277Y-14082174D02*
X4007801Y-14101222D01*
X4007801Y-14101222D02*
X4007801Y-14205984D01*
X4007801Y-14101222D02*
X4017324Y-14082174D01*
X4017324Y-14082174D02*
X4036372Y-14072650D01*
X4036372Y-14072650D02*
X4064943Y-14072650D01*
X4064943Y-14072650D02*
X4083991Y-14082174D01*
X4083991Y-14082174D02*
X4093515Y-14101222D01*
X4093515Y-14101222D02*
X4093515Y-14205984D01*
X4483991Y-13996460D02*
X4312563Y-14253603D01*
X4741134Y-14005984D02*
X4760182Y-14005984D01*
X4760182Y-14005984D02*
X4779229Y-14015508D01*
X4779229Y-14015508D02*
X4788753Y-14025031D01*
X4788753Y-14025031D02*
X4798277Y-14044079D01*
X4798277Y-14044079D02*
X4807801Y-14082174D01*
X4807801Y-14082174D02*
X4807801Y-14129793D01*
X4807801Y-14129793D02*
X4798277Y-14167888D01*
X4798277Y-14167888D02*
X4788753Y-14186936D01*
X4788753Y-14186936D02*
X4779229Y-14196460D01*
X4779229Y-14196460D02*
X4760182Y-14205984D01*
X4760182Y-14205984D02*
X4741134Y-14205984D01*
X4741134Y-14205984D02*
X4722087Y-14196460D01*
X4722087Y-14196460D02*
X4712563Y-14186936D01*
X4712563Y-14186936D02*
X4703039Y-14167888D01*
X4703039Y-14167888D02*
X4693515Y-14129793D01*
X4693515Y-14129793D02*
X4693515Y-14082174D01*
X4693515Y-14082174D02*
X4703039Y-14044079D01*
X4703039Y-14044079D02*
X4712563Y-14025031D01*
X4712563Y-14025031D02*
X4722087Y-14015508D01*
X4722087Y-14015508D02*
X4741134Y-14005984D01*
X4893515Y-14186936D02*
X4903039Y-14196460D01*
X4903039Y-14196460D02*
X4893515Y-14205984D01*
X4893515Y-14205984D02*
X4883991Y-14196460D01*
X4883991Y-14196460D02*
X4893515Y-14186936D01*
X4893515Y-14186936D02*
X4893515Y-14205984D01*
X5026848Y-14005984D02*
X5045896Y-14005984D01*
X5045896Y-14005984D02*
X5064944Y-14015508D01*
X5064944Y-14015508D02*
X5074468Y-14025031D01*
X5074468Y-14025031D02*
X5083991Y-14044079D01*
X5083991Y-14044079D02*
X5093515Y-14082174D01*
X5093515Y-14082174D02*
X5093515Y-14129793D01*
X5093515Y-14129793D02*
X5083991Y-14167888D01*
X5083991Y-14167888D02*
X5074468Y-14186936D01*
X5074468Y-14186936D02*
X5064944Y-14196460D01*
X5064944Y-14196460D02*
X5045896Y-14205984D01*
X5045896Y-14205984D02*
X5026848Y-14205984D01*
X5026848Y-14205984D02*
X5007801Y-14196460D01*
X5007801Y-14196460D02*
X4998277Y-14186936D01*
X4998277Y-14186936D02*
X4988753Y-14167888D01*
X4988753Y-14167888D02*
X4979229Y-14129793D01*
X4979229Y-14129793D02*
X4979229Y-14082174D01*
X4979229Y-14082174D02*
X4988753Y-14044079D01*
X4988753Y-14044079D02*
X4998277Y-14025031D01*
X4998277Y-14025031D02*
X5007801Y-14015508D01*
X5007801Y-14015508D02*
X5026848Y-14005984D01*
X5169706Y-14025031D02*
X5179229Y-14015508D01*
X5179229Y-14015508D02*
X5198277Y-14005984D01*
X5198277Y-14005984D02*
X5245896Y-14005984D01*
X5245896Y-14005984D02*
X5264944Y-14015508D01*
X5264944Y-14015508D02*
X5274468Y-14025031D01*
X5274468Y-14025031D02*
X5283991Y-14044079D01*
X5283991Y-14044079D02*
X5283991Y-14063127D01*
X5283991Y-14063127D02*
X5274468Y-14091698D01*
X5274468Y-14091698D02*
X5160182Y-14205984D01*
X5160182Y-14205984D02*
X5283991Y-14205984D01*
X5350658Y-14005984D02*
X5483991Y-14005984D01*
X5483991Y-14005984D02*
X5398277Y-14205984D01*
X5645896Y-14005984D02*
X5607801Y-14005984D01*
X5607801Y-14005984D02*
X5588753Y-14015508D01*
X5588753Y-14015508D02*
X5579229Y-14025031D01*
X5579229Y-14025031D02*
X5560182Y-14053603D01*
X5560182Y-14053603D02*
X5550658Y-14091698D01*
X5550658Y-14091698D02*
X5550658Y-14167888D01*
X5550658Y-14167888D02*
X5560182Y-14186936D01*
X5560182Y-14186936D02*
X5569706Y-14196460D01*
X5569706Y-14196460D02*
X5588753Y-14205984D01*
X5588753Y-14205984D02*
X5626848Y-14205984D01*
X5626848Y-14205984D02*
X5645896Y-14196460D01*
X5645896Y-14196460D02*
X5655420Y-14186936D01*
X5655420Y-14186936D02*
X5664944Y-14167888D01*
X5664944Y-14167888D02*
X5664944Y-14120269D01*
X5664944Y-14120269D02*
X5655420Y-14101222D01*
X5655420Y-14101222D02*
X5645896Y-14091698D01*
X5645896Y-14091698D02*
X5626848Y-14082174D01*
X5626848Y-14082174D02*
X5588753Y-14082174D01*
X5588753Y-14082174D02*
X5569706Y-14091698D01*
X5569706Y-14091698D02*
X5560182Y-14101222D01*
X5560182Y-14101222D02*
X5550658Y-14120269D01*
X5741134Y-14005984D02*
X5741134Y-14044079D01*
X5817325Y-14005984D02*
X5817325Y-14044079D01*
X6112563Y-14282174D02*
X6103039Y-14272650D01*
X6103039Y-14272650D02*
X6083991Y-14244079D01*
X6083991Y-14244079D02*
X6074468Y-14225031D01*
X6074468Y-14225031D02*
X6064944Y-14196460D01*
X6064944Y-14196460D02*
X6055420Y-14148841D01*
X6055420Y-14148841D02*
X6055420Y-14110746D01*
X6055420Y-14110746D02*
X6064944Y-14063127D01*
X6064944Y-14063127D02*
X6074468Y-14034555D01*
X6074468Y-14034555D02*
X6083991Y-14015508D01*
X6083991Y-14015508D02*
X6103039Y-13986936D01*
X6103039Y-13986936D02*
X6112563Y-13977412D01*
X6179229Y-14025031D02*
X6188753Y-14015508D01*
X6188753Y-14015508D02*
X6207801Y-14005984D01*
X6207801Y-14005984D02*
X6255420Y-14005984D01*
X6255420Y-14005984D02*
X6274468Y-14015508D01*
X6274468Y-14015508D02*
X6283991Y-14025031D01*
X6283991Y-14025031D02*
X6293515Y-14044079D01*
X6293515Y-14044079D02*
X6293515Y-14063127D01*
X6293515Y-14063127D02*
X6283991Y-14091698D01*
X6283991Y-14091698D02*
X6169706Y-14205984D01*
X6169706Y-14205984D02*
X6293515Y-14205984D01*
X6531610Y-14205984D02*
X6531610Y-14005984D01*
X6617325Y-14205984D02*
X6617325Y-14101222D01*
X6617325Y-14101222D02*
X6607801Y-14082174D01*
X6607801Y-14082174D02*
X6588753Y-14072650D01*
X6588753Y-14072650D02*
X6560182Y-14072650D01*
X6560182Y-14072650D02*
X6541134Y-14082174D01*
X6541134Y-14082174D02*
X6531610Y-14091698D01*
X6741134Y-14205984D02*
X6722087Y-14196460D01*
X6722087Y-14196460D02*
X6712563Y-14186936D01*
X6712563Y-14186936D02*
X6703039Y-14167888D01*
X6703039Y-14167888D02*
X6703039Y-14110746D01*
X6703039Y-14110746D02*
X6712563Y-14091698D01*
X6712563Y-14091698D02*
X6722087Y-14082174D01*
X6722087Y-14082174D02*
X6741134Y-14072650D01*
X6741134Y-14072650D02*
X6769706Y-14072650D01*
X6769706Y-14072650D02*
X6788753Y-14082174D01*
X6788753Y-14082174D02*
X6798277Y-14091698D01*
X6798277Y-14091698D02*
X6807801Y-14110746D01*
X6807801Y-14110746D02*
X6807801Y-14167888D01*
X6807801Y-14167888D02*
X6798277Y-14186936D01*
X6798277Y-14186936D02*
X6788753Y-14196460D01*
X6788753Y-14196460D02*
X6769706Y-14205984D01*
X6769706Y-14205984D02*
X6741134Y-14205984D01*
X6922087Y-14205984D02*
X6903039Y-14196460D01*
X6903039Y-14196460D02*
X6893515Y-14177412D01*
X6893515Y-14177412D02*
X6893515Y-14005984D01*
X7074468Y-14196460D02*
X7055420Y-14205984D01*
X7055420Y-14205984D02*
X7017325Y-14205984D01*
X7017325Y-14205984D02*
X6998277Y-14196460D01*
X6998277Y-14196460D02*
X6988753Y-14177412D01*
X6988753Y-14177412D02*
X6988753Y-14101222D01*
X6988753Y-14101222D02*
X6998277Y-14082174D01*
X6998277Y-14082174D02*
X7017325Y-14072650D01*
X7017325Y-14072650D02*
X7055420Y-14072650D01*
X7055420Y-14072650D02*
X7074468Y-14082174D01*
X7074468Y-14082174D02*
X7083991Y-14101222D01*
X7083991Y-14101222D02*
X7083991Y-14120269D01*
X7083991Y-14120269D02*
X6988753Y-14139317D01*
X7160182Y-14196460D02*
X7179230Y-14205984D01*
X7179230Y-14205984D02*
X7217325Y-14205984D01*
X7217325Y-14205984D02*
X7236372Y-14196460D01*
X7236372Y-14196460D02*
X7245896Y-14177412D01*
X7245896Y-14177412D02*
X7245896Y-14167888D01*
X7245896Y-14167888D02*
X7236372Y-14148841D01*
X7236372Y-14148841D02*
X7217325Y-14139317D01*
X7217325Y-14139317D02*
X7188753Y-14139317D01*
X7188753Y-14139317D02*
X7169706Y-14129793D01*
X7169706Y-14129793D02*
X7160182Y-14110746D01*
X7160182Y-14110746D02*
X7160182Y-14101222D01*
X7160182Y-14101222D02*
X7169706Y-14082174D01*
X7169706Y-14082174D02*
X7188753Y-14072650D01*
X7188753Y-14072650D02*
X7217325Y-14072650D01*
X7217325Y-14072650D02*
X7236372Y-14082174D01*
X7312563Y-14282174D02*
X7322087Y-14272650D01*
X7322087Y-14272650D02*
X7341134Y-14244079D01*
X7341134Y-14244079D02*
X7350658Y-14225031D01*
X7350658Y-14225031D02*
X7360182Y-14196460D01*
X7360182Y-14196460D02*
X7369706Y-14148841D01*
X7369706Y-14148841D02*
X7369706Y-14110746D01*
X7369706Y-14110746D02*
X7360182Y-14063127D01*
X7360182Y-14063127D02*
X7350658Y-14034555D01*
X7350658Y-14034555D02*
X7341134Y-14015508D01*
X7341134Y-14015508D02*
X7322087Y-13986936D01*
X7322087Y-13986936D02*
X7312563Y-13977412D01*
D11*
X2497500Y-14338500D02*
X2497500Y-14418500D01*
X2457500Y-14378500D02*
X2537500Y-14378500D01*
D12*
X2836372Y-14269984D02*
X2855420Y-14269984D01*
X2855420Y-14269984D02*
X2874467Y-14279508D01*
X2874467Y-14279508D02*
X2883991Y-14289031D01*
X2883991Y-14289031D02*
X2893515Y-14308079D01*
X2893515Y-14308079D02*
X2903039Y-14346174D01*
X2903039Y-14346174D02*
X2903039Y-14393793D01*
X2903039Y-14393793D02*
X2893515Y-14431888D01*
X2893515Y-14431888D02*
X2883991Y-14450936D01*
X2883991Y-14450936D02*
X2874467Y-14460460D01*
X2874467Y-14460460D02*
X2855420Y-14469984D01*
X2855420Y-14469984D02*
X2836372Y-14469984D01*
X2836372Y-14469984D02*
X2817324Y-14460460D01*
X2817324Y-14460460D02*
X2807801Y-14450936D01*
X2807801Y-14450936D02*
X2798277Y-14431888D01*
X2798277Y-14431888D02*
X2788753Y-14393793D01*
X2788753Y-14393793D02*
X2788753Y-14346174D01*
X2788753Y-14346174D02*
X2798277Y-14308079D01*
X2798277Y-14308079D02*
X2807801Y-14289031D01*
X2807801Y-14289031D02*
X2817324Y-14279508D01*
X2817324Y-14279508D02*
X2836372Y-14269984D01*
X2988753Y-14450936D02*
X2998277Y-14460460D01*
X2998277Y-14460460D02*
X2988753Y-14469984D01*
X2988753Y-14469984D02*
X2979229Y-14460460D01*
X2979229Y-14460460D02*
X2988753Y-14450936D01*
X2988753Y-14450936D02*
X2988753Y-14469984D01*
X3112562Y-14355698D02*
X3093515Y-14346174D01*
X3093515Y-14346174D02*
X3083991Y-14336650D01*
X3083991Y-14336650D02*
X3074467Y-14317603D01*
X3074467Y-14317603D02*
X3074467Y-14308079D01*
X3074467Y-14308079D02*
X3083991Y-14289031D01*
X3083991Y-14289031D02*
X3093515Y-14279508D01*
X3093515Y-14279508D02*
X3112562Y-14269984D01*
X3112562Y-14269984D02*
X3150658Y-14269984D01*
X3150658Y-14269984D02*
X3169705Y-14279508D01*
X3169705Y-14279508D02*
X3179229Y-14289031D01*
X3179229Y-14289031D02*
X3188753Y-14308079D01*
X3188753Y-14308079D02*
X3188753Y-14317603D01*
X3188753Y-14317603D02*
X3179229Y-14336650D01*
X3179229Y-14336650D02*
X3169705Y-14346174D01*
X3169705Y-14346174D02*
X3150658Y-14355698D01*
X3150658Y-14355698D02*
X3112562Y-14355698D01*
X3112562Y-14355698D02*
X3093515Y-14365222D01*
X3093515Y-14365222D02*
X3083991Y-14374746D01*
X3083991Y-14374746D02*
X3074467Y-14393793D01*
X3074467Y-14393793D02*
X3074467Y-14431888D01*
X3074467Y-14431888D02*
X3083991Y-14450936D01*
X3083991Y-14450936D02*
X3093515Y-14460460D01*
X3093515Y-14460460D02*
X3112562Y-14469984D01*
X3112562Y-14469984D02*
X3150658Y-14469984D01*
X3150658Y-14469984D02*
X3169705Y-14460460D01*
X3169705Y-14460460D02*
X3179229Y-14450936D01*
X3179229Y-14450936D02*
X3188753Y-14431888D01*
X3188753Y-14431888D02*
X3188753Y-14393793D01*
X3188753Y-14393793D02*
X3179229Y-14374746D01*
X3179229Y-14374746D02*
X3169705Y-14365222D01*
X3169705Y-14365222D02*
X3150658Y-14355698D01*
X3312562Y-14269984D02*
X3331610Y-14269984D01*
X3331610Y-14269984D02*
X3350658Y-14279508D01*
X3350658Y-14279508D02*
X3360182Y-14289031D01*
X3360182Y-14289031D02*
X3369705Y-14308079D01*
X3369705Y-14308079D02*
X3379229Y-14346174D01*
X3379229Y-14346174D02*
X3379229Y-14393793D01*
X3379229Y-14393793D02*
X3369705Y-14431888D01*
X3369705Y-14431888D02*
X3360182Y-14450936D01*
X3360182Y-14450936D02*
X3350658Y-14460460D01*
X3350658Y-14460460D02*
X3331610Y-14469984D01*
X3331610Y-14469984D02*
X3312562Y-14469984D01*
X3312562Y-14469984D02*
X3293515Y-14460460D01*
X3293515Y-14460460D02*
X3283991Y-14450936D01*
X3283991Y-14450936D02*
X3274467Y-14431888D01*
X3274467Y-14431888D02*
X3264943Y-14393793D01*
X3264943Y-14393793D02*
X3264943Y-14346174D01*
X3264943Y-14346174D02*
X3274467Y-14308079D01*
X3274467Y-14308079D02*
X3283991Y-14289031D01*
X3283991Y-14289031D02*
X3293515Y-14279508D01*
X3293515Y-14279508D02*
X3312562Y-14269984D01*
X3503039Y-14269984D02*
X3522086Y-14269984D01*
X3522086Y-14269984D02*
X3541134Y-14279508D01*
X3541134Y-14279508D02*
X3550658Y-14289031D01*
X3550658Y-14289031D02*
X3560182Y-14308079D01*
X3560182Y-14308079D02*
X3569705Y-14346174D01*
X3569705Y-14346174D02*
X3569705Y-14393793D01*
X3569705Y-14393793D02*
X3560182Y-14431888D01*
X3560182Y-14431888D02*
X3550658Y-14450936D01*
X3550658Y-14450936D02*
X3541134Y-14460460D01*
X3541134Y-14460460D02*
X3522086Y-14469984D01*
X3522086Y-14469984D02*
X3503039Y-14469984D01*
X3503039Y-14469984D02*
X3483991Y-14460460D01*
X3483991Y-14460460D02*
X3474467Y-14450936D01*
X3474467Y-14450936D02*
X3464943Y-14431888D01*
X3464943Y-14431888D02*
X3455420Y-14393793D01*
X3455420Y-14393793D02*
X3455420Y-14346174D01*
X3455420Y-14346174D02*
X3464943Y-14308079D01*
X3464943Y-14308079D02*
X3474467Y-14289031D01*
X3474467Y-14289031D02*
X3483991Y-14279508D01*
X3483991Y-14279508D02*
X3503039Y-14269984D01*
X3655420Y-14469984D02*
X3655420Y-14336650D01*
X3655420Y-14355698D02*
X3664943Y-14346174D01*
X3664943Y-14346174D02*
X3683991Y-14336650D01*
X3683991Y-14336650D02*
X3712563Y-14336650D01*
X3712563Y-14336650D02*
X3731610Y-14346174D01*
X3731610Y-14346174D02*
X3741134Y-14365222D01*
X3741134Y-14365222D02*
X3741134Y-14469984D01*
X3741134Y-14365222D02*
X3750658Y-14346174D01*
X3750658Y-14346174D02*
X3769705Y-14336650D01*
X3769705Y-14336650D02*
X3798277Y-14336650D01*
X3798277Y-14336650D02*
X3817324Y-14346174D01*
X3817324Y-14346174D02*
X3826848Y-14365222D01*
X3826848Y-14365222D02*
X3826848Y-14469984D01*
X3922086Y-14469984D02*
X3922086Y-14336650D01*
X3922086Y-14355698D02*
X3931610Y-14346174D01*
X3931610Y-14346174D02*
X3950658Y-14336650D01*
X3950658Y-14336650D02*
X3979229Y-14336650D01*
X3979229Y-14336650D02*
X3998277Y-14346174D01*
X3998277Y-14346174D02*
X4007801Y-14365222D01*
X4007801Y-14365222D02*
X4007801Y-14469984D01*
X4007801Y-14365222D02*
X4017324Y-14346174D01*
X4017324Y-14346174D02*
X4036372Y-14336650D01*
X4036372Y-14336650D02*
X4064943Y-14336650D01*
X4064943Y-14336650D02*
X4083991Y-14346174D01*
X4083991Y-14346174D02*
X4093515Y-14365222D01*
X4093515Y-14365222D02*
X4093515Y-14469984D01*
X4483991Y-14260460D02*
X4312563Y-14517603D01*
X4741134Y-14269984D02*
X4760182Y-14269984D01*
X4760182Y-14269984D02*
X4779229Y-14279508D01*
X4779229Y-14279508D02*
X4788753Y-14289031D01*
X4788753Y-14289031D02*
X4798277Y-14308079D01*
X4798277Y-14308079D02*
X4807801Y-14346174D01*
X4807801Y-14346174D02*
X4807801Y-14393793D01*
X4807801Y-14393793D02*
X4798277Y-14431888D01*
X4798277Y-14431888D02*
X4788753Y-14450936D01*
X4788753Y-14450936D02*
X4779229Y-14460460D01*
X4779229Y-14460460D02*
X4760182Y-14469984D01*
X4760182Y-14469984D02*
X4741134Y-14469984D01*
X4741134Y-14469984D02*
X4722087Y-14460460D01*
X4722087Y-14460460D02*
X4712563Y-14450936D01*
X4712563Y-14450936D02*
X4703039Y-14431888D01*
X4703039Y-14431888D02*
X4693515Y-14393793D01*
X4693515Y-14393793D02*
X4693515Y-14346174D01*
X4693515Y-14346174D02*
X4703039Y-14308079D01*
X4703039Y-14308079D02*
X4712563Y-14289031D01*
X4712563Y-14289031D02*
X4722087Y-14279508D01*
X4722087Y-14279508D02*
X4741134Y-14269984D01*
X4893515Y-14450936D02*
X4903039Y-14460460D01*
X4903039Y-14460460D02*
X4893515Y-14469984D01*
X4893515Y-14469984D02*
X4883991Y-14460460D01*
X4883991Y-14460460D02*
X4893515Y-14450936D01*
X4893515Y-14450936D02*
X4893515Y-14469984D01*
X5026848Y-14269984D02*
X5045896Y-14269984D01*
X5045896Y-14269984D02*
X5064944Y-14279508D01*
X5064944Y-14279508D02*
X5074468Y-14289031D01*
X5074468Y-14289031D02*
X5083991Y-14308079D01*
X5083991Y-14308079D02*
X5093515Y-14346174D01*
X5093515Y-14346174D02*
X5093515Y-14393793D01*
X5093515Y-14393793D02*
X5083991Y-14431888D01*
X5083991Y-14431888D02*
X5074468Y-14450936D01*
X5074468Y-14450936D02*
X5064944Y-14460460D01*
X5064944Y-14460460D02*
X5045896Y-14469984D01*
X5045896Y-14469984D02*
X5026848Y-14469984D01*
X5026848Y-14469984D02*
X5007801Y-14460460D01*
X5007801Y-14460460D02*
X4998277Y-14450936D01*
X4998277Y-14450936D02*
X4988753Y-14431888D01*
X4988753Y-14431888D02*
X4979229Y-14393793D01*
X4979229Y-14393793D02*
X4979229Y-14346174D01*
X4979229Y-14346174D02*
X4988753Y-14308079D01*
X4988753Y-14308079D02*
X4998277Y-14289031D01*
X4998277Y-14289031D02*
X5007801Y-14279508D01*
X5007801Y-14279508D02*
X5026848Y-14269984D01*
X5160182Y-14269984D02*
X5283991Y-14269984D01*
X5283991Y-14269984D02*
X5217325Y-14346174D01*
X5217325Y-14346174D02*
X5245896Y-14346174D01*
X5245896Y-14346174D02*
X5264944Y-14355698D01*
X5264944Y-14355698D02*
X5274468Y-14365222D01*
X5274468Y-14365222D02*
X5283991Y-14384269D01*
X5283991Y-14384269D02*
X5283991Y-14431888D01*
X5283991Y-14431888D02*
X5274468Y-14450936D01*
X5274468Y-14450936D02*
X5264944Y-14460460D01*
X5264944Y-14460460D02*
X5245896Y-14469984D01*
X5245896Y-14469984D02*
X5188753Y-14469984D01*
X5188753Y-14469984D02*
X5169706Y-14460460D01*
X5169706Y-14460460D02*
X5160182Y-14450936D01*
X5474468Y-14469984D02*
X5360182Y-14469984D01*
X5417325Y-14469984D02*
X5417325Y-14269984D01*
X5417325Y-14269984D02*
X5398277Y-14298555D01*
X5398277Y-14298555D02*
X5379229Y-14317603D01*
X5379229Y-14317603D02*
X5360182Y-14327127D01*
X5655420Y-14269984D02*
X5560182Y-14269984D01*
X5560182Y-14269984D02*
X5550658Y-14365222D01*
X5550658Y-14365222D02*
X5560182Y-14355698D01*
X5560182Y-14355698D02*
X5579229Y-14346174D01*
X5579229Y-14346174D02*
X5626848Y-14346174D01*
X5626848Y-14346174D02*
X5645896Y-14355698D01*
X5645896Y-14355698D02*
X5655420Y-14365222D01*
X5655420Y-14365222D02*
X5664944Y-14384269D01*
X5664944Y-14384269D02*
X5664944Y-14431888D01*
X5664944Y-14431888D02*
X5655420Y-14450936D01*
X5655420Y-14450936D02*
X5645896Y-14460460D01*
X5645896Y-14460460D02*
X5626848Y-14469984D01*
X5626848Y-14469984D02*
X5579229Y-14469984D01*
X5579229Y-14469984D02*
X5560182Y-14460460D01*
X5560182Y-14460460D02*
X5550658Y-14450936D01*
X5741134Y-14269984D02*
X5741134Y-14308079D01*
X5817325Y-14269984D02*
X5817325Y-14308079D01*
X6112563Y-14546174D02*
X6103039Y-14536650D01*
X6103039Y-14536650D02*
X6083991Y-14508079D01*
X6083991Y-14508079D02*
X6074468Y-14489031D01*
X6074468Y-14489031D02*
X6064944Y-14460460D01*
X6064944Y-14460460D02*
X6055420Y-14412841D01*
X6055420Y-14412841D02*
X6055420Y-14374746D01*
X6055420Y-14374746D02*
X6064944Y-14327127D01*
X6064944Y-14327127D02*
X6074468Y-14298555D01*
X6074468Y-14298555D02*
X6083991Y-14279508D01*
X6083991Y-14279508D02*
X6103039Y-14250936D01*
X6103039Y-14250936D02*
X6112563Y-14241412D01*
X6179229Y-14289031D02*
X6188753Y-14279508D01*
X6188753Y-14279508D02*
X6207801Y-14269984D01*
X6207801Y-14269984D02*
X6255420Y-14269984D01*
X6255420Y-14269984D02*
X6274468Y-14279508D01*
X6274468Y-14279508D02*
X6283991Y-14289031D01*
X6283991Y-14289031D02*
X6293515Y-14308079D01*
X6293515Y-14308079D02*
X6293515Y-14327127D01*
X6293515Y-14327127D02*
X6283991Y-14355698D01*
X6283991Y-14355698D02*
X6169706Y-14469984D01*
X6169706Y-14469984D02*
X6293515Y-14469984D01*
X6531610Y-14469984D02*
X6531610Y-14269984D01*
X6617325Y-14469984D02*
X6617325Y-14365222D01*
X6617325Y-14365222D02*
X6607801Y-14346174D01*
X6607801Y-14346174D02*
X6588753Y-14336650D01*
X6588753Y-14336650D02*
X6560182Y-14336650D01*
X6560182Y-14336650D02*
X6541134Y-14346174D01*
X6541134Y-14346174D02*
X6531610Y-14355698D01*
X6741134Y-14469984D02*
X6722087Y-14460460D01*
X6722087Y-14460460D02*
X6712563Y-14450936D01*
X6712563Y-14450936D02*
X6703039Y-14431888D01*
X6703039Y-14431888D02*
X6703039Y-14374746D01*
X6703039Y-14374746D02*
X6712563Y-14355698D01*
X6712563Y-14355698D02*
X6722087Y-14346174D01*
X6722087Y-14346174D02*
X6741134Y-14336650D01*
X6741134Y-14336650D02*
X6769706Y-14336650D01*
X6769706Y-14336650D02*
X6788753Y-14346174D01*
X6788753Y-14346174D02*
X6798277Y-14355698D01*
X6798277Y-14355698D02*
X6807801Y-14374746D01*
X6807801Y-14374746D02*
X6807801Y-14431888D01*
X6807801Y-14431888D02*
X6798277Y-14450936D01*
X6798277Y-14450936D02*
X6788753Y-14460460D01*
X6788753Y-14460460D02*
X6769706Y-14469984D01*
X6769706Y-14469984D02*
X6741134Y-14469984D01*
X6922087Y-14469984D02*
X6903039Y-14460460D01*
X6903039Y-14460460D02*
X6893515Y-14441412D01*
X6893515Y-14441412D02*
X6893515Y-14269984D01*
X7074468Y-14460460D02*
X7055420Y-14469984D01*
X7055420Y-14469984D02*
X7017325Y-14469984D01*
X7017325Y-14469984D02*
X6998277Y-14460460D01*
X6998277Y-14460460D02*
X6988753Y-14441412D01*
X6988753Y-14441412D02*
X6988753Y-14365222D01*
X6988753Y-14365222D02*
X6998277Y-14346174D01*
X6998277Y-14346174D02*
X7017325Y-14336650D01*
X7017325Y-14336650D02*
X7055420Y-14336650D01*
X7055420Y-14336650D02*
X7074468Y-14346174D01*
X7074468Y-14346174D02*
X7083991Y-14365222D01*
X7083991Y-14365222D02*
X7083991Y-14384269D01*
X7083991Y-14384269D02*
X6988753Y-14403317D01*
X7160182Y-14460460D02*
X7179230Y-14469984D01*
X7179230Y-14469984D02*
X7217325Y-14469984D01*
X7217325Y-14469984D02*
X7236372Y-14460460D01*
X7236372Y-14460460D02*
X7245896Y-14441412D01*
X7245896Y-14441412D02*
X7245896Y-14431888D01*
X7245896Y-14431888D02*
X7236372Y-14412841D01*
X7236372Y-14412841D02*
X7217325Y-14403317D01*
X7217325Y-14403317D02*
X7188753Y-14403317D01*
X7188753Y-14403317D02*
X7169706Y-14393793D01*
X7169706Y-14393793D02*
X7160182Y-14374746D01*
X7160182Y-14374746D02*
X7160182Y-14365222D01*
X7160182Y-14365222D02*
X7169706Y-14346174D01*
X7169706Y-14346174D02*
X7188753Y-14336650D01*
X7188753Y-14336650D02*
X7217325Y-14336650D01*
X7217325Y-14336650D02*
X7236372Y-14346174D01*
X7312563Y-14546174D02*
X7322087Y-14536650D01*
X7322087Y-14536650D02*
X7341134Y-14508079D01*
X7341134Y-14508079D02*
X7350658Y-14489031D01*
X7350658Y-14489031D02*
X7360182Y-14460460D01*
X7360182Y-14460460D02*
X7369706Y-14412841D01*
X7369706Y-14412841D02*
X7369706Y-14374746D01*
X7369706Y-14374746D02*
X7360182Y-14327127D01*
X7360182Y-14327127D02*
X7350658Y-14298555D01*
X7350658Y-14298555D02*
X7341134Y-14279508D01*
X7341134Y-14279508D02*
X7322087Y-14250936D01*
X7322087Y-14250936D02*
X7312563Y-14241412D01*
D11*
X2525785Y-14670784D02*
X2525785Y-14614215D01*
X2469216Y-14614215D01*
X2469216Y-14670784D01*
X2525785Y-14670784D01*
D12*
X2836372Y-14533984D02*
X2855420Y-14533984D01*
X2855420Y-14533984D02*
X2874467Y-14543508D01*
X2874467Y-14543508D02*
X2883991Y-14553031D01*
X2883991Y-14553031D02*
X2893515Y-14572079D01*
X2893515Y-14572079D02*
X2903039Y-14610174D01*
X2903039Y-14610174D02*
X2903039Y-14657793D01*
X2903039Y-14657793D02*
X2893515Y-14695888D01*
X2893515Y-14695888D02*
X2883991Y-14714936D01*
X2883991Y-14714936D02*
X2874467Y-14724460D01*
X2874467Y-14724460D02*
X2855420Y-14733984D01*
X2855420Y-14733984D02*
X2836372Y-14733984D01*
X2836372Y-14733984D02*
X2817324Y-14724460D01*
X2817324Y-14724460D02*
X2807801Y-14714936D01*
X2807801Y-14714936D02*
X2798277Y-14695888D01*
X2798277Y-14695888D02*
X2788753Y-14657793D01*
X2788753Y-14657793D02*
X2788753Y-14610174D01*
X2788753Y-14610174D02*
X2798277Y-14572079D01*
X2798277Y-14572079D02*
X2807801Y-14553031D01*
X2807801Y-14553031D02*
X2817324Y-14543508D01*
X2817324Y-14543508D02*
X2836372Y-14533984D01*
X2988753Y-14714936D02*
X2998277Y-14724460D01*
X2998277Y-14724460D02*
X2988753Y-14733984D01*
X2988753Y-14733984D02*
X2979229Y-14724460D01*
X2979229Y-14724460D02*
X2988753Y-14714936D01*
X2988753Y-14714936D02*
X2988753Y-14733984D01*
X3112562Y-14619698D02*
X3093515Y-14610174D01*
X3093515Y-14610174D02*
X3083991Y-14600650D01*
X3083991Y-14600650D02*
X3074467Y-14581603D01*
X3074467Y-14581603D02*
X3074467Y-14572079D01*
X3074467Y-14572079D02*
X3083991Y-14553031D01*
X3083991Y-14553031D02*
X3093515Y-14543508D01*
X3093515Y-14543508D02*
X3112562Y-14533984D01*
X3112562Y-14533984D02*
X3150658Y-14533984D01*
X3150658Y-14533984D02*
X3169705Y-14543508D01*
X3169705Y-14543508D02*
X3179229Y-14553031D01*
X3179229Y-14553031D02*
X3188753Y-14572079D01*
X3188753Y-14572079D02*
X3188753Y-14581603D01*
X3188753Y-14581603D02*
X3179229Y-14600650D01*
X3179229Y-14600650D02*
X3169705Y-14610174D01*
X3169705Y-14610174D02*
X3150658Y-14619698D01*
X3150658Y-14619698D02*
X3112562Y-14619698D01*
X3112562Y-14619698D02*
X3093515Y-14629222D01*
X3093515Y-14629222D02*
X3083991Y-14638746D01*
X3083991Y-14638746D02*
X3074467Y-14657793D01*
X3074467Y-14657793D02*
X3074467Y-14695888D01*
X3074467Y-14695888D02*
X3083991Y-14714936D01*
X3083991Y-14714936D02*
X3093515Y-14724460D01*
X3093515Y-14724460D02*
X3112562Y-14733984D01*
X3112562Y-14733984D02*
X3150658Y-14733984D01*
X3150658Y-14733984D02*
X3169705Y-14724460D01*
X3169705Y-14724460D02*
X3179229Y-14714936D01*
X3179229Y-14714936D02*
X3188753Y-14695888D01*
X3188753Y-14695888D02*
X3188753Y-14657793D01*
X3188753Y-14657793D02*
X3179229Y-14638746D01*
X3179229Y-14638746D02*
X3169705Y-14629222D01*
X3169705Y-14629222D02*
X3150658Y-14619698D01*
X3312562Y-14533984D02*
X3331610Y-14533984D01*
X3331610Y-14533984D02*
X3350658Y-14543508D01*
X3350658Y-14543508D02*
X3360182Y-14553031D01*
X3360182Y-14553031D02*
X3369705Y-14572079D01*
X3369705Y-14572079D02*
X3379229Y-14610174D01*
X3379229Y-14610174D02*
X3379229Y-14657793D01*
X3379229Y-14657793D02*
X3369705Y-14695888D01*
X3369705Y-14695888D02*
X3360182Y-14714936D01*
X3360182Y-14714936D02*
X3350658Y-14724460D01*
X3350658Y-14724460D02*
X3331610Y-14733984D01*
X3331610Y-14733984D02*
X3312562Y-14733984D01*
X3312562Y-14733984D02*
X3293515Y-14724460D01*
X3293515Y-14724460D02*
X3283991Y-14714936D01*
X3283991Y-14714936D02*
X3274467Y-14695888D01*
X3274467Y-14695888D02*
X3264943Y-14657793D01*
X3264943Y-14657793D02*
X3264943Y-14610174D01*
X3264943Y-14610174D02*
X3274467Y-14572079D01*
X3274467Y-14572079D02*
X3283991Y-14553031D01*
X3283991Y-14553031D02*
X3293515Y-14543508D01*
X3293515Y-14543508D02*
X3312562Y-14533984D01*
X3503039Y-14533984D02*
X3522086Y-14533984D01*
X3522086Y-14533984D02*
X3541134Y-14543508D01*
X3541134Y-14543508D02*
X3550658Y-14553031D01*
X3550658Y-14553031D02*
X3560182Y-14572079D01*
X3560182Y-14572079D02*
X3569705Y-14610174D01*
X3569705Y-14610174D02*
X3569705Y-14657793D01*
X3569705Y-14657793D02*
X3560182Y-14695888D01*
X3560182Y-14695888D02*
X3550658Y-14714936D01*
X3550658Y-14714936D02*
X3541134Y-14724460D01*
X3541134Y-14724460D02*
X3522086Y-14733984D01*
X3522086Y-14733984D02*
X3503039Y-14733984D01*
X3503039Y-14733984D02*
X3483991Y-14724460D01*
X3483991Y-14724460D02*
X3474467Y-14714936D01*
X3474467Y-14714936D02*
X3464943Y-14695888D01*
X3464943Y-14695888D02*
X3455420Y-14657793D01*
X3455420Y-14657793D02*
X3455420Y-14610174D01*
X3455420Y-14610174D02*
X3464943Y-14572079D01*
X3464943Y-14572079D02*
X3474467Y-14553031D01*
X3474467Y-14553031D02*
X3483991Y-14543508D01*
X3483991Y-14543508D02*
X3503039Y-14533984D01*
X3655420Y-14733984D02*
X3655420Y-14600650D01*
X3655420Y-14619698D02*
X3664943Y-14610174D01*
X3664943Y-14610174D02*
X3683991Y-14600650D01*
X3683991Y-14600650D02*
X3712563Y-14600650D01*
X3712563Y-14600650D02*
X3731610Y-14610174D01*
X3731610Y-14610174D02*
X3741134Y-14629222D01*
X3741134Y-14629222D02*
X3741134Y-14733984D01*
X3741134Y-14629222D02*
X3750658Y-14610174D01*
X3750658Y-14610174D02*
X3769705Y-14600650D01*
X3769705Y-14600650D02*
X3798277Y-14600650D01*
X3798277Y-14600650D02*
X3817324Y-14610174D01*
X3817324Y-14610174D02*
X3826848Y-14629222D01*
X3826848Y-14629222D02*
X3826848Y-14733984D01*
X3922086Y-14733984D02*
X3922086Y-14600650D01*
X3922086Y-14619698D02*
X3931610Y-14610174D01*
X3931610Y-14610174D02*
X3950658Y-14600650D01*
X3950658Y-14600650D02*
X3979229Y-14600650D01*
X3979229Y-14600650D02*
X3998277Y-14610174D01*
X3998277Y-14610174D02*
X4007801Y-14629222D01*
X4007801Y-14629222D02*
X4007801Y-14733984D01*
X4007801Y-14629222D02*
X4017324Y-14610174D01*
X4017324Y-14610174D02*
X4036372Y-14600650D01*
X4036372Y-14600650D02*
X4064943Y-14600650D01*
X4064943Y-14600650D02*
X4083991Y-14610174D01*
X4083991Y-14610174D02*
X4093515Y-14629222D01*
X4093515Y-14629222D02*
X4093515Y-14733984D01*
X4483991Y-14524460D02*
X4312563Y-14781603D01*
X4741134Y-14533984D02*
X4760182Y-14533984D01*
X4760182Y-14533984D02*
X4779229Y-14543508D01*
X4779229Y-14543508D02*
X4788753Y-14553031D01*
X4788753Y-14553031D02*
X4798277Y-14572079D01*
X4798277Y-14572079D02*
X4807801Y-14610174D01*
X4807801Y-14610174D02*
X4807801Y-14657793D01*
X4807801Y-14657793D02*
X4798277Y-14695888D01*
X4798277Y-14695888D02*
X4788753Y-14714936D01*
X4788753Y-14714936D02*
X4779229Y-14724460D01*
X4779229Y-14724460D02*
X4760182Y-14733984D01*
X4760182Y-14733984D02*
X4741134Y-14733984D01*
X4741134Y-14733984D02*
X4722087Y-14724460D01*
X4722087Y-14724460D02*
X4712563Y-14714936D01*
X4712563Y-14714936D02*
X4703039Y-14695888D01*
X4703039Y-14695888D02*
X4693515Y-14657793D01*
X4693515Y-14657793D02*
X4693515Y-14610174D01*
X4693515Y-14610174D02*
X4703039Y-14572079D01*
X4703039Y-14572079D02*
X4712563Y-14553031D01*
X4712563Y-14553031D02*
X4722087Y-14543508D01*
X4722087Y-14543508D02*
X4741134Y-14533984D01*
X4893515Y-14714936D02*
X4903039Y-14724460D01*
X4903039Y-14724460D02*
X4893515Y-14733984D01*
X4893515Y-14733984D02*
X4883991Y-14724460D01*
X4883991Y-14724460D02*
X4893515Y-14714936D01*
X4893515Y-14714936D02*
X4893515Y-14733984D01*
X5026848Y-14533984D02*
X5045896Y-14533984D01*
X5045896Y-14533984D02*
X5064944Y-14543508D01*
X5064944Y-14543508D02*
X5074468Y-14553031D01*
X5074468Y-14553031D02*
X5083991Y-14572079D01*
X5083991Y-14572079D02*
X5093515Y-14610174D01*
X5093515Y-14610174D02*
X5093515Y-14657793D01*
X5093515Y-14657793D02*
X5083991Y-14695888D01*
X5083991Y-14695888D02*
X5074468Y-14714936D01*
X5074468Y-14714936D02*
X5064944Y-14724460D01*
X5064944Y-14724460D02*
X5045896Y-14733984D01*
X5045896Y-14733984D02*
X5026848Y-14733984D01*
X5026848Y-14733984D02*
X5007801Y-14724460D01*
X5007801Y-14724460D02*
X4998277Y-14714936D01*
X4998277Y-14714936D02*
X4988753Y-14695888D01*
X4988753Y-14695888D02*
X4979229Y-14657793D01*
X4979229Y-14657793D02*
X4979229Y-14610174D01*
X4979229Y-14610174D02*
X4988753Y-14572079D01*
X4988753Y-14572079D02*
X4998277Y-14553031D01*
X4998277Y-14553031D02*
X5007801Y-14543508D01*
X5007801Y-14543508D02*
X5026848Y-14533984D01*
X5160182Y-14533984D02*
X5283991Y-14533984D01*
X5283991Y-14533984D02*
X5217325Y-14610174D01*
X5217325Y-14610174D02*
X5245896Y-14610174D01*
X5245896Y-14610174D02*
X5264944Y-14619698D01*
X5264944Y-14619698D02*
X5274468Y-14629222D01*
X5274468Y-14629222D02*
X5283991Y-14648269D01*
X5283991Y-14648269D02*
X5283991Y-14695888D01*
X5283991Y-14695888D02*
X5274468Y-14714936D01*
X5274468Y-14714936D02*
X5264944Y-14724460D01*
X5264944Y-14724460D02*
X5245896Y-14733984D01*
X5245896Y-14733984D02*
X5188753Y-14733984D01*
X5188753Y-14733984D02*
X5169706Y-14724460D01*
X5169706Y-14724460D02*
X5160182Y-14714936D01*
X5474468Y-14733984D02*
X5360182Y-14733984D01*
X5417325Y-14733984D02*
X5417325Y-14533984D01*
X5417325Y-14533984D02*
X5398277Y-14562555D01*
X5398277Y-14562555D02*
X5379229Y-14581603D01*
X5379229Y-14581603D02*
X5360182Y-14591127D01*
X5655420Y-14533984D02*
X5560182Y-14533984D01*
X5560182Y-14533984D02*
X5550658Y-14629222D01*
X5550658Y-14629222D02*
X5560182Y-14619698D01*
X5560182Y-14619698D02*
X5579229Y-14610174D01*
X5579229Y-14610174D02*
X5626848Y-14610174D01*
X5626848Y-14610174D02*
X5645896Y-14619698D01*
X5645896Y-14619698D02*
X5655420Y-14629222D01*
X5655420Y-14629222D02*
X5664944Y-14648269D01*
X5664944Y-14648269D02*
X5664944Y-14695888D01*
X5664944Y-14695888D02*
X5655420Y-14714936D01*
X5655420Y-14714936D02*
X5645896Y-14724460D01*
X5645896Y-14724460D02*
X5626848Y-14733984D01*
X5626848Y-14733984D02*
X5579229Y-14733984D01*
X5579229Y-14733984D02*
X5560182Y-14724460D01*
X5560182Y-14724460D02*
X5550658Y-14714936D01*
X5741134Y-14533984D02*
X5741134Y-14572079D01*
X5817325Y-14533984D02*
X5817325Y-14572079D01*
X6112563Y-14810174D02*
X6103039Y-14800650D01*
X6103039Y-14800650D02*
X6083991Y-14772079D01*
X6083991Y-14772079D02*
X6074468Y-14753031D01*
X6074468Y-14753031D02*
X6064944Y-14724460D01*
X6064944Y-14724460D02*
X6055420Y-14676841D01*
X6055420Y-14676841D02*
X6055420Y-14638746D01*
X6055420Y-14638746D02*
X6064944Y-14591127D01*
X6064944Y-14591127D02*
X6074468Y-14562555D01*
X6074468Y-14562555D02*
X6083991Y-14543508D01*
X6083991Y-14543508D02*
X6103039Y-14514936D01*
X6103039Y-14514936D02*
X6112563Y-14505412D01*
X6293515Y-14733984D02*
X6179229Y-14733984D01*
X6236372Y-14733984D02*
X6236372Y-14533984D01*
X6236372Y-14533984D02*
X6217325Y-14562555D01*
X6217325Y-14562555D02*
X6198277Y-14581603D01*
X6198277Y-14581603D02*
X6179229Y-14591127D01*
X6369706Y-14553031D02*
X6379229Y-14543508D01*
X6379229Y-14543508D02*
X6398277Y-14533984D01*
X6398277Y-14533984D02*
X6445896Y-14533984D01*
X6445896Y-14533984D02*
X6464944Y-14543508D01*
X6464944Y-14543508D02*
X6474468Y-14553031D01*
X6474468Y-14553031D02*
X6483991Y-14572079D01*
X6483991Y-14572079D02*
X6483991Y-14591127D01*
X6483991Y-14591127D02*
X6474468Y-14619698D01*
X6474468Y-14619698D02*
X6360182Y-14733984D01*
X6360182Y-14733984D02*
X6483991Y-14733984D01*
X6655420Y-14533984D02*
X6617325Y-14533984D01*
X6617325Y-14533984D02*
X6598277Y-14543508D01*
X6598277Y-14543508D02*
X6588753Y-14553031D01*
X6588753Y-14553031D02*
X6569706Y-14581603D01*
X6569706Y-14581603D02*
X6560182Y-14619698D01*
X6560182Y-14619698D02*
X6560182Y-14695888D01*
X6560182Y-14695888D02*
X6569706Y-14714936D01*
X6569706Y-14714936D02*
X6579229Y-14724460D01*
X6579229Y-14724460D02*
X6598277Y-14733984D01*
X6598277Y-14733984D02*
X6636372Y-14733984D01*
X6636372Y-14733984D02*
X6655420Y-14724460D01*
X6655420Y-14724460D02*
X6664944Y-14714936D01*
X6664944Y-14714936D02*
X6674468Y-14695888D01*
X6674468Y-14695888D02*
X6674468Y-14648269D01*
X6674468Y-14648269D02*
X6664944Y-14629222D01*
X6664944Y-14629222D02*
X6655420Y-14619698D01*
X6655420Y-14619698D02*
X6636372Y-14610174D01*
X6636372Y-14610174D02*
X6598277Y-14610174D01*
X6598277Y-14610174D02*
X6579229Y-14619698D01*
X6579229Y-14619698D02*
X6569706Y-14629222D01*
X6569706Y-14629222D02*
X6560182Y-14648269D01*
X6912563Y-14733984D02*
X6912563Y-14533984D01*
X6998277Y-14733984D02*
X6998277Y-14629222D01*
X6998277Y-14629222D02*
X6988753Y-14610174D01*
X6988753Y-14610174D02*
X6969706Y-14600650D01*
X6969706Y-14600650D02*
X6941134Y-14600650D01*
X6941134Y-14600650D02*
X6922087Y-14610174D01*
X6922087Y-14610174D02*
X6912563Y-14619698D01*
X7122087Y-14733984D02*
X7103039Y-14724460D01*
X7103039Y-14724460D02*
X7093515Y-14714936D01*
X7093515Y-14714936D02*
X7083991Y-14695888D01*
X7083991Y-14695888D02*
X7083991Y-14638746D01*
X7083991Y-14638746D02*
X7093515Y-14619698D01*
X7093515Y-14619698D02*
X7103039Y-14610174D01*
X7103039Y-14610174D02*
X7122087Y-14600650D01*
X7122087Y-14600650D02*
X7150658Y-14600650D01*
X7150658Y-14600650D02*
X7169706Y-14610174D01*
X7169706Y-14610174D02*
X7179230Y-14619698D01*
X7179230Y-14619698D02*
X7188753Y-14638746D01*
X7188753Y-14638746D02*
X7188753Y-14695888D01*
X7188753Y-14695888D02*
X7179230Y-14714936D01*
X7179230Y-14714936D02*
X7169706Y-14724460D01*
X7169706Y-14724460D02*
X7150658Y-14733984D01*
X7150658Y-14733984D02*
X7122087Y-14733984D01*
X7303039Y-14733984D02*
X7283991Y-14724460D01*
X7283991Y-14724460D02*
X7274468Y-14705412D01*
X7274468Y-14705412D02*
X7274468Y-14533984D01*
X7455420Y-14724460D02*
X7436372Y-14733984D01*
X7436372Y-14733984D02*
X7398277Y-14733984D01*
X7398277Y-14733984D02*
X7379230Y-14724460D01*
X7379230Y-14724460D02*
X7369706Y-14705412D01*
X7369706Y-14705412D02*
X7369706Y-14629222D01*
X7369706Y-14629222D02*
X7379230Y-14610174D01*
X7379230Y-14610174D02*
X7398277Y-14600650D01*
X7398277Y-14600650D02*
X7436372Y-14600650D01*
X7436372Y-14600650D02*
X7455420Y-14610174D01*
X7455420Y-14610174D02*
X7464944Y-14629222D01*
X7464944Y-14629222D02*
X7464944Y-14648269D01*
X7464944Y-14648269D02*
X7369706Y-14667317D01*
X7541134Y-14724460D02*
X7560182Y-14733984D01*
X7560182Y-14733984D02*
X7598277Y-14733984D01*
X7598277Y-14733984D02*
X7617325Y-14724460D01*
X7617325Y-14724460D02*
X7626849Y-14705412D01*
X7626849Y-14705412D02*
X7626849Y-14695888D01*
X7626849Y-14695888D02*
X7617325Y-14676841D01*
X7617325Y-14676841D02*
X7598277Y-14667317D01*
X7598277Y-14667317D02*
X7569706Y-14667317D01*
X7569706Y-14667317D02*
X7550658Y-14657793D01*
X7550658Y-14657793D02*
X7541134Y-14638746D01*
X7541134Y-14638746D02*
X7541134Y-14629222D01*
X7541134Y-14629222D02*
X7550658Y-14610174D01*
X7550658Y-14610174D02*
X7569706Y-14600650D01*
X7569706Y-14600650D02*
X7598277Y-14600650D01*
X7598277Y-14600650D02*
X7617325Y-14610174D01*
X7693515Y-14810174D02*
X7703039Y-14800650D01*
X7703039Y-14800650D02*
X7722087Y-14772079D01*
X7722087Y-14772079D02*
X7731611Y-14753031D01*
X7731611Y-14753031D02*
X7741134Y-14724460D01*
X7741134Y-14724460D02*
X7750658Y-14676841D01*
X7750658Y-14676841D02*
X7750658Y-14638746D01*
X7750658Y-14638746D02*
X7741134Y-14591127D01*
X7741134Y-14591127D02*
X7731611Y-14562555D01*
X7731611Y-14562555D02*
X7722087Y-14543508D01*
X7722087Y-14543508D02*
X7703039Y-14514936D01*
X7703039Y-14514936D02*
X7693515Y-14505412D01*
D11*
X2492500Y-14951500D02*
X2537500Y-14906500D01*
X2492500Y-14861500D01*
X2447500Y-14906500D01*
X2492500Y-14951500D01*
D12*
X2836372Y-14797984D02*
X2855420Y-14797984D01*
X2855420Y-14797984D02*
X2874467Y-14807508D01*
X2874467Y-14807508D02*
X2883991Y-14817031D01*
X2883991Y-14817031D02*
X2893515Y-14836079D01*
X2893515Y-14836079D02*
X2903039Y-14874174D01*
X2903039Y-14874174D02*
X2903039Y-14921793D01*
X2903039Y-14921793D02*
X2893515Y-14959888D01*
X2893515Y-14959888D02*
X2883991Y-14978936D01*
X2883991Y-14978936D02*
X2874467Y-14988460D01*
X2874467Y-14988460D02*
X2855420Y-14997984D01*
X2855420Y-14997984D02*
X2836372Y-14997984D01*
X2836372Y-14997984D02*
X2817324Y-14988460D01*
X2817324Y-14988460D02*
X2807801Y-14978936D01*
X2807801Y-14978936D02*
X2798277Y-14959888D01*
X2798277Y-14959888D02*
X2788753Y-14921793D01*
X2788753Y-14921793D02*
X2788753Y-14874174D01*
X2788753Y-14874174D02*
X2798277Y-14836079D01*
X2798277Y-14836079D02*
X2807801Y-14817031D01*
X2807801Y-14817031D02*
X2817324Y-14807508D01*
X2817324Y-14807508D02*
X2836372Y-14797984D01*
X2988753Y-14978936D02*
X2998277Y-14988460D01*
X2998277Y-14988460D02*
X2988753Y-14997984D01*
X2988753Y-14997984D02*
X2979229Y-14988460D01*
X2979229Y-14988460D02*
X2988753Y-14978936D01*
X2988753Y-14978936D02*
X2988753Y-14997984D01*
X3093515Y-14997984D02*
X3131610Y-14997984D01*
X3131610Y-14997984D02*
X3150658Y-14988460D01*
X3150658Y-14988460D02*
X3160182Y-14978936D01*
X3160182Y-14978936D02*
X3179229Y-14950365D01*
X3179229Y-14950365D02*
X3188753Y-14912269D01*
X3188753Y-14912269D02*
X3188753Y-14836079D01*
X3188753Y-14836079D02*
X3179229Y-14817031D01*
X3179229Y-14817031D02*
X3169705Y-14807508D01*
X3169705Y-14807508D02*
X3150658Y-14797984D01*
X3150658Y-14797984D02*
X3112562Y-14797984D01*
X3112562Y-14797984D02*
X3093515Y-14807508D01*
X3093515Y-14807508D02*
X3083991Y-14817031D01*
X3083991Y-14817031D02*
X3074467Y-14836079D01*
X3074467Y-14836079D02*
X3074467Y-14883698D01*
X3074467Y-14883698D02*
X3083991Y-14902746D01*
X3083991Y-14902746D02*
X3093515Y-14912269D01*
X3093515Y-14912269D02*
X3112562Y-14921793D01*
X3112562Y-14921793D02*
X3150658Y-14921793D01*
X3150658Y-14921793D02*
X3169705Y-14912269D01*
X3169705Y-14912269D02*
X3179229Y-14902746D01*
X3179229Y-14902746D02*
X3188753Y-14883698D01*
X3312562Y-14797984D02*
X3331610Y-14797984D01*
X3331610Y-14797984D02*
X3350658Y-14807508D01*
X3350658Y-14807508D02*
X3360182Y-14817031D01*
X3360182Y-14817031D02*
X3369705Y-14836079D01*
X3369705Y-14836079D02*
X3379229Y-14874174D01*
X3379229Y-14874174D02*
X3379229Y-14921793D01*
X3379229Y-14921793D02*
X3369705Y-14959888D01*
X3369705Y-14959888D02*
X3360182Y-14978936D01*
X3360182Y-14978936D02*
X3350658Y-14988460D01*
X3350658Y-14988460D02*
X3331610Y-14997984D01*
X3331610Y-14997984D02*
X3312562Y-14997984D01*
X3312562Y-14997984D02*
X3293515Y-14988460D01*
X3293515Y-14988460D02*
X3283991Y-14978936D01*
X3283991Y-14978936D02*
X3274467Y-14959888D01*
X3274467Y-14959888D02*
X3264943Y-14921793D01*
X3264943Y-14921793D02*
X3264943Y-14874174D01*
X3264943Y-14874174D02*
X3274467Y-14836079D01*
X3274467Y-14836079D02*
X3283991Y-14817031D01*
X3283991Y-14817031D02*
X3293515Y-14807508D01*
X3293515Y-14807508D02*
X3312562Y-14797984D01*
X3503039Y-14797984D02*
X3522086Y-14797984D01*
X3522086Y-14797984D02*
X3541134Y-14807508D01*
X3541134Y-14807508D02*
X3550658Y-14817031D01*
X3550658Y-14817031D02*
X3560182Y-14836079D01*
X3560182Y-14836079D02*
X3569705Y-14874174D01*
X3569705Y-14874174D02*
X3569705Y-14921793D01*
X3569705Y-14921793D02*
X3560182Y-14959888D01*
X3560182Y-14959888D02*
X3550658Y-14978936D01*
X3550658Y-14978936D02*
X3541134Y-14988460D01*
X3541134Y-14988460D02*
X3522086Y-14997984D01*
X3522086Y-14997984D02*
X3503039Y-14997984D01*
X3503039Y-14997984D02*
X3483991Y-14988460D01*
X3483991Y-14988460D02*
X3474467Y-14978936D01*
X3474467Y-14978936D02*
X3464943Y-14959888D01*
X3464943Y-14959888D02*
X3455420Y-14921793D01*
X3455420Y-14921793D02*
X3455420Y-14874174D01*
X3455420Y-14874174D02*
X3464943Y-14836079D01*
X3464943Y-14836079D02*
X3474467Y-14817031D01*
X3474467Y-14817031D02*
X3483991Y-14807508D01*
X3483991Y-14807508D02*
X3503039Y-14797984D01*
X3655420Y-14997984D02*
X3655420Y-14864650D01*
X3655420Y-14883698D02*
X3664943Y-14874174D01*
X3664943Y-14874174D02*
X3683991Y-14864650D01*
X3683991Y-14864650D02*
X3712563Y-14864650D01*
X3712563Y-14864650D02*
X3731610Y-14874174D01*
X3731610Y-14874174D02*
X3741134Y-14893222D01*
X3741134Y-14893222D02*
X3741134Y-14997984D01*
X3741134Y-14893222D02*
X3750658Y-14874174D01*
X3750658Y-14874174D02*
X3769705Y-14864650D01*
X3769705Y-14864650D02*
X3798277Y-14864650D01*
X3798277Y-14864650D02*
X3817324Y-14874174D01*
X3817324Y-14874174D02*
X3826848Y-14893222D01*
X3826848Y-14893222D02*
X3826848Y-14997984D01*
X3922086Y-14997984D02*
X3922086Y-14864650D01*
X3922086Y-14883698D02*
X3931610Y-14874174D01*
X3931610Y-14874174D02*
X3950658Y-14864650D01*
X3950658Y-14864650D02*
X3979229Y-14864650D01*
X3979229Y-14864650D02*
X3998277Y-14874174D01*
X3998277Y-14874174D02*
X4007801Y-14893222D01*
X4007801Y-14893222D02*
X4007801Y-14997984D01*
X4007801Y-14893222D02*
X4017324Y-14874174D01*
X4017324Y-14874174D02*
X4036372Y-14864650D01*
X4036372Y-14864650D02*
X4064943Y-14864650D01*
X4064943Y-14864650D02*
X4083991Y-14874174D01*
X4083991Y-14874174D02*
X4093515Y-14893222D01*
X4093515Y-14893222D02*
X4093515Y-14997984D01*
X4483991Y-14788460D02*
X4312563Y-15045603D01*
X4741134Y-14797984D02*
X4760182Y-14797984D01*
X4760182Y-14797984D02*
X4779229Y-14807508D01*
X4779229Y-14807508D02*
X4788753Y-14817031D01*
X4788753Y-14817031D02*
X4798277Y-14836079D01*
X4798277Y-14836079D02*
X4807801Y-14874174D01*
X4807801Y-14874174D02*
X4807801Y-14921793D01*
X4807801Y-14921793D02*
X4798277Y-14959888D01*
X4798277Y-14959888D02*
X4788753Y-14978936D01*
X4788753Y-14978936D02*
X4779229Y-14988460D01*
X4779229Y-14988460D02*
X4760182Y-14997984D01*
X4760182Y-14997984D02*
X4741134Y-14997984D01*
X4741134Y-14997984D02*
X4722087Y-14988460D01*
X4722087Y-14988460D02*
X4712563Y-14978936D01*
X4712563Y-14978936D02*
X4703039Y-14959888D01*
X4703039Y-14959888D02*
X4693515Y-14921793D01*
X4693515Y-14921793D02*
X4693515Y-14874174D01*
X4693515Y-14874174D02*
X4703039Y-14836079D01*
X4703039Y-14836079D02*
X4712563Y-14817031D01*
X4712563Y-14817031D02*
X4722087Y-14807508D01*
X4722087Y-14807508D02*
X4741134Y-14797984D01*
X4893515Y-14978936D02*
X4903039Y-14988460D01*
X4903039Y-14988460D02*
X4893515Y-14997984D01*
X4893515Y-14997984D02*
X4883991Y-14988460D01*
X4883991Y-14988460D02*
X4893515Y-14978936D01*
X4893515Y-14978936D02*
X4893515Y-14997984D01*
X5026848Y-14797984D02*
X5045896Y-14797984D01*
X5045896Y-14797984D02*
X5064944Y-14807508D01*
X5064944Y-14807508D02*
X5074468Y-14817031D01*
X5074468Y-14817031D02*
X5083991Y-14836079D01*
X5083991Y-14836079D02*
X5093515Y-14874174D01*
X5093515Y-14874174D02*
X5093515Y-14921793D01*
X5093515Y-14921793D02*
X5083991Y-14959888D01*
X5083991Y-14959888D02*
X5074468Y-14978936D01*
X5074468Y-14978936D02*
X5064944Y-14988460D01*
X5064944Y-14988460D02*
X5045896Y-14997984D01*
X5045896Y-14997984D02*
X5026848Y-14997984D01*
X5026848Y-14997984D02*
X5007801Y-14988460D01*
X5007801Y-14988460D02*
X4998277Y-14978936D01*
X4998277Y-14978936D02*
X4988753Y-14959888D01*
X4988753Y-14959888D02*
X4979229Y-14921793D01*
X4979229Y-14921793D02*
X4979229Y-14874174D01*
X4979229Y-14874174D02*
X4988753Y-14836079D01*
X4988753Y-14836079D02*
X4998277Y-14817031D01*
X4998277Y-14817031D02*
X5007801Y-14807508D01*
X5007801Y-14807508D02*
X5026848Y-14797984D01*
X5160182Y-14797984D02*
X5283991Y-14797984D01*
X5283991Y-14797984D02*
X5217325Y-14874174D01*
X5217325Y-14874174D02*
X5245896Y-14874174D01*
X5245896Y-14874174D02*
X5264944Y-14883698D01*
X5264944Y-14883698D02*
X5274468Y-14893222D01*
X5274468Y-14893222D02*
X5283991Y-14912269D01*
X5283991Y-14912269D02*
X5283991Y-14959888D01*
X5283991Y-14959888D02*
X5274468Y-14978936D01*
X5274468Y-14978936D02*
X5264944Y-14988460D01*
X5264944Y-14988460D02*
X5245896Y-14997984D01*
X5245896Y-14997984D02*
X5188753Y-14997984D01*
X5188753Y-14997984D02*
X5169706Y-14988460D01*
X5169706Y-14988460D02*
X5160182Y-14978936D01*
X5464944Y-14797984D02*
X5369706Y-14797984D01*
X5369706Y-14797984D02*
X5360182Y-14893222D01*
X5360182Y-14893222D02*
X5369706Y-14883698D01*
X5369706Y-14883698D02*
X5388753Y-14874174D01*
X5388753Y-14874174D02*
X5436372Y-14874174D01*
X5436372Y-14874174D02*
X5455420Y-14883698D01*
X5455420Y-14883698D02*
X5464944Y-14893222D01*
X5464944Y-14893222D02*
X5474468Y-14912269D01*
X5474468Y-14912269D02*
X5474468Y-14959888D01*
X5474468Y-14959888D02*
X5464944Y-14978936D01*
X5464944Y-14978936D02*
X5455420Y-14988460D01*
X5455420Y-14988460D02*
X5436372Y-14997984D01*
X5436372Y-14997984D02*
X5388753Y-14997984D01*
X5388753Y-14997984D02*
X5369706Y-14988460D01*
X5369706Y-14988460D02*
X5360182Y-14978936D01*
X5645896Y-14864650D02*
X5645896Y-14997984D01*
X5598277Y-14788460D02*
X5550658Y-14931317D01*
X5550658Y-14931317D02*
X5674467Y-14931317D01*
X5741134Y-14797984D02*
X5741134Y-14836079D01*
X5817325Y-14797984D02*
X5817325Y-14836079D01*
X6112563Y-15074174D02*
X6103039Y-15064650D01*
X6103039Y-15064650D02*
X6083991Y-15036079D01*
X6083991Y-15036079D02*
X6074468Y-15017031D01*
X6074468Y-15017031D02*
X6064944Y-14988460D01*
X6064944Y-14988460D02*
X6055420Y-14940841D01*
X6055420Y-14940841D02*
X6055420Y-14902746D01*
X6055420Y-14902746D02*
X6064944Y-14855127D01*
X6064944Y-14855127D02*
X6074468Y-14826555D01*
X6074468Y-14826555D02*
X6083991Y-14807508D01*
X6083991Y-14807508D02*
X6103039Y-14778936D01*
X6103039Y-14778936D02*
X6112563Y-14769412D01*
X6293515Y-14997984D02*
X6179229Y-14997984D01*
X6236372Y-14997984D02*
X6236372Y-14797984D01*
X6236372Y-14797984D02*
X6217325Y-14826555D01*
X6217325Y-14826555D02*
X6198277Y-14845603D01*
X6198277Y-14845603D02*
X6179229Y-14855127D01*
X6464944Y-14797984D02*
X6426848Y-14797984D01*
X6426848Y-14797984D02*
X6407801Y-14807508D01*
X6407801Y-14807508D02*
X6398277Y-14817031D01*
X6398277Y-14817031D02*
X6379229Y-14845603D01*
X6379229Y-14845603D02*
X6369706Y-14883698D01*
X6369706Y-14883698D02*
X6369706Y-14959888D01*
X6369706Y-14959888D02*
X6379229Y-14978936D01*
X6379229Y-14978936D02*
X6388753Y-14988460D01*
X6388753Y-14988460D02*
X6407801Y-14997984D01*
X6407801Y-14997984D02*
X6445896Y-14997984D01*
X6445896Y-14997984D02*
X6464944Y-14988460D01*
X6464944Y-14988460D02*
X6474468Y-14978936D01*
X6474468Y-14978936D02*
X6483991Y-14959888D01*
X6483991Y-14959888D02*
X6483991Y-14912269D01*
X6483991Y-14912269D02*
X6474468Y-14893222D01*
X6474468Y-14893222D02*
X6464944Y-14883698D01*
X6464944Y-14883698D02*
X6445896Y-14874174D01*
X6445896Y-14874174D02*
X6407801Y-14874174D01*
X6407801Y-14874174D02*
X6388753Y-14883698D01*
X6388753Y-14883698D02*
X6379229Y-14893222D01*
X6379229Y-14893222D02*
X6369706Y-14912269D01*
X6722087Y-14997984D02*
X6722087Y-14797984D01*
X6807801Y-14997984D02*
X6807801Y-14893222D01*
X6807801Y-14893222D02*
X6798277Y-14874174D01*
X6798277Y-14874174D02*
X6779230Y-14864650D01*
X6779230Y-14864650D02*
X6750658Y-14864650D01*
X6750658Y-14864650D02*
X6731610Y-14874174D01*
X6731610Y-14874174D02*
X6722087Y-14883698D01*
X6931610Y-14997984D02*
X6912563Y-14988460D01*
X6912563Y-14988460D02*
X6903039Y-14978936D01*
X6903039Y-14978936D02*
X6893515Y-14959888D01*
X6893515Y-14959888D02*
X6893515Y-14902746D01*
X6893515Y-14902746D02*
X6903039Y-14883698D01*
X6903039Y-14883698D02*
X6912563Y-14874174D01*
X6912563Y-14874174D02*
X6931610Y-14864650D01*
X6931610Y-14864650D02*
X6960182Y-14864650D01*
X6960182Y-14864650D02*
X6979230Y-14874174D01*
X6979230Y-14874174D02*
X6988753Y-14883698D01*
X6988753Y-14883698D02*
X6998277Y-14902746D01*
X6998277Y-14902746D02*
X6998277Y-14959888D01*
X6998277Y-14959888D02*
X6988753Y-14978936D01*
X6988753Y-14978936D02*
X6979230Y-14988460D01*
X6979230Y-14988460D02*
X6960182Y-14997984D01*
X6960182Y-14997984D02*
X6931610Y-14997984D01*
X7112563Y-14997984D02*
X7093515Y-14988460D01*
X7093515Y-14988460D02*
X7083991Y-14969412D01*
X7083991Y-14969412D02*
X7083991Y-14797984D01*
X7264944Y-14988460D02*
X7245896Y-14997984D01*
X7245896Y-14997984D02*
X7207801Y-14997984D01*
X7207801Y-14997984D02*
X7188753Y-14988460D01*
X7188753Y-14988460D02*
X7179230Y-14969412D01*
X7179230Y-14969412D02*
X7179230Y-14893222D01*
X7179230Y-14893222D02*
X7188753Y-14874174D01*
X7188753Y-14874174D02*
X7207801Y-14864650D01*
X7207801Y-14864650D02*
X7245896Y-14864650D01*
X7245896Y-14864650D02*
X7264944Y-14874174D01*
X7264944Y-14874174D02*
X7274468Y-14893222D01*
X7274468Y-14893222D02*
X7274468Y-14912269D01*
X7274468Y-14912269D02*
X7179230Y-14931317D01*
X7350658Y-14988460D02*
X7369706Y-14997984D01*
X7369706Y-14997984D02*
X7407801Y-14997984D01*
X7407801Y-14997984D02*
X7426849Y-14988460D01*
X7426849Y-14988460D02*
X7436372Y-14969412D01*
X7436372Y-14969412D02*
X7436372Y-14959888D01*
X7436372Y-14959888D02*
X7426849Y-14940841D01*
X7426849Y-14940841D02*
X7407801Y-14931317D01*
X7407801Y-14931317D02*
X7379230Y-14931317D01*
X7379230Y-14931317D02*
X7360182Y-14921793D01*
X7360182Y-14921793D02*
X7350658Y-14902746D01*
X7350658Y-14902746D02*
X7350658Y-14893222D01*
X7350658Y-14893222D02*
X7360182Y-14874174D01*
X7360182Y-14874174D02*
X7379230Y-14864650D01*
X7379230Y-14864650D02*
X7407801Y-14864650D01*
X7407801Y-14864650D02*
X7426849Y-14874174D01*
X7503039Y-15074174D02*
X7512563Y-15064650D01*
X7512563Y-15064650D02*
X7531611Y-15036079D01*
X7531611Y-15036079D02*
X7541134Y-15017031D01*
X7541134Y-15017031D02*
X7550658Y-14988460D01*
X7550658Y-14988460D02*
X7560182Y-14940841D01*
X7560182Y-14940841D02*
X7560182Y-14902746D01*
X7560182Y-14902746D02*
X7550658Y-14855127D01*
X7550658Y-14855127D02*
X7541134Y-14826555D01*
X7541134Y-14826555D02*
X7531611Y-14807508D01*
X7531611Y-14807508D02*
X7512563Y-14778936D01*
X7512563Y-14778936D02*
X7503039Y-14769412D01*
D11*
X2442500Y-15123000D02*
X2537500Y-15218000D01*
X2537500Y-15123000D02*
X2442500Y-15218000D01*
X2537500Y-15170500D02*
G75*
G02*
X2442500Y-15170500I-47500J0D01*
G01*
X2442500Y-15170500D02*
G75*
G02*
X2537500Y-15170500I47500J0D01*
G01*
D12*
X2836372Y-15061984D02*
X2855420Y-15061984D01*
X2855420Y-15061984D02*
X2874467Y-15071508D01*
X2874467Y-15071508D02*
X2883991Y-15081031D01*
X2883991Y-15081031D02*
X2893515Y-15100079D01*
X2893515Y-15100079D02*
X2903039Y-15138174D01*
X2903039Y-15138174D02*
X2903039Y-15185793D01*
X2903039Y-15185793D02*
X2893515Y-15223888D01*
X2893515Y-15223888D02*
X2883991Y-15242936D01*
X2883991Y-15242936D02*
X2874467Y-15252460D01*
X2874467Y-15252460D02*
X2855420Y-15261984D01*
X2855420Y-15261984D02*
X2836372Y-15261984D01*
X2836372Y-15261984D02*
X2817324Y-15252460D01*
X2817324Y-15252460D02*
X2807801Y-15242936D01*
X2807801Y-15242936D02*
X2798277Y-15223888D01*
X2798277Y-15223888D02*
X2788753Y-15185793D01*
X2788753Y-15185793D02*
X2788753Y-15138174D01*
X2788753Y-15138174D02*
X2798277Y-15100079D01*
X2798277Y-15100079D02*
X2807801Y-15081031D01*
X2807801Y-15081031D02*
X2817324Y-15071508D01*
X2817324Y-15071508D02*
X2836372Y-15061984D01*
X2988753Y-15242936D02*
X2998277Y-15252460D01*
X2998277Y-15252460D02*
X2988753Y-15261984D01*
X2988753Y-15261984D02*
X2979229Y-15252460D01*
X2979229Y-15252460D02*
X2988753Y-15242936D01*
X2988753Y-15242936D02*
X2988753Y-15261984D01*
X3093515Y-15261984D02*
X3131610Y-15261984D01*
X3131610Y-15261984D02*
X3150658Y-15252460D01*
X3150658Y-15252460D02*
X3160182Y-15242936D01*
X3160182Y-15242936D02*
X3179229Y-15214365D01*
X3179229Y-15214365D02*
X3188753Y-15176269D01*
X3188753Y-15176269D02*
X3188753Y-15100079D01*
X3188753Y-15100079D02*
X3179229Y-15081031D01*
X3179229Y-15081031D02*
X3169705Y-15071508D01*
X3169705Y-15071508D02*
X3150658Y-15061984D01*
X3150658Y-15061984D02*
X3112562Y-15061984D01*
X3112562Y-15061984D02*
X3093515Y-15071508D01*
X3093515Y-15071508D02*
X3083991Y-15081031D01*
X3083991Y-15081031D02*
X3074467Y-15100079D01*
X3074467Y-15100079D02*
X3074467Y-15147698D01*
X3074467Y-15147698D02*
X3083991Y-15166746D01*
X3083991Y-15166746D02*
X3093515Y-15176269D01*
X3093515Y-15176269D02*
X3112562Y-15185793D01*
X3112562Y-15185793D02*
X3150658Y-15185793D01*
X3150658Y-15185793D02*
X3169705Y-15176269D01*
X3169705Y-15176269D02*
X3179229Y-15166746D01*
X3179229Y-15166746D02*
X3188753Y-15147698D01*
X3369705Y-15061984D02*
X3274467Y-15061984D01*
X3274467Y-15061984D02*
X3264943Y-15157222D01*
X3264943Y-15157222D02*
X3274467Y-15147698D01*
X3274467Y-15147698D02*
X3293515Y-15138174D01*
X3293515Y-15138174D02*
X3341134Y-15138174D01*
X3341134Y-15138174D02*
X3360182Y-15147698D01*
X3360182Y-15147698D02*
X3369705Y-15157222D01*
X3369705Y-15157222D02*
X3379229Y-15176269D01*
X3379229Y-15176269D02*
X3379229Y-15223888D01*
X3379229Y-15223888D02*
X3369705Y-15242936D01*
X3369705Y-15242936D02*
X3360182Y-15252460D01*
X3360182Y-15252460D02*
X3341134Y-15261984D01*
X3341134Y-15261984D02*
X3293515Y-15261984D01*
X3293515Y-15261984D02*
X3274467Y-15252460D01*
X3274467Y-15252460D02*
X3264943Y-15242936D01*
X3503039Y-15061984D02*
X3522086Y-15061984D01*
X3522086Y-15061984D02*
X3541134Y-15071508D01*
X3541134Y-15071508D02*
X3550658Y-15081031D01*
X3550658Y-15081031D02*
X3560182Y-15100079D01*
X3560182Y-15100079D02*
X3569705Y-15138174D01*
X3569705Y-15138174D02*
X3569705Y-15185793D01*
X3569705Y-15185793D02*
X3560182Y-15223888D01*
X3560182Y-15223888D02*
X3550658Y-15242936D01*
X3550658Y-15242936D02*
X3541134Y-15252460D01*
X3541134Y-15252460D02*
X3522086Y-15261984D01*
X3522086Y-15261984D02*
X3503039Y-15261984D01*
X3503039Y-15261984D02*
X3483991Y-15252460D01*
X3483991Y-15252460D02*
X3474467Y-15242936D01*
X3474467Y-15242936D02*
X3464943Y-15223888D01*
X3464943Y-15223888D02*
X3455420Y-15185793D01*
X3455420Y-15185793D02*
X3455420Y-15138174D01*
X3455420Y-15138174D02*
X3464943Y-15100079D01*
X3464943Y-15100079D02*
X3474467Y-15081031D01*
X3474467Y-15081031D02*
X3483991Y-15071508D01*
X3483991Y-15071508D02*
X3503039Y-15061984D01*
X3655420Y-15261984D02*
X3655420Y-15128650D01*
X3655420Y-15147698D02*
X3664943Y-15138174D01*
X3664943Y-15138174D02*
X3683991Y-15128650D01*
X3683991Y-15128650D02*
X3712563Y-15128650D01*
X3712563Y-15128650D02*
X3731610Y-15138174D01*
X3731610Y-15138174D02*
X3741134Y-15157222D01*
X3741134Y-15157222D02*
X3741134Y-15261984D01*
X3741134Y-15157222D02*
X3750658Y-15138174D01*
X3750658Y-15138174D02*
X3769705Y-15128650D01*
X3769705Y-15128650D02*
X3798277Y-15128650D01*
X3798277Y-15128650D02*
X3817324Y-15138174D01*
X3817324Y-15138174D02*
X3826848Y-15157222D01*
X3826848Y-15157222D02*
X3826848Y-15261984D01*
X3922086Y-15261984D02*
X3922086Y-15128650D01*
X3922086Y-15147698D02*
X3931610Y-15138174D01*
X3931610Y-15138174D02*
X3950658Y-15128650D01*
X3950658Y-15128650D02*
X3979229Y-15128650D01*
X3979229Y-15128650D02*
X3998277Y-15138174D01*
X3998277Y-15138174D02*
X4007801Y-15157222D01*
X4007801Y-15157222D02*
X4007801Y-15261984D01*
X4007801Y-15157222D02*
X4017324Y-15138174D01*
X4017324Y-15138174D02*
X4036372Y-15128650D01*
X4036372Y-15128650D02*
X4064943Y-15128650D01*
X4064943Y-15128650D02*
X4083991Y-15138174D01*
X4083991Y-15138174D02*
X4093515Y-15157222D01*
X4093515Y-15157222D02*
X4093515Y-15261984D01*
X4483991Y-15052460D02*
X4312563Y-15309603D01*
X4741134Y-15061984D02*
X4760182Y-15061984D01*
X4760182Y-15061984D02*
X4779229Y-15071508D01*
X4779229Y-15071508D02*
X4788753Y-15081031D01*
X4788753Y-15081031D02*
X4798277Y-15100079D01*
X4798277Y-15100079D02*
X4807801Y-15138174D01*
X4807801Y-15138174D02*
X4807801Y-15185793D01*
X4807801Y-15185793D02*
X4798277Y-15223888D01*
X4798277Y-15223888D02*
X4788753Y-15242936D01*
X4788753Y-15242936D02*
X4779229Y-15252460D01*
X4779229Y-15252460D02*
X4760182Y-15261984D01*
X4760182Y-15261984D02*
X4741134Y-15261984D01*
X4741134Y-15261984D02*
X4722087Y-15252460D01*
X4722087Y-15252460D02*
X4712563Y-15242936D01*
X4712563Y-15242936D02*
X4703039Y-15223888D01*
X4703039Y-15223888D02*
X4693515Y-15185793D01*
X4693515Y-15185793D02*
X4693515Y-15138174D01*
X4693515Y-15138174D02*
X4703039Y-15100079D01*
X4703039Y-15100079D02*
X4712563Y-15081031D01*
X4712563Y-15081031D02*
X4722087Y-15071508D01*
X4722087Y-15071508D02*
X4741134Y-15061984D01*
X4893515Y-15242936D02*
X4903039Y-15252460D01*
X4903039Y-15252460D02*
X4893515Y-15261984D01*
X4893515Y-15261984D02*
X4883991Y-15252460D01*
X4883991Y-15252460D02*
X4893515Y-15242936D01*
X4893515Y-15242936D02*
X4893515Y-15261984D01*
X5026848Y-15061984D02*
X5045896Y-15061984D01*
X5045896Y-15061984D02*
X5064944Y-15071508D01*
X5064944Y-15071508D02*
X5074468Y-15081031D01*
X5074468Y-15081031D02*
X5083991Y-15100079D01*
X5083991Y-15100079D02*
X5093515Y-15138174D01*
X5093515Y-15138174D02*
X5093515Y-15185793D01*
X5093515Y-15185793D02*
X5083991Y-15223888D01*
X5083991Y-15223888D02*
X5074468Y-15242936D01*
X5074468Y-15242936D02*
X5064944Y-15252460D01*
X5064944Y-15252460D02*
X5045896Y-15261984D01*
X5045896Y-15261984D02*
X5026848Y-15261984D01*
X5026848Y-15261984D02*
X5007801Y-15252460D01*
X5007801Y-15252460D02*
X4998277Y-15242936D01*
X4998277Y-15242936D02*
X4988753Y-15223888D01*
X4988753Y-15223888D02*
X4979229Y-15185793D01*
X4979229Y-15185793D02*
X4979229Y-15138174D01*
X4979229Y-15138174D02*
X4988753Y-15100079D01*
X4988753Y-15100079D02*
X4998277Y-15081031D01*
X4998277Y-15081031D02*
X5007801Y-15071508D01*
X5007801Y-15071508D02*
X5026848Y-15061984D01*
X5160182Y-15061984D02*
X5283991Y-15061984D01*
X5283991Y-15061984D02*
X5217325Y-15138174D01*
X5217325Y-15138174D02*
X5245896Y-15138174D01*
X5245896Y-15138174D02*
X5264944Y-15147698D01*
X5264944Y-15147698D02*
X5274468Y-15157222D01*
X5274468Y-15157222D02*
X5283991Y-15176269D01*
X5283991Y-15176269D02*
X5283991Y-15223888D01*
X5283991Y-15223888D02*
X5274468Y-15242936D01*
X5274468Y-15242936D02*
X5264944Y-15252460D01*
X5264944Y-15252460D02*
X5245896Y-15261984D01*
X5245896Y-15261984D02*
X5188753Y-15261984D01*
X5188753Y-15261984D02*
X5169706Y-15252460D01*
X5169706Y-15252460D02*
X5160182Y-15242936D01*
X5350658Y-15061984D02*
X5483991Y-15061984D01*
X5483991Y-15061984D02*
X5398277Y-15261984D01*
X5645896Y-15128650D02*
X5645896Y-15261984D01*
X5598277Y-15052460D02*
X5550658Y-15195317D01*
X5550658Y-15195317D02*
X5674467Y-15195317D01*
X5741134Y-15061984D02*
X5741134Y-15100079D01*
X5817325Y-15061984D02*
X5817325Y-15100079D01*
X6112563Y-15338174D02*
X6103039Y-15328650D01*
X6103039Y-15328650D02*
X6083991Y-15300079D01*
X6083991Y-15300079D02*
X6074468Y-15281031D01*
X6074468Y-15281031D02*
X6064944Y-15252460D01*
X6064944Y-15252460D02*
X6055420Y-15204841D01*
X6055420Y-15204841D02*
X6055420Y-15166746D01*
X6055420Y-15166746D02*
X6064944Y-15119127D01*
X6064944Y-15119127D02*
X6074468Y-15090555D01*
X6074468Y-15090555D02*
X6083991Y-15071508D01*
X6083991Y-15071508D02*
X6103039Y-15042936D01*
X6103039Y-15042936D02*
X6112563Y-15033412D01*
X6293515Y-15261984D02*
X6179229Y-15261984D01*
X6236372Y-15261984D02*
X6236372Y-15061984D01*
X6236372Y-15061984D02*
X6217325Y-15090555D01*
X6217325Y-15090555D02*
X6198277Y-15109603D01*
X6198277Y-15109603D02*
X6179229Y-15119127D01*
X6464944Y-15061984D02*
X6426848Y-15061984D01*
X6426848Y-15061984D02*
X6407801Y-15071508D01*
X6407801Y-15071508D02*
X6398277Y-15081031D01*
X6398277Y-15081031D02*
X6379229Y-15109603D01*
X6379229Y-15109603D02*
X6369706Y-15147698D01*
X6369706Y-15147698D02*
X6369706Y-15223888D01*
X6369706Y-15223888D02*
X6379229Y-15242936D01*
X6379229Y-15242936D02*
X6388753Y-15252460D01*
X6388753Y-15252460D02*
X6407801Y-15261984D01*
X6407801Y-15261984D02*
X6445896Y-15261984D01*
X6445896Y-15261984D02*
X6464944Y-15252460D01*
X6464944Y-15252460D02*
X6474468Y-15242936D01*
X6474468Y-15242936D02*
X6483991Y-15223888D01*
X6483991Y-15223888D02*
X6483991Y-15176269D01*
X6483991Y-15176269D02*
X6474468Y-15157222D01*
X6474468Y-15157222D02*
X6464944Y-15147698D01*
X6464944Y-15147698D02*
X6445896Y-15138174D01*
X6445896Y-15138174D02*
X6407801Y-15138174D01*
X6407801Y-15138174D02*
X6388753Y-15147698D01*
X6388753Y-15147698D02*
X6379229Y-15157222D01*
X6379229Y-15157222D02*
X6369706Y-15176269D01*
X6722087Y-15261984D02*
X6722087Y-15061984D01*
X6807801Y-15261984D02*
X6807801Y-15157222D01*
X6807801Y-15157222D02*
X6798277Y-15138174D01*
X6798277Y-15138174D02*
X6779230Y-15128650D01*
X6779230Y-15128650D02*
X6750658Y-15128650D01*
X6750658Y-15128650D02*
X6731610Y-15138174D01*
X6731610Y-15138174D02*
X6722087Y-15147698D01*
X6931610Y-15261984D02*
X6912563Y-15252460D01*
X6912563Y-15252460D02*
X6903039Y-15242936D01*
X6903039Y-15242936D02*
X6893515Y-15223888D01*
X6893515Y-15223888D02*
X6893515Y-15166746D01*
X6893515Y-15166746D02*
X6903039Y-15147698D01*
X6903039Y-15147698D02*
X6912563Y-15138174D01*
X6912563Y-15138174D02*
X6931610Y-15128650D01*
X6931610Y-15128650D02*
X6960182Y-15128650D01*
X6960182Y-15128650D02*
X6979230Y-15138174D01*
X6979230Y-15138174D02*
X6988753Y-15147698D01*
X6988753Y-15147698D02*
X6998277Y-15166746D01*
X6998277Y-15166746D02*
X6998277Y-15223888D01*
X6998277Y-15223888D02*
X6988753Y-15242936D01*
X6988753Y-15242936D02*
X6979230Y-15252460D01*
X6979230Y-15252460D02*
X6960182Y-15261984D01*
X6960182Y-15261984D02*
X6931610Y-15261984D01*
X7112563Y-15261984D02*
X7093515Y-15252460D01*
X7093515Y-15252460D02*
X7083991Y-15233412D01*
X7083991Y-15233412D02*
X7083991Y-15061984D01*
X7264944Y-15252460D02*
X7245896Y-15261984D01*
X7245896Y-15261984D02*
X7207801Y-15261984D01*
X7207801Y-15261984D02*
X7188753Y-15252460D01*
X7188753Y-15252460D02*
X7179230Y-15233412D01*
X7179230Y-15233412D02*
X7179230Y-15157222D01*
X7179230Y-15157222D02*
X7188753Y-15138174D01*
X7188753Y-15138174D02*
X7207801Y-15128650D01*
X7207801Y-15128650D02*
X7245896Y-15128650D01*
X7245896Y-15128650D02*
X7264944Y-15138174D01*
X7264944Y-15138174D02*
X7274468Y-15157222D01*
X7274468Y-15157222D02*
X7274468Y-15176269D01*
X7274468Y-15176269D02*
X7179230Y-15195317D01*
X7350658Y-15252460D02*
X7369706Y-15261984D01*
X7369706Y-15261984D02*
X7407801Y-15261984D01*
X7407801Y-15261984D02*
X7426849Y-15252460D01*
X7426849Y-15252460D02*
X7436372Y-15233412D01*
X7436372Y-15233412D02*
X7436372Y-15223888D01*
X7436372Y-15223888D02*
X7426849Y-15204841D01*
X7426849Y-15204841D02*
X7407801Y-15195317D01*
X7407801Y-15195317D02*
X7379230Y-15195317D01*
X7379230Y-15195317D02*
X7360182Y-15185793D01*
X7360182Y-15185793D02*
X7350658Y-15166746D01*
X7350658Y-15166746D02*
X7350658Y-15157222D01*
X7350658Y-15157222D02*
X7360182Y-15138174D01*
X7360182Y-15138174D02*
X7379230Y-15128650D01*
X7379230Y-15128650D02*
X7407801Y-15128650D01*
X7407801Y-15128650D02*
X7426849Y-15138174D01*
X7503039Y-15338174D02*
X7512563Y-15328650D01*
X7512563Y-15328650D02*
X7531611Y-15300079D01*
X7531611Y-15300079D02*
X7541134Y-15281031D01*
X7541134Y-15281031D02*
X7550658Y-15252460D01*
X7550658Y-15252460D02*
X7560182Y-15204841D01*
X7560182Y-15204841D02*
X7560182Y-15166746D01*
X7560182Y-15166746D02*
X7550658Y-15119127D01*
X7550658Y-15119127D02*
X7541134Y-15090555D01*
X7541134Y-15090555D02*
X7531611Y-15071508D01*
X7531611Y-15071508D02*
X7512563Y-15042936D01*
X7512563Y-15042936D02*
X7503039Y-15033412D01*
D11*
X2437500Y-15384500D02*
X2537500Y-15484500D01*
X2537500Y-15384500D02*
X2437500Y-15484500D01*
X2487500Y-15384500D02*
X2487500Y-15484500D01*
X2437500Y-15434500D02*
X2537500Y-15434500D01*
D12*
X2903039Y-15525984D02*
X2788753Y-15525984D01*
X2845896Y-15525984D02*
X2845896Y-15325984D01*
X2845896Y-15325984D02*
X2826848Y-15354555D01*
X2826848Y-15354555D02*
X2807801Y-15373603D01*
X2807801Y-15373603D02*
X2788753Y-15383127D01*
X2988753Y-15506936D02*
X2998277Y-15516460D01*
X2998277Y-15516460D02*
X2988753Y-15525984D01*
X2988753Y-15525984D02*
X2979229Y-15516460D01*
X2979229Y-15516460D02*
X2988753Y-15506936D01*
X2988753Y-15506936D02*
X2988753Y-15525984D01*
X3122086Y-15325984D02*
X3141134Y-15325984D01*
X3141134Y-15325984D02*
X3160182Y-15335508D01*
X3160182Y-15335508D02*
X3169705Y-15345031D01*
X3169705Y-15345031D02*
X3179229Y-15364079D01*
X3179229Y-15364079D02*
X3188753Y-15402174D01*
X3188753Y-15402174D02*
X3188753Y-15449793D01*
X3188753Y-15449793D02*
X3179229Y-15487888D01*
X3179229Y-15487888D02*
X3169705Y-15506936D01*
X3169705Y-15506936D02*
X3160182Y-15516460D01*
X3160182Y-15516460D02*
X3141134Y-15525984D01*
X3141134Y-15525984D02*
X3122086Y-15525984D01*
X3122086Y-15525984D02*
X3103039Y-15516460D01*
X3103039Y-15516460D02*
X3093515Y-15506936D01*
X3093515Y-15506936D02*
X3083991Y-15487888D01*
X3083991Y-15487888D02*
X3074467Y-15449793D01*
X3074467Y-15449793D02*
X3074467Y-15402174D01*
X3074467Y-15402174D02*
X3083991Y-15364079D01*
X3083991Y-15364079D02*
X3093515Y-15345031D01*
X3093515Y-15345031D02*
X3103039Y-15335508D01*
X3103039Y-15335508D02*
X3122086Y-15325984D01*
X3312562Y-15325984D02*
X3331610Y-15325984D01*
X3331610Y-15325984D02*
X3350658Y-15335508D01*
X3350658Y-15335508D02*
X3360182Y-15345031D01*
X3360182Y-15345031D02*
X3369705Y-15364079D01*
X3369705Y-15364079D02*
X3379229Y-15402174D01*
X3379229Y-15402174D02*
X3379229Y-15449793D01*
X3379229Y-15449793D02*
X3369705Y-15487888D01*
X3369705Y-15487888D02*
X3360182Y-15506936D01*
X3360182Y-15506936D02*
X3350658Y-15516460D01*
X3350658Y-15516460D02*
X3331610Y-15525984D01*
X3331610Y-15525984D02*
X3312562Y-15525984D01*
X3312562Y-15525984D02*
X3293515Y-15516460D01*
X3293515Y-15516460D02*
X3283991Y-15506936D01*
X3283991Y-15506936D02*
X3274467Y-15487888D01*
X3274467Y-15487888D02*
X3264943Y-15449793D01*
X3264943Y-15449793D02*
X3264943Y-15402174D01*
X3264943Y-15402174D02*
X3274467Y-15364079D01*
X3274467Y-15364079D02*
X3283991Y-15345031D01*
X3283991Y-15345031D02*
X3293515Y-15335508D01*
X3293515Y-15335508D02*
X3312562Y-15325984D01*
X3503039Y-15325984D02*
X3522086Y-15325984D01*
X3522086Y-15325984D02*
X3541134Y-15335508D01*
X3541134Y-15335508D02*
X3550658Y-15345031D01*
X3550658Y-15345031D02*
X3560182Y-15364079D01*
X3560182Y-15364079D02*
X3569705Y-15402174D01*
X3569705Y-15402174D02*
X3569705Y-15449793D01*
X3569705Y-15449793D02*
X3560182Y-15487888D01*
X3560182Y-15487888D02*
X3550658Y-15506936D01*
X3550658Y-15506936D02*
X3541134Y-15516460D01*
X3541134Y-15516460D02*
X3522086Y-15525984D01*
X3522086Y-15525984D02*
X3503039Y-15525984D01*
X3503039Y-15525984D02*
X3483991Y-15516460D01*
X3483991Y-15516460D02*
X3474467Y-15506936D01*
X3474467Y-15506936D02*
X3464943Y-15487888D01*
X3464943Y-15487888D02*
X3455420Y-15449793D01*
X3455420Y-15449793D02*
X3455420Y-15402174D01*
X3455420Y-15402174D02*
X3464943Y-15364079D01*
X3464943Y-15364079D02*
X3474467Y-15345031D01*
X3474467Y-15345031D02*
X3483991Y-15335508D01*
X3483991Y-15335508D02*
X3503039Y-15325984D01*
X3655420Y-15525984D02*
X3655420Y-15392650D01*
X3655420Y-15411698D02*
X3664943Y-15402174D01*
X3664943Y-15402174D02*
X3683991Y-15392650D01*
X3683991Y-15392650D02*
X3712563Y-15392650D01*
X3712563Y-15392650D02*
X3731610Y-15402174D01*
X3731610Y-15402174D02*
X3741134Y-15421222D01*
X3741134Y-15421222D02*
X3741134Y-15525984D01*
X3741134Y-15421222D02*
X3750658Y-15402174D01*
X3750658Y-15402174D02*
X3769705Y-15392650D01*
X3769705Y-15392650D02*
X3798277Y-15392650D01*
X3798277Y-15392650D02*
X3817324Y-15402174D01*
X3817324Y-15402174D02*
X3826848Y-15421222D01*
X3826848Y-15421222D02*
X3826848Y-15525984D01*
X3922086Y-15525984D02*
X3922086Y-15392650D01*
X3922086Y-15411698D02*
X3931610Y-15402174D01*
X3931610Y-15402174D02*
X3950658Y-15392650D01*
X3950658Y-15392650D02*
X3979229Y-15392650D01*
X3979229Y-15392650D02*
X3998277Y-15402174D01*
X3998277Y-15402174D02*
X4007801Y-15421222D01*
X4007801Y-15421222D02*
X4007801Y-15525984D01*
X4007801Y-15421222D02*
X4017324Y-15402174D01*
X4017324Y-15402174D02*
X4036372Y-15392650D01*
X4036372Y-15392650D02*
X4064943Y-15392650D01*
X4064943Y-15392650D02*
X4083991Y-15402174D01*
X4083991Y-15402174D02*
X4093515Y-15421222D01*
X4093515Y-15421222D02*
X4093515Y-15525984D01*
X4483991Y-15316460D02*
X4312563Y-15573603D01*
X4741134Y-15325984D02*
X4760182Y-15325984D01*
X4760182Y-15325984D02*
X4779229Y-15335508D01*
X4779229Y-15335508D02*
X4788753Y-15345031D01*
X4788753Y-15345031D02*
X4798277Y-15364079D01*
X4798277Y-15364079D02*
X4807801Y-15402174D01*
X4807801Y-15402174D02*
X4807801Y-15449793D01*
X4807801Y-15449793D02*
X4798277Y-15487888D01*
X4798277Y-15487888D02*
X4788753Y-15506936D01*
X4788753Y-15506936D02*
X4779229Y-15516460D01*
X4779229Y-15516460D02*
X4760182Y-15525984D01*
X4760182Y-15525984D02*
X4741134Y-15525984D01*
X4741134Y-15525984D02*
X4722087Y-15516460D01*
X4722087Y-15516460D02*
X4712563Y-15506936D01*
X4712563Y-15506936D02*
X4703039Y-15487888D01*
X4703039Y-15487888D02*
X4693515Y-15449793D01*
X4693515Y-15449793D02*
X4693515Y-15402174D01*
X4693515Y-15402174D02*
X4703039Y-15364079D01*
X4703039Y-15364079D02*
X4712563Y-15345031D01*
X4712563Y-15345031D02*
X4722087Y-15335508D01*
X4722087Y-15335508D02*
X4741134Y-15325984D01*
X4893515Y-15506936D02*
X4903039Y-15516460D01*
X4903039Y-15516460D02*
X4893515Y-15525984D01*
X4893515Y-15525984D02*
X4883991Y-15516460D01*
X4883991Y-15516460D02*
X4893515Y-15506936D01*
X4893515Y-15506936D02*
X4893515Y-15525984D01*
X5026848Y-15325984D02*
X5045896Y-15325984D01*
X5045896Y-15325984D02*
X5064944Y-15335508D01*
X5064944Y-15335508D02*
X5074468Y-15345031D01*
X5074468Y-15345031D02*
X5083991Y-15364079D01*
X5083991Y-15364079D02*
X5093515Y-15402174D01*
X5093515Y-15402174D02*
X5093515Y-15449793D01*
X5093515Y-15449793D02*
X5083991Y-15487888D01*
X5083991Y-15487888D02*
X5074468Y-15506936D01*
X5074468Y-15506936D02*
X5064944Y-15516460D01*
X5064944Y-15516460D02*
X5045896Y-15525984D01*
X5045896Y-15525984D02*
X5026848Y-15525984D01*
X5026848Y-15525984D02*
X5007801Y-15516460D01*
X5007801Y-15516460D02*
X4998277Y-15506936D01*
X4998277Y-15506936D02*
X4988753Y-15487888D01*
X4988753Y-15487888D02*
X4979229Y-15449793D01*
X4979229Y-15449793D02*
X4979229Y-15402174D01*
X4979229Y-15402174D02*
X4988753Y-15364079D01*
X4988753Y-15364079D02*
X4998277Y-15345031D01*
X4998277Y-15345031D02*
X5007801Y-15335508D01*
X5007801Y-15335508D02*
X5026848Y-15325984D01*
X5160182Y-15325984D02*
X5283991Y-15325984D01*
X5283991Y-15325984D02*
X5217325Y-15402174D01*
X5217325Y-15402174D02*
X5245896Y-15402174D01*
X5245896Y-15402174D02*
X5264944Y-15411698D01*
X5264944Y-15411698D02*
X5274468Y-15421222D01*
X5274468Y-15421222D02*
X5283991Y-15440269D01*
X5283991Y-15440269D02*
X5283991Y-15487888D01*
X5283991Y-15487888D02*
X5274468Y-15506936D01*
X5274468Y-15506936D02*
X5264944Y-15516460D01*
X5264944Y-15516460D02*
X5245896Y-15525984D01*
X5245896Y-15525984D02*
X5188753Y-15525984D01*
X5188753Y-15525984D02*
X5169706Y-15516460D01*
X5169706Y-15516460D02*
X5160182Y-15506936D01*
X5379229Y-15525984D02*
X5417325Y-15525984D01*
X5417325Y-15525984D02*
X5436372Y-15516460D01*
X5436372Y-15516460D02*
X5445896Y-15506936D01*
X5445896Y-15506936D02*
X5464944Y-15478365D01*
X5464944Y-15478365D02*
X5474468Y-15440269D01*
X5474468Y-15440269D02*
X5474468Y-15364079D01*
X5474468Y-15364079D02*
X5464944Y-15345031D01*
X5464944Y-15345031D02*
X5455420Y-15335508D01*
X5455420Y-15335508D02*
X5436372Y-15325984D01*
X5436372Y-15325984D02*
X5398277Y-15325984D01*
X5398277Y-15325984D02*
X5379229Y-15335508D01*
X5379229Y-15335508D02*
X5369706Y-15345031D01*
X5369706Y-15345031D02*
X5360182Y-15364079D01*
X5360182Y-15364079D02*
X5360182Y-15411698D01*
X5360182Y-15411698D02*
X5369706Y-15430746D01*
X5369706Y-15430746D02*
X5379229Y-15440269D01*
X5379229Y-15440269D02*
X5398277Y-15449793D01*
X5398277Y-15449793D02*
X5436372Y-15449793D01*
X5436372Y-15449793D02*
X5455420Y-15440269D01*
X5455420Y-15440269D02*
X5464944Y-15430746D01*
X5464944Y-15430746D02*
X5474468Y-15411698D01*
X5645896Y-15392650D02*
X5645896Y-15525984D01*
X5598277Y-15316460D02*
X5550658Y-15459317D01*
X5550658Y-15459317D02*
X5674467Y-15459317D01*
X5741134Y-15325984D02*
X5741134Y-15364079D01*
X5817325Y-15325984D02*
X5817325Y-15364079D01*
X6112563Y-15602174D02*
X6103039Y-15592650D01*
X6103039Y-15592650D02*
X6083991Y-15564079D01*
X6083991Y-15564079D02*
X6074468Y-15545031D01*
X6074468Y-15545031D02*
X6064944Y-15516460D01*
X6064944Y-15516460D02*
X6055420Y-15468841D01*
X6055420Y-15468841D02*
X6055420Y-15430746D01*
X6055420Y-15430746D02*
X6064944Y-15383127D01*
X6064944Y-15383127D02*
X6074468Y-15354555D01*
X6074468Y-15354555D02*
X6083991Y-15335508D01*
X6083991Y-15335508D02*
X6103039Y-15306936D01*
X6103039Y-15306936D02*
X6112563Y-15297412D01*
X6179229Y-15345031D02*
X6188753Y-15335508D01*
X6188753Y-15335508D02*
X6207801Y-15325984D01*
X6207801Y-15325984D02*
X6255420Y-15325984D01*
X6255420Y-15325984D02*
X6274468Y-15335508D01*
X6274468Y-15335508D02*
X6283991Y-15345031D01*
X6283991Y-15345031D02*
X6293515Y-15364079D01*
X6293515Y-15364079D02*
X6293515Y-15383127D01*
X6293515Y-15383127D02*
X6283991Y-15411698D01*
X6283991Y-15411698D02*
X6169706Y-15525984D01*
X6169706Y-15525984D02*
X6293515Y-15525984D01*
X6369706Y-15345031D02*
X6379229Y-15335508D01*
X6379229Y-15335508D02*
X6398277Y-15325984D01*
X6398277Y-15325984D02*
X6445896Y-15325984D01*
X6445896Y-15325984D02*
X6464944Y-15335508D01*
X6464944Y-15335508D02*
X6474468Y-15345031D01*
X6474468Y-15345031D02*
X6483991Y-15364079D01*
X6483991Y-15364079D02*
X6483991Y-15383127D01*
X6483991Y-15383127D02*
X6474468Y-15411698D01*
X6474468Y-15411698D02*
X6360182Y-15525984D01*
X6360182Y-15525984D02*
X6483991Y-15525984D01*
X6722087Y-15525984D02*
X6722087Y-15325984D01*
X6807801Y-15525984D02*
X6807801Y-15421222D01*
X6807801Y-15421222D02*
X6798277Y-15402174D01*
X6798277Y-15402174D02*
X6779230Y-15392650D01*
X6779230Y-15392650D02*
X6750658Y-15392650D01*
X6750658Y-15392650D02*
X6731610Y-15402174D01*
X6731610Y-15402174D02*
X6722087Y-15411698D01*
X6931610Y-15525984D02*
X6912563Y-15516460D01*
X6912563Y-15516460D02*
X6903039Y-15506936D01*
X6903039Y-15506936D02*
X6893515Y-15487888D01*
X6893515Y-15487888D02*
X6893515Y-15430746D01*
X6893515Y-15430746D02*
X6903039Y-15411698D01*
X6903039Y-15411698D02*
X6912563Y-15402174D01*
X6912563Y-15402174D02*
X6931610Y-15392650D01*
X6931610Y-15392650D02*
X6960182Y-15392650D01*
X6960182Y-15392650D02*
X6979230Y-15402174D01*
X6979230Y-15402174D02*
X6988753Y-15411698D01*
X6988753Y-15411698D02*
X6998277Y-15430746D01*
X6998277Y-15430746D02*
X6998277Y-15487888D01*
X6998277Y-15487888D02*
X6988753Y-15506936D01*
X6988753Y-15506936D02*
X6979230Y-15516460D01*
X6979230Y-15516460D02*
X6960182Y-15525984D01*
X6960182Y-15525984D02*
X6931610Y-15525984D01*
X7112563Y-15525984D02*
X7093515Y-15516460D01*
X7093515Y-15516460D02*
X7083991Y-15497412D01*
X7083991Y-15497412D02*
X7083991Y-15325984D01*
X7264944Y-15516460D02*
X7245896Y-15525984D01*
X7245896Y-15525984D02*
X7207801Y-15525984D01*
X7207801Y-15525984D02*
X7188753Y-15516460D01*
X7188753Y-15516460D02*
X7179230Y-15497412D01*
X7179230Y-15497412D02*
X7179230Y-15421222D01*
X7179230Y-15421222D02*
X7188753Y-15402174D01*
X7188753Y-15402174D02*
X7207801Y-15392650D01*
X7207801Y-15392650D02*
X7245896Y-15392650D01*
X7245896Y-15392650D02*
X7264944Y-15402174D01*
X7264944Y-15402174D02*
X7274468Y-15421222D01*
X7274468Y-15421222D02*
X7274468Y-15440269D01*
X7274468Y-15440269D02*
X7179230Y-15459317D01*
X7350658Y-15516460D02*
X7369706Y-15525984D01*
X7369706Y-15525984D02*
X7407801Y-15525984D01*
X7407801Y-15525984D02*
X7426849Y-15516460D01*
X7426849Y-15516460D02*
X7436372Y-15497412D01*
X7436372Y-15497412D02*
X7436372Y-15487888D01*
X7436372Y-15487888D02*
X7426849Y-15468841D01*
X7426849Y-15468841D02*
X7407801Y-15459317D01*
X7407801Y-15459317D02*
X7379230Y-15459317D01*
X7379230Y-15459317D02*
X7360182Y-15449793D01*
X7360182Y-15449793D02*
X7350658Y-15430746D01*
X7350658Y-15430746D02*
X7350658Y-15421222D01*
X7350658Y-15421222D02*
X7360182Y-15402174D01*
X7360182Y-15402174D02*
X7379230Y-15392650D01*
X7379230Y-15392650D02*
X7407801Y-15392650D01*
X7407801Y-15392650D02*
X7426849Y-15402174D01*
X7674468Y-15449793D02*
X7826849Y-15449793D01*
X7750658Y-15525984D02*
X7750658Y-15373603D01*
X8055420Y-15325984D02*
X8179230Y-15325984D01*
X8179230Y-15325984D02*
X8112563Y-15402174D01*
X8112563Y-15402174D02*
X8141134Y-15402174D01*
X8141134Y-15402174D02*
X8160182Y-15411698D01*
X8160182Y-15411698D02*
X8169706Y-15421222D01*
X8169706Y-15421222D02*
X8179230Y-15440269D01*
X8179230Y-15440269D02*
X8179230Y-15487888D01*
X8179230Y-15487888D02*
X8169706Y-15506936D01*
X8169706Y-15506936D02*
X8160182Y-15516460D01*
X8160182Y-15516460D02*
X8141134Y-15525984D01*
X8141134Y-15525984D02*
X8083992Y-15525984D01*
X8083992Y-15525984D02*
X8064944Y-15516460D01*
X8064944Y-15516460D02*
X8055420Y-15506936D01*
X8407801Y-15516460D02*
X8426849Y-15525984D01*
X8426849Y-15525984D02*
X8464944Y-15525984D01*
X8464944Y-15525984D02*
X8483992Y-15516460D01*
X8483992Y-15516460D02*
X8493516Y-15497412D01*
X8493516Y-15497412D02*
X8493516Y-15487888D01*
X8493516Y-15487888D02*
X8483992Y-15468841D01*
X8483992Y-15468841D02*
X8464944Y-15459317D01*
X8464944Y-15459317D02*
X8436373Y-15459317D01*
X8436373Y-15459317D02*
X8417325Y-15449793D01*
X8417325Y-15449793D02*
X8407801Y-15430746D01*
X8407801Y-15430746D02*
X8407801Y-15421222D01*
X8407801Y-15421222D02*
X8417325Y-15402174D01*
X8417325Y-15402174D02*
X8436373Y-15392650D01*
X8436373Y-15392650D02*
X8464944Y-15392650D01*
X8464944Y-15392650D02*
X8483992Y-15402174D01*
X8607801Y-15525984D02*
X8588754Y-15516460D01*
X8588754Y-15516460D02*
X8579230Y-15497412D01*
X8579230Y-15497412D02*
X8579230Y-15325984D01*
X8712563Y-15525984D02*
X8693516Y-15516460D01*
X8693516Y-15516460D02*
X8683992Y-15506936D01*
X8683992Y-15506936D02*
X8674468Y-15487888D01*
X8674468Y-15487888D02*
X8674468Y-15430746D01*
X8674468Y-15430746D02*
X8683992Y-15411698D01*
X8683992Y-15411698D02*
X8693516Y-15402174D01*
X8693516Y-15402174D02*
X8712563Y-15392650D01*
X8712563Y-15392650D02*
X8741135Y-15392650D01*
X8741135Y-15392650D02*
X8760182Y-15402174D01*
X8760182Y-15402174D02*
X8769706Y-15411698D01*
X8769706Y-15411698D02*
X8779230Y-15430746D01*
X8779230Y-15430746D02*
X8779230Y-15487888D01*
X8779230Y-15487888D02*
X8769706Y-15506936D01*
X8769706Y-15506936D02*
X8760182Y-15516460D01*
X8760182Y-15516460D02*
X8741135Y-15525984D01*
X8741135Y-15525984D02*
X8712563Y-15525984D01*
X8836373Y-15392650D02*
X8912563Y-15392650D01*
X8864944Y-15325984D02*
X8864944Y-15497412D01*
X8864944Y-15497412D02*
X8874468Y-15516460D01*
X8874468Y-15516460D02*
X8893516Y-15525984D01*
X8893516Y-15525984D02*
X8912563Y-15525984D01*
X8969706Y-15516460D02*
X8988754Y-15525984D01*
X8988754Y-15525984D02*
X9026849Y-15525984D01*
X9026849Y-15525984D02*
X9045897Y-15516460D01*
X9045897Y-15516460D02*
X9055420Y-15497412D01*
X9055420Y-15497412D02*
X9055420Y-15487888D01*
X9055420Y-15487888D02*
X9045897Y-15468841D01*
X9045897Y-15468841D02*
X9026849Y-15459317D01*
X9026849Y-15459317D02*
X8998277Y-15459317D01*
X8998277Y-15459317D02*
X8979230Y-15449793D01*
X8979230Y-15449793D02*
X8969706Y-15430746D01*
X8969706Y-15430746D02*
X8969706Y-15421222D01*
X8969706Y-15421222D02*
X8979230Y-15402174D01*
X8979230Y-15402174D02*
X8998277Y-15392650D01*
X8998277Y-15392650D02*
X9026849Y-15392650D01*
X9026849Y-15392650D02*
X9045897Y-15402174D01*
X9122087Y-15602174D02*
X9131611Y-15592650D01*
X9131611Y-15592650D02*
X9150658Y-15564079D01*
X9150658Y-15564079D02*
X9160182Y-15545031D01*
X9160182Y-15545031D02*
X9169706Y-15516460D01*
X9169706Y-15516460D02*
X9179230Y-15468841D01*
X9179230Y-15468841D02*
X9179230Y-15430746D01*
X9179230Y-15430746D02*
X9169706Y-15383127D01*
X9169706Y-15383127D02*
X9160182Y-15354555D01*
X9160182Y-15354555D02*
X9150658Y-15335508D01*
X9150658Y-15335508D02*
X9131611Y-15306936D01*
X9131611Y-15306936D02*
X9122087Y-15297412D01*
M02*
