%TF.GenerationSoftware,KiCad,Pcbnew,9.0.9-9.0.9~ubuntu24.04.1*%
%TF.CreationDate,2026-09-02T16:54:12+02:00*%
%TF.ProjectId,robotArm,726f626f-7441-4726-9d2e-6b696361645f,rev?*%
%TF.SameCoordinates,Original*%
%TF.FileFunction,Copper,L2,Inr*%
%TF.FilePolarity,Positive*%
%FSLAX46Y46*%
G04 Gerber Fmt 4.6, Leading zero omitted, Abs format (unit mm)*
G04 Created by KiCad (PCBNEW 9.0.9-9.0.9~ubuntu24.04.1) date 2026-09-02 16:54:12*
%MOMM*%
%LPD*%
G01*
G04 APERTURE LIST*
G04 Aperture macros list*
%AMRoundRect*
0 Rectangle with rounded corners*
0 $1 Rounding radius*
0 $2 $3 $4 $5 $6 $7 $8 $9 X,Y pos of 4 corners*
0 Add a 4 corners polygon primitive as box body*
4,1,4,$2,$3,$4,$5,$6,$7,$8,$9,$2,$3,0*
0 Add four circle primitives for the rounded corners*
1,1,$1+$1,$2,$3*
1,1,$1+$1,$4,$5*
1,1,$1+$1,$6,$7*
1,1,$1+$1,$8,$9*
0 Add four rect primitives between the rounded corners*
20,1,$1+$1,$2,$3,$4,$5,0*
20,1,$1+$1,$4,$5,$6,$7,0*
20,1,$1+$1,$6,$7,$8,$9,0*
20,1,$1+$1,$8,$9,$2,$3,0*%
G04 Aperture macros list end*
%TA.AperFunction,ComponentPad*%
%ADD10O,1.900000X1.524000*%
%TD*%
%TA.AperFunction,ComponentPad*%
%ADD11C,1.600000*%
%TD*%
%TA.AperFunction,ComponentPad*%
%ADD12R,1.600000X1.600000*%
%TD*%
%TA.AperFunction,ComponentPad*%
%ADD13O,1.600000X1.600000*%
%TD*%
%TA.AperFunction,ComponentPad*%
%ADD14C,1.400000*%
%TD*%
%TA.AperFunction,ComponentPad*%
%ADD15R,1.800000X1.800000*%
%TD*%
%TA.AperFunction,ComponentPad*%
%ADD16C,1.800000*%
%TD*%
%TA.AperFunction,ComponentPad*%
%ADD17RoundRect,0.190500X0.762000X0.444500X-0.762000X0.444500X-0.762000X-0.444500X0.762000X-0.444500X0*%
%TD*%
%TA.AperFunction,ComponentPad*%
%ADD18RoundRect,0.250000X-0.725000X0.600000X-0.725000X-0.600000X0.725000X-0.600000X0.725000X0.600000X0*%
%TD*%
%TA.AperFunction,ComponentPad*%
%ADD19O,1.950000X1.700000*%
%TD*%
%TA.AperFunction,ComponentPad*%
%ADD20R,1.700000X1.700000*%
%TD*%
%TA.AperFunction,ComponentPad*%
%ADD21C,1.700000*%
%TD*%
%TA.AperFunction,ComponentPad*%
%ADD22R,2.000000X4.600000*%
%TD*%
%TA.AperFunction,ComponentPad*%
%ADD23O,2.000000X4.200000*%
%TD*%
%TA.AperFunction,ComponentPad*%
%ADD24O,4.200000X2.000000*%
%TD*%
%TA.AperFunction,ComponentPad*%
%ADD25RoundRect,0.250000X-0.550000X-0.550000X0.550000X-0.550000X0.550000X0.550000X-0.550000X0.550000X0*%
%TD*%
%TA.AperFunction,ViaPad*%
%ADD26C,0.600000*%
%TD*%
%TA.AperFunction,ViaPad*%
%ADD27C,1.000000*%
%TD*%
%TA.AperFunction,Conductor*%
%ADD28C,0.200000*%
%TD*%
%TA.AperFunction,Conductor*%
%ADD29C,0.800000*%
%TD*%
G04 APERTURE END LIST*
D10*
%TO.N,DIR_4*%
%TO.C,U7*%
X76200040Y-114299987D03*
%TO.N,STEP_4*%
X76200040Y-111759987D03*
%TO.N,unconnected-(U7-GPIO1-Pad28)*%
X76200040Y-109219987D03*
%TO.N,CLK*%
X76200040Y-106679987D03*
%TO.N,unconnected-(U7-GPIO21-Pad26)*%
X76200040Y-104139987D03*
%TO.N,DIR_3*%
X76200040Y-101599987D03*
%TO.N,STEP_3*%
X76200040Y-99059987D03*
%TO.N,unconnected-(U7-GPIO5-Pad23)*%
X76200040Y-96519987D03*
%TO.N,UART2_TX*%
X76200040Y-93979987D03*
%TO.N,unconnected-(U7-GPIO16-Pad21)*%
X76200040Y-91439987D03*
%TO.N,EN_DRV*%
X76200040Y-88899987D03*
%TO.N,unconnected-(U7-GPIO2-Pad19)*%
X76200040Y-86359987D03*
%TO.N,LOAD*%
X76200040Y-83819987D03*
%TO.N,GND*%
X76200040Y-81279987D03*
%TO.N,+3.3V*%
X76200040Y-78739987D03*
%TO.N,unconnected-(U7-EN-Pad15)*%
X101600040Y-114299987D03*
%TO.N,DATA*%
X101600040Y-111759987D03*
%TO.N,unconnected-(U7-GPIO39-Pad13)*%
X101600040Y-109219987D03*
%TO.N,unconnected-(U7-GPIO34-Pad12)*%
X101600040Y-106679987D03*
%TO.N,unconnected-(U7-GPIO35-Pad11)*%
X101600040Y-104139987D03*
%TO.N,DIR_2*%
X101600040Y-101599987D03*
%TO.N,unconnected-(U7-GPIO33-Pad9)*%
X101600040Y-99059987D03*
%TO.N,unconnected-(U7-GPIO25-Pad8)*%
X101600040Y-96519987D03*
%TO.N,STEP_2*%
X101600040Y-93979987D03*
%TO.N,unconnected-(U7-GPIO27-Pad6)*%
X101600040Y-91439987D03*
%TO.N,DIR_1*%
X101600040Y-88899987D03*
%TO.N,unconnected-(U7-GPIO12-Pad4)*%
X101600040Y-86359987D03*
%TO.N,STEP_1*%
X101600040Y-83819987D03*
%TO.N,GND*%
X101600040Y-81279987D03*
%TO.N,unconnected-(U7-VIN-Pad1)*%
X101600040Y-78739987D03*
%TD*%
D11*
%TO.N,Net-(D5-K)*%
%TO.C,R6*%
X149860000Y-91440000D03*
%TO.N,IX1*%
X149860000Y-96520000D03*
%TD*%
%TO.N,Net-(D3-K)*%
%TO.C,R4*%
X83820000Y-127000000D03*
%TO.N,DIAG3*%
X88900000Y-127000000D03*
%TD*%
D12*
%TO.N,GND*%
%TO.C,U5*%
X130820000Y-105410000D03*
D13*
%TO.N,+3.3V*%
X130820000Y-107950000D03*
%TO.N,/M2-1B*%
X130820000Y-110490000D03*
%TO.N,/M2-1A*%
X130820000Y-113030000D03*
%TO.N,/M2-2A*%
X130820000Y-115570000D03*
%TO.N,/M2-2B*%
X130820000Y-118110000D03*
%TO.N,GND*%
X130820000Y-120650000D03*
%TO.N,+12V*%
X130820000Y-123190000D03*
%TO.N,DIR_2*%
X143520000Y-123190000D03*
%TO.N,STEP_2*%
X143520000Y-120650000D03*
%TO.N,unconnected-(U5-PDN-Pad11)*%
X143520000Y-118110000D03*
%TO.N,UART2_TX*%
X143520000Y-115570000D03*
%TO.N,unconnected-(U5-SPRD-Pad13)*%
X143520000Y-113030000D03*
%TO.N,+3.3V*%
X143520000Y-110490000D03*
%TO.N,unconnected-(U5-MS1-Pad15)*%
X143520000Y-107950000D03*
%TO.N,EN_DRV*%
X143520000Y-105410000D03*
%TD*%
D14*
%TO.N,+3.3V*%
%TO.C,R1*%
X116840000Y-109220000D03*
%TO.N,Net-(U6-DS)*%
X114300000Y-109220000D03*
%TD*%
D15*
%TO.N,Net-(D3-K)*%
%TO.C,D3*%
X38490000Y-124460000D03*
D16*
%TO.N,+3.3V*%
X38490000Y-127000000D03*
%TD*%
D15*
%TO.N,Net-(D2-K)*%
%TO.C,D2*%
X43960000Y-124460000D03*
D16*
%TO.N,+3.3V*%
X43960000Y-127000000D03*
%TD*%
D11*
%TO.N,Net-(D1-K)*%
%TO.C,R2*%
X58420000Y-127000000D03*
%TO.N,DIAG1*%
X63500000Y-127000000D03*
%TD*%
D17*
%TO.N,+12V*%
%TO.C,U8*%
X41660000Y-95080000D03*
X39160000Y-95080000D03*
%TO.N,GND*%
X36660000Y-95080000D03*
X34260000Y-95080000D03*
%TO.N,+3.3V*%
X31760000Y-95080000D03*
X29260000Y-95080000D03*
%TD*%
D18*
%TO.N,/M3-2B*%
%TO.C,J6*%
X50010000Y-106800000D03*
D19*
%TO.N,/M3-2A*%
X50010000Y-109300000D03*
%TO.N,/M3-1A*%
X50010000Y-111800000D03*
%TO.N,/M3-1B*%
X50010000Y-114300000D03*
%TD*%
D12*
%TO.N,GND*%
%TO.C,U2*%
X57160000Y-102870000D03*
D13*
%TO.N,+3.3V*%
X57160000Y-105410000D03*
%TO.N,/M3-1B*%
X57160000Y-107950000D03*
%TO.N,/M3-1A*%
X57160000Y-110490000D03*
%TO.N,/M3-2A*%
X57160000Y-113030000D03*
%TO.N,/M3-2B*%
X57160000Y-115570000D03*
%TO.N,GND*%
X57160000Y-118110000D03*
%TO.N,+12V*%
X57160000Y-120650000D03*
%TO.N,DIR_3*%
X69860000Y-120650000D03*
%TO.N,STEP_3*%
X69860000Y-118110000D03*
%TO.N,unconnected-(U2-PDN-Pad11)*%
X69860000Y-115570000D03*
%TO.N,UART2_TX*%
X69860000Y-113030000D03*
%TO.N,unconnected-(U2-SPRD-Pad13)*%
X69860000Y-110490000D03*
%TO.N,unconnected-(U2-MS2-Pad14)*%
X69860000Y-107950000D03*
%TO.N,+3.3V*%
X69860000Y-105410000D03*
%TO.N,EN_DRV*%
X69860000Y-102870000D03*
%TD*%
D11*
%TO.N,Net-(D7-K)*%
%TO.C,R8*%
X38100000Y-73660000D03*
%TO.N,IX3*%
X43180000Y-73660000D03*
%TD*%
D15*
%TO.N,Net-(D4-K)*%
%TO.C,D4*%
X33020000Y-124460000D03*
D16*
%TO.N,+3.3V*%
X33020000Y-127000000D03*
%TD*%
D18*
%TO.N,/M2-2B*%
%TO.C,J5*%
X124460000Y-111800000D03*
D19*
%TO.N,/M2-2A*%
X124460000Y-114300000D03*
%TO.N,/M2-1A*%
X124460000Y-116800000D03*
%TO.N,/M2-1B*%
X124460000Y-119300000D03*
%TD*%
D20*
%TO.N,D0*%
%TO.C,J2*%
X147320000Y-73660000D03*
D21*
%TO.N,Net-(J2-Pin_10)*%
X144780000Y-73660000D03*
%TO.N,D1*%
X142240000Y-73660000D03*
%TO.N,Net-(J2-Pin_10)*%
X139700000Y-73660000D03*
%TO.N,D2*%
X137160000Y-73660000D03*
%TO.N,Net-(J2-Pin_10)*%
X134620000Y-73660000D03*
%TO.N,D3*%
X132080000Y-73660000D03*
%TO.N,Net-(J2-Pin_10)*%
X129540000Y-73660000D03*
%TO.N,D4*%
X127000000Y-73660000D03*
%TO.N,Net-(J2-Pin_10)*%
X124460000Y-73660000D03*
%TO.N,D5*%
X121920000Y-73660000D03*
%TO.N,Net-(J2-Pin_10)*%
X119380000Y-73660000D03*
%TO.N,D6*%
X116840000Y-73660000D03*
%TO.N,Net-(J2-Pin_10)*%
X114300000Y-73660000D03*
%TO.N,D7*%
X111760000Y-73660000D03*
%TO.N,Net-(J2-Pin_10)*%
X109220000Y-73660000D03*
%TD*%
D15*
%TO.N,Net-(D8-K)*%
%TO.C,D8*%
X48260000Y-99060000D03*
D16*
%TO.N,+3.3V*%
X50800000Y-99060000D03*
%TD*%
D15*
%TO.N,Net-(D6-K)*%
%TO.C,D6*%
X114300000Y-116840000D03*
D16*
%TO.N,+3.3V*%
X116840000Y-116840000D03*
%TD*%
D15*
%TO.N,Net-(D7-K)*%
%TO.C,D7*%
X48260000Y-73660000D03*
D16*
%TO.N,+3.3V*%
X50800000Y-73660000D03*
%TD*%
D18*
%TO.N,/M1-2B*%
%TO.C,J3*%
X50010000Y-81360000D03*
D19*
%TO.N,/M1-2A*%
X50010000Y-83860000D03*
%TO.N,/M1-1A*%
X50010000Y-86360000D03*
%TO.N,/M1-1B*%
X50010000Y-88860000D03*
%TD*%
D22*
%TO.N,+12V*%
%TO.C,J1*%
X39370000Y-81280000D03*
D23*
%TO.N,GND*%
X33070000Y-81280000D03*
D24*
%TO.N,N/C*%
X36470000Y-86080000D03*
%TD*%
D15*
%TO.N,Net-(D5-K)*%
%TO.C,D5*%
X119380000Y-101600000D03*
D16*
%TO.N,+3.3V*%
X121920000Y-101600000D03*
%TD*%
D11*
%TO.N,Net-(D4-K)*%
%TO.C,R5*%
X96520000Y-127000000D03*
%TO.N,DIAG4*%
X101600000Y-127000000D03*
%TD*%
%TO.N,Net-(D2-K)*%
%TO.C,R3*%
X71120000Y-127000000D03*
%TO.N,DIAG2*%
X76200000Y-127000000D03*
%TD*%
%TO.N,Net-(D6-K)*%
%TO.C,R7*%
X149860000Y-114300000D03*
%TO.N,IX2*%
X149860000Y-119380000D03*
%TD*%
D12*
%TO.N,GND*%
%TO.C,U4*%
X130820000Y-80010000D03*
D13*
%TO.N,+3.3V*%
X130820000Y-82550000D03*
%TO.N,Net-(J4-2B)*%
X130820000Y-85090000D03*
%TO.N,/M4-1A*%
X130820000Y-87630000D03*
%TO.N,/M4-2A*%
X130820000Y-90170000D03*
%TO.N,/M4-1B*%
X130820000Y-92710000D03*
%TO.N,GND*%
X130820000Y-95250000D03*
%TO.N,+12V*%
X130820000Y-97790000D03*
%TO.N,DIR_4*%
X143520000Y-97790000D03*
%TO.N,STEP_4*%
X143520000Y-95250000D03*
%TO.N,unconnected-(U4-PDN-Pad11)*%
X143520000Y-92710000D03*
%TO.N,UART2_TX*%
X143520000Y-90170000D03*
%TO.N,unconnected-(U4-SPRD-Pad13)*%
X143520000Y-87630000D03*
%TO.N,+3.3V*%
X143520000Y-85090000D03*
X143520000Y-82550000D03*
%TO.N,EN_DRV*%
X143520000Y-80010000D03*
%TD*%
D18*
%TO.N,/M4-1B*%
%TO.C,J4*%
X124460000Y-86440000D03*
D19*
%TO.N,/M4-2A*%
X124460000Y-88940000D03*
%TO.N,/M4-1A*%
X124460000Y-91440000D03*
%TO.N,Net-(J4-2B)*%
X124460000Y-93940000D03*
%TD*%
D15*
%TO.N,Net-(D1-K)*%
%TO.C,D1*%
X49430000Y-124460000D03*
D16*
%TO.N,+3.3V*%
X49430000Y-127000000D03*
%TD*%
D12*
%TO.N,GND*%
%TO.C,U1*%
X57160000Y-76200000D03*
D13*
%TO.N,+3.3V*%
X57160000Y-78740000D03*
%TO.N,/M1-1B*%
X57160000Y-81280000D03*
%TO.N,/M1-1A*%
X57160000Y-83820000D03*
%TO.N,/M1-2A*%
X57160000Y-86360000D03*
%TO.N,/M1-2B*%
X57160000Y-88900000D03*
%TO.N,GND*%
X57160000Y-91440000D03*
%TO.N,+12V*%
X57160000Y-93980000D03*
%TO.N,DIR_1*%
X69860000Y-93980000D03*
%TO.N,STEP_1*%
X69860000Y-91440000D03*
%TO.N,unconnected-(U1-PDN-Pad11)*%
X69860000Y-88900000D03*
%TO.N,UART2_TX*%
X69860000Y-86360000D03*
%TO.N,unconnected-(U1-SPRD-Pad13)*%
X69860000Y-83820000D03*
%TO.N,unconnected-(U1-MS2-Pad14)*%
X69860000Y-81280000D03*
%TO.N,unconnected-(U1-MS1-Pad15)*%
X69860000Y-78740000D03*
%TO.N,EN_DRV*%
X69860000Y-76200000D03*
%TD*%
D25*
%TO.N,LOAD*%
%TO.C,U6*%
X106680000Y-81280000D03*
D11*
%TO.N,CLK*%
X106680000Y-83820000D03*
%TO.N,D4*%
X106680000Y-86360000D03*
%TO.N,D5*%
X106680000Y-88900000D03*
%TO.N,D6*%
X106680000Y-91440000D03*
%TO.N,D7*%
X106680000Y-93980000D03*
%TO.N,unconnected-(U6-~{Q7}-Pad7)*%
X106680000Y-96520000D03*
%TO.N,GND*%
X106680000Y-99060000D03*
%TO.N,DATA*%
X114300000Y-99060000D03*
%TO.N,Net-(U6-DS)*%
X114300000Y-96520000D03*
%TO.N,D0*%
X114300000Y-93980000D03*
%TO.N,D1*%
X114300000Y-91440000D03*
%TO.N,D2*%
X114300000Y-88900000D03*
%TO.N,D3*%
X114300000Y-86360000D03*
%TO.N,GND*%
X114300000Y-83820000D03*
%TO.N,+3.3V*%
X114300000Y-81280000D03*
%TD*%
%TO.N,Net-(D8-K)*%
%TO.C,R9*%
X60960000Y-99060000D03*
%TO.N,IX4*%
X66040000Y-99060000D03*
%TD*%
D26*
%TO.N,Net-(D5-K)*%
X148065300Y-99060000D03*
%TO.N,DATA*%
X110398300Y-110580000D03*
%TO.N,CLK*%
X82984900Y-84660000D03*
%TO.N,D1*%
X139190700Y-84660000D03*
%TO.N,D2*%
X118483300Y-76190500D03*
%TO.N,D4*%
X110335200Y-76144700D03*
%TO.N,D5*%
X121072400Y-84660000D03*
D27*
%TO.N,+12V*%
X124399700Y-98652800D03*
D26*
%TO.N,D0*%
X120467400Y-76875200D03*
%TO.N,DIR_2*%
X103692300Y-124210000D03*
%TO.N,STEP_2*%
X109608700Y-124980000D03*
D27*
%TO.N,/M1-1A*%
X53525800Y-87753300D03*
D26*
%TO.N,UART2_TX*%
X141269400Y-98434500D03*
X71822600Y-93601400D03*
X141325000Y-90420000D03*
%TD*%
D28*
%TO.N,Net-(D6-K)*%
X122073900Y-124613900D02*
X114300000Y-116840000D01*
X132814400Y-124613900D02*
X122073900Y-124613900D01*
X138048300Y-119380000D02*
X132814400Y-124613900D01*
X144780000Y-119380000D02*
X138048300Y-119380000D01*
X149860000Y-114300000D02*
X144780000Y-119380000D01*
%TO.N,Net-(D5-K)*%
X148065300Y-93234700D02*
X149860000Y-91440000D01*
X148065300Y-99060000D02*
X148065300Y-93234700D01*
%TO.N,DATA*%
X114300000Y-106678300D02*
X110398300Y-110580000D01*
X114300000Y-99060000D02*
X114300000Y-106678300D01*
%TO.N,CLK*%
X76435800Y-105616300D02*
X76200000Y-105616300D01*
X82984900Y-99067200D02*
X76435800Y-105616300D01*
X82984900Y-84660000D02*
X82984900Y-99067200D01*
X76200000Y-106680000D02*
X76200000Y-105616300D01*
%TO.N,Net-(J2-Pin_10)*%
X143628300Y-72508300D02*
X144780000Y-73660000D01*
X140851700Y-72508300D02*
X143628300Y-72508300D01*
X139700000Y-73660000D02*
X140851700Y-72508300D01*
X128388300Y-72508300D02*
X129540000Y-73660000D01*
X125611700Y-72508300D02*
X128388300Y-72508300D01*
X124460000Y-73660000D02*
X125611700Y-72508300D01*
X113146500Y-72506500D02*
X114300000Y-73660000D01*
X110373500Y-72506500D02*
X113146500Y-72506500D01*
X109220000Y-73660000D02*
X110373500Y-72506500D01*
X138539000Y-74821000D02*
X139700000Y-73660000D01*
X135781000Y-74821000D02*
X138539000Y-74821000D01*
X134620000Y-73660000D02*
X135781000Y-74821000D01*
X130751500Y-74871500D02*
X129540000Y-73660000D01*
X133408500Y-74871500D02*
X130751500Y-74871500D01*
X134620000Y-73660000D02*
X133408500Y-74871500D01*
%TO.N,Net-(U6-DS)*%
X115462300Y-108057700D02*
X114300000Y-109220000D01*
X115462300Y-97682300D02*
X115462300Y-108057700D01*
X114300000Y-96520000D02*
X115462300Y-97682300D01*
%TO.N,D1*%
X139190700Y-76709300D02*
X139190700Y-84660000D01*
X142240000Y-73660000D02*
X139190700Y-76709300D01*
%TO.N,D2*%
X118483300Y-84716700D02*
X114300000Y-88900000D01*
X118483300Y-76190500D02*
X118483300Y-84716700D01*
%TO.N,D6*%
X111760000Y-78740000D02*
X116840000Y-73660000D01*
X111760000Y-82877400D02*
X111760000Y-78740000D01*
X107007400Y-87630000D02*
X111760000Y-82877400D01*
X106382800Y-87630000D02*
X107007400Y-87630000D01*
X105575800Y-88437000D02*
X106382800Y-87630000D01*
X105575800Y-90335800D02*
X105575800Y-88437000D01*
X106680000Y-91440000D02*
X105575800Y-90335800D01*
%TO.N,D4*%
X110335100Y-76144700D02*
X110335200Y-76144700D01*
X110335100Y-82704900D02*
X110335100Y-76144700D01*
X106680000Y-86360000D02*
X110335100Y-82704900D01*
%TO.N,D7*%
X107782700Y-77637300D02*
X111760000Y-73660000D01*
X107782700Y-84301500D02*
X107782700Y-77637300D01*
X107162500Y-84921700D02*
X107782700Y-84301500D01*
X106527500Y-84921700D02*
X107162500Y-84921700D01*
X105126900Y-86322300D02*
X106527500Y-84921700D01*
X105126900Y-92426900D02*
X105126900Y-86322300D01*
X106680000Y-93980000D02*
X105126900Y-92426900D01*
%TO.N,D3*%
X116347200Y-84312800D02*
X114300000Y-86360000D01*
X116347200Y-77438200D02*
X116347200Y-84312800D01*
X118298500Y-75486900D02*
X116347200Y-77438200D01*
X119212400Y-75486900D02*
X118298500Y-75486900D01*
X120672200Y-74027100D02*
X119212400Y-75486900D01*
X120672200Y-73262600D02*
X120672200Y-74027100D01*
X121864100Y-72070700D02*
X120672200Y-73262600D01*
X130490700Y-72070700D02*
X121864100Y-72070700D01*
X132080000Y-73660000D02*
X130490700Y-72070700D01*
%TO.N,D5*%
X121072400Y-74507600D02*
X121920000Y-73660000D01*
X121072400Y-84660000D02*
X121072400Y-74507600D01*
D29*
%TO.N,+12V*%
X41271700Y-94691700D02*
X41660000Y-95080000D01*
X41271700Y-81280000D02*
X41271700Y-94691700D01*
X39370000Y-81280000D02*
X41271700Y-81280000D01*
X51876000Y-120650000D02*
X57160000Y-120650000D01*
X41660000Y-110434000D02*
X51876000Y-120650000D01*
X41660000Y-95080000D02*
X41660000Y-110434000D01*
X124399700Y-106494300D02*
X124399700Y-98652800D01*
X122578000Y-108316000D02*
X124399700Y-106494300D01*
X122578000Y-120032100D02*
X122578000Y-108316000D01*
X125735900Y-123190000D02*
X122578000Y-120032100D01*
X130820000Y-123190000D02*
X125735900Y-123190000D01*
D28*
%TO.N,D0*%
X120467400Y-87812600D02*
X114300000Y-93980000D01*
X120467400Y-76875200D02*
X120467400Y-87812600D01*
D29*
%TO.N,/M3-2B*%
X49858400Y-106800000D02*
X50010000Y-106800000D01*
X48132000Y-108526400D02*
X49858400Y-106800000D01*
X48132000Y-115065100D02*
X48132000Y-108526400D01*
X49121100Y-116054200D02*
X48132000Y-115065100D01*
X54974100Y-116054200D02*
X49121100Y-116054200D01*
X55458300Y-115570000D02*
X54974100Y-116054200D01*
X57160000Y-115570000D02*
X55458300Y-115570000D01*
%TO.N,/M3-2A*%
X51886700Y-109458400D02*
X55458300Y-113030000D01*
X51886700Y-109300000D02*
X51886700Y-109458400D01*
X57160000Y-113030000D02*
X55458300Y-113030000D01*
X50010000Y-109300000D02*
X51886700Y-109300000D01*
D28*
%TO.N,DIR_2*%
X101816000Y-102663700D02*
X101600000Y-102663700D01*
X103692300Y-104540000D02*
X101816000Y-102663700D01*
X103692300Y-124210000D02*
X103692300Y-104540000D01*
X101600000Y-101600000D02*
X101600000Y-102663700D01*
%TO.N,STEP_2*%
X101600000Y-93980000D02*
X101600000Y-95043700D01*
X109608700Y-124980000D02*
X109608700Y-109808000D01*
X103076300Y-103275600D02*
X109608700Y-109808000D01*
X101835800Y-95043700D02*
X101600000Y-95043700D01*
X103076300Y-96284200D02*
X101835800Y-95043700D01*
X103076300Y-103275600D02*
X103076300Y-96284200D01*
D29*
%TO.N,/M2-1A*%
X126336700Y-115811600D02*
X129118300Y-113030000D01*
X126336700Y-116800000D02*
X126336700Y-115811600D01*
X130820000Y-113030000D02*
X129118300Y-113030000D01*
X124460000Y-116800000D02*
X126336700Y-116800000D01*
D28*
%TO.N,STEP_3*%
X76200000Y-99060000D02*
X76200000Y-100123700D01*
X69860000Y-118110000D02*
X69860000Y-117008300D01*
X70088300Y-117008300D02*
X69860000Y-117008300D01*
X74520500Y-112576100D02*
X70088300Y-117008300D01*
X74520500Y-101537300D02*
X74520500Y-112576100D01*
X75934100Y-100123700D02*
X74520500Y-101537300D01*
X76200000Y-100123700D02*
X75934100Y-100123700D01*
%TO.N,DIR_3*%
X70088300Y-119548300D02*
X69860000Y-119548300D01*
X74922200Y-114714400D02*
X70088300Y-119548300D01*
X74922200Y-103687300D02*
X74922200Y-114714400D01*
X75945800Y-102663700D02*
X74922200Y-103687300D01*
X76200000Y-102663700D02*
X75945800Y-102663700D01*
X76200000Y-101600000D02*
X76200000Y-102663700D01*
X69860000Y-120650000D02*
X69860000Y-119548300D01*
D29*
%TO.N,/M1-2B*%
X53855700Y-85595700D02*
X57160000Y-88900000D01*
X53855700Y-85085400D02*
X53855700Y-85595700D01*
X50130300Y-81360000D02*
X53855700Y-85085400D01*
X50010000Y-81360000D02*
X50130300Y-81360000D01*
D28*
%TO.N,UART2_TX*%
X143520000Y-115570000D02*
X143520000Y-114468300D01*
X69860000Y-113030000D02*
X69860000Y-111928300D01*
X76200000Y-93980000D02*
X76200000Y-95043700D01*
X69997700Y-111928300D02*
X69860000Y-111928300D01*
X74118800Y-107807200D02*
X69997700Y-111928300D01*
X74118800Y-96889100D02*
X74118800Y-107807200D01*
X75964200Y-95043700D02*
X74118800Y-96889100D01*
X76200000Y-95043700D02*
X75964200Y-95043700D01*
X70088300Y-87461700D02*
X69860000Y-87461700D01*
X71822600Y-89196000D02*
X70088300Y-87461700D01*
X71822600Y-93601400D02*
X71822600Y-89196000D01*
X69860000Y-86360000D02*
X69860000Y-87461700D01*
X143382300Y-114468300D02*
X143520000Y-114468300D01*
X141269400Y-112355400D02*
X143382300Y-114468300D01*
X141269400Y-98434500D02*
X141269400Y-112355400D01*
X141325000Y-98378900D02*
X141325000Y-90420000D01*
X141269400Y-98434500D02*
X141325000Y-98378900D01*
D29*
%TO.N,/M4-1A*%
X122582300Y-91439000D02*
X122583300Y-91440000D01*
X122582300Y-85362700D02*
X122582300Y-91439000D01*
X123257700Y-84687300D02*
X122582300Y-85362700D01*
X126175600Y-84687300D02*
X123257700Y-84687300D01*
X129118300Y-87630000D02*
X126175600Y-84687300D01*
X130820000Y-87630000D02*
X129118300Y-87630000D01*
X124460000Y-91440000D02*
X122583300Y-91440000D01*
D28*
%TO.N,EN_DRV*%
X69860000Y-102870000D02*
X69860000Y-101768300D01*
X76200000Y-88900000D02*
X76200000Y-89963700D01*
X69860000Y-76200000D02*
X69860000Y-77301700D01*
X75964200Y-89963700D02*
X76200000Y-89963700D01*
X72788900Y-86788400D02*
X75964200Y-89963700D01*
X72788900Y-80092900D02*
X72788900Y-86788400D01*
X69997700Y-77301700D02*
X72788900Y-80092900D01*
X69860000Y-77301700D02*
X69997700Y-77301700D01*
X72424300Y-93503600D02*
X75964200Y-89963700D01*
X72424300Y-99204000D02*
X72424300Y-93503600D01*
X69860000Y-101768300D02*
X72424300Y-99204000D01*
X142934300Y-81111700D02*
X143520000Y-81111700D01*
X142080200Y-81965800D02*
X142934300Y-81111700D01*
X142080200Y-102868500D02*
X142080200Y-81965800D01*
X143520000Y-104308300D02*
X142080200Y-102868500D01*
X143520000Y-80010000D02*
X143520000Y-81111700D01*
X143520000Y-105410000D02*
X143520000Y-104308300D01*
D29*
%TO.N,GND*%
X55450100Y-93149900D02*
X57160000Y-91440000D01*
X55450100Y-99458400D02*
X55450100Y-93149900D01*
X57160000Y-101168300D02*
X55450100Y-99458400D01*
X57160000Y-102870000D02*
X57160000Y-101168300D01*
%TO.N,+3.3V*%
X121920000Y-104140000D02*
X116840000Y-109220000D01*
X121920000Y-101600000D02*
X121920000Y-104140000D01*
X116840000Y-116840000D02*
X116840000Y-109220000D01*
X50800000Y-100751700D02*
X55458300Y-105410000D01*
X50800000Y-99060000D02*
X50800000Y-100751700D01*
X57160000Y-105410000D02*
X55458300Y-105410000D01*
X143520000Y-85090000D02*
X143520000Y-82550000D01*
X145265200Y-108744800D02*
X143520000Y-110490000D01*
X145265200Y-86835200D02*
X145265200Y-108744800D01*
X143520000Y-85090000D02*
X145265200Y-86835200D01*
X55458300Y-78318300D02*
X50800000Y-73660000D01*
X55458300Y-78740000D02*
X55458300Y-78318300D01*
X57160000Y-78740000D02*
X55458300Y-78740000D01*
X50800000Y-94672300D02*
X50800000Y-99060000D01*
X48125700Y-91998000D02*
X50800000Y-94672300D01*
X48125700Y-76906200D02*
X48125700Y-91998000D01*
X50800000Y-74231900D02*
X48125700Y-76906200D01*
X50800000Y-73660000D02*
X50800000Y-74231900D01*
X31760000Y-109182000D02*
X31760000Y-95080000D01*
X36688300Y-114110300D02*
X31760000Y-109182000D01*
X36688300Y-125760900D02*
X36688300Y-114110300D01*
X37927400Y-127000000D02*
X36688300Y-125760900D01*
X38490000Y-127000000D02*
X37927400Y-127000000D01*
X53232000Y-127000000D02*
X49430000Y-127000000D01*
X60665400Y-119566600D02*
X53232000Y-127000000D01*
X60665400Y-114604600D02*
X60665400Y-119566600D01*
X69860000Y-105410000D02*
X60665400Y-114604600D01*
%TO.N,/M4-1B*%
X127492400Y-89382400D02*
X130820000Y-92710000D01*
X127492400Y-89246900D02*
X127492400Y-89382400D01*
X124685500Y-86440000D02*
X127492400Y-89246900D01*
X124460000Y-86440000D02*
X124685500Y-86440000D01*
%TD*%
M02*
