G04 #@! TF.GenerationSoftware,KiCad,Pcbnew,9.0.9-9.0.9~ubuntu24.04.1*
G04 #@! TF.CreationDate,2026-08-19T10:20:23+02:00*
G04 #@! TF.ProjectId,robotArm,726f626f-7441-4726-9d2e-6b696361645f,rev?*
G04 #@! TF.SameCoordinates,Original*
G04 #@! TF.FileFunction,Copper,L4,Bot*
G04 #@! TF.FilePolarity,Positive*
%FSLAX46Y46*%
G04 Gerber Fmt 4.6, Leading zero omitted, Abs format (unit mm)*
G04 Created by KiCad (PCBNEW 9.0.9-9.0.9~ubuntu24.04.1) date 2026-08-19 10:20:23*
%MOMM*%
%LPD*%
G01*
G04 APERTURE LIST*
G04 Aperture macros list*
%AMRoundRect*
0 Rectangle with rounded corners*
0 $1 Rounding radius*
0 $2 $3 $4 $5 $6 $7 $8 $9 X,Y pos of 4 corners*
0 Add a 4 corners polygon primitive as box body*
4,1,4,$2,$3,$4,$5,$6,$7,$8,$9,$2,$3,0*
0 Add four circle primitives for the rounded corners*
1,1,$1+$1,$2,$3*
1,1,$1+$1,$4,$5*
1,1,$1+$1,$6,$7*
1,1,$1+$1,$8,$9*
0 Add four rect primitives between the rounded corners*
20,1,$1+$1,$2,$3,$4,$5,0*
20,1,$1+$1,$4,$5,$6,$7,0*
20,1,$1+$1,$6,$7,$8,$9,0*
20,1,$1+$1,$8,$9,$2,$3,0*%
G04 Aperture macros list end*
%ADD10C,0.300000*%
G04 #@! TA.AperFunction,NonConductor*
%ADD11C,0.300000*%
G04 #@! TD*
G04 #@! TA.AperFunction,ComponentPad*
%ADD12C,1.600000*%
G04 #@! TD*
G04 #@! TA.AperFunction,ComponentPad*
%ADD13R,1.600000X1.600000*%
G04 #@! TD*
G04 #@! TA.AperFunction,ComponentPad*
%ADD14O,1.600000X1.600000*%
G04 #@! TD*
G04 #@! TA.AperFunction,ComponentPad*
%ADD15C,1.400000*%
G04 #@! TD*
G04 #@! TA.AperFunction,ComponentPad*
%ADD16R,1.800000X1.800000*%
G04 #@! TD*
G04 #@! TA.AperFunction,ComponentPad*
%ADD17C,1.800000*%
G04 #@! TD*
G04 #@! TA.AperFunction,ComponentPad*
%ADD18RoundRect,0.190500X0.762000X0.444500X-0.762000X0.444500X-0.762000X-0.444500X0.762000X-0.444500X0*%
G04 #@! TD*
G04 #@! TA.AperFunction,ComponentPad*
%ADD19RoundRect,0.250000X-0.725000X0.600000X-0.725000X-0.600000X0.725000X-0.600000X0.725000X0.600000X0*%
G04 #@! TD*
G04 #@! TA.AperFunction,ComponentPad*
%ADD20O,1.950000X1.700000*%
G04 #@! TD*
G04 #@! TA.AperFunction,ComponentPad*
%ADD21O,1.900000X1.524000*%
G04 #@! TD*
G04 #@! TA.AperFunction,ComponentPad*
%ADD22R,1.700000X1.700000*%
G04 #@! TD*
G04 #@! TA.AperFunction,ComponentPad*
%ADD23C,1.700000*%
G04 #@! TD*
G04 #@! TA.AperFunction,ComponentPad*
%ADD24R,2.000000X4.600000*%
G04 #@! TD*
G04 #@! TA.AperFunction,ComponentPad*
%ADD25O,2.000000X4.200000*%
G04 #@! TD*
G04 #@! TA.AperFunction,ComponentPad*
%ADD26O,4.200000X2.000000*%
G04 #@! TD*
G04 #@! TA.AperFunction,ComponentPad*
%ADD27RoundRect,0.250000X-0.550000X-0.550000X0.550000X-0.550000X0.550000X0.550000X-0.550000X0.550000X0*%
G04 #@! TD*
G04 #@! TA.AperFunction,ViaPad*
%ADD28C,0.600000*%
G04 #@! TD*
G04 #@! TA.AperFunction,Conductor*
%ADD29C,1.200000*%
G04 #@! TD*
G04 #@! TA.AperFunction,Conductor*
%ADD30C,0.200000*%
G04 #@! TD*
G04 APERTURE END LIST*
D10*
D11*
X87450996Y-79225715D02*
X87450996Y-80082858D01*
X88950996Y-79654286D02*
X87450996Y-79654286D01*
X87950996Y-81225715D02*
X88950996Y-81225715D01*
X87950996Y-80582857D02*
X88736710Y-80582857D01*
X88736710Y-80582857D02*
X88879568Y-80654286D01*
X88879568Y-80654286D02*
X88950996Y-80797143D01*
X88950996Y-80797143D02*
X88950996Y-81011429D01*
X88950996Y-81011429D02*
X88879568Y-81154286D01*
X88879568Y-81154286D02*
X88808139Y-81225715D01*
X88950996Y-81940000D02*
X87950996Y-81940000D01*
X88236710Y-81940000D02*
X88093853Y-82011429D01*
X88093853Y-82011429D02*
X88022425Y-82082858D01*
X88022425Y-82082858D02*
X87950996Y-82225715D01*
X87950996Y-82225715D02*
X87950996Y-82368572D01*
X87950996Y-82868571D02*
X88950996Y-82868571D01*
X88093853Y-82868571D02*
X88022425Y-82940000D01*
X88022425Y-82940000D02*
X87950996Y-83082857D01*
X87950996Y-83082857D02*
X87950996Y-83297143D01*
X87950996Y-83297143D02*
X88022425Y-83440000D01*
X88022425Y-83440000D02*
X88165282Y-83511429D01*
X88165282Y-83511429D02*
X88950996Y-83511429D01*
X88950996Y-84225714D02*
X87950996Y-84225714D01*
X87450996Y-84225714D02*
X87522425Y-84154286D01*
X87522425Y-84154286D02*
X87593853Y-84225714D01*
X87593853Y-84225714D02*
X87522425Y-84297143D01*
X87522425Y-84297143D02*
X87450996Y-84225714D01*
X87450996Y-84225714D02*
X87593853Y-84225714D01*
X88950996Y-84940000D02*
X87950996Y-84940000D01*
X88093853Y-84940000D02*
X88022425Y-85011429D01*
X88022425Y-85011429D02*
X87950996Y-85154286D01*
X87950996Y-85154286D02*
X87950996Y-85368572D01*
X87950996Y-85368572D02*
X88022425Y-85511429D01*
X88022425Y-85511429D02*
X88165282Y-85582858D01*
X88165282Y-85582858D02*
X88950996Y-85582858D01*
X88165282Y-85582858D02*
X88022425Y-85654286D01*
X88022425Y-85654286D02*
X87950996Y-85797143D01*
X87950996Y-85797143D02*
X87950996Y-86011429D01*
X87950996Y-86011429D02*
X88022425Y-86154286D01*
X88022425Y-86154286D02*
X88165282Y-86225715D01*
X88165282Y-86225715D02*
X88950996Y-86225715D01*
X88950996Y-87582858D02*
X88165282Y-87582858D01*
X88165282Y-87582858D02*
X88022425Y-87511429D01*
X88022425Y-87511429D02*
X87950996Y-87368572D01*
X87950996Y-87368572D02*
X87950996Y-87082858D01*
X87950996Y-87082858D02*
X88022425Y-86940000D01*
X88879568Y-87582858D02*
X88950996Y-87440000D01*
X88950996Y-87440000D02*
X88950996Y-87082858D01*
X88950996Y-87082858D02*
X88879568Y-86940000D01*
X88879568Y-86940000D02*
X88736710Y-86868572D01*
X88736710Y-86868572D02*
X88593853Y-86868572D01*
X88593853Y-86868572D02*
X88450996Y-86940000D01*
X88450996Y-86940000D02*
X88379568Y-87082858D01*
X88379568Y-87082858D02*
X88379568Y-87440000D01*
X88379568Y-87440000D02*
X88308139Y-87582858D01*
X87950996Y-88082858D02*
X87950996Y-88654286D01*
X87450996Y-88297143D02*
X88736710Y-88297143D01*
X88736710Y-88297143D02*
X88879568Y-88368572D01*
X88879568Y-88368572D02*
X88950996Y-88511429D01*
X88950996Y-88511429D02*
X88950996Y-88654286D01*
X88950996Y-89368572D02*
X88879568Y-89225715D01*
X88879568Y-89225715D02*
X88808139Y-89154286D01*
X88808139Y-89154286D02*
X88665282Y-89082858D01*
X88665282Y-89082858D02*
X88236710Y-89082858D01*
X88236710Y-89082858D02*
X88093853Y-89154286D01*
X88093853Y-89154286D02*
X88022425Y-89225715D01*
X88022425Y-89225715D02*
X87950996Y-89368572D01*
X87950996Y-89368572D02*
X87950996Y-89582858D01*
X87950996Y-89582858D02*
X88022425Y-89725715D01*
X88022425Y-89725715D02*
X88093853Y-89797144D01*
X88093853Y-89797144D02*
X88236710Y-89868572D01*
X88236710Y-89868572D02*
X88665282Y-89868572D01*
X88665282Y-89868572D02*
X88808139Y-89797144D01*
X88808139Y-89797144D02*
X88879568Y-89725715D01*
X88879568Y-89725715D02*
X88950996Y-89582858D01*
X88950996Y-89582858D02*
X88950996Y-89368572D01*
X88950996Y-90511429D02*
X87950996Y-90511429D01*
X88236710Y-90511429D02*
X88093853Y-90582858D01*
X88093853Y-90582858D02*
X88022425Y-90654287D01*
X88022425Y-90654287D02*
X87950996Y-90797144D01*
X87950996Y-90797144D02*
X87950996Y-90940001D01*
X88808139Y-93440000D02*
X88879568Y-93368572D01*
X88879568Y-93368572D02*
X88950996Y-93154286D01*
X88950996Y-93154286D02*
X88950996Y-93011429D01*
X88950996Y-93011429D02*
X88879568Y-92797143D01*
X88879568Y-92797143D02*
X88736710Y-92654286D01*
X88736710Y-92654286D02*
X88593853Y-92582857D01*
X88593853Y-92582857D02*
X88308139Y-92511429D01*
X88308139Y-92511429D02*
X88093853Y-92511429D01*
X88093853Y-92511429D02*
X87808139Y-92582857D01*
X87808139Y-92582857D02*
X87665282Y-92654286D01*
X87665282Y-92654286D02*
X87522425Y-92797143D01*
X87522425Y-92797143D02*
X87450996Y-93011429D01*
X87450996Y-93011429D02*
X87450996Y-93154286D01*
X87450996Y-93154286D02*
X87522425Y-93368572D01*
X87522425Y-93368572D02*
X87593853Y-93440000D01*
X87950996Y-93940000D02*
X88950996Y-94297143D01*
X87950996Y-94654286D02*
X88950996Y-94297143D01*
X88950996Y-94297143D02*
X89308139Y-94154286D01*
X89308139Y-94154286D02*
X89379568Y-94082857D01*
X89379568Y-94082857D02*
X89450996Y-93940000D01*
X88950996Y-95225714D02*
X87450996Y-95225714D01*
X88022425Y-95225714D02*
X87950996Y-95368572D01*
X87950996Y-95368572D02*
X87950996Y-95654286D01*
X87950996Y-95654286D02*
X88022425Y-95797143D01*
X88022425Y-95797143D02*
X88093853Y-95868572D01*
X88093853Y-95868572D02*
X88236710Y-95940000D01*
X88236710Y-95940000D02*
X88665282Y-95940000D01*
X88665282Y-95940000D02*
X88808139Y-95868572D01*
X88808139Y-95868572D02*
X88879568Y-95797143D01*
X88879568Y-95797143D02*
X88950996Y-95654286D01*
X88950996Y-95654286D02*
X88950996Y-95368572D01*
X88950996Y-95368572D02*
X88879568Y-95225714D01*
X88879568Y-97154286D02*
X88950996Y-97011429D01*
X88950996Y-97011429D02*
X88950996Y-96725715D01*
X88950996Y-96725715D02*
X88879568Y-96582857D01*
X88879568Y-96582857D02*
X88736710Y-96511429D01*
X88736710Y-96511429D02*
X88165282Y-96511429D01*
X88165282Y-96511429D02*
X88022425Y-96582857D01*
X88022425Y-96582857D02*
X87950996Y-96725715D01*
X87950996Y-96725715D02*
X87950996Y-97011429D01*
X87950996Y-97011429D02*
X88022425Y-97154286D01*
X88022425Y-97154286D02*
X88165282Y-97225715D01*
X88165282Y-97225715D02*
X88308139Y-97225715D01*
X88308139Y-97225715D02*
X88450996Y-96511429D01*
X88950996Y-97868571D02*
X87950996Y-97868571D01*
X88236710Y-97868571D02*
X88093853Y-97940000D01*
X88093853Y-97940000D02*
X88022425Y-98011429D01*
X88022425Y-98011429D02*
X87950996Y-98154286D01*
X87950996Y-98154286D02*
X87950996Y-98297143D01*
X88950996Y-99440000D02*
X87450996Y-99440000D01*
X88879568Y-99440000D02*
X88950996Y-99297142D01*
X88950996Y-99297142D02*
X88950996Y-99011428D01*
X88950996Y-99011428D02*
X88879568Y-98868571D01*
X88879568Y-98868571D02*
X88808139Y-98797142D01*
X88808139Y-98797142D02*
X88665282Y-98725714D01*
X88665282Y-98725714D02*
X88236710Y-98725714D01*
X88236710Y-98725714D02*
X88093853Y-98797142D01*
X88093853Y-98797142D02*
X88022425Y-98868571D01*
X88022425Y-98868571D02*
X87950996Y-99011428D01*
X87950996Y-99011428D02*
X87950996Y-99297142D01*
X87950996Y-99297142D02*
X88022425Y-99440000D01*
X88879568Y-100725714D02*
X88950996Y-100582857D01*
X88950996Y-100582857D02*
X88950996Y-100297143D01*
X88950996Y-100297143D02*
X88879568Y-100154285D01*
X88879568Y-100154285D02*
X88736710Y-100082857D01*
X88736710Y-100082857D02*
X88165282Y-100082857D01*
X88165282Y-100082857D02*
X88022425Y-100154285D01*
X88022425Y-100154285D02*
X87950996Y-100297143D01*
X87950996Y-100297143D02*
X87950996Y-100582857D01*
X87950996Y-100582857D02*
X88022425Y-100725714D01*
X88022425Y-100725714D02*
X88165282Y-100797143D01*
X88165282Y-100797143D02*
X88308139Y-100797143D01*
X88308139Y-100797143D02*
X88450996Y-100082857D01*
X88950996Y-101654285D02*
X88879568Y-101511428D01*
X88879568Y-101511428D02*
X88736710Y-101439999D01*
X88736710Y-101439999D02*
X87450996Y-101439999D01*
X88950996Y-102225713D02*
X87950996Y-102225713D01*
X87450996Y-102225713D02*
X87522425Y-102154285D01*
X87522425Y-102154285D02*
X87593853Y-102225713D01*
X87593853Y-102225713D02*
X87522425Y-102297142D01*
X87522425Y-102297142D02*
X87450996Y-102225713D01*
X87450996Y-102225713D02*
X87593853Y-102225713D01*
X88950996Y-102797142D02*
X87950996Y-103582857D01*
X87950996Y-102797142D02*
X88950996Y-103582857D01*
X91937341Y-80940000D02*
X91865912Y-80868571D01*
X91865912Y-80868571D02*
X91651626Y-80725714D01*
X91651626Y-80725714D02*
X91508769Y-80654286D01*
X91508769Y-80654286D02*
X91294484Y-80582857D01*
X91294484Y-80582857D02*
X90937341Y-80511428D01*
X90937341Y-80511428D02*
X90651626Y-80511428D01*
X90651626Y-80511428D02*
X90294484Y-80582857D01*
X90294484Y-80582857D02*
X90080198Y-80654286D01*
X90080198Y-80654286D02*
X89937341Y-80725714D01*
X89937341Y-80725714D02*
X89723055Y-80868571D01*
X89723055Y-80868571D02*
X89651626Y-80940000D01*
X91223055Y-82368571D02*
X91294484Y-82297143D01*
X91294484Y-82297143D02*
X91365912Y-82082857D01*
X91365912Y-82082857D02*
X91365912Y-81940000D01*
X91365912Y-81940000D02*
X91294484Y-81725714D01*
X91294484Y-81725714D02*
X91151626Y-81582857D01*
X91151626Y-81582857D02*
X91008769Y-81511428D01*
X91008769Y-81511428D02*
X90723055Y-81440000D01*
X90723055Y-81440000D02*
X90508769Y-81440000D01*
X90508769Y-81440000D02*
X90223055Y-81511428D01*
X90223055Y-81511428D02*
X90080198Y-81582857D01*
X90080198Y-81582857D02*
X89937341Y-81725714D01*
X89937341Y-81725714D02*
X89865912Y-81940000D01*
X89865912Y-81940000D02*
X89865912Y-82082857D01*
X89865912Y-82082857D02*
X89937341Y-82297143D01*
X89937341Y-82297143D02*
X90008769Y-82368571D01*
X91937341Y-82868571D02*
X91865912Y-82940000D01*
X91865912Y-82940000D02*
X91651626Y-83082857D01*
X91651626Y-83082857D02*
X91508769Y-83154286D01*
X91508769Y-83154286D02*
X91294484Y-83225714D01*
X91294484Y-83225714D02*
X90937341Y-83297143D01*
X90937341Y-83297143D02*
X90651626Y-83297143D01*
X90651626Y-83297143D02*
X90294484Y-83225714D01*
X90294484Y-83225714D02*
X90080198Y-83154286D01*
X90080198Y-83154286D02*
X89937341Y-83082857D01*
X89937341Y-83082857D02*
X89723055Y-82940000D01*
X89723055Y-82940000D02*
X89651626Y-82868571D01*
X89865912Y-85582857D02*
X90937341Y-85582857D01*
X90937341Y-85582857D02*
X91151626Y-85511428D01*
X91151626Y-85511428D02*
X91294484Y-85368571D01*
X91294484Y-85368571D02*
X91365912Y-85154285D01*
X91365912Y-85154285D02*
X91365912Y-85011428D01*
X91365912Y-86940000D02*
X90580198Y-86940000D01*
X90580198Y-86940000D02*
X90437341Y-86868571D01*
X90437341Y-86868571D02*
X90365912Y-86725714D01*
X90365912Y-86725714D02*
X90365912Y-86440000D01*
X90365912Y-86440000D02*
X90437341Y-86297142D01*
X91294484Y-86940000D02*
X91365912Y-86797142D01*
X91365912Y-86797142D02*
X91365912Y-86440000D01*
X91365912Y-86440000D02*
X91294484Y-86297142D01*
X91294484Y-86297142D02*
X91151626Y-86225714D01*
X91151626Y-86225714D02*
X91008769Y-86225714D01*
X91008769Y-86225714D02*
X90865912Y-86297142D01*
X90865912Y-86297142D02*
X90794484Y-86440000D01*
X90794484Y-86440000D02*
X90794484Y-86797142D01*
X90794484Y-86797142D02*
X90723055Y-86940000D01*
X90365912Y-87654285D02*
X91365912Y-87654285D01*
X90508769Y-87654285D02*
X90437341Y-87725714D01*
X90437341Y-87725714D02*
X90365912Y-87868571D01*
X90365912Y-87868571D02*
X90365912Y-88082857D01*
X90365912Y-88082857D02*
X90437341Y-88225714D01*
X90437341Y-88225714D02*
X90580198Y-88297143D01*
X90580198Y-88297143D02*
X91365912Y-88297143D01*
X90937341Y-90082857D02*
X90937341Y-90797143D01*
X91365912Y-89940000D02*
X89865912Y-90440000D01*
X89865912Y-90440000D02*
X91365912Y-90940000D01*
X90365912Y-91225714D02*
X90365912Y-91797142D01*
X89865912Y-91439999D02*
X91151626Y-91439999D01*
X91151626Y-91439999D02*
X91294484Y-91511428D01*
X91294484Y-91511428D02*
X91365912Y-91654285D01*
X91365912Y-91654285D02*
X91365912Y-91797142D01*
X91365912Y-92511428D02*
X91294484Y-92368571D01*
X91294484Y-92368571D02*
X91151626Y-92297142D01*
X91151626Y-92297142D02*
X89865912Y-92297142D01*
X91294484Y-93654285D02*
X91365912Y-93511428D01*
X91365912Y-93511428D02*
X91365912Y-93225714D01*
X91365912Y-93225714D02*
X91294484Y-93082856D01*
X91294484Y-93082856D02*
X91151626Y-93011428D01*
X91151626Y-93011428D02*
X90580198Y-93011428D01*
X90580198Y-93011428D02*
X90437341Y-93082856D01*
X90437341Y-93082856D02*
X90365912Y-93225714D01*
X90365912Y-93225714D02*
X90365912Y-93511428D01*
X90365912Y-93511428D02*
X90437341Y-93654285D01*
X90437341Y-93654285D02*
X90580198Y-93725714D01*
X90580198Y-93725714D02*
X90723055Y-93725714D01*
X90723055Y-93725714D02*
X90865912Y-93011428D01*
X91365912Y-96368570D02*
X90651626Y-95868570D01*
X91365912Y-95511427D02*
X89865912Y-95511427D01*
X89865912Y-95511427D02*
X89865912Y-96082856D01*
X89865912Y-96082856D02*
X89937341Y-96225713D01*
X89937341Y-96225713D02*
X90008769Y-96297142D01*
X90008769Y-96297142D02*
X90151626Y-96368570D01*
X90151626Y-96368570D02*
X90365912Y-96368570D01*
X90365912Y-96368570D02*
X90508769Y-96297142D01*
X90508769Y-96297142D02*
X90580198Y-96225713D01*
X90580198Y-96225713D02*
X90651626Y-96082856D01*
X90651626Y-96082856D02*
X90651626Y-95511427D01*
X91365912Y-97654285D02*
X90580198Y-97654285D01*
X90580198Y-97654285D02*
X90437341Y-97582856D01*
X90437341Y-97582856D02*
X90365912Y-97439999D01*
X90365912Y-97439999D02*
X90365912Y-97154285D01*
X90365912Y-97154285D02*
X90437341Y-97011427D01*
X91294484Y-97654285D02*
X91365912Y-97511427D01*
X91365912Y-97511427D02*
X91365912Y-97154285D01*
X91365912Y-97154285D02*
X91294484Y-97011427D01*
X91294484Y-97011427D02*
X91151626Y-96939999D01*
X91151626Y-96939999D02*
X91008769Y-96939999D01*
X91008769Y-96939999D02*
X90865912Y-97011427D01*
X90865912Y-97011427D02*
X90794484Y-97154285D01*
X90794484Y-97154285D02*
X90794484Y-97511427D01*
X90794484Y-97511427D02*
X90723055Y-97654285D01*
X91365912Y-98368570D02*
X90365912Y-98368570D01*
X90508769Y-98368570D02*
X90437341Y-98439999D01*
X90437341Y-98439999D02*
X90365912Y-98582856D01*
X90365912Y-98582856D02*
X90365912Y-98797142D01*
X90365912Y-98797142D02*
X90437341Y-98939999D01*
X90437341Y-98939999D02*
X90580198Y-99011428D01*
X90580198Y-99011428D02*
X91365912Y-99011428D01*
X90580198Y-99011428D02*
X90437341Y-99082856D01*
X90437341Y-99082856D02*
X90365912Y-99225713D01*
X90365912Y-99225713D02*
X90365912Y-99439999D01*
X90365912Y-99439999D02*
X90437341Y-99582856D01*
X90437341Y-99582856D02*
X90580198Y-99654285D01*
X90580198Y-99654285D02*
X91365912Y-99654285D01*
X91294484Y-100297142D02*
X91365912Y-100439999D01*
X91365912Y-100439999D02*
X91365912Y-100725713D01*
X91365912Y-100725713D02*
X91294484Y-100868570D01*
X91294484Y-100868570D02*
X91151626Y-100939999D01*
X91151626Y-100939999D02*
X91080198Y-100939999D01*
X91080198Y-100939999D02*
X90937341Y-100868570D01*
X90937341Y-100868570D02*
X90865912Y-100725713D01*
X90865912Y-100725713D02*
X90865912Y-100511428D01*
X90865912Y-100511428D02*
X90794484Y-100368570D01*
X90794484Y-100368570D02*
X90651626Y-100297142D01*
X90651626Y-100297142D02*
X90580198Y-100297142D01*
X90580198Y-100297142D02*
X90437341Y-100368570D01*
X90437341Y-100368570D02*
X90365912Y-100511428D01*
X90365912Y-100511428D02*
X90365912Y-100725713D01*
X90365912Y-100725713D02*
X90437341Y-100868570D01*
X91365912Y-101797142D02*
X91294484Y-101654285D01*
X91294484Y-101654285D02*
X91151626Y-101582856D01*
X91151626Y-101582856D02*
X89865912Y-101582856D01*
X91365912Y-102368570D02*
X90365912Y-102368570D01*
X89865912Y-102368570D02*
X89937341Y-102297142D01*
X89937341Y-102297142D02*
X90008769Y-102368570D01*
X90008769Y-102368570D02*
X89937341Y-102439999D01*
X89937341Y-102439999D02*
X89865912Y-102368570D01*
X89865912Y-102368570D02*
X90008769Y-102368570D01*
X92423685Y-88868572D02*
X92352257Y-88940000D01*
X92352257Y-88940000D02*
X92280828Y-89082858D01*
X92280828Y-89082858D02*
X92280828Y-89440000D01*
X92280828Y-89440000D02*
X92352257Y-89582858D01*
X92352257Y-89582858D02*
X92423685Y-89654286D01*
X92423685Y-89654286D02*
X92566542Y-89725715D01*
X92566542Y-89725715D02*
X92709400Y-89725715D01*
X92709400Y-89725715D02*
X92923685Y-89654286D01*
X92923685Y-89654286D02*
X93780828Y-88797143D01*
X93780828Y-88797143D02*
X93780828Y-89725715D01*
X92280828Y-90654286D02*
X92280828Y-90797143D01*
X92280828Y-90797143D02*
X92352257Y-90940000D01*
X92352257Y-90940000D02*
X92423685Y-91011429D01*
X92423685Y-91011429D02*
X92566542Y-91082857D01*
X92566542Y-91082857D02*
X92852257Y-91154286D01*
X92852257Y-91154286D02*
X93209400Y-91154286D01*
X93209400Y-91154286D02*
X93495114Y-91082857D01*
X93495114Y-91082857D02*
X93637971Y-91011429D01*
X93637971Y-91011429D02*
X93709400Y-90940000D01*
X93709400Y-90940000D02*
X93780828Y-90797143D01*
X93780828Y-90797143D02*
X93780828Y-90654286D01*
X93780828Y-90654286D02*
X93709400Y-90511429D01*
X93709400Y-90511429D02*
X93637971Y-90440000D01*
X93637971Y-90440000D02*
X93495114Y-90368571D01*
X93495114Y-90368571D02*
X93209400Y-90297143D01*
X93209400Y-90297143D02*
X92852257Y-90297143D01*
X92852257Y-90297143D02*
X92566542Y-90368571D01*
X92566542Y-90368571D02*
X92423685Y-90440000D01*
X92423685Y-90440000D02*
X92352257Y-90511429D01*
X92352257Y-90511429D02*
X92280828Y-90654286D01*
X92423685Y-91725714D02*
X92352257Y-91797142D01*
X92352257Y-91797142D02*
X92280828Y-91940000D01*
X92280828Y-91940000D02*
X92280828Y-92297142D01*
X92280828Y-92297142D02*
X92352257Y-92440000D01*
X92352257Y-92440000D02*
X92423685Y-92511428D01*
X92423685Y-92511428D02*
X92566542Y-92582857D01*
X92566542Y-92582857D02*
X92709400Y-92582857D01*
X92709400Y-92582857D02*
X92923685Y-92511428D01*
X92923685Y-92511428D02*
X93780828Y-91654285D01*
X93780828Y-91654285D02*
X93780828Y-92582857D01*
X92280828Y-93868571D02*
X92280828Y-93582856D01*
X92280828Y-93582856D02*
X92352257Y-93439999D01*
X92352257Y-93439999D02*
X92423685Y-93368571D01*
X92423685Y-93368571D02*
X92637971Y-93225713D01*
X92637971Y-93225713D02*
X92923685Y-93154285D01*
X92923685Y-93154285D02*
X93495114Y-93154285D01*
X93495114Y-93154285D02*
X93637971Y-93225713D01*
X93637971Y-93225713D02*
X93709400Y-93297142D01*
X93709400Y-93297142D02*
X93780828Y-93439999D01*
X93780828Y-93439999D02*
X93780828Y-93725713D01*
X93780828Y-93725713D02*
X93709400Y-93868571D01*
X93709400Y-93868571D02*
X93637971Y-93939999D01*
X93637971Y-93939999D02*
X93495114Y-94011428D01*
X93495114Y-94011428D02*
X93137971Y-94011428D01*
X93137971Y-94011428D02*
X92995114Y-93939999D01*
X92995114Y-93939999D02*
X92923685Y-93868571D01*
X92923685Y-93868571D02*
X92852257Y-93725713D01*
X92852257Y-93725713D02*
X92852257Y-93439999D01*
X92852257Y-93439999D02*
X92923685Y-93297142D01*
X92923685Y-93297142D02*
X92995114Y-93225713D01*
X92995114Y-93225713D02*
X93137971Y-93154285D01*
D12*
X149860000Y-91440000D03*
X149860000Y-96520000D03*
X83820000Y-127000000D03*
X88900000Y-127000000D03*
D13*
X130820000Y-105410000D03*
D14*
X130820000Y-107950000D03*
X130820000Y-110490000D03*
X130820000Y-113030000D03*
X130820000Y-115570000D03*
X130820000Y-118110000D03*
X130820000Y-120650000D03*
X130820000Y-123190000D03*
X143520000Y-123190000D03*
X143520000Y-120650000D03*
X143520000Y-118110000D03*
X143520000Y-115570000D03*
X143520000Y-113030000D03*
X143520000Y-110490000D03*
X143520000Y-107950000D03*
X143520000Y-105410000D03*
D15*
X116840000Y-109220000D03*
X114300000Y-109220000D03*
D16*
X38490000Y-124460000D03*
D17*
X38490000Y-127000000D03*
D16*
X43960000Y-124460000D03*
D17*
X43960000Y-127000000D03*
D12*
X58420000Y-127000000D03*
X63500000Y-127000000D03*
D18*
X41660000Y-95080000D03*
X39160000Y-95080000D03*
X36660000Y-95080000D03*
X34260000Y-95080000D03*
X31760000Y-95080000D03*
X29260000Y-95080000D03*
D19*
X50010000Y-106800000D03*
D20*
X50010000Y-109300000D03*
X50010000Y-111800000D03*
X50010000Y-114300000D03*
D13*
X57160000Y-102870000D03*
D14*
X57160000Y-105410000D03*
X57160000Y-107950000D03*
X57160000Y-110490000D03*
X57160000Y-113030000D03*
X57160000Y-115570000D03*
X57160000Y-118110000D03*
X57160000Y-120650000D03*
X69860000Y-120650000D03*
X69860000Y-118110000D03*
X69860000Y-115570000D03*
X69860000Y-113030000D03*
X69860000Y-110490000D03*
X69860000Y-107950000D03*
X69860000Y-105410000D03*
X69860000Y-102870000D03*
D12*
X38100000Y-73660000D03*
X43180000Y-73660000D03*
D16*
X33020000Y-124460000D03*
D17*
X33020000Y-127000000D03*
D19*
X124460000Y-111800000D03*
D20*
X124460000Y-114300000D03*
X124460000Y-116800000D03*
X124460000Y-119300000D03*
D21*
X101600040Y-78739987D03*
X101600040Y-81279987D03*
X101600040Y-83819987D03*
X101600040Y-86359987D03*
X101600040Y-88899987D03*
X101600040Y-91439987D03*
X101600040Y-93979987D03*
X101600040Y-96519987D03*
X101600040Y-99059987D03*
X101600040Y-101599987D03*
X101600040Y-104139987D03*
X101600040Y-106679987D03*
X101600040Y-109219987D03*
X101600040Y-111759987D03*
X101600040Y-114299987D03*
X76200040Y-78739987D03*
X76200040Y-81279987D03*
X76200040Y-83819987D03*
X76200040Y-86359987D03*
X76200040Y-88899987D03*
X76200040Y-91439987D03*
X76200040Y-93979987D03*
X76200040Y-96519987D03*
X76200040Y-99059987D03*
X76200040Y-101599987D03*
X76200040Y-104139987D03*
X76200040Y-106679987D03*
X76200040Y-109219987D03*
X76200040Y-111759987D03*
X76200040Y-114299987D03*
D22*
X147320000Y-73660000D03*
D23*
X144780000Y-73660000D03*
X142240000Y-73660000D03*
X139700000Y-73660000D03*
X137160000Y-73660000D03*
X134620000Y-73660000D03*
X132080000Y-73660000D03*
X129540000Y-73660000D03*
X127000000Y-73660000D03*
X124460000Y-73660000D03*
X121920000Y-73660000D03*
X119380000Y-73660000D03*
X116840000Y-73660000D03*
X114300000Y-73660000D03*
X111760000Y-73660000D03*
X109220000Y-73660000D03*
D16*
X48260000Y-99060000D03*
D17*
X50800000Y-99060000D03*
D16*
X114300000Y-116840000D03*
D17*
X116840000Y-116840000D03*
D16*
X48260000Y-73660000D03*
D17*
X50800000Y-73660000D03*
D19*
X50010000Y-81360000D03*
D20*
X50010000Y-83860000D03*
X50010000Y-86360000D03*
X50010000Y-88860000D03*
D24*
X39370000Y-81280000D03*
D25*
X33070000Y-81280000D03*
D26*
X36470000Y-86080000D03*
D16*
X119380000Y-101600000D03*
D17*
X121920000Y-101600000D03*
D12*
X96520000Y-127000000D03*
X101600000Y-127000000D03*
X71120000Y-127000000D03*
X76200000Y-127000000D03*
X149860000Y-114300000D03*
X149860000Y-119380000D03*
D13*
X130820000Y-80010000D03*
D14*
X130820000Y-82550000D03*
X130820000Y-85090000D03*
X130820000Y-87630000D03*
X130820000Y-90170000D03*
X130820000Y-92710000D03*
X130820000Y-95250000D03*
X130820000Y-97790000D03*
X143520000Y-97790000D03*
X143520000Y-95250000D03*
X143520000Y-92710000D03*
X143520000Y-90170000D03*
X143520000Y-87630000D03*
X143520000Y-85090000D03*
X143520000Y-82550000D03*
X143520000Y-80010000D03*
D19*
X124460000Y-86440000D03*
D20*
X124460000Y-88940000D03*
X124460000Y-91440000D03*
X124460000Y-93940000D03*
D16*
X49430000Y-124460000D03*
D17*
X49430000Y-127000000D03*
D13*
X57160000Y-76200000D03*
D14*
X57160000Y-78740000D03*
X57160000Y-81280000D03*
X57160000Y-83820000D03*
X57160000Y-86360000D03*
X57160000Y-88900000D03*
X57160000Y-91440000D03*
X57160000Y-93980000D03*
X69860000Y-93980000D03*
X69860000Y-91440000D03*
X69860000Y-88900000D03*
X69860000Y-86360000D03*
X69860000Y-83820000D03*
X69860000Y-81280000D03*
X69860000Y-78740000D03*
X69860000Y-76200000D03*
D27*
X106680000Y-81280000D03*
D12*
X106680000Y-83820000D03*
X106680000Y-86360000D03*
X106680000Y-88900000D03*
X106680000Y-91440000D03*
X106680000Y-93980000D03*
X106680000Y-96520000D03*
X106680000Y-99060000D03*
X114300000Y-99060000D03*
X114300000Y-96520000D03*
X114300000Y-93980000D03*
X114300000Y-91440000D03*
X114300000Y-88900000D03*
X114300000Y-86360000D03*
X114300000Y-83820000D03*
X114300000Y-81280000D03*
X60960000Y-99060000D03*
X66040000Y-99060000D03*
D28*
X79851000Y-104370600D03*
X106389300Y-123391700D03*
X129262300Y-98250100D03*
X118184100Y-75840900D03*
X121132800Y-84404200D03*
X127074300Y-83833900D03*
X120677500Y-86871100D03*
X133011000Y-87299700D03*
X117362800Y-76585700D03*
X106293600Y-104577100D03*
X113495600Y-107035300D03*
D29*
X122383300Y-94748500D02*
X123526500Y-95891700D01*
X124074800Y-86440000D02*
X122383300Y-88131500D01*
X125736600Y-95891700D02*
X128918300Y-92710000D01*
X124460000Y-86440000D02*
X124074800Y-86440000D01*
X123526500Y-95891700D02*
X125736600Y-95891700D01*
X130820000Y-92710000D02*
X128918300Y-92710000D01*
X122383300Y-88131500D02*
X122383300Y-94748500D01*
D30*
X75934100Y-92916300D02*
X70479500Y-87461700D01*
X69860000Y-86360000D02*
X69860000Y-87461700D01*
X76200000Y-93980000D02*
X76200000Y-92916300D01*
X70479500Y-87461700D02*
X69860000Y-87461700D01*
X76200000Y-92916300D02*
X75934100Y-92916300D01*
D29*
X50010000Y-88860000D02*
X52086700Y-88860000D01*
X52086700Y-88860000D02*
X52086700Y-84451600D01*
X57160000Y-81280000D02*
X55258300Y-81280000D01*
X52086700Y-84451600D02*
X55258300Y-81280000D01*
D30*
X70088300Y-117008300D02*
X69860000Y-117008300D01*
X75934100Y-100123700D02*
X71299800Y-104758000D01*
X76200000Y-99060000D02*
X76200000Y-100123700D01*
X76200000Y-100123700D02*
X75934100Y-100123700D01*
X69860000Y-118110000D02*
X69860000Y-117008300D01*
X71299800Y-115796800D02*
X70088300Y-117008300D01*
X71299800Y-104758000D02*
X71299800Y-115796800D01*
D29*
X59061700Y-101590900D02*
X59061700Y-115570000D01*
X50010000Y-106800000D02*
X55849800Y-100960200D01*
X58431000Y-100960200D02*
X59061700Y-101590900D01*
X57160000Y-115570000D02*
X59061700Y-115570000D01*
X55849800Y-100960200D02*
X58431000Y-100960200D01*
D30*
X127074300Y-78665700D02*
X127074300Y-83833900D01*
X132080000Y-73660000D02*
X127074300Y-78665700D01*
X108119800Y-90000200D02*
X106680000Y-91440000D01*
X116840000Y-73660000D02*
X108119800Y-82380200D01*
X108119800Y-82380200D02*
X108119800Y-90000200D01*
M02*
