G04 #@! TF.GenerationSoftware,KiCad,Pcbnew,9.0.9-9.0.9~ubuntu24.04.1*
G04 #@! TF.CreationDate,2026-08-19T10:20:22+02:00*
G04 #@! TF.ProjectId,robotArm,726f626f-7441-4726-9d2e-6b696361645f,rev?*
G04 #@! TF.SameCoordinates,Original*
G04 #@! TF.FileFunction,Copper,L1,Top*
G04 #@! TF.FilePolarity,Positive*
%FSLAX46Y46*%
G04 Gerber Fmt 4.6, Leading zero omitted, Abs format (unit mm)*
G04 Created by KiCad (PCBNEW 9.0.9-9.0.9~ubuntu24.04.1) date 2026-08-19 10:20:22*
%MOMM*%
%LPD*%
G01*
G04 APERTURE LIST*
G04 Aperture macros list*
%AMRoundRect*
0 Rectangle with rounded corners*
0 $1 Rounding radius*
0 $2 $3 $4 $5 $6 $7 $8 $9 X,Y pos of 4 corners*
0 Add a 4 corners polygon primitive as box body*
4,1,4,$2,$3,$4,$5,$6,$7,$8,$9,$2,$3,0*
0 Add four circle primitives for the rounded corners*
1,1,$1+$1,$2,$3*
1,1,$1+$1,$4,$5*
1,1,$1+$1,$6,$7*
1,1,$1+$1,$8,$9*
0 Add four rect primitives between the rounded corners*
20,1,$1+$1,$2,$3,$4,$5,0*
20,1,$1+$1,$4,$5,$6,$7,0*
20,1,$1+$1,$6,$7,$8,$9,0*
20,1,$1+$1,$8,$9,$2,$3,0*%
G04 Aperture macros list end*
G04 #@! TA.AperFunction,ComponentPad*
%ADD10C,1.600000*%
G04 #@! TD*
G04 #@! TA.AperFunction,ComponentPad*
%ADD11R,1.600000X1.600000*%
G04 #@! TD*
G04 #@! TA.AperFunction,ComponentPad*
%ADD12O,1.600000X1.600000*%
G04 #@! TD*
G04 #@! TA.AperFunction,ComponentPad*
%ADD13C,1.400000*%
G04 #@! TD*
G04 #@! TA.AperFunction,ComponentPad*
%ADD14R,1.800000X1.800000*%
G04 #@! TD*
G04 #@! TA.AperFunction,ComponentPad*
%ADD15C,1.800000*%
G04 #@! TD*
G04 #@! TA.AperFunction,ComponentPad*
%ADD16RoundRect,0.190500X0.762000X0.444500X-0.762000X0.444500X-0.762000X-0.444500X0.762000X-0.444500X0*%
G04 #@! TD*
G04 #@! TA.AperFunction,ComponentPad*
%ADD17RoundRect,0.250000X-0.725000X0.600000X-0.725000X-0.600000X0.725000X-0.600000X0.725000X0.600000X0*%
G04 #@! TD*
G04 #@! TA.AperFunction,ComponentPad*
%ADD18O,1.950000X1.700000*%
G04 #@! TD*
G04 #@! TA.AperFunction,ComponentPad*
%ADD19O,1.900000X1.524000*%
G04 #@! TD*
G04 #@! TA.AperFunction,ComponentPad*
%ADD20R,1.700000X1.700000*%
G04 #@! TD*
G04 #@! TA.AperFunction,ComponentPad*
%ADD21C,1.700000*%
G04 #@! TD*
G04 #@! TA.AperFunction,ComponentPad*
%ADD22R,2.000000X4.600000*%
G04 #@! TD*
G04 #@! TA.AperFunction,ComponentPad*
%ADD23O,2.000000X4.200000*%
G04 #@! TD*
G04 #@! TA.AperFunction,ComponentPad*
%ADD24O,4.200000X2.000000*%
G04 #@! TD*
G04 #@! TA.AperFunction,ComponentPad*
%ADD25RoundRect,0.250000X-0.550000X-0.550000X0.550000X-0.550000X0.550000X0.550000X-0.550000X0.550000X0*%
G04 #@! TD*
G04 #@! TA.AperFunction,ViaPad*
%ADD26C,0.600000*%
G04 #@! TD*
G04 #@! TA.AperFunction,Conductor*
%ADD27C,1.200000*%
G04 #@! TD*
G04 #@! TA.AperFunction,Conductor*
%ADD28C,0.200000*%
G04 #@! TD*
G04 APERTURE END LIST*
D10*
X149860000Y-91440000D03*
X149860000Y-96520000D03*
X83820000Y-127000000D03*
X88900000Y-127000000D03*
D11*
X130820000Y-105410000D03*
D12*
X130820000Y-107950000D03*
X130820000Y-110490000D03*
X130820000Y-113030000D03*
X130820000Y-115570000D03*
X130820000Y-118110000D03*
X130820000Y-120650000D03*
X130820000Y-123190000D03*
X143520000Y-123190000D03*
X143520000Y-120650000D03*
X143520000Y-118110000D03*
X143520000Y-115570000D03*
X143520000Y-113030000D03*
X143520000Y-110490000D03*
X143520000Y-107950000D03*
X143520000Y-105410000D03*
D13*
X116840000Y-109220000D03*
X114300000Y-109220000D03*
D14*
X38490000Y-124460000D03*
D15*
X38490000Y-127000000D03*
D14*
X43960000Y-124460000D03*
D15*
X43960000Y-127000000D03*
D10*
X58420000Y-127000000D03*
X63500000Y-127000000D03*
D16*
X41660000Y-95080000D03*
X39160000Y-95080000D03*
X36660000Y-95080000D03*
X34260000Y-95080000D03*
X31760000Y-95080000D03*
X29260000Y-95080000D03*
D17*
X50010000Y-106800000D03*
D18*
X50010000Y-109300000D03*
X50010000Y-111800000D03*
X50010000Y-114300000D03*
D11*
X57160000Y-102870000D03*
D12*
X57160000Y-105410000D03*
X57160000Y-107950000D03*
X57160000Y-110490000D03*
X57160000Y-113030000D03*
X57160000Y-115570000D03*
X57160000Y-118110000D03*
X57160000Y-120650000D03*
X69860000Y-120650000D03*
X69860000Y-118110000D03*
X69860000Y-115570000D03*
X69860000Y-113030000D03*
X69860000Y-110490000D03*
X69860000Y-107950000D03*
X69860000Y-105410000D03*
X69860000Y-102870000D03*
D10*
X38100000Y-73660000D03*
X43180000Y-73660000D03*
D14*
X33020000Y-124460000D03*
D15*
X33020000Y-127000000D03*
D17*
X124460000Y-111800000D03*
D18*
X124460000Y-114300000D03*
X124460000Y-116800000D03*
X124460000Y-119300000D03*
D19*
X101600040Y-78739987D03*
X101600040Y-81279987D03*
X101600040Y-83819987D03*
X101600040Y-86359987D03*
X101600040Y-88899987D03*
X101600040Y-91439987D03*
X101600040Y-93979987D03*
X101600040Y-96519987D03*
X101600040Y-99059987D03*
X101600040Y-101599987D03*
X101600040Y-104139987D03*
X101600040Y-106679987D03*
X101600040Y-109219987D03*
X101600040Y-111759987D03*
X101600040Y-114299987D03*
X76200040Y-78739987D03*
X76200040Y-81279987D03*
X76200040Y-83819987D03*
X76200040Y-86359987D03*
X76200040Y-88899987D03*
X76200040Y-91439987D03*
X76200040Y-93979987D03*
X76200040Y-96519987D03*
X76200040Y-99059987D03*
X76200040Y-101599987D03*
X76200040Y-104139987D03*
X76200040Y-106679987D03*
X76200040Y-109219987D03*
X76200040Y-111759987D03*
X76200040Y-114299987D03*
D20*
X147320000Y-73660000D03*
D21*
X144780000Y-73660000D03*
X142240000Y-73660000D03*
X139700000Y-73660000D03*
X137160000Y-73660000D03*
X134620000Y-73660000D03*
X132080000Y-73660000D03*
X129540000Y-73660000D03*
X127000000Y-73660000D03*
X124460000Y-73660000D03*
X121920000Y-73660000D03*
X119380000Y-73660000D03*
X116840000Y-73660000D03*
X114300000Y-73660000D03*
X111760000Y-73660000D03*
X109220000Y-73660000D03*
D14*
X48260000Y-99060000D03*
D15*
X50800000Y-99060000D03*
D14*
X114300000Y-116840000D03*
D15*
X116840000Y-116840000D03*
D14*
X48260000Y-73660000D03*
D15*
X50800000Y-73660000D03*
D17*
X50010000Y-81360000D03*
D18*
X50010000Y-83860000D03*
X50010000Y-86360000D03*
X50010000Y-88860000D03*
D22*
X39370000Y-81280000D03*
D23*
X33070000Y-81280000D03*
D24*
X36470000Y-86080000D03*
D14*
X119380000Y-101600000D03*
D15*
X121920000Y-101600000D03*
D10*
X96520000Y-127000000D03*
X101600000Y-127000000D03*
X71120000Y-127000000D03*
X76200000Y-127000000D03*
X149860000Y-114300000D03*
X149860000Y-119380000D03*
D11*
X130820000Y-80010000D03*
D12*
X130820000Y-82550000D03*
X130820000Y-85090000D03*
X130820000Y-87630000D03*
X130820000Y-90170000D03*
X130820000Y-92710000D03*
X130820000Y-95250000D03*
X130820000Y-97790000D03*
X143520000Y-97790000D03*
X143520000Y-95250000D03*
X143520000Y-92710000D03*
X143520000Y-90170000D03*
X143520000Y-87630000D03*
X143520000Y-85090000D03*
X143520000Y-82550000D03*
X143520000Y-80010000D03*
D17*
X124460000Y-86440000D03*
D18*
X124460000Y-88940000D03*
X124460000Y-91440000D03*
X124460000Y-93940000D03*
D14*
X49430000Y-124460000D03*
D15*
X49430000Y-127000000D03*
D11*
X57160000Y-76200000D03*
D12*
X57160000Y-78740000D03*
X57160000Y-81280000D03*
X57160000Y-83820000D03*
X57160000Y-86360000D03*
X57160000Y-88900000D03*
X57160000Y-91440000D03*
X57160000Y-93980000D03*
X69860000Y-93980000D03*
X69860000Y-91440000D03*
X69860000Y-88900000D03*
X69860000Y-86360000D03*
X69860000Y-83820000D03*
X69860000Y-81280000D03*
X69860000Y-78740000D03*
X69860000Y-76200000D03*
D25*
X106680000Y-81280000D03*
D10*
X106680000Y-83820000D03*
X106680000Y-86360000D03*
X106680000Y-88900000D03*
X106680000Y-91440000D03*
X106680000Y-93980000D03*
X106680000Y-96520000D03*
X106680000Y-99060000D03*
X114300000Y-99060000D03*
X114300000Y-96520000D03*
X114300000Y-93980000D03*
X114300000Y-91440000D03*
X114300000Y-88900000D03*
X114300000Y-86360000D03*
X114300000Y-83820000D03*
X114300000Y-81280000D03*
X60960000Y-99060000D03*
X66040000Y-99060000D03*
D26*
X79851000Y-104370600D03*
X106389300Y-123391700D03*
X129262300Y-98250100D03*
X118184100Y-75840900D03*
X121132800Y-84404200D03*
X127074300Y-83833900D03*
X120677500Y-86871100D03*
X133011000Y-87299700D03*
X117362800Y-76585700D03*
X106293600Y-104577100D03*
X113495600Y-107035300D03*
D27*
X125745200Y-84487300D02*
X123174800Y-84487300D01*
X128887900Y-87630000D02*
X125745200Y-84487300D01*
X124460000Y-91440000D02*
X122383300Y-91440000D01*
X122382300Y-91439000D02*
X122383300Y-91440000D01*
X130820000Y-87630000D02*
X128887900Y-87630000D01*
X123174800Y-84487300D02*
X122382300Y-85279800D01*
X122382300Y-85279800D02*
X122382300Y-91439000D01*
X57160000Y-83820000D02*
X55258300Y-83820000D01*
X55258300Y-83820000D02*
X52718300Y-86360000D01*
X52718300Y-86360000D02*
X50010000Y-86360000D01*
D28*
X106680000Y-86360000D02*
X107800000Y-85240000D01*
X119046400Y-85240000D02*
X120677500Y-86871100D01*
X107800000Y-85240000D02*
X119046400Y-85240000D01*
M02*
