ISO-10303-21;
HEADER;
FILE_DESCRIPTION(('FreeCAD Model'),'2;1');
FILE_NAME('Open CASCADE Shape Model','2026-04-13T10:58:47',('Author'),(
    ''),'Open CASCADE STEP processor 7.8','FreeCAD','Unknown');
FILE_SCHEMA(('AUTOMOTIVE_DESIGN { 1 0 10303 214 1 1 1 1 }'));
ENDSEC;
DATA;
#1 = APPLICATION_PROTOCOL_DEFINITION('international standard',
  'automotive_design',2000,#2);
#2 = APPLICATION_CONTEXT(
  'core data for automotive mechanical design processes');
#3 = SHAPE_DEFINITION_REPRESENTATION(#4,#10);
#4 = PRODUCT_DEFINITION_SHAPE('','',#5);
#5 = PRODUCT_DEFINITION('design','',#6,#9);
#6 = PRODUCT_DEFINITION_FORMATION('','',#7);
#7 = PRODUCT('Body','Body','',(#8));
#8 = PRODUCT_CONTEXT('',#2,'mechanical');
#9 = PRODUCT_DEFINITION_CONTEXT('part definition',#2,'design');
#10 = ADVANCED_BREP_SHAPE_REPRESENTATION('',(#11,#15),#363);
#11 = AXIS2_PLACEMENT_3D('',#12,#13,#14);
#12 = CARTESIAN_POINT('',(0.,0.,0.));
#13 = DIRECTION('',(0.,0.,1.));
#14 = DIRECTION('',(1.,0.,-0.));
#15 = MANIFOLD_SOLID_BREP('',#16);
#16 = CLOSED_SHELL('',(#17,#57,#88,#151,#191,#208,#220,#260,#284,#317,
    #334,#351));
#17 = ADVANCED_FACE('',(#18),#52,.F.);
#18 = FACE_BOUND('',#19,.F.);
#19 = EDGE_LOOP('',(#20,#30,#38,#46));
#20 = ORIENTED_EDGE('',*,*,#21,.T.);
#21 = EDGE_CURVE('',#22,#24,#26,.T.);
#22 = VERTEX_POINT('',#23);
#23 = CARTESIAN_POINT('',(-6.294533183287,9.817316,0.));
#24 = VERTEX_POINT('',#25);
#25 = CARTESIAN_POINT('',(-6.294533183287,9.817316,2.));
#26 = LINE('',#27,#28);
#27 = CARTESIAN_POINT('',(-6.294533183287,9.817316,0.));
#28 = VECTOR('',#29,1.);
#29 = DIRECTION('',(0.,0.,1.));
#30 = ORIENTED_EDGE('',*,*,#31,.T.);
#31 = EDGE_CURVE('',#24,#32,#34,.T.);
#32 = VERTEX_POINT('',#33);
#33 = CARTESIAN_POINT('',(-6.294533183287,-15.182684,2.));
#34 = LINE('',#35,#36);
#35 = CARTESIAN_POINT('',(-6.294533183287,9.817316,2.));
#36 = VECTOR('',#37,1.);
#37 = DIRECTION('',(0.,-1.,0.));
#38 = ORIENTED_EDGE('',*,*,#39,.F.);
#39 = EDGE_CURVE('',#40,#32,#42,.T.);
#40 = VERTEX_POINT('',#41);
#41 = CARTESIAN_POINT('',(-6.294533183287,-15.182684,0.));
#42 = LINE('',#43,#44);
#43 = CARTESIAN_POINT('',(-6.294533183287,-15.182684,0.));
#44 = VECTOR('',#45,1.);
#45 = DIRECTION('',(0.,0.,1.));
#46 = ORIENTED_EDGE('',*,*,#47,.F.);
#47 = EDGE_CURVE('',#22,#40,#48,.T.);
#48 = LINE('',#49,#50);
#49 = CARTESIAN_POINT('',(-6.294533183287,9.817316,0.));
#50 = VECTOR('',#51,1.);
#51 = DIRECTION('',(0.,-1.,0.));
#52 = PLANE('',#53);
#53 = AXIS2_PLACEMENT_3D('',#54,#55,#56);
#54 = CARTESIAN_POINT('',(-6.294533183287,9.817316,0.));
#55 = DIRECTION('',(1.,0.,0.));
#56 = DIRECTION('',(0.,-1.,0.));
#57 = ADVANCED_FACE('',(#58),#83,.F.);
#58 = FACE_BOUND('',#59,.F.);
#59 = EDGE_LOOP('',(#60,#70,#76,#77));
#60 = ORIENTED_EDGE('',*,*,#61,.T.);
#61 = EDGE_CURVE('',#62,#64,#66,.T.);
#62 = VERTEX_POINT('',#63);
#63 = CARTESIAN_POINT('',(8.705466816713,9.817316,0.));
#64 = VERTEX_POINT('',#65);
#65 = CARTESIAN_POINT('',(8.705466816713,9.817316,2.));
#66 = LINE('',#67,#68);
#67 = CARTESIAN_POINT('',(8.705466816713,9.817316,0.));
#68 = VECTOR('',#69,1.);
#69 = DIRECTION('',(0.,0.,1.));
#70 = ORIENTED_EDGE('',*,*,#71,.T.);
#71 = EDGE_CURVE('',#64,#24,#72,.T.);
#72 = LINE('',#73,#74);
#73 = CARTESIAN_POINT('',(8.705466816713,9.817316,2.));
#74 = VECTOR('',#75,1.);
#75 = DIRECTION('',(-1.,0.,0.));
#76 = ORIENTED_EDGE('',*,*,#21,.F.);
#77 = ORIENTED_EDGE('',*,*,#78,.F.);
#78 = EDGE_CURVE('',#62,#22,#79,.T.);
#79 = LINE('',#80,#81);
#80 = CARTESIAN_POINT('',(8.705466816713,9.817316,0.));
#81 = VECTOR('',#82,1.);
#82 = DIRECTION('',(-1.,0.,0.));
#83 = PLANE('',#84);
#84 = AXIS2_PLACEMENT_3D('',#85,#86,#87);
#85 = CARTESIAN_POINT('',(8.705466816713,9.817316,0.));
#86 = DIRECTION('',(0.,-1.,0.));
#87 = DIRECTION('',(-1.,0.,0.));
#88 = ADVANCED_FACE('',(#89),#146,.F.);
#89 = FACE_BOUND('',#90,.F.);
#90 = EDGE_LOOP('',(#91,#99,#100,#108,#116,#124,#132,#140));
#91 = ORIENTED_EDGE('',*,*,#92,.F.);
#92 = EDGE_CURVE('',#40,#93,#95,.T.);
#93 = VERTEX_POINT('',#94);
#94 = CARTESIAN_POINT('',(-6.013822174563,-15.182684,0.));
#95 = LINE('',#96,#97);
#96 = CARTESIAN_POINT('',(-6.294533183287,-15.182684,0.));
#97 = VECTOR('',#98,1.);
#98 = DIRECTION('',(1.,0.,0.));
#99 = ORIENTED_EDGE('',*,*,#39,.T.);
#100 = ORIENTED_EDGE('',*,*,#101,.T.);
#101 = EDGE_CURVE('',#32,#102,#104,.T.);
#102 = VERTEX_POINT('',#103);
#103 = CARTESIAN_POINT('',(8.705466816713,-15.182684,2.));
#104 = LINE('',#105,#106);
#105 = CARTESIAN_POINT('',(-6.294533183287,-15.182684,2.));
#106 = VECTOR('',#107,1.);
#107 = DIRECTION('',(1.,0.,0.));
#108 = ORIENTED_EDGE('',*,*,#109,.F.);
#109 = EDGE_CURVE('',#110,#102,#112,.T.);
#110 = VERTEX_POINT('',#111);
#111 = CARTESIAN_POINT('',(8.705466816713,-15.182684,0.));
#112 = LINE('',#113,#114);
#113 = CARTESIAN_POINT('',(8.705466816713,-15.182684,0.));
#114 = VECTOR('',#115,1.);
#115 = DIRECTION('',(0.,0.,1.));
#116 = ORIENTED_EDGE('',*,*,#117,.F.);
#117 = EDGE_CURVE('',#118,#110,#120,.T.);
#118 = VERTEX_POINT('',#119);
#119 = CARTESIAN_POINT('',(8.486177825437,-15.182684,0.));
#120 = LINE('',#121,#122);
#121 = CARTESIAN_POINT('',(-6.294533183287,-15.182684,0.));
#122 = VECTOR('',#123,1.);
#123 = DIRECTION('',(1.,0.,0.));
#124 = ORIENTED_EDGE('',*,*,#125,.T.);
#125 = EDGE_CURVE('',#118,#126,#128,.T.);
#126 = VERTEX_POINT('',#127);
#127 = CARTESIAN_POINT('',(8.486177825437,-15.182684,0.1));
#128 = LINE('',#129,#130);
#129 = CARTESIAN_POINT('',(8.486177825437,-15.182684,-5.E-02));
#130 = VECTOR('',#131,1.);
#131 = DIRECTION('',(0.,0.,1.));
#132 = ORIENTED_EDGE('',*,*,#133,.F.);
#133 = EDGE_CURVE('',#134,#126,#136,.T.);
#134 = VERTEX_POINT('',#135);
#135 = CARTESIAN_POINT('',(-6.013822174563,-15.182684,0.1));
#136 = LINE('',#137,#138);
#137 = CARTESIAN_POINT('',(-2.529177678925,-15.182684,0.1));
#138 = VECTOR('',#139,1.);
#139 = DIRECTION('',(1.,0.,0.));
#140 = ORIENTED_EDGE('',*,*,#141,.T.);
#141 = EDGE_CURVE('',#134,#93,#142,.T.);
#142 = LINE('',#143,#144);
#143 = CARTESIAN_POINT('',(-6.013822174563,-15.182684,-5.E-02));
#144 = VECTOR('',#145,1.);
#145 = DIRECTION('',(0.,0.,-1.));
#146 = PLANE('',#147);
#147 = AXIS2_PLACEMENT_3D('',#148,#149,#150);
#148 = CARTESIAN_POINT('',(-6.294533183287,-15.182684,0.));
#149 = DIRECTION('',(0.,1.,0.));
#150 = DIRECTION('',(1.,0.,0.));
#151 = ADVANCED_FACE('',(#152),#186,.F.);
#152 = FACE_BOUND('',#153,.F.);
#153 = EDGE_LOOP('',(#154,#155,#156,#157,#165,#173,#179,#180));
#154 = ORIENTED_EDGE('',*,*,#78,.T.);
#155 = ORIENTED_EDGE('',*,*,#47,.T.);
#156 = ORIENTED_EDGE('',*,*,#92,.T.);
#157 = ORIENTED_EDGE('',*,*,#158,.T.);
#158 = EDGE_CURVE('',#93,#159,#161,.T.);
#159 = VERTEX_POINT('',#160);
#160 = CARTESIAN_POINT('',(-6.013822174563,-13.91727986709,0.));
#161 = LINE('',#162,#163);
#162 = CARTESIAN_POINT('',(-6.013822174563,-8.299981933545,0.));
#163 = VECTOR('',#164,1.);
#164 = DIRECTION('',(0.,1.,0.));
#165 = ORIENTED_EDGE('',*,*,#166,.T.);
#166 = EDGE_CURVE('',#159,#167,#169,.T.);
#167 = VERTEX_POINT('',#168);
#168 = CARTESIAN_POINT('',(8.486177825437,-13.91727986709,0.));
#169 = LINE('',#170,#171);
#170 = CARTESIAN_POINT('',(4.845822321075,-13.91727986709,0.));
#171 = VECTOR('',#172,1.);
#172 = DIRECTION('',(1.,0.,0.));
#173 = ORIENTED_EDGE('',*,*,#174,.T.);
#174 = EDGE_CURVE('',#167,#118,#175,.T.);
#175 = LINE('',#176,#177);
#176 = CARTESIAN_POINT('',(8.486177825437,-9.449981933545,0.));
#177 = VECTOR('',#178,1.);
#178 = DIRECTION('',(0.,-1.,0.));
#179 = ORIENTED_EDGE('',*,*,#117,.T.);
#180 = ORIENTED_EDGE('',*,*,#181,.T.);
#181 = EDGE_CURVE('',#110,#62,#182,.T.);
#182 = LINE('',#183,#184);
#183 = CARTESIAN_POINT('',(8.705466816713,-15.182684,0.));
#184 = VECTOR('',#185,1.);
#185 = DIRECTION('',(0.,1.,0.));
#186 = PLANE('',#187);
#187 = AXIS2_PLACEMENT_3D('',#188,#189,#190);
#188 = CARTESIAN_POINT('',(1.205466816713,-2.682684,0.));
#189 = DIRECTION('',(0.,0.,1.));
#190 = DIRECTION('',(1.,0.,0.));
#191 = ADVANCED_FACE('',(#192),#203,.T.);
#192 = FACE_BOUND('',#193,.T.);
#193 = EDGE_LOOP('',(#194,#195,#196,#202));
#194 = ORIENTED_EDGE('',*,*,#31,.T.);
#195 = ORIENTED_EDGE('',*,*,#101,.T.);
#196 = ORIENTED_EDGE('',*,*,#197,.T.);
#197 = EDGE_CURVE('',#102,#64,#198,.T.);
#198 = LINE('',#199,#200);
#199 = CARTESIAN_POINT('',(8.705466816713,-15.182684,2.));
#200 = VECTOR('',#201,1.);
#201 = DIRECTION('',(0.,1.,0.));
#202 = ORIENTED_EDGE('',*,*,#71,.T.);
#203 = PLANE('',#204);
#204 = AXIS2_PLACEMENT_3D('',#205,#206,#207);
#205 = CARTESIAN_POINT('',(1.205466816713,-2.682684,2.));
#206 = DIRECTION('',(0.,0.,1.));
#207 = DIRECTION('',(1.,0.,0.));
#208 = ADVANCED_FACE('',(#209),#215,.F.);
#209 = FACE_BOUND('',#210,.F.);
#210 = EDGE_LOOP('',(#211,#212,#213,#214));
#211 = ORIENTED_EDGE('',*,*,#109,.T.);
#212 = ORIENTED_EDGE('',*,*,#197,.T.);
#213 = ORIENTED_EDGE('',*,*,#61,.F.);
#214 = ORIENTED_EDGE('',*,*,#181,.F.);
#215 = PLANE('',#216);
#216 = AXIS2_PLACEMENT_3D('',#217,#218,#219);
#217 = CARTESIAN_POINT('',(8.705466816713,-15.182684,0.));
#218 = DIRECTION('',(-1.,0.,0.));
#219 = DIRECTION('',(0.,1.,0.));
#220 = ADVANCED_FACE('',(#221),#255,.F.);
#221 = FACE_BOUND('',#222,.F.);
#222 = EDGE_LOOP('',(#223,#233,#239,#240,#241,#249));
#223 = ORIENTED_EDGE('',*,*,#224,.F.);
#224 = EDGE_CURVE('',#225,#227,#229,.T.);
#225 = VERTEX_POINT('',#226);
#226 = CARTESIAN_POINT('',(-6.013822174563,-13.91727986709,-0.1));
#227 = VERTEX_POINT('',#228);
#228 = CARTESIAN_POINT('',(-6.013822174563,-16.21727986709,-0.1));
#229 = LINE('',#230,#231);
#230 = CARTESIAN_POINT('',(-6.013822174563,-13.91727986709,-0.1));
#231 = VECTOR('',#232,1.);
#232 = DIRECTION('',(0.,-1.,0.));
#233 = ORIENTED_EDGE('',*,*,#234,.T.);
#234 = EDGE_CURVE('',#225,#159,#235,.T.);
#235 = LINE('',#236,#237);
#236 = CARTESIAN_POINT('',(-6.013822174563,-13.91727986709,-0.1));
#237 = VECTOR('',#238,1.);
#238 = DIRECTION('',(0.,0.,1.));
#239 = ORIENTED_EDGE('',*,*,#158,.F.);
#240 = ORIENTED_EDGE('',*,*,#141,.F.);
#241 = ORIENTED_EDGE('',*,*,#242,.T.);
#242 = EDGE_CURVE('',#134,#243,#245,.T.);
#243 = VERTEX_POINT('',#244);
#244 = CARTESIAN_POINT('',(-6.013822174563,-16.21727986709,0.1));
#245 = LINE('',#246,#247);
#246 = CARTESIAN_POINT('',(-6.013822174563,-13.91727986709,0.1));
#247 = VECTOR('',#248,1.);
#248 = DIRECTION('',(0.,-1.,0.));
#249 = ORIENTED_EDGE('',*,*,#250,.F.);
#250 = EDGE_CURVE('',#227,#243,#251,.T.);
#251 = LINE('',#252,#253);
#252 = CARTESIAN_POINT('',(-6.013822174563,-16.21727986709,-0.1));
#253 = VECTOR('',#254,1.);
#254 = DIRECTION('',(0.,0.,1.));
#255 = PLANE('',#256);
#256 = AXIS2_PLACEMENT_3D('',#257,#258,#259);
#257 = CARTESIAN_POINT('',(-6.013822174563,-13.91727986709,-0.1));
#258 = DIRECTION('',(1.,0.,0.));
#259 = DIRECTION('',(0.,-1.,0.));
#260 = ADVANCED_FACE('',(#261),#279,.T.);
#261 = FACE_BOUND('',#262,.T.);
#262 = EDGE_LOOP('',(#263,#264,#265,#273));
#263 = ORIENTED_EDGE('',*,*,#133,.F.);
#264 = ORIENTED_EDGE('',*,*,#242,.T.);
#265 = ORIENTED_EDGE('',*,*,#266,.T.);
#266 = EDGE_CURVE('',#243,#267,#269,.T.);
#267 = VERTEX_POINT('',#268);
#268 = CARTESIAN_POINT('',(8.486177825437,-16.21727986709,0.1));
#269 = LINE('',#270,#271);
#270 = CARTESIAN_POINT('',(-6.013822174563,-16.21727986709,0.1));
#271 = VECTOR('',#272,1.);
#272 = DIRECTION('',(1.,0.,0.));
#273 = ORIENTED_EDGE('',*,*,#274,.T.);
#274 = EDGE_CURVE('',#267,#126,#275,.T.);
#275 = LINE('',#276,#277);
#276 = CARTESIAN_POINT('',(8.486177825437,-16.21727986709,0.1));
#277 = VECTOR('',#278,1.);
#278 = DIRECTION('',(0.,1.,0.));
#279 = PLANE('',#280);
#280 = AXIS2_PLACEMENT_3D('',#281,#282,#283);
#281 = CARTESIAN_POINT('',(1.236177825437,-15.06727986709,0.1));
#282 = DIRECTION('',(0.,0.,1.));
#283 = DIRECTION('',(1.,0.,0.));
#284 = ADVANCED_FACE('',(#285),#312,.F.);
#285 = FACE_BOUND('',#286,.F.);
#286 = EDGE_LOOP('',(#287,#297,#303,#304,#305,#306));
#287 = ORIENTED_EDGE('',*,*,#288,.F.);
#288 = EDGE_CURVE('',#289,#291,#293,.T.);
#289 = VERTEX_POINT('',#290);
#290 = CARTESIAN_POINT('',(8.486177825437,-16.21727986709,-0.1));
#291 = VERTEX_POINT('',#292);
#292 = CARTESIAN_POINT('',(8.486177825437,-13.91727986709,-0.1));
#293 = LINE('',#294,#295);
#294 = CARTESIAN_POINT('',(8.486177825437,-16.21727986709,-0.1));
#295 = VECTOR('',#296,1.);
#296 = DIRECTION('',(0.,1.,0.));
#297 = ORIENTED_EDGE('',*,*,#298,.T.);
#298 = EDGE_CURVE('',#289,#267,#299,.T.);
#299 = LINE('',#300,#301);
#300 = CARTESIAN_POINT('',(8.486177825437,-16.21727986709,-0.1));
#301 = VECTOR('',#302,1.);
#302 = DIRECTION('',(0.,0.,1.));
#303 = ORIENTED_EDGE('',*,*,#274,.T.);
#304 = ORIENTED_EDGE('',*,*,#125,.F.);
#305 = ORIENTED_EDGE('',*,*,#174,.F.);
#306 = ORIENTED_EDGE('',*,*,#307,.F.);
#307 = EDGE_CURVE('',#291,#167,#308,.T.);
#308 = LINE('',#309,#310);
#309 = CARTESIAN_POINT('',(8.486177825437,-13.91727986709,-0.1));
#310 = VECTOR('',#311,1.);
#311 = DIRECTION('',(0.,0.,1.));
#312 = PLANE('',#313);
#313 = AXIS2_PLACEMENT_3D('',#314,#315,#316);
#314 = CARTESIAN_POINT('',(8.486177825437,-16.21727986709,-0.1));
#315 = DIRECTION('',(-1.,0.,0.));
#316 = DIRECTION('',(0.,1.,0.));
#317 = ADVANCED_FACE('',(#318),#329,.F.);
#318 = FACE_BOUND('',#319,.F.);
#319 = EDGE_LOOP('',(#320,#326,#327,#328));
#320 = ORIENTED_EDGE('',*,*,#321,.F.);
#321 = EDGE_CURVE('',#291,#225,#322,.T.);
#322 = LINE('',#323,#324);
#323 = CARTESIAN_POINT('',(8.486177825437,-13.91727986709,-0.1));
#324 = VECTOR('',#325,1.);
#325 = DIRECTION('',(-1.,0.,0.));
#326 = ORIENTED_EDGE('',*,*,#307,.T.);
#327 = ORIENTED_EDGE('',*,*,#166,.F.);
#328 = ORIENTED_EDGE('',*,*,#234,.F.);
#329 = PLANE('',#330);
#330 = AXIS2_PLACEMENT_3D('',#331,#332,#333);
#331 = CARTESIAN_POINT('',(8.486177825437,-13.91727986709,-0.1));
#332 = DIRECTION('',(0.,-1.,0.));
#333 = DIRECTION('',(-1.,0.,0.));
#334 = ADVANCED_FACE('',(#335),#346,.F.);
#335 = FACE_BOUND('',#336,.F.);
#336 = EDGE_LOOP('',(#337,#338,#344,#345));
#337 = ORIENTED_EDGE('',*,*,#224,.T.);
#338 = ORIENTED_EDGE('',*,*,#339,.T.);
#339 = EDGE_CURVE('',#227,#289,#340,.T.);
#340 = LINE('',#341,#342);
#341 = CARTESIAN_POINT('',(-6.013822174563,-16.21727986709,-0.1));
#342 = VECTOR('',#343,1.);
#343 = DIRECTION('',(1.,0.,0.));
#344 = ORIENTED_EDGE('',*,*,#288,.T.);
#345 = ORIENTED_EDGE('',*,*,#321,.T.);
#346 = PLANE('',#347);
#347 = AXIS2_PLACEMENT_3D('',#348,#349,#350);
#348 = CARTESIAN_POINT('',(1.236177825437,-15.06727986709,-0.1));
#349 = DIRECTION('',(0.,0.,1.));
#350 = DIRECTION('',(1.,0.,0.));
#351 = ADVANCED_FACE('',(#352),#358,.F.);
#352 = FACE_BOUND('',#353,.F.);
#353 = EDGE_LOOP('',(#354,#355,#356,#357));
#354 = ORIENTED_EDGE('',*,*,#250,.T.);
#355 = ORIENTED_EDGE('',*,*,#266,.T.);
#356 = ORIENTED_EDGE('',*,*,#298,.F.);
#357 = ORIENTED_EDGE('',*,*,#339,.F.);
#358 = PLANE('',#359);
#359 = AXIS2_PLACEMENT_3D('',#360,#361,#362);
#360 = CARTESIAN_POINT('',(-6.013822174563,-16.21727986709,-0.1));
#361 = DIRECTION('',(0.,1.,0.));
#362 = DIRECTION('',(1.,0.,0.));
#363 = ( GEOMETRIC_REPRESENTATION_CONTEXT(3) 
GLOBAL_UNCERTAINTY_ASSIGNED_CONTEXT((#367)) GLOBAL_UNIT_ASSIGNED_CONTEXT
((#364,#365,#366)) REPRESENTATION_CONTEXT('Context #1',
  '3D Context with UNIT and UNCERTAINTY') );
#364 = ( LENGTH_UNIT() NAMED_UNIT(*) SI_UNIT(.MILLI.,.METRE.) );
#365 = ( NAMED_UNIT(*) PLANE_ANGLE_UNIT() SI_UNIT($,.RADIAN.) );
#366 = ( NAMED_UNIT(*) SI_UNIT($,.STERADIAN.) SOLID_ANGLE_UNIT() );
#367 = UNCERTAINTY_MEASURE_WITH_UNIT(LENGTH_MEASURE(5.E-06),#364,
  'distance_accuracy_value','confusion accuracy');
#368 = PRODUCT_RELATED_PRODUCT_CATEGORY('part',$,(#7));
#369 = MECHANICAL_DESIGN_GEOMETRIC_PRESENTATION_REPRESENTATION('',(#370)
  ,#363);
#370 = STYLED_ITEM('color',(#371),#15);
#371 = PRESENTATION_STYLE_ASSIGNMENT((#372,#378));
#372 = SURFACE_STYLE_USAGE(.BOTH.,#373);
#373 = SURFACE_SIDE_STYLE('',(#374));
#374 = SURFACE_STYLE_FILL_AREA(#375);
#375 = FILL_AREA_STYLE('',(#376));
#376 = FILL_AREA_STYLE_COLOUR('',#377);
#377 = COLOUR_RGB('',0.800000010877,0.800000010877,0.901960800373);
#378 = CURVE_STYLE('',#379,POSITIVE_LENGTH_MEASURE(0.1),#380);
#379 = DRAUGHTING_PRE_DEFINED_CURVE_FONT('continuous');
#380 = COLOUR_RGB('',9.803921802644E-02,9.803921802644E-02,
  9.803921802644E-02);
ENDSEC;
END-ISO-10303-21;
